<svg xmlns="http://www.w3.org/2000/svg" width="748.77502" height="515.96887" viewBox="0 0 748.77502 515.96887" xmlns:xlink="http://www.w3.org/1999/xlink"><path d="M134.51588,498.18234c-2.06592,.12936-3.20769-2.43738-1.64468-3.93332l.1555-.61819c-.02048-.0495-.04105-.09897-.06178-.14838-2.08923-4.98181-9.16992-4.94742-11.24139,.04178-1.83859,4.42816-4.17942,8.86389-4.75579,13.54593-.25838,2.0668-.14213,4.17236,.31648,6.20047-4.30807-9.41058-6.57515-19.68661-6.57515-30.02078,0-2.59653,.14213-5.19302,.43275-7.78296,.239-2.11853,.56839-4.22409,.99471-6.31033,2.30575-11.27719,7.29852-22.01825,14.50012-30.98962,3.46197-1.89249,6.34907-4.85065,8.09295-8.39651,.6265-1.2789,1.11739-2.65463,1.34991-4.05618-.39398,.05167-1.48557-5.94867-1.18842-6.3168-.54906-.83316-1.53178-1.24734-2.13144-2.06033-2.98232-4.0434-7.0912-3.3374-9.23621,2.15726-4.58224,2.31265-4.62659,6.14807-1.81495,9.83682,1.78878,2.34683,2.03456,5.52234,3.60408,8.03479-.16151,.2067-.32944,.40695-.4909,.61365-2.96106,3.79788-5.52208,7.88-7.68104,12.16858,.61017-4.7662-.29067-10.50821-1.82641-14.20959-1.74819-4.21732-5.02491-7.76917-7.91045-11.41501-3.46601-4.37924-10.57337-2.46805-11.18401,3.08331-.00591,.05374-.01166,.10745-.01731,.16119,.4286,.24179,.84849,.49866,1.25864,.76993,2.33949,1.54724,1.53096,5.17386-1.24107,5.60175l-.06277,.00967c.15503,1.54367,.41984,3.07443,.80734,4.57938-3.70179,14.3158,4.29011,19.52991,15.70147,19.76413,.25191,.12915,.49738,.25833,.74929,.3811-1.15617,3.25525-2.07982,6.59448-2.76441,9.97891-.61359,2.99042-1.03991,6.01318-1.27885,9.04889-.29715,3.83005-.27129,7.6796,.05168,11.50323l-.01939-.13562c-.82024-4.21115-3.10671-8.14462-6.4266-10.87027-4.94561-4.06265-11.93282-5.55869-17.26826-8.82425-2.56833-1.57196-5.85945,.45944-5.41121,3.43707l.02182,.14261c.79443,.32288,1.56947,.69754,2.31871,1.11734,.4286,.24185,.84848,.49866,1.25864,.76993,2.33949,1.5473,1.53096,5.17392-1.24107,5.60181l-.06282,.00964c-.0452,.00647-.08397,.01294-.12911,.01944,1.36282,3.23581,3.26168,6.23923,5.63854,8.82922,2.31463,12.49713,12.25603,13.68283,22.89022,10.04355h.00648c1.16259,5.06378,2.86128,10.01126,5.0444,14.72623h18.0202c.06464-.2002,.12274-.40692,.18089-.60718-1.6664,.10339-3.3457,.00647-4.9863-.297,1.33701-1.64059,2.67397-3.2941,4.01097-4.93463,.03229-.03229,.05817-.06461,.08397-.09689,.67818-.8396,1.36282-1.67282,2.04099-2.51245l.00037-.00101c.04245-2.57755-.26653-5.14661-.87875-7.63983l-.00056-.00034-.00003-.00012Z" fill="#f2f2f2"/><g><polygon points="639.13861 489.96969 629.27802 490.20239 623.78156 445.90243 638.33331 445.55807 639.13861 489.96969" fill="#ffb7b7"/><path d="M605.30817,510.54187h0c0,1.66577,1.18213,3.01617,2.64038,3.01617h19.57245s1.92609-7.74237,9.77905-11.07434l.54199,11.07434h10.09674l-1.22333-17.80704s2.70093-9.52682-2.90833-14.39667c-5.60931-4.86984-1.06598-4.19193-1.06598-4.19193l-2.2066-11.02121-15.25726,1.79416-.11218,17.30072-7.40424,17.17258-10.86023,5.36478c-.96661,.47748-1.59235,1.56543-1.59235,2.7684l-.00012,.00003Z" fill="#2f2e41"/></g><g><polygon points="558.75226 488.33691 548.9574 489.49713 539.31366 445.91165 553.76825 444.19845 558.75226 488.33691" fill="#ffb7b7"/><path d="M527.00946,512.00348h0c.15686,1.65839,1.46094,2.89148,2.91266,2.75415l19.48547-1.84314s1.18842-7.88931,8.69275-11.94604l1.58252,10.97409,10.05182-.95081-2.89478-17.6127s1.79181-9.73883-4.25116-14.05878c-6.04297-4.31995-1.45599-4.07291-1.45599-4.07291l-3.23468-10.76443-15.02051,3.22299,1.51752,17.23441-5.75421,17.79355-10.30676,6.36365c-.91736,.56638-1.43787,1.70844-1.32458,2.90604h0l-.00006-.00006Z" fill="#2f2e41"/></g><path id="b-827" d="M568.82397,80.35291c-1.14679-19.46075-1.68829-36.5596,4-29.34401,0-17.27573,14.00476-31.28049,31.28046-31.28049s31.28052,14.00476,31.28052,31.28049v23.34399c-.00385,2.31799-1.88202,4.19617-4.20001,4.20001l-58.15894,6c-2.31879-.00275-4.19818-1.88124-4.20203-4.19999Z" fill="#2f2e41"/><circle id="c" cx="596.38501" cy="55.26688" r="22.93402" fill="#ffb7b7"/><path id="d-828" d="M565.42401,52.87587c-.31256-16.40216,10.39081-30.53067,24.74402-24.744h4.66901c13.65936,.01541,24.72858,11.08466,24.74402,24.74399l-7.66974,23.73198-2.19727-23.26497-3.36499-9.423-.67297,9.423h-5.09998c-4.39209,.11389-8.75867-.58429-12.93695-1.94261-7.64026-2.48374-14.89435,.17304-22.21515,1.94261v-.467Z" fill="#2f2e41"/><path id="e-829" d="M609.75806,181.30789l-58.39193-2.22197c.40857-2.11279,.19153-5.19391,1.40649-5.36942-1.70007-4.28049,.66962-4.32134,.76515-6.515,.36892-8.47123-1.60045-17.26481-5.43566-26.31561-2.51703-6.992-2.55798-13.00001-.12097-17.844,2.09613-3.98166,5.6178-7.02548,9.86102-8.52301l12.77698-15.43201c3.32837-4.01645,8.23722-12.68363,13.45341-12.65086l28-1c.79999-.48099,10.63173,7.97402,20.20473,12.12203,10.383,4.5,8.24084,16.79582,8.21484,16.95281l-.02399,.147-.11401,.10001-22.08203,18.60001-6.96785,39.2418c.69897,2.02591,.52063,3.54688-.78455,4.41907,1.87781,1.38864,.58789,2.83832-.7616,4.28915l-.00004-.00003v.00002Z" fill="#1b75bb"/><path id="f-830" d="M551.83502,174.98088l-27.51793,82.41255-11.66993,94.50107,18.15338,111.07541,34.32428-5.68304-16.7757-87.26398,20.46497-87.57605,48.59998,174.133,28.36603,.70703-19.31097-200.95001-15.39656-76.90084-59.23747-4.45515v.00002h-.00006Z" fill="#2f2e41"/><path id="g-831" d="M1.24701,515.96887H747.52808c.68872,0,1.24695-.55829,1.24695-1.24701s-.55823-1.24701-1.24695-1.24701H1.24701c-.68869,0-1.24701,.55829-1.24701,1.24701s.55832,1.24701,1.24701,1.24701h0Z" fill="#e6e6e6"/><path d="M320.53409,304.0805h-12.18018v-16.17969h12.18018v16.17969Zm-11.18018-1h10.18018v-14.17969h-10.18018v14.17969Z" fill="#3f3d56"/><path d="M358.87393,304.0805h-12.17969v-16.17969h12.17969v16.17969Zm-11.17969-1h10.17969v-14.17969h-10.17969v14.17969Z" fill="#3f3d56"/><path d="M333.61417,82.82173c-20.53418,0-37.24023-16.70557-37.24023-37.23975s16.70605-37.24023,37.24023-37.24023,37.23975,16.70605,37.23975,37.24023-16.70557,37.23975-37.23975,37.23975Zm0-73.47998c-19.98291,0-36.24023,16.25732-36.24023,36.24023s16.25732,36.23975,36.24023,36.23975,36.23975-16.25732,36.23975-36.23975-16.25732-36.24023-36.23975-36.24023Z" fill="#3f3d56"/><path id="h-832" d="M360.181,23.03587c-2.17291,1.19183-4.56598,1.92816-7.03302,2.164-10.1839,1.39261-20.55426,.22862-30.17603-3.38699-1.58002,3.993-5.40997,6.741-9.51099,8.039-4.10101,1.298-8.45001,1.36301-12.74597,1.42799-.94379,.10643-1.89771-.07446-2.737-.519-1.91498-1.28799-.98499-4.252,.13-6.265l5.53998-10.041c1.63397-2.965,3.32202-5.994,5.85303-8.23399,3.18103-2.813,7.40002-4.133,11.55499-4.966,9.83344-1.95802,19.98602-1.62094,29.66797,.985,10.35504,2.716,23.65302,12.215,9.45703,20.79599Z" fill="#2f2e41"/><ellipse id="i" cx="355.98404" cy="45.58187" rx="3.20001" ry="5.99" fill="#3f3d56"/><ellipse id="j" cx="340.952" cy="45.58187" rx="3.20001" ry="5.99" fill="#3f3d56"/><path d="M293.29581,175.33638l-5.69434-20.99463c-3.5874-26.8584,.12646-45.8501,11.0249-56.51221,11.22656-10.98291,26.27441-8.78516,26.4248-8.7627l.64795,.10107-.26904,.59814c-.12939,.28711-12.98877,28.9126-19.2915,44.66064-6.23096,15.56641,3.8916,39.31738,3.99463,39.55518l.28906,.66943-17.12646,.68506v.00003Zm28.3374-85.4668c-4.94434,0-14.57471,1.10254-22.31787,8.68506-10.65283,10.43164-14.26465,29.13525-10.73584,55.59033l5.47266,20.16016,14.88379-.59521c-1.65967-4.07227-9.59131-25.00195-3.72607-39.65527,5.7915-14.46875,17.10449-39.78125,19.02783-44.07373-.56006-.05176-1.45654-.11133-2.60449-.11133Z" fill="#3f3d56"/><path d="M373.93253,175.33638l-17.12646-.68506,.28906-.66895c.10303-.23828,10.22314-23.99512,3.99463-39.55566-6.30273-15.74805-19.1626-44.37354-19.29199-44.66064l-.26904-.59814,.64795-.10107c.15234-.02295,15.19922-2.21973,26.4248,8.7627,10.89844,10.66211,14.6123,29.65381,11.03809,56.44727l-5.70703,21.05957v-.00003Zm-15.64014-1.62646l14.8833,.59521,5.48584-20.2251c3.51562-26.39014-.09619-45.09375-10.74902-55.52539-9.54004-9.34326-21.94922-8.84961-24.92236-8.57373,1.92383,4.29248,13.23682,29.60498,19.02832,44.07373,5.86475,14.65332-2.06641,35.58301-3.72607,39.65527Z" fill="#3f3d56"/><circle id="k" cx="302.46399" cy="177.37086" r="8.79" fill="#2f2e41"/><circle id="l" cx="365.36401" cy="177.37086" r="8.79" fill="#2f2e41"/><path d="M326.09415,310.43109h-24.13037v-3.24023c0-5.79004,4.71045-10.5,10.5-10.5h3.13037c5.78955,0,10.5,4.70996,10.5,10.5v3.24023Z" fill="#2f2e41"/><path d="M365.2338,310.43109h-24.12988v-3.24023c0-5.79004,4.71045-10.5,10.5-10.5h3.12988c5.78955,0,10.5,4.70996,10.5,10.5v3.24023Z" fill="#2f2e41"/><path id="m-833" d="M253.88,345.42386h159.46802c.147,0,.26599-.55798,.26599-1.24701s-.11899-1.24701-.26599-1.24701H253.88c-.147,0-.26599,.55798-.26599,1.24701s.11899,1.24701,.26599,1.24701Z" fill="#3f3d56"/><g><path d="M601.12456,241.6668c-2.36507,6.08459-7.42119,9.79703-11.29321,8.292-3.87202-1.50503-5.09365-7.65761-2.72857-13.74222,1.03527-2.66343,2.58627-4.87221,4.3278-6.38793l10.34491-25.65647,11.93652,5.11098-11.46499,24.74977c.26068,2.29397-.08719,4.9704-1.12246,7.63384h0Z" fill="#ffb6b6"/><path d="M616.08926,92.27819s26.25067,4.83151,24.95769,16.84595c-1.29298,12.01443-20.23535,77.89289-20.23535,77.89289l-12.48308,42.6032-16.21924-5.47139,12.0203-62.51634,11.95968-69.3543Z" fill="#1b75bb"/></g><path d="M468.1999,129.75006c2.26808,.94114,4.13555,2.31651,5.40391,3.84209l22.17278,7.60081-3.92541,10.44489-22.06943-8.83484c-1.97585,.17943-4.26844-.17141-6.53653-1.11255-5.18143-2.15002-8.27262-6.5659-6.90442-9.86316,1.3682-3.29726,6.67767-4.22727,11.85909-2.07725h.00001Z" fill="#ffb6b6"/><path d="M593.81028,100.05371l.00003,.00003-50.58286,68.27867-59.29382-16.32728,2.57799-15.46795,45.15004,8.55137,25.1887-38.72365c8.22493-15.89896,24.43591-19.10086,36.95992-6.31118Z" fill="#1b75bb"/><path id="n-834" d="M444.74399,121.83174l43.16134,20.08504c.50586,.24025,.72119,.84507,.48097,1.35094-.21984,.46287-.75042,.68897-1.23653,.527l-43.56235-14.90927,1.15657-7.05371Z" fill="#e6e6e6"/><path d="M445.12809,118.99755c3.17881,2.65234,3.89437,7.03931,1.59438,9.79582-2.29998,2.75651-4.82309,4.44118-8.00341,1.78754-2.30348-1.92198-3.06314-3.33723-4.57337-4.2588-2.92967-1.78026-7.05387-3.65852-5.5355-5.47828,1.06348-1.27457,3.98598-2.32655,7.14878-2.83929,3.66734-.58669,7.65686-.43571,9.36913,.99301h-.00001Z" fill="#1b75bb"/><path d="M435.75896,118.00455c1.45827,2.15452,1.38346,5.1006-.36552,7.19674-.37159,.44534-.78539,.81638-1.24775,1.12083-2.92967-1.78026-7.05387-3.65852-5.5355-5.47828,1.06348-1.27457,3.98598-2.32655,7.14878-2.83929h-.00001Z" fill="#3f3d56"/></svg>