<svg xmlns="http://www.w3.org/2000/svg" width="660.67004" height="513.66796" viewBox="0 0 660.67004 513.66796" xmlns:xlink="http://www.w3.org/1999/xlink" role="img" artist="Katerina Limpitsouni" source="https://undraw.co/"><polygon points="476.60745 95.10262 428.21881 95.10262 428.21881 17.88672 476.60745 33.3299 476.60745 95.10262" fill="#2f2e41"/><g><polygon points="485.19781 487.15109 475.21198 487.38674 469.64572 442.52422 484.38226 442.1755 485.19781 487.15109" fill="#a0616a"/><path d="M450.93774,507.98449h0c0,1.68692,1.19714,3.05447,2.67392,3.05447h19.82098s1.95056-7.8407,9.90323-11.21497l.54886,11.21497h10.22495l-1.23886-18.03317s2.73523-9.6478-2.94525-14.5795c-5.68054-4.93167-1.07953-4.24515-1.07953-4.24515l-2.23462-11.16116-15.45102,1.81693-.11362,17.52042-7.49826,17.39066-10.99814,5.43289c-.97888,.48355-1.61258,1.5853-1.61258,2.80356l-.00012,.00003,.00006,.00003Z" fill="#2f2e41"/></g><g><polygon points="434.01981 487.15109 424.034 487.38674 418.46774 442.52422 433.20428 442.1755 434.01981 487.15109" fill="#a0616a"/><path d="M399.75974,507.98449h0c0,1.68692,1.19714,3.05447,2.67392,3.05447h19.82098s1.95056-7.8407,9.90323-11.21497l.54886,11.21497h10.22498l-1.23886-18.03317s2.73523-9.6478-2.94525-14.5795c-5.68054-4.93167-1.07953-4.24515-1.07953-4.24515l-2.23462-11.16116-15.45102,1.81693-.11362,17.52042-7.49826,17.39066-10.99814,5.43289c-.97888,.48355-1.61258,1.5853-1.61258,2.80356l-.00012,.00003,.00003,.00003Z" fill="#2f2e41"/></g><path d="M479.69608,179.52535l-63.83182,38.09319-14.41364,58.6841,7.20682,181.19998h31.60785l7.00009-174.50793,14.01236,174.50793h32.10236l8.11957-195.96588c2.23615-14.24153,.47134-28.82428-5.09747-42.12126l-16.70612-39.89014v.00002Z" fill="#2f2e41"/><path d="M465.28244,63.18671l-26.76819-2.05909-7.20682,14.41364-20.59091,5.14773-5.14774,63.83183c10.18344,26.45763,16.57611,51.74094,10.29544,73.09772l78.24545-4.11818-13.06387-35.32477s-.32022-13.06387,6.8866-30.56615-4.11819-62.80227-4.11819-62.80227l-16.47272-4.11818-2.05908-17.50227h.00003Z" fill="#1b75bb"/><g><path d="M285.04523,88.01722c2.60648,.08077,5.01508-.43385,6.90954-1.35578l24.78147,2.33778,.76745-11.82457-25.22097-1.09834c-1.83374-1.03748-4.20587-1.70024-6.81235-1.781-5.95447-.1845-10.87667,2.73767-10.99407,6.52688s4.61443,7.0105,10.56888,7.19503h.00004Z" fill="#a0616a"/><path d="M431.63758,124.1151s-.87513-37.66936-9.13728-43.3234c-3.40733-2.33173-55.79835-2.86144-57.70688-3.05922-11.7705-1.21982-20.14619-5.89291-30.05665-6.40513-24.15143-1.24822-36.36142,4.61263-36.36142,4.61263l-.4261,12.09401,133.68833,36.08112h0Z" fill="#1b75bb"/></g><circle id="b" cx="449.61813" cy="38.77752" r="21.37412" fill="#a0616a"/><path d="M443.13531,6.9502c-4.59747,2.89805-7.96442,.82321-11.24823,2.2848-6.41595,2.85567-17.2478,22.91289-16.27109,31.31003,1.38333,11.89259,5.75455,12.38228,5.62411,20.91467-.20944,13.70108-1.29807,13.64424,1.50778,18.42823,3.12073,5.3209,20.79678,3.87619,24.07825-3.33932,.64737-1.42351-6.54358-.86368-14.48914-19.53917-3.98712-9.37141-1.36966-17.91088,0-21.62045,.32068-.86851,.46719-7.03431,1.15149-6.35002,6,6,9.36322,1.61404,12.98618,1.11071,7.43539-1.03298,13.03461,4.9656,15.29056,2.81206,1.67871-1.60251-.46268-5.83954,.3515-6.15137,.86807-.33248,3.74231,4.31568,5.62411,9.31494,1.21353,3.22392,1.82028,4.83586,1.75754,6.67864-.19379,5.69077-1.64487,21.82578-4.21591,26.56006-5.55215,10.22368,1.43896,14.08128,5.7977,13.336,3.52148-.60214,19.08893,1.76859,19.94095,.04809,.759-1.53272-.97482-17.29877-2.79672-31.95602-2.18982-17.61713-10.96655-33.80629-24.72836-45.02108-.80704-.65767-1.409-1.10891-1.7308-1.28132-.76224-.40838-8.62128-4.48915-14.4118-1.23027-2.13171,1.19972-1.78458,2.15685-4.21808,3.69082l-.00003-.00003Z" fill="#2f2e41"/><g><polygon points="176.13661 503.83715 164.2775 503.83599 158.63605 458.09316 176.13899 458.09438 176.13661 503.83715" fill="#ffb6b6"/><path d="M135.50577,503.56811h0c-.36925,.62189-.56409,2.62906-.56409,3.35226h0c0,2.22293,1.80202,4.02502,4.02502,4.02502h36.72632c1.51648,0,2.7459-1.22934,2.7459-2.74591v-1.52902s1.8168-4.59555-1.92369-10.2598c0,0-4.64894,4.43521-11.59566-2.51151l-2.04852-3.71106-14.82851,10.84482-8.21921,1.01172c-1.7982,.22131-3.39246-.03436-4.31743,1.52347h-.00014Z" fill="#2f2e41"/></g><g><polygon points="226.13661 503.83715 214.2775 503.83599 208.63605 458.09316 226.13899 458.09438 226.13661 503.83715" fill="#ffb6b6"/><path d="M185.50577,503.56811h0c-.36925,.62189-.56409,2.62906-.56409,3.35226h0c0,2.22293,1.80202,4.02502,4.02502,4.02502h36.72632c1.51648,0,2.7459-1.22934,2.7459-2.74591v-1.52902s1.8168-4.59555-1.92369-10.2598c0,0-4.64894,4.43521-11.59566-2.51151l-2.04852-3.71106-14.82851,10.84482-8.21921,1.01172c-1.7982,.22131-3.39246-.03436-4.31743,1.52347h-.00014Z" fill="#2f2e41"/></g><polygon points="228.48848 215.03898 141.48848 214.03898 132.48848 271.03896 154.48848 468.03896 183.33099 468.03896 189.98848 284.53896 201.98848 471.53896 231.51997 471.53896 244.98848 258.53896 228.48848 215.03898" fill="#2f2e41"/><g><path d="M597.3208,495.98068c2.06592,.12936,3.2077-2.43738,1.64465-3.93332l-.15552-.61819c.02045-.0495,.04108-.09897,.06177-.14838,2.08923-4.98181,9.16992-4.94742,11.24139,.04178,1.83856,4.42816,4.17944,8.86389,4.7558,13.54593,.25836,2.0668,.14215,4.17236-.31647,6.20047,4.30804-9.41058,6.57513-19.68661,6.57513-30.02078,0-2.59653-.14215-5.19302-.43274-7.78296-.23901-2.11853-.56842-4.22409-.99469-6.31033-2.30573-11.27719-7.29852-22.01825-14.50012-30.98962-3.46198-1.89249-6.34906-4.85065-8.09296-8.39651-.62646-1.2789-1.11737-2.65463-1.34991-4.05618,.39398,.05167,1.48553-5.94867,1.18842-6.3168,.54907-.83316,1.5318-1.24734,2.13147-2.06033,2.9823-4.0434,7.09119-3.3374,9.23621,2.15726,4.58221,2.31265,4.62659,6.14807,1.81494,9.83682-1.78876,2.34683-2.03455,5.52234-3.60406,8.03479,.1615,.2067,.32947,.40695,.49091,.61365,2.96106,3.79788,5.52209,7.88,7.68103,12.16858-.61017-4.7662,.29065-10.50821,1.82642-14.20959,1.74817-4.21732,5.0249-7.76917,7.91046-11.41501,3.466-4.37924,10.57336-2.46805,11.18402,3.08331,.00592,.05374,.01166,.10745,.01733,.16119-.42859,.24179-.84851,.49866-1.25867,.76993-2.33948,1.54724-1.53094,5.17386,1.24109,5.60175l.06274,.00967c-.15503,1.54367-.41986,3.07443-.80731,4.57938,3.70178,14.3158-4.2901,19.52991-15.70148,19.76413-.25189,.12915-.49738,.25833-.74927,.3811,1.15619,3.25525,2.07983,6.59448,2.7644,9.97891,.61359,2.99042,1.03992,6.01318,1.27887,9.04889,.29718,3.83005,.2713,7.6796-.0517,11.50323l.01941-.13562c.82025-4.21115,3.10669-8.14462,6.42657-10.87027,4.94562-4.06265,11.9328-5.55869,17.26825-8.82425,2.56836-1.57196,5.85944,.45944,5.41119,3.43707l-.02179,.14261c-.79443,.32288-1.56946,.69754-2.31873,1.11734-.42859,.24185-.84845,.49866-1.25867,.76993-2.33948,1.5473-1.53094,5.17392,1.24109,5.60181l.06281,.00964c.04523,.00647,.08398,.01294,.12909,.01944-1.36279,3.23581-3.26166,6.23923-5.63855,8.82922-2.31464,12.49713-12.25604,13.68283-22.8902,10.04355h-.00647c-1.1626,5.06378-2.86127,10.01126-5.04437,14.72623h-18.0202c-.06464-.20023-.12274-.40692-.18091-.60718,1.66638,.10342,3.3457,.0065,4.98627-.29703-1.33704-1.64059-2.67395-3.2941-4.01099-4.93463-.03229-.03229-.05817-.06461-.08398-.09689-.67816-.8396-1.36279-1.67282-2.04102-2.51245l-.00037-.00101c-.04248-2.57755,.26654-5.14661,.87878-7.63983l.00055-.00034,.00006-.00009Z" fill="#f2f2f2"/><path d="M0,512.47796c0,.66003,.53003,1.19,1.19006,1.19H659.48004c.65997,0,1.19-.52997,1.19-1.19,0-.65997-.53003-1.19-1.19-1.19H1.19006c-.66003,0-1.19006,.53003-1.19006,1.19Z" fill="#ccc"/></g><polygon points="198.98848 65.53897 168.02391 65.53897 161.98848 77.53897 132.48848 91.08621 142.98848 168.53898 134.98848 219.53898 234.92155 219.53898 225.98848 160.53898 237.98848 89.53897 204.98848 76.53897 198.98848 65.53897" fill="#e6e6e6"/><path d="M302.63635,253.22138c-1.35047-2.75524-1.96668-5.58707-1.89691-8.06518l-14.52297-25.43477,12.30503-6.55655,13.40724,26.50697c2.00147,1.46292,3.86228,3.6847,5.21277,6.43994,3.08516,6.29436,2.33906,12.98845-1.66643,14.95171-4.00549,1.96326-9.75355-1.54773-12.83871-7.84209v-.00003Z" fill="#ffb6b6"/><path d="M206.90837,86.12585s9.7973-10.08042,20.78782-3.06555c10.99052,7.01487,51.08317,78.79864,51.08317,78.79864l30.92691,61.71237-21.82984,10.17021-26.33701-59.09482-55.31011-59.5213,.67909-28.99957-.00002,.00002Z" fill="#e6e6e6"/><circle cx="182.19489" cy="31.72918" r="27.96054" fill="#ffb6b6"/><path d="M173.42004,54.23213c.12943,2.73928,.19415,4.10893-.2267,4.27447-1.26678,.49829-17.57945-9.13559-19.50031-15.5487-.89589-2.99112-.13937-3.05075-.7933-11.56027-.62544-8.13874-1.32661-8.2036-.49765-10.21717,.92139-2.238,3.73517-4.99537,9.36273-10.51014,2.12782-2.08517,3.19174-3.12776,3.86336-3.66681,2.03552-1.63376,9.61858-7.72008,16.57198-6.93375,2.9146,.32961,2.41647,1.49329,13.30482,7.39793,.93784,.50858,2.19548,1.17994,3.93233,1.95076,4.22417,1.87472,6.84479,2.36074,8.22437,2.88354,8.36092,3.16845,5.90727,20.81824,5.1888,20.91941-.26189,.03688-.33296-2.25184-1.70499-2.44106-1.23499-.17032-2.02139,1.56761-3.14391,1.63086-3.06528,.17273,.33879-2.76164-7.1635-6.02074-2.9165-1.26696,5.19873,4.44557-2.5266,4.35285-12.08104-.14501-4.35448,.6239-8.94247,3.03394-3.34595,1.75761-16.80617-7.91495-16.25926-4.82419,.38574,2.18,1.96767,2.80764,1.73946,5.24985-.22108,2.36604-1.99922,4.91621-3.5677,5.00992-1.44562,.08636-2.23788-1.94234-2.72009-1.74821-.52454,.21117,.05157,2.75692,1.18263,5.37242,1.43588,3.32038,2.29295,3.3464,3.05023,5.9001,.43558,1.46882,.49896,2.81088,.62579,5.495h-.00002Z" fill="#2f2e41"/><path d="M393.7945,245.01136l-180.15781-45.83693c-11.5164-2.93008-18.50203-14.68339-15.57195-26.19979l22.41268-88.09098c2.93008-11.5164,14.68339-18.50203,26.19979-15.57195l180.15781,45.83693c11.5164,2.93008,18.50203,14.68339,15.57195,26.19979l-22.41268,88.09097c-2.93008,11.5164-14.68339,18.50203-26.19979,15.57195h0Z" fill="#fff"/><path d="M393.7945,245.01136l-180.15781-45.83693c-5.7582-1.46504-10.38371-5.13589-13.68797-10.00331-4.80751-7.08182-6.06196-15.99784-3.95144-24.29302l18.79461-73.87046c2.11051-8.29518,7.47354-15.52754,15.081-19.45067,5.2287-2.69641,11.04613-3.7103,16.80433-2.24526l180.15781,45.83693c11.53495,2.9348,18.50675,14.66484,15.57195,26.19979l-22.41268,88.09097c-2.93008,11.5164-14.68339,18.50203-26.19979,15.57195h0ZM246.18408,71.24996c-10.46448-2.66244-7.72944,6.81486-10.39189,17.27934l-.00002,.00009c-12.98962,51.05451,13.87706,103.83737,62.80805,123.35791,26.41344,10.53738,48.38357,19.15044,48.38357,19.15044,36.58969,9.30939,73.79823-12.80567,83.10762-49.39536l10.37732-40.7871c2.66244-10.46448-3.66236-21.10595-14.12684-23.76839l-180.15781-45.83692Z" fill="#3f3d56"/><path d="M330.47886,140.66837l-.00006-.00002c-1.25546-10.32043-10.63949-17.66902-20.95986-16.4136l-.00006-.00002c-10.22249,1.24352-17.52398,10.46277-16.44173,20.66702l-.29938,.03641,4.54631,37.37348,34.39032-4.18341c1.08685,.05877,2.19263,.02961,3.31059-.10642l.00006,.00002c10.3204-1.25545,17.66902-10.63951,16.41356-20.95991v-.00004c-1.25545-10.32041-10.63949-17.669-20.95985-16.41356l.0001,.00009h0Z" fill="#1b75bb"/><path d="M264.55969,493.7224h-.00003c-1.45657-3.7532-5.67987-5.61499-9.43306-4.15845h-.00002c-3.71759,1.44272-5.57742,5.5997-4.19696,9.32584l-.10889,.04224,5.27463,13.59152,12.50662-4.85361c.41348-.08173,.82568-.19824,1.23224-.35605h.00003c3.75317-1.45657,5.61499-5.6799,4.15842-9.43307v-.00003c-1.45657-3.7532-5.67987-5.61499-9.43304-4.15842l.00006,.00003Z" fill="#e6e6e6"/><path d="M544.55969,493.7224h0c-1.45654-3.7532-5.67987-5.61499-9.43304-4.15845h0c-3.71759,1.44272-5.57745,5.5997-4.19696,9.32584l-.10889,.04224,5.27466,13.59152,12.50665-4.85361c.41351-.08173,.82568-.19824,1.23224-.35605h0c3.75317-1.45657,5.61499-5.6799,4.15845-9.43307v-.00003c-1.45654-3.7532-5.67987-5.61499-9.43304-4.15842l.00006,.00003h-.00012Z" fill="#e6e6e6"/><circle cx="315.71168" cy="224.38595" r="24" fill="#1b75bb"/><path d="M206.61116,127.053c-2.57521,1.66838-5.31372,2.61681-7.78256,2.84207l-23.52834,17.4431-7.97261-11.43854,24.72554-16.46272c1.21465-2.16116,3.19952-4.27285,5.77473-5.94123,5.88306-3.81141,12.61836-3.86623,15.04379-.12248,2.42543,3.74376-.3775,9.86837-6.26054,13.67979h-.00002v.00002Z" fill="#ffb6b6"/><path d="M151.50369,86.34849s-18-2-21,5-9,76.99999-9,76.99999l10,17,65.57875-49.63223-13.28033-13.28034-28.10548,13.28034-4.19292-49.36777h-.00002Z" fill="#e6e6e6"/><g><path d="M412.21765,108.9675c2.13898,2.19999,4.5975,3.73446,6.95416,4.50389l19.05283,22.24487,10.31979-9.37574-20.43829-21.55572c-.70285-2.37739-2.1676-4.87808-4.30658-7.07807-4.88651-5.02587-11.44046-6.57928-14.6387-3.46969-3.19827,3.10959-1.82968,9.70462,3.05679,14.73047h0Z" fill="#a0616a"/><path d="M475.0062,81.5578s17.99335,2.05887,19.3591,9.55119-8.37411,77.07058-8.37411,77.07058l-13.53482,14.34604-52.8786-62.99034,15.90439-9.98926,24.44208,19.20599,15.08194-47.1942h.00003Z" fill="#1b75bb"/></g><circle cx="232.39196" cy="147.33817" r="15.00444" fill="#e6e6e6"/></svg>