<svg xmlns="http://www.w3.org/2000/svg" data-name="Layer 1" width="664.67004" height="498.94654" viewBox="0 0 664.67004 498.94654" xmlns:xlink="http://www.w3.org/1999/xlink"><path d="M875.00379,645.30923l.99775-22.43416a72.45548,72.45548,0,0,1,33.79563-8.555c-16.23147,13.27042-14.203,38.85123-25.20758,56.69681a43.582,43.582,0,0,1-31.95921,20.13989l-13.58306,8.31648a73.02979,73.02979,0,0,1,15.39284-59.17882,70.54229,70.54229,0,0,1,12.9644-12.04607C870.65774,636.82634,875.00379,645.30923,875.00379,645.30923Z" transform="translate(-267.66498 -200.52673)" fill="#f2f2f2"/><path d="M408.67749,445.86513a8.31115,8.31115,0,0,1,.54275-12.73258l-9.30563-28.03073,14.82235,3.9821,6.56436,26.008a8.35619,8.35619,0,0,1-12.62383,10.77325Z" transform="translate(-267.66498 -200.52673)" fill="#a0616a"/><path d="M435.5414,293.5693c2.45943,1.40992,17.0108-2.08359,19.85261-1.08978-1.56872,9.57154,6.95159,5.97975-2.30079,18.54966S425.2054,361.28712,420.972,375.37285s-.04338,33.93629-.67739,40.61207a69.2767,69.2767,0,0,0,.05714,11.61957c-4.999-.06317-9.92622.97419-15.00333.3116-5.41435-15.32062-9.05482-37.128-11.52681-49.18028s-2.56241-6.9554-1.42864-12.98189,1.4083-1.64719.21729-7.41253,3.62568-13.00914,8.07614-17.13943c1.91886-5.51918,4.39873-10.66533,6.29842-16.12687C420.906,312.93088,421.82129,305.91561,435.5414,293.5693Z" transform="translate(-267.66498 -200.52673)" fill="#1b75bb"/><polygon points="572.34 483.401 560.041 483.401 554.19 435.961 572.343 435.961 572.34 483.401" fill="#ffb6b6"/><path d="M843.14211,695.85028l-39.658-.00147v-.50161a15.43685,15.43685,0,0,1,15.436-15.43578h.001l7.24406-5.49573,13.51582,5.49657,3.4619.00014Z" transform="translate(-267.66498 -200.52673)" fill="#2f2e41"/><polygon points="515.2 483.401 502.901 483.401 497.05 435.961 515.202 435.961 515.2 483.401" fill="#ffb6b6"/><path d="M786.00183,695.85028l-39.658-.00147v-.50161a15.43684,15.43684,0,0,1,15.436-15.43578h.001l7.24407-5.49573,13.51581,5.49657,3.46191.00014Z" transform="translate(-267.66498 -200.52673)" fill="#2f2e41"/><path d="M777.5414,424.5693l80,2c15.19373,8.25248,15.42444,26.11377,10.44617,47.32025,0,0,1.68059,12.60446-1.68061,15.96566s-5.04179,3.36119-3.36119,9.24328-7.19877,15.48927-6.12028,16.56776,3.59939,6.96058,3.59939,6.96058l-8.403,47.897s-5.88209,83.18951-7.56269,84.87011-3.36119,0-1.68059,4.20149,3.36119,2.52089,1.68059,4.20149a61.8882,61.8882,0,0,0-4.20149,5.04179h-20.316s-1.53173-8.403-1.53173-9.24328-1.6806-5.88209-1.6806-6.72239,1.48541-2.3257,1.48541-2.3257a27.645,27.645,0,0,0,1.03549-5.237c0-1.6806,5.04179-66.38355,5.04179-66.38355L814.20848,494.897l-24.36865,82.34921s0,72.26564-1.68059,73.94624-1.6806.84029-.8403,4.20149,4.20149,2.52089,1.6806,5.04179-3.3612-1.6806-2.5209,2.52089l.8403,4.20149-25.20894.3606s-3.3612-7.083-1.6806-9.60388,1.57976-1.83278-.47057-5.95818-2.89062-4.96569-2.05032-5.806.84029-5.30976.84029-5.30976l4.20149-80.40065s.8403-84.87011.8403-87.391a8.38155,8.38155,0,0,0-.698-3.78029v-3.42179l3.21894-12.12477Z" transform="translate(-267.66498 -200.52673)" fill="#2f2e41"/><circle cx="557.93353" cy="32.83873" r="24.85645" fill="#ffb6b6"/><path d="M813.17027,274.6503c-5.355,3.18356-8.55835,9.03292-10.39722,14.98516a142.00828,142.00828,0,0,0-6.10241,33.92893l-1.94226,34.47531-24.05463,73.40765c20.84735,17.64,99.20941,4.00907,99.20941,4.00907s2.40546-.80179,0-3.20728-4.74721-.27435-2.34176-2.67984.74722.27436-.0546-2.13113,0-.80179.80182-1.60364-6.20728-8.01825-6.20728-8.01825l6.41455-42.13666,8.01819-84.993c-9.62188-12.02731-28.97268-19.11734-28.97268-19.11734l-5-9-25,2Z" transform="translate(-267.66498 -200.52673)" fill="#3f3d56"/><path d="M809.76113,218.7778a11.74573,11.74573,0,0,1,2.8501.374,40.565,40.565,0,0,0,5.5791.93555,25.8518,25.8518,0,0,1,23.148,21.92773c1.44434-1.25927,4.731-3.57568,7.4248-1.42285h0c.041.03418.065.05176.15967.00684,1.78906-.84863,4.96485-11.29492,5.061-20.49268.05078-4.88183-.71778-11.11572-4.666-13.08984l-.208-.104-.05468-.22608c-.26368-1.09814-3.21094-2.97266-8.333-4.43164-9.3086-2.65137-22.91016-3.03467-30.72363,4.56641-.59131,2.5625-2.78907,3.26465-4.73243,3.88623-2.15185.688-4.01025,1.28174-4.30322,3.92138a80.90952,80.90952,0,0,0,.05322,11.2793,11.5192,11.5192,0,0,1,4.09229-5.74853A8.111,8.111,0,0,1,809.76113,218.7778Z" transform="translate(-267.66498 -200.52673)" fill="#2f2e41"/><path d="M763.496,356.12054l40.60316-26.00339-20.4505-27.18527-20.19359,24.84-62.91881,3.85894a11.99111,11.99111,0,1,0-.67121,17.67064Z" transform="translate(-267.66498 -200.52673)" fill="#ffb6b6"/><path d="M841.7844,293.82161c2.35656,14.26167-42.14559,41.49535-42.14559,41.49535-.00069-3.34743-26.56182,21.9235-27.76073,19.14727-3.40742-7.89031-5.80314-26.57884-10.56448-29.57012-2.72294-1.71066,16.39925-17.78078,16.39925-17.78078s10.00953-10.08383,23.14493-22.80306a30.64423,30.64423,0,0,1,28.38206-8.29617S839.42781,279.56,841.7844,293.82161Z" transform="translate(-267.66498 -200.52673)" fill="#3f3d56"/><path d="M796.5414,457.5693a135.772,135.772,0,0,1-7.56,44.83c-.23.67-.47,1.33-.71,2a136.48075,136.48075,0,0,1-54.45,67.76c-1.71,1.1-3.44,2.15-5.2,3.17a135.21884,135.21884,0,0,1-65.8,18.22c-.76.01-1.52.02-2.28.02-.98,0-1.95-.01-2.92-.03a135.36232,135.36232,0,0,1-65.8-18.57995q-2.64-1.545-5.2-3.21a136.127,136.127,0,0,1-48.57-173.35c.32-.67.65-1.33.99-2a136.05361,136.05361,0,0,1,243,0c.34.67.67,1.33.99,2A135.41648,135.41648,0,0,1,796.5414,457.5693Z" transform="translate(-267.66498 -200.52673)" fill="#f2f2f2" style="isolation:isolate"/><path d="M754.46139,502.39926v2h12.18v-2Zm-24.36,0v2h12.18v-2Zm-24.36,0v2h12.18v-2Zm-24.36,0v2h12.18v-2Zm-24.36,0v2h12.18v-2Zm-24.36,0v2h12.18v-2Zm-24.36,0v2h12.18v-2Zm-24.35,0v2h12.17v-2Zm-24.36,0v2h12.18v-2Zm-24.36,0v2h12.18v-2Zm253.75,0h-10.16v2h9.45Z" transform="translate(-267.66498 -200.52673)" fill="#e6e6e6"/><path d="M778.82143,488.39926v2h12.18v-2Zm-24.36,0v2h12.18v-2Zm-24.36,0v2h12.18v-2Zm-24.36,0v2h12.18v-2Zm-24.36,0v2h12.18v-2Zm-24.36,0v2h12.18v-2Zm-24.36,0v2h12.18v-2Zm-24.36,0v2h12.18v-2Zm-24.35,0v2h12.17v-2Zm-24.36,0v2h12.18v-2Zm-24.36,0v2h12.18v-2Z" transform="translate(-267.66498 -200.52673)" fill="#e6e6e6"/><path d="M778.82143,459.39926v2h12.18v-2Zm-24.36,0v2h12.18v-2Zm-24.36,0v2h12.18v-2Zm-24.36,0v2h12.18v-2Zm-24.36,0v2h12.18v-2Zm-24.36,0v2h12.18v-2Zm-24.36,0v2h12.18v-2Zm-24.36,0v2h12.18v-2Zm-24.35,0v2h12.17v-2Zm-24.36,0v2h12.18v-2Zm-24.36,0v2h12.18v-2Z" transform="translate(-267.66498 -200.52673)" fill="#e6e6e6"/><path d="M778.82143,439.39926v2h12.18v-2Zm-24.36,0v2h12.18v-2Zm-24.36,0v2h12.18v-2Zm-24.36,0v2h12.18v-2Zm-24.36,0v2h12.18v-2Zm-24.36,0v2h12.18v-2Zm-24.36,0v2h12.18v-2Zm-24.36,0v2h12.18v-2Zm-24.35,0v2h12.17v-2Zm-24.36,0v2h12.18v-2Zm-24.36,0v2h12.18v-2Z" transform="translate(-267.66498 -200.52673)" fill="#e6e6e6"/><path d="M782.0414,396.39926h-3.22v2h4.21C782.71139,397.72928,782.38143,397.0693,782.0414,396.39926Zm-27.58,0v2h12.18v-2Zm-24.36,0v2h12.18v-2Zm-24.36,0v2h12.18v-2Zm-24.36,0v2h12.18v-2Zm-24.36,0v2h12.18v-2Zm-24.36,0v2h12.18v-2Zm-24.36,0v2h12.18v-2Zm-24.35,0v2h12.17v-2Zm-24.36,0v2h12.18v-2Zm-20.55,0c-.34.67-.67,1.33-.99,2h9.36v-2Z" transform="translate(-267.66498 -200.52673)" fill="#e6e6e6"/><path d="M733.82143,403.13931v169.02c-1.71,1.1-3.44,2.15-5.2,3.17v-172.19Z" transform="translate(-267.66498 -200.52673)" fill="#3f3d56"/><path d="M662.82143,459.13931v134.41c-.76.01-1.52.02-2.28.02-.98,0-1.95-.01-2.92-.03v-134.4Z" transform="translate(-267.66498 -200.52673)" fill="#3f3d56"/><path d="M591.82143,403.13931v171.82q-2.64-1.545-5.2-3.21v-168.61Z" transform="translate(-267.66498 -200.52673)" fill="#3f3d56"/><path d="M337.01856,633.18752,335.035,605.599a89.24413,89.24413,0,0,0-41.89886-9.39587c20.43166,15.79292,18.79511,47.35761,32.94511,68.95962A53.68056,53.68056,0,0,0,366.109,688.88438L383.113,698.6669a89.95172,89.95172,0,0,0-20.94423-72.346,86.88849,86.88849,0,0,0-16.36788-14.39539C342.08414,622.59668,337.01856,633.18752,337.01856,633.18752Z" transform="translate(-267.66498 -200.52673)" fill="#f2f2f2"/><circle cx="462.87643" cy="197.04258" r="19" fill="#1b75bb"/><path d="M740.29488,389.65072a1.53661,1.53661,0,0,0-2.12133,0,62.93394,62.93394,0,0,0-10.7818,11.01282q-1.15237-2.22959-2.30457-4.45923c-.88672-1.71569-3.47638-.20007-2.59039,1.51416q1.68538,3.26121,3.37079,6.52234a1.51761,1.51761,0,0,0,2.59045,0,60.749,60.749,0,0,1,11.83685-12.46875A1.50906,1.50906,0,0,0,740.29488,389.65072Z" transform="translate(-267.66498 -200.52673)" fill="#fff"/><circle cx="392.87643" cy="253.04258" r="19" fill="#1b75bb"/><path d="M670.29488,445.65072a1.53661,1.53661,0,0,0-2.12133,0,62.93394,62.93394,0,0,0-10.7818,11.01282q-1.15237-2.22959-2.30457-4.45923c-.88672-1.71569-3.47638-.20007-2.59039,1.51416q1.68538,3.26121,3.37079,6.52234a1.51761,1.51761,0,0,0,2.59045,0,60.749,60.749,0,0,1,11.83685-12.46875A1.50906,1.50906,0,0,0,670.29488,445.65072Z" transform="translate(-267.66498 -200.52673)" fill="#fff"/><circle cx="321.87643" cy="201.04258" r="19" fill="#1b75bb"/><path d="M599.29488,393.65072a1.53661,1.53661,0,0,0-2.12133,0,62.93394,62.93394,0,0,0-10.7818,11.01282q-1.15237-2.22959-2.30457-4.45923c-.88672-1.71569-3.47638-.20007-2.59039,1.51416q1.68538,3.26121,3.37079,6.52234a1.51761,1.51761,0,0,0,2.59045,0,60.749,60.749,0,0,1,11.83685-12.46875A1.50906,1.50906,0,0,0,599.29488,393.65072Z" transform="translate(-267.66498 -200.52673)" fill="#fff"/><path d="M862.01867,388.0578l12.508-46.56546L841.10178,335.165l1.79743,31.96213-43.91756,45.22075a11.99112,11.99112,0,1,0,11.4027,13.51594Z" transform="translate(-267.66498 -200.52673)" fill="#ffb6b6"/><path d="M877.94707,289.28275c11.34563,8.95685-3.21651,59.05733-3.21651,59.05733-2.25459-2.4743-4.87455,34.09412-7.63034,32.849-7.83224-3.53886-22.18775-15.74214-27.72207-14.74744-3.165.56886.15092-24.1882.15092-24.1882s.6099-14.19515,1.75615-32.44354a30.6442,30.6442,0,0,1,15.39653-25.24509S866.60142,280.32592,877.94707,289.28275Z" transform="translate(-267.66498 -200.52673)" fill="#3f3d56"/><polygon points="218.409 193.301 232.16 254.667 144.042 249.186 168.004 188.918 218.409 193.301" fill="#a0616a"/><polygon points="203.736 476.529 213.634 476.528 218.343 438.349 203.734 438.349 203.736 476.529" fill="#a0616a"/><path d="M468.04867,672.17257l15.6473-.93393v6.704l14.87632,10.27412a4.18756,4.18756,0,0,1-2.37951,7.63354h-18.6287l-3.21093-6.63127-1.25371,6.63127h-7.02376Z" transform="translate(-267.66498 -200.52673)" fill="#2f2e41"/><polygon points="110.182 471.604 119.856 473.702 132.552 437.389 118.275 434.292 110.182 471.604" fill="#a0616a"/><path d="M375.6068,666.64844l15.48961,2.40458-1.42127,6.55159,12.36,13.19442a4.18756,4.18756,0,0,1-3.94376,6.95555l-18.20524-3.94935-1.7321-7.16126-2.63106,6.21474-6.86411-1.48907Z" transform="translate(-267.66498 -200.52673)" fill="#2f2e41"/><path d="M502.07484,506.50909c-6.94674,38.17812-8.68342,54.6622-8.68342,54.6622s5.21008,6.07352,1.73668,9.54692,0,10.4105,0,10.4105l-7.81026,84.16655-6.28706-1.01878-15.14512-2.43526-5.46234-.88287,3.47341-78.95648s-3.47341-6.94674-1.73668-8.68347c1.73668-1.73668-1.73673-12.14711-1.73673-12.14711l-4.33685-82.42988L429.1823,568.98154s2.60983,3.47341,0,6.07359c-2.60024,2.60018-7.8006,15.62051-7.8006,15.62051l-15.99891,55.98168-1.35834,4.754-8.34386-1.562-9.08124-1.7076-1.66881-.31041-2.96887-.56275-1.9113-.359-.65009-.11643-3.1435-.59188.95085-4.22043.49476-2.22178L391.237,579.64425l.31048-1.38741.3299-1.465s-1.73673-4.33685.86345-6.94675a6.78018,6.78018,0,0,0,1.73673-6.07358,2.369,2.369,0,0,1-.23285-.29106,3.602,3.602,0,0,1-.62095-1.41654c-.23284-1.08664-.02914-2.60989,1.727-4.366a7.40839,7.40839,0,0,0,1.2322-1.7658c2.639-4.99666,3.96822-15.58173,3.96822-15.58173s2.34792-83.83664,10.032-96.64355c.40753-.66946,8.5649-13.52147,8.9918-13.78345,8.67376-5.20036,76.25033,1.98256,76.25033,1.98256s4.093,10.99559,4.27735,12.14044C501.102,450.47891,507.96408,474.12316,502.07484,506.50909Z" transform="translate(-267.66498 -200.52673)" fill="#2f2e41"/><path d="M481.5414,304.5693s1.46218-7.59015-12.5884-21.64073c-7.43854-2.47951-20.32694-1.03436-24.79513,0-20.66261,27.27465-16.963,22.46222-22.34155,37.70145-1.39473,3.95172-2.09209,7.74848-1.47222,10.84787,2.47952,12.39757,6.50494,76.03726,5.67844,79.34327s-6.612,7.43854-.8265,7.43854,80.395-1.306,78.742-3.78553S481.5414,304.5693,481.5414,304.5693Z" transform="translate(-267.66498 -200.52673)" fill="#1b75bb"/><path d="M570.15123,405.41465a8.31112,8.31112,0,0,1-11.15808-6.15715L529.75166,395.104,539.919,383.60676l26.20946,5.70693a8.35619,8.35619,0,0,1,4.02282,16.101Z" transform="translate(-267.66498 -200.52673)" fill="#a0616a"/><path d="M446.43755,299.68364c2.35779-1.574,5.03574-2.31316,7.19129-4.41486,7.87094,5.66777,8.45013-3.56051,15.58322,10.32215s32.57583,47.354,43.30157,57.41824,30.36478,15.15436,36.05939,18.69545a69.27523,69.27523,0,0,0,10.42877,5.1243c-2.28314,4.44757-3.549,9.32113-6.40362,13.57168-16.12857-1.97632-37.27484-8.43011-49.1666-11.58505s-7.36868-.8038-12.25937-4.50314-.8475-1.99457-6.53985-3.49616-10.03254-9.04056-11.74823-14.86484c-4.0868-4.1763-7.58973-8.68873-11.63346-12.8222C456.57824,335.25607,451.38048,317.46678,446.43755,299.68364Z" transform="translate(-267.66498 -200.52673)" fill="#1b75bb"/><circle cx="197.23675" cy="47.89054" r="23.93276" fill="#a0616a"/><path d="M480.89182,292.16518c-1.1345-1.62-9.6158-17.68334-12.13691-23.75792a27.779,27.779,0,0,0-.48963,3.98708l-.02509.499-.49547.06419c-.74525.09513-18.34747,2.23165-27.50807-8.15566-5.42738-6.15278-6.65817-15.38166-3.66319-27.4357a4.77834,4.77834,0,0,1-1.54243-.5941,6.62344,6.62344,0,0,1-2.8234-4.81052l-.50714.136c-16.29721-7.93032-2.25686-31.12918,12.62888-19.59518a7.19213,7.19213,0,0,1,3.93047.22585,7.29189,7.29189,0,0,1,4.50122,5.966c7.69113-4.04545,17.87009-3.38716,23.13465-.35191,2.20422,1.27106,3.47,2.87185,3.69471,4.65763,6.21814.34723,12.90607,6.40431,12.90607,14.986v.5976h-.59759a13.79491,13.79491,0,0,0-12.019,7.5709,17.57908,17.57908,0,0,0,.5404,17.93662,25.29146,25.29146,0,0,1,3.48986,19.33723l-2.24565,9.8399Z" transform="translate(-267.66498 -200.52673)" fill="#2f2e41"/><path d="M550.335,696.04778a1.18647,1.18647,0,0,1-1.19006,1.19H268.855a1.19,1.19,0,1,1,0-2.38h280.29A1.18651,1.18651,0,0,1,550.335,696.04778Z" transform="translate(-267.66498 -200.52673)" fill="#ccc"/><path d="M932.335,696.04778a1.18647,1.18647,0,0,1-1.19006,1.19H650.855a1.19,1.19,0,1,1,0-2.38h280.29A1.18651,1.18651,0,0,1,932.335,696.04778Z" transform="translate(-267.66498 -200.52673)" fill="#ccc"/><circle cx="321.28587" cy="399.16856" r="10.59055" fill="#e6e6e6"/><circle cx="392.28587" cy="410.16856" r="10.59055" fill="#e6e6e6"/><circle cx="463.28587" cy="397.16856" r="10.59055" fill="#e6e6e6"/></svg>