<svg xmlns="http://www.w3.org/2000/svg" data-name="Layer 1" width="745.05906" height="591.05208" viewBox="0 0 745.05906 591.05208" xmlns:xlink="http://www.w3.org/1999/xlink"><path d="M930.9285,461.46987c15.3186-23.96513,9.4782-55.0636-6.80886-65.47434s-46.96376-2.65415-62.28236,21.311c-14.17924,22.18267-9.49527,50.929,3.44307,62.85967a1.97523,1.97523,0,0,0-.70389.25533l-3.78926,2.37508a2,2,0,0,0,.02143,3.40253l8.136,4.95793a2.00008,2.00008,0,0,0,3.03393-1.54065l.37356-4.45656a1.97975,1.97975,0,0,0-.02609-.46507C888.59206,491.52006,916.71842,483.70078,930.9285,461.46987Z" transform="translate(-227.47047 -154.47396)" fill="#1b75bb"/><path d="M923.14173,414.19293a32.91339,32.91339,0,0,1-19.618,40.51776c-1.78275.68722-1.00831,3.589.79752,2.89283a36.009,36.009,0,0,0,21.71334-44.20811c-.55865-1.8426-3.45518-1.05726-2.89284.79752Z" transform="translate(-227.47047 -154.47396)" fill="#fff"/><path d="M376.225,374.30947c15.81489-21.16406,44.75984-26.27184,59.14326-15.52381s17.68742,39.95392,1.87253,61.118c-14.63862,19.58994-41.16023,24.93262-55.76818,17.59323a1.83486,1.83486,0,0,1,.00857.69547l-.82357,4.07163a1.8578,1.8578,0,0,1-2.96466,1.09567l-6.97414-5.44847a1.85785,1.85785,0,0,1,.34561-3.14179l3.75151-1.78421a1.83983,1.83983,0,0,1,.41281-.12963C363.96884,420.95155,361.55454,393.942,376.225,374.30947Z" transform="translate(-227.47047 -154.47396)" fill="#e6e6e6"/><path d="M410.81811,366.31895a30.56471,30.56471,0,0,0-25.5986,33.4165c.17,1.78426-2.61783,1.77259-2.78668,0a33.42032,33.42032,0,0,1,27.64447-36.10364c1.75412-.29819,2.5079,2.38674.74081,2.68714Z" transform="translate(-227.47047 -154.47396)" fill="#fff"/><path d="M774.26285,673.12425c12.4296-19.44543,7.69066-44.6789-5.52474-53.12624s-38.10666-2.15359-50.53625,17.29184c-11.50512,17.99914-7.70452,41.324,2.79373,51.00468a1.60281,1.60281,0,0,0-.57115.20718l-3.07462,1.92715a1.62282,1.62282,0,0,0,.01739,2.76083l6.60156,4.0229a1.62288,1.62288,0,0,0,2.46175-1.2501l.30311-3.61607a1.60751,1.60751,0,0,0-.02117-.37736C739.91083,697.50714,762.73272,691.16253,774.26285,673.12425Z" transform="translate(-227.47047 -154.47396)" fill="#f2f2f2"/><path d="M962.11952,233.94857h-724.239a10.42158,10.42158,0,0,0-10.41,10.41V735.116a10.42159,10.42159,0,0,0,10.41,10.41h724.239a10.42159,10.42159,0,0,0,10.41-10.41V244.35857A10.42158,10.42158,0,0,0,962.11952,233.94857ZM969.55524,735.116a7.43864,7.43864,0,0,1-7.43572,7.43572h-724.239a7.43864,7.43864,0,0,1-7.43572-7.43572V244.35857a7.43865,7.43865,0,0,1,7.43572-7.43572h724.239a7.43865,7.43865,0,0,1,7.43572,7.43572Z" transform="translate(-227.47047 -154.47396)" fill="#3f3d56"/><rect x="1.48714" y="121.17409" width="742.08477" height="2.97429" fill="#3f3d56"/><circle cx="26.76859" cy="101.78176" r="8.92286" fill="#3f3d56"/><circle cx="52.42182" cy="101.78176" r="8.92286" fill="#3f3d56"/><circle cx="78.07505" cy="101.78176" r="8.92286" fill="#3f3d56"/><circle cx="369.64632" cy="244.28882" r="30.35368" fill="#2f2e41"/><polygon points="421.112 537.499 410.085 542.857 384.169 502.876 400.443 494.967 421.112 537.499" fill="#a0616a"/><path d="M630.96113,695.346H654.605a0,0,0,0,1,0,0V710.2329a0,0,0,0,1,0,0H616.07427a0,0,0,0,1,0,0v0A14.88686,14.88686,0,0,1,630.96113,695.346Z" transform="translate(-470.74558 193.90669) rotate(-25.91783)" fill="#2f2e41"/><path d="M626.58079,690.92777a4.60391,4.60391,0,0,1-1.0603-.124,4.68059,4.68059,0,0,1-3.09131-2.459l-29.58985-58.64649a4.85779,4.85779,0,0,1,1.18164-5.8584l16.47779-13.86035a4.55317,4.55317,0,0,1,4.08667-.94922,4.65063,4.65063,0,0,1,3.209,2.833l25.29248,63.50684a4.8122,4.8122,0,0,1-1.5874,5.65332l-12.18066,8.999A4.60735,4.60735,0,0,1,626.58079,690.92777Z" transform="translate(-227.47047 -154.47396)" fill="#2f2e41"/><polygon points="388.604 565.706 377.307 570.467 353.566 529.157 370.24 522.13 388.604 565.706" fill="#a0616a"/><path d="M597.89423,722.82965H621.5381a0,0,0,0,1,0,0v14.88687a0,0,0,0,1,0,0H583.00737a0,0,0,0,1,0,0v0A14.88686,14.88686,0,0,1,597.89423,722.82965Z" transform="translate(-463.79994 136.7347) rotate(-22.85176)" fill="#2f2e41"/><path d="M598.07469,720.04788a4.486,4.486,0,0,1-3.9087-2.28125c-4.11279-7.28515-15.24877-27.53418-29.79663-58.16113-17.26489-36.34766,20.97608-76.63281,28.81714-84.33887a3.49055,3.49055,0,0,0,1.03321-2.68359l-1.69825-30.57129a4.48949,4.48949,0,0,1,3.77271-4.69043l45.15332-7.3252a4.53993,4.53993,0,0,1,4.2146,1.59571c7.62817,9.25976,10.90552,19.2207,9.74072,29.60742-2.37793,21.20605-22.356,37.2168-24.62622,38.97266a3.17111,3.17111,0,0,0-.26489.22851L589.63816,639.3721a3.48028,3.48028,0,0,0-.82593,3.85352l25.28589,62.06543a4.48732,4.48732,0,0,1-1.533,5.3457l-11.84985,8.55762A4.511,4.511,0,0,1,598.07469,720.04788Z" transform="translate(-227.47047 -154.47396)" fill="#2f2e41"/><path d="M558.51438,509.82425a4.50267,4.50267,0,0,1-2.78833-.96094L519.29124,480.2305a10.24852,10.24852,0,0,1-1.03638.30469,10.99959,10.99959,0,1,1,8.19092-13.22461h0a10.62764,10.62764,0,0,1,.229,1.45117L557.821,491.39066l11.907-12.207,11.71142,15.332L561.125,508.99417A4.49184,4.49184,0,0,1,558.51438,509.82425Z" transform="translate(-227.47047 -154.47396)" fill="#a0616a"/><circle cx="365.96472" cy="257.79071" r="24.56103" fill="#a0616a"/><path d="M605.03172,557.10257a16.14834,16.14834,0,0,1-5.84888-1.04688,13.04792,13.04792,0,0,1-6.60034-5.68066c-7.58545-13.23535-23.93677-54.252-8.70874-84.708,10.25342-20.50781,21.59619-25.38281,29.30615-25.8623,7.11792-.43945,8.49634,1.13574,10.87451,7.54h0c1.31909,3.55176,3.884,8.6289,6.85425,14.50781,10.6626,21.10547,26.77612,53,13.29321,68.8623C629.64427,547.84085,615.761,557.10159,605.03172,557.10257Z" transform="translate(-227.47047 -154.47396)" fill="#1b75bb"/><path d="M585.1367,499.27152a3.27726,3.27726,0,0,1-1.9895-.67383l-19.14551-14.60938a3.28438,3.28438,0,0,1-.28614-4.97656l18.39991-17.72363a7.98794,7.98794,0,0,1,13.282,7.72363l-7.0752,27.78516a3.28631,3.28631,0,0,1-3.18554,2.47461Z" transform="translate(-227.47047 -154.47396)" fill="#1b75bb"/><path d="M602.69041,539.50882a11.03012,11.03012,0,0,1-10.5354-7.92969,11.00436,11.00436,0,0,1,8.70825-13.918h.00049a10.73921,10.73921,0,0,1,1.46338-.13867L634.821,477.39066,623.97,465.70023l16.022-10.748,13.20459,21.165a4.52219,4.52219,0,0,1-.46264,5.37988l-39.41382,44.09961a10.22789,10.22789,0,0,1,.24121,1.05273,11.00268,11.00268,0,0,1-10.23218,12.83985C603.116,539.502,602.90232,539.50882,602.69041,539.50882Z" transform="translate(-227.47047 -154.47396)" fill="#a0616a"/><path d="M624.34153,475.68753a3.29148,3.29148,0,0,1-2.79687-1.56152l-13.406-21.74707a8.01667,8.01667,0,0,1,.523-9.13282h0a8.02059,8.02059,0,0,1,9.8479-2.2041L644.155,453.86429a3.28426,3.28426,0,0,1,.65893,5.43945L626.468,474.90433A3.28292,3.28292,0,0,1,624.34153,475.68753Z" transform="translate(-227.47047 -154.47396)" fill="#1b75bb"/><path d="M573.43043,437.90518l17.23651-10.617-1.2611-2.04747-16.22836,9.996a4.80734,4.80734,0,1,0,.253,2.66843Z" transform="translate(-227.47047 -154.47396)" fill="#3f3d56"/><path d="M610.47047,374.32919s-11.5129,11.30754-36.50422,14.87777-5.35525,42.84232-5.35525,42.84232-7.14036-14.28077,7.14037-26.77643S610.47047,390.39508,610.47047,374.32919Z" transform="translate(-227.47047 -154.47396)" fill="#2f2e41"/><path d="M598.23378,366.32919s7.14036,24.99136,17.851,28.56154S621.44,435.94789,603.589,439.51817c0,0,15.17333-20.52858,6.24785-36.59447S595.55606,374.36216,598.23378,366.32919Z" transform="translate(-227.47047 -154.47396)" fill="#2f2e41"/><path d="M614.88063,384.79585a2.86924,2.86924,0,0,1-.326-.0897l-27.98653-9.55556a2.75162,2.75162,0,0,1-.97259-4.63L608.022,349.916a2.75146,2.75146,0,0,1,4.5681,1.52713l5.5597,30.16054a2.752,2.752,0,0,1-3.26917,3.19214Z" transform="translate(-227.47047 -154.47396)" fill="#1b75bb"/><polygon points="374.411 201.83 385.905 204.276 385.283 200.896 377.283 199.193 374.411 201.83" fill="#e6e6e6"/><polygon points="372.022 204.028 386.426 207.093 387.049 210.473 369.15 206.664 372.022 204.028" fill="#e6e6e6"/><path d="M597.34219,334.23341l3.66734,11.3443a1.53264,1.53264,0,0,0,1.84518,1.04766,1.51594,1.51594,0,0,0,1.04765-1.84518l-3.66734-11.3443a1.53263,1.53263,0,0,0-1.84517-1.04766,1.51593,1.51593,0,0,0-1.04766,1.84518Z" transform="translate(-227.47047 -154.47396)" fill="#ccc"/><path d="M615.15435,330.3847,611.66,342.26292c-.546,1.85591,2.34828,2.64863,2.89284.79752l3.49435-11.87822c.546-1.85591-2.34828-2.64863-2.89284-.79752Z" transform="translate(-227.47047 -154.47396)" fill="#ccc"/><path d="M628.08175,341.26015l-8.641,8.86771c-1.3501,1.38553.838,3.43908,2.18466,2.05713l8.641-8.8677c1.35011-1.38554-.838-3.43909-2.18466-2.05714Z" transform="translate(-227.47047 -154.47396)" fill="#ccc"/><path d="M767.94463,634.76349a26.70611,26.70611,0,0,1-15.91818,32.87633c-1.44653.55761-.81814,2.91209.64711,2.34726a29.21789,29.21789,0,0,0,17.61833-35.87071c-.45329-1.49509-2.80355-.85786-2.34726.64712Z" transform="translate(-227.47047 -154.47396)" fill="#fff"/><path d="M852.9285,224.46987c15.3186-23.96513,9.4782-55.0636-6.80886-65.47434s-46.96376-2.65415-62.28236,21.311c-14.17924,22.18267-9.49527,50.929,3.44307,62.85967a1.97523,1.97523,0,0,0-.70389.25533l-3.78926,2.37508a2,2,0,0,0,.02143,3.40253l8.136,4.95793a2.00008,2.00008,0,0,0,3.03393-1.54065l.37356-4.45656a1.97975,1.97975,0,0,0-.02609-.46507C810.59206,254.52006,838.71842,246.70078,852.9285,224.46987Z" transform="translate(-227.47047 -154.47396)" fill="#e6e6e6"/><path d="M845.14173,177.19293a32.91339,32.91339,0,0,1-19.618,40.51776c-1.78275.68722-1.00831,3.589.79752,2.89283a36.009,36.009,0,0,0,21.71334-44.20811c-.55865-1.8426-3.45518-1.05726-2.89284.79752Z" transform="translate(-227.47047 -154.47396)" fill="#fff"/><path d="M431.18823,212.99342c-17.02552-22.78417-48.18621-28.28295-63.67067-16.71216s-19.04139,43.01239-2.01588,65.79655c15.75921,21.08956,44.311,26.84122,60.03724,18.94a1.97522,1.97522,0,0,0-.00923.74872l.88662,4.38331a2,2,0,0,0,3.1916,1.17954l7.508-5.86554a2.00008,2.00008,0,0,0-.37207-3.3823l-4.03869-1.92079a1.98091,1.98091,0,0,0-.44441-.13955C444.38259,263.20594,446.98171,234.12883,431.18823,212.99342Z" transform="translate(-227.47047 -154.47396)" fill="#1b75bb"/><path d="M393.947,204.39122a32.90443,32.90443,0,0,1,27.55817,35.97453c-.183,1.92085,2.81822,1.90829,3,0a35.97864,35.97864,0,0,0-29.76065-38.86737c-1.8884-.321-2.69988,2.56945-.79752,2.89284Z" transform="translate(-227.47047 -154.47396)" fill="#fff"/><path d="M362.83843,526.49673A47.20026,47.20026,0,0,1,399.75665,548.365c1.11769,1.78672,2.57672,3.75024,1.803,5.94953a3.9116,3.9116,0,0,1-4.053,2.7069c-2.28122-.27762-3.75333-2.50927-4.03437-4.64761-.3188-2.42562,1.39242-4.32979,3.50509-5.231,5.16276-2.20219,10.37149,1.20118,14.57687,3.91738,9.58229,6.18907,20.1219,11.78628,31.733,12.49157,10.74289.65255,22.263-3.55968,28.23837-12.87583,1.04542-1.6299-1.55019-3.136-2.59041-1.51416-5.92611,9.2393-17.90615,12.55766-28.32265,11.12964a55.05992,55.05992,0,0,1-17.72217-6.01687c-2.86307-1.48585-5.63987-3.13293-8.36052-4.86437a53.35069,53.35069,0,0,0-8.2001-4.70081c-4.78157-1.9642-11.11139-1.81074-14.45133,2.71147-3.11593,4.21891-.70785,11.24273,4.50373,12.42885,4.939,1.12409,9.26584-3.521,8.24936-8.37782-.52-2.48445-2.39078-4.91572-3.83887-6.94644a50.20352,50.20352,0,0,0-37.95434-21.02873c-1.92975-.09545-1.92472,2.90479,0,3Z" transform="translate(-227.47047 -154.47396)" fill="#1b75bb"/><path d="M812.23641,523.93132a47.11721,47.11721,0,0,1-44.63514-.151c-1.5509-.855-2.85477-1.83054-3.02982-3.725a3.89586,3.89586,0,0,1,2.05023-3.89758c2.15373-1.05142,4.71668.17512,6.06266,1.97055,1.44788,1.93135.86884,4.43716-.471,6.25557-3.46528,4.703-10.01539,4.25725-15.19755,4.15254-11.1629-.22555-22.899.66626-32.89869,6.08878-9.39576,5.095-16.94182,14.65315-17.15014,25.64963-.03659,1.93124,2.96341,1.93128,3,0,.20557-10.85158,8.4071-19.79494,17.85072-24.15076a53.686,53.686,0,0,1,18.50673-4.35486c3.11374-.23178,6.238-.29334,9.35947-.25509a62.90831,62.90831,0,0,0,9.33823-.19945c5.35393-.73325,11.10993-4.18248,11.50526-10.13707.35774-5.3885-5.76387-9.95986-10.80952-7.88243a7.03241,7.03241,0,0,0-3.03453,10.22569c1.34964,2.05619,3.74892,3.10829,5.89854,4.12641a50.11466,50.11466,0,0,0,45.1687-1.12554c1.69307-.92893.181-3.52051-1.51416-2.59041Z" transform="translate(-227.47047 -154.47396)" fill="#ff6584"/><path d="M676.71157,329.40488c13.49565,4.64249,22.94639,18.32256,23.74844,32.40739.4071,7.14914-1.28851,15.41376-6.62125,20.55835a10.32766,10.32766,0,0,1-9.34869,3.07317c-2.94439-.64-6.017-2.64808-6.52047-5.83749-.48633-3.081,1.619-5.627,4.172-7.03089a12.25063,12.25063,0,0,1,9.55225-.9067c4.16444,1.294,7.69035,4.07123,11.05213,6.75119a81.60643,81.60643,0,0,0,10.43447,7.357,63.96766,63.96766,0,0,0,86.52828-22.10778q1.58294-2.56406,2.903-5.27507c.84663-1.72715-1.73979-3.24944-2.59041-1.51416a61.03544,61.03544,0,0,1-89.10625,23.97066c-6.98278-4.67921-13.67836-12.71831-22.7607-12.7757-6.688-.04226-14.73175,5.013-13.01814,12.622.77953,3.46135,3.70521,5.95466,6.91156,7.15364a12.579,12.579,0,0,0,10.6054-.87042c7.08243-3.97691,10.17531-12.80532,10.763-20.47714,1.15466-15.07365-7.367-30.70846-20.75549-37.77576a36.39341,36.39341,0,0,0-5.15162-2.2151c-1.82953-.62935-2.61536,2.2675-.79752,2.89284Z" transform="translate(-227.47047 -154.47396)" fill="#e6e6e6"/></svg>