<?xml version="1.0" encoding="UTF-8"?><svg id="a" xmlns="http://www.w3.org/2000/svg" viewBox="0 0 3637.79 916.73"><defs><style>.b,.c{fill:#fff;}.c{font-family:Exo-Regular, Exo;font-size:800px;letter-spacing:.03em;}</style></defs><path class="b" d="M3276.71,335.25c-115.03,0-208.29,93.25-208.29,208.29s93.25,208.29,208.29,208.29v-56.89h0c-.13-.01-.26,0-.4,0-83.99,0-152.07-68.09-152.07-152.07s68.09-152.07,152.07-152.07,152.07,68.09,152.07,152.07c0,7.09-.65,14.01-1.59,20.84,19.43,.06,38.58,.24,56.12,.61,1-7.5,1.73-13.47,2.08-20.79,0-115.03-93.25-208.29-208.29-208.29Z"/><rect class="b" x="3265.89" y="404.33" width="20.84" height="148.32"/><rect class="b" x="3265.89" y="544.69" width="113.14" height="19.55"/><text class="c" transform="translate(89.29 761.86)"><tspan x="0" y="0">leantim</tspan></text></svg>