<svg xmlns="http://www.w3.org/2000/svg" data-name="Layer 1" width="888" height="423.67869" viewBox="0 0 888 423.67869" xmlns:xlink="http://www.w3.org/1999/xlink"><polygon points="442.753 354.387 438.401 358.848 437.98 350 437.459 363.064 433.449 358.952 437.423 363.966 436.107 397 440.216 397 438.447 359.819 442.753 354.387" fill="#e6e6e6"/><polygon points="450.852 365.387 446.5 369.848 446.079 361 445.558 374.064 441.547 369.952 445.522 374.966 444.206 408 448.314 408 446.546 370.819 450.852 365.387" fill="#e6e6e6"/><polygon points="463 359.387 458.648 363.848 458.227 355 457.706 368.064 453.695 363.952 457.67 368.966 456.354 402 460.462 402 458.694 364.819 463 359.387" fill="#e6e6e6"/><polygon points="433.305 364.387 428.952 368.848 428.531 360 428.011 373.064 424 368.952 427.975 373.966 426.658 407 430.767 407 428.998 369.819 433.305 364.387" fill="#e6e6e6"/><rect x="13" width="328" height="420" fill="#e6e6e6"/><rect x="34.77212" y="25.32567" width="283.77481" height="179.66264" fill="#fff"/><rect x="34.77002" y="197.62" width="283.77997" height="192.56" fill="#fff"/><rect x="169.28875" y="24.40432" width="14.74155" height="180.58398" fill="#3f3d56"/><rect x="303.80538" y="24.40432" width="14.74155" height="180.58398" fill="#3f3d56"/><rect x="34.77206" y="190.24674" width="283.77484" height="14.74155" fill="#3f3d56"/><polygon points="74.876 122.067 49.514 139.115 49.514 153.219 87.935 122.067 74.876 122.067" fill="#fff"/><polygon points="116.663 122.067 49.514 174.634 49.514 186.649 137.034 122.067 116.663 122.067" fill="#e6e6e6"/><rect x="34.77212" y="24.40432" width="14.74155" height="180.58398" fill="#3f3d56"/><polygon points="277.543 39.146 220.884 111.011 238.39 112.853 287.221 36.382 277.543 39.146" fill="#e6e6e6"/><rect x="34.77212" y="24.40432" width="283.77481" height="14.74155" fill="#3f3d56"/><rect x="34.77209" y="107.32553" width="283.77481" height="14.74155" fill="#3f3d56"/><rect x="550" width="328" height="420" fill="#e6e6e6"/><rect x="571.74881" y="24.79772" width="283.77481" height="179.66264" fill="#fff"/><rect x="571.75" y="197.08997" width="283.77002" height="192.56" fill="#fff"/><rect x="706.26544" y="23.87638" width="14.74155" height="180.58398" fill="#3f3d56"/><rect x="840.78207" y="23.87638" width="14.74155" height="180.58398" fill="#3f3d56"/><rect x="571.74883" y="189.71881" width="283.77481" height="14.74155" fill="#3f3d56"/><polygon points="611.853 121.539 586.49 138.588 586.49 152.691 624.911 121.539 611.853 121.539" fill="#e6e6e6"/><polygon points="653.64 121.539 586.49 174.106 586.49 186.121 674.011 121.539 653.64 121.539" fill="#e6e6e6"/><rect x="571.74881" y="23.87638" width="14.74155" height="180.58398" fill="#3f3d56"/><polygon points="814.52 38.618 757.861 110.483 775.366 112.325 824.198 35.854 814.52 38.618" fill="#e6e6e6"/><rect x="571.74878" y="23.87639" width="283.77481" height="14.74155" fill="#3f3d56"/><rect x="571.74878" y="106.7976" width="283.77481" height="14.74155" fill="#3f3d56"/><path d="M863.36,478.90451s1.07953,3.59839-5.03773,6.83691-7.9164,15.473-.71968,19.07142,9.35578,8.27628,5.75741,11.51483-10.07546,11.87464-1.43936,14.03366,9.71562,6.47707,7.19678,8.27628,5.75741-3.23854,5.75741-3.23854,1.43937,8.63612,8.99594,6.47709,28.787-43.18057,17.99187-48.938S863.36,478.90451,863.36,478.90451Z" transform="translate(-156 -238.16065)" fill="#2f2e41"/><path d="M853.54008,560.971,819.01348,585.233s-26.12824-27.06139-26.12824-42.925-13.99727-45.72442-20.52933-33.59345,7.46521,41.05866,7.46521,41.05866l26.12824,61.588s14.93042,2.79945,23.32879-3.73261,31.72714-19.59618,31.72714-19.59618Z" transform="translate(-156 -238.16065)" fill="#ffb9b9"/><circle cx="731.60011" cy="256.09007" r="26.12824" fill="#ffb9b9"/><path d="M874.06941,512.44715s9.33152,24.26194,5.59891,29.86085-8.39836,5.5989-12.131,7.46521c-1.8663.93315-21.46248,8.39836-21.46248,13.99727a22.26886,22.26886,0,0,0,2.79945,10.26466l2.79946,15.86358,23.32878,14.93042,30.794-3.73261,23.32878-13.06412s3.73261-34.5266-6.53206-40.12551-22.39563-18.663-21.46248-23.32878,1.86631-15.86357,1.86631-15.86357Z" transform="translate(-156 -238.16065)" fill="#ffb9b9"/><path d="M923.53,583.37061v.03l-.84,8.24-1.07,10.57-1.22,11.95-1.38,13.65H851.4c-.91-7.46-2.52-15.37-5.33-20.18a15.48284,15.48284,0,0,1-2.24-9.57c.63-6.25,5.04-10.61,5.04-11.89,0-1.4-7.86-9.61-11.79-13.64-1.32-1.35-2.2-2.23-2.2-2.23l12.13-9.33.17.29,1.7,2.98,5.59,9.79-1.86,7.47s2.89.5,6.91,1.14c6.94995,1.09,17.29,2.59,22.01,2.59,4.37994,0,9.73,2.25,14.15,3.54.14.04.27.08.4.12,2.78.78,5.16,1.14,6.66.24a2.32257,2.32257,0,0,0,.26-.17,11.02035,11.02035,0,0,1,2.52-1.27h.01a73.32835,73.32835,0,0,1,9.9-2.74c3.78-.83,7.1-1.41,7.91-1.55a.01379.01379,0,0,1,.02,0C923.47,583.38062,923.53,583.37061,923.53,583.37061Z" transform="translate(-156 -238.16065)" fill="#1b75bb"/><path d="M926.44,581.95063c-.07.5-.13,1.01-.19,1.51-.29,2.2-.53,4.4-.74,6.6q-.87,8.76-1.05,17.57a36.68894,36.68894,0,0,1-.69,6.53,101.63388,101.63388,0,0,1-3.74,13.65H893.61c.7-5.19995,1.64-13.19995,2.1-21.58v-.01c.07-1.3.12-2.61.17-3.92a125.10265,125.10265,0,0,0-.18-13.21c-.01-.11-.01-.22-.02-.32-.05-.57-.1-1.12-.15-1.67-1.86005-18.66,9.33-39.19,9.33-39.19,3.79,0,7.49,2.09,10.79,4.97A33.185,33.185,0,0,1,926.44,581.95063Z" transform="translate(-156 -238.16065)" fill="#ffb9b9"/><path d="M924.46,607.63062a36.68894,36.68894,0,0,1-.69,6.53,101.63388,101.63388,0,0,1-3.74,13.65H893.41a189.5515,189.5515,0,0,0,.75-25.3c-.05-1.24-.12-2.5-.22-3.75v-.02q-.105-1.61994-.27-3.24a10.216,10.216,0,0,1,.2-3.74v-.02a4.401,4.401,0,0,1,1.45-2.37994,2.59917,2.59917,0,0,1,.38-.27,1.97368,1.97368,0,0,1,.38-.2,2.58835,2.58835,0,0,1,.38-.17,7.03742,7.03742,0,0,1,3.24-.28,14.93074,14.93074,0,0,1,3.04.69,43.50475,43.50475,0,0,1,12.19,6.86,44.32063,44.32063,0,0,1,6.69,6.22C923.38,604.29066,924.46,606.21064,924.46,607.63062Z" transform="translate(-156 -238.16065)" opacity="0.1" style="isolation:isolate"/><path d="M892.73244,593.63132l2.97505,12.59755,16.62113,7.93178h13.99727l6.53206-29.86084s-11.533-2.43927-17.43092.64667-19.74791,3.82436-19.74791,3.82436Z" transform="translate(-156 -238.16065)" fill="#1b75bb"/><path d="M887.81363,468.02646s1.19589,3.98629-5.5808,7.57394-8.76982,17.14105-.79725,21.1273,10.36433,9.16845,6.37811,12.75611-11.16159,13.15473-1.59451,15.5465,10.763,7.17531,7.97256,9.16846,6.37811-3.58766,6.37811-3.58766,1.59452,9.56708,9.96571,7.17531,16.72348-45.8686,7.392-57.06642C909.25088,470.308,887.81363,468.02646,887.81363,468.02646Z" transform="translate(-156 -238.16065)" fill="#2f2e41"/><path d="M885.26723,463.92328c.00182-5.84011,36.29995.57109,43.79113,8.7252,5.18747,5.64658,13.06669,14.14174,6.46417,20.12993S928.014,504.40174,932.82,506.78178s14.295,9.6582,5.72711,14.54088-8.4298,9.8115-5.20534,10.97848-7.10913-1.73517-7.10913-1.73517,1.044,9.64269-7.66205,9.59653-33.683-47.89213-27.71626-61.19119C896.40228,466.60552,885.26723,463.92328,885.26723,463.92328Z" transform="translate(-156 -238.16065)" fill="#2f2e41"/><path d="M889.05178,462.64344c-23.365-1.407-25.71,16.18076-25.71,16.18076.16152,10.178,16.32468,5.21873,20.81387,6.736,5.416-3.89606,15.8556-11.26787,23.32173-16.52875A35.31174,35.31174,0,0,0,889.05178,462.64344Z" transform="translate(-156 -238.16065)" fill="#2f2e41"/><path d="M572.17285,622.16065l1.82715,11.5a25.5,25.5,0,0,0,51,0l.0127-.1582,1.81445-11.3418Z" transform="translate(-156 -238.16065)" fill="#e6e6e6"/><rect y="419.83935" width="888" height="2" fill="#3f3d56"/><path d="M248.23421,625.589v5.87847s-3.919,30.37187-14.69609,30.37187-1.95949-31.35161-1.95949-31.35161v-4.89866Z" transform="translate(-156 -238.16065)" fill="#9e616a"/><path d="M411.85027,514.87873l-1.95948-4.89868s-12.73654-18.615-3.91891-23.51373,19.59475,19.59475,19.59475,19.59475l1.95948,7.83792Z" transform="translate(-156 -238.16065)" fill="#9e616a"/><circle cx="215.19123" cy="244.87663" r="25.86152" fill="#9e616a"/><polygon points="196.576 247.816 178.942 261.532 203.435 282.106 217.15 265.451 196.576 247.816" fill="#9e616a"/><path d="M368.67,628.34065H278.61l6.83-72.43,5.07-53.79v-.00994a8.81521,8.81521,0,0,1,9.62-7.95l37.37,3.54,27.5,15.81.8,7.25,27.44,19.59-18.65,35.48-11.73,22.33Z" transform="translate(-156 -238.16065)" fill="#1b75bb"/><path d="M291.34262,548.1898l-25.47315,33.31106L250.1937,628.52825H226.68l16.65551-69.56133,43.96435-60.11462a8.85538,8.85538,0,0,1,10.13523-3.08592,8.04718,8.04718,0,0,0,1.74544.49735Z" transform="translate(-156 -238.16065)" fill="#1b75bb"/><polygon points="215.681 336.482 276.915 361.465 287.691 350.689 272.506 271.819 252.911 275.739 260.749 322.766 237.236 302.192 229.397 300.232 215.681 336.482" fill="#1b75bb"/><path d="M345.86776,491.414a67.35349,67.35349,0,0,1,3.36673-30.499c5.73763-15.40194,24.03132-10.76013,34.44889-7.2673s24.2215,18.10334,20.62981,26.07824-20.63743-2.10024-26.71752-7.23673-16.70315,10.46331-16.70315,10.46331Z" transform="translate(-156 -238.16065)" fill="#2f2e41"/><ellipse cx="361.54765" cy="481.19697" rx="5.05986" ry="2.81103" transform="translate(-370.21712 418.42773) rotate(-70.02257)" fill="#9e616a"/></svg>