<svg xmlns="http://www.w3.org/2000/svg" data-name="Layer 1" width="623.35203" height="751.37419" viewBox="0 0 623.35203 751.37419" xmlns:xlink="http://www.w3.org/1999/xlink"><path d="M490.13853,403.40491s13.871,14.334,15.10247,22.41535l-12.067,6.94989L479.2466,408.3637,471.90111,375.784a5.53317,5.53317,0,1,1,9.22653-2.36094Z" transform="translate(-288.32399 -74.31291)" fill="#ffb6b6"/><path d="M618.7916,369.03458a5.53317,5.53317,0,1,1,9.13261,2.70156l-8.549,32.28481L604.552,427.894l-11.80085-7.39271c1.53044-8.03006,15.92356-21.83971,15.92356-21.83971Z" transform="translate(-288.32399 -74.31291)" fill="#ffb6b6"/><path d="M398.98045,486.13627c-.08682-19.02755,7.21588-36.96086,15.333-53.83394,8.38766-17.43534,17.93615-34.54023,22.67605-53.44383a81.35544,81.35544,0,0,0,1.98051-31.93658c-.28642-1.90267-3.1776-1.09419-2.89283.79752,2.9065,19.3078-3.376,38.53709-11.19943,55.9506-7.75811,17.26817-17.42965,33.695-23.4825,51.70241a95.48128,95.48128,0,0,0-5.41485,30.76382,1.5009,1.5009,0,0,0,3,0Z" transform="translate(-288.32399 -74.31291)" fill="#e6e6e6"/><path d="M486.16821,492.52064c-.64127-8.09964,5.07691-14.8575,11.82614-18.57555,8.56515-4.71841,18.93165-4.31292,28.39712-4.0326a166.6323,166.6323,0,0,0,29.0658-1.38224,145.903,145.903,0,0,0,108.0384-76.25562c8.90205-16.85393,15.16923-36.28616,12.66627-55.53323a64.418,64.418,0,0,0-1.29082-6.95542c-.457-1.87482-3.35068-1.08084-2.89284.79752,4.66069,19.121-.68229,39.14906-9.15439,56.4102a144.30609,144.30609,0,0,1-31.33922,42.0795,141.84048,141.84048,0,0,1-46.70075,28.83489,146.071,146.071,0,0,1-27.73875,7.36219,152.758,152.758,0,0,1-29.00911,1.69107c-9.645-.28075-19.867-.78964-28.93162,3.114-7.09411,3.055-13.67976,9.10621-15.50735,16.84115a18.15513,18.15513,0,0,0-.42888,5.60415c.15136,1.91179,3.15265,1.92808,3,0Z" transform="translate(-288.32399 -74.31291)" fill="#e6e6e6"/><path d="M791.71107,215.22c-3.53-1.59-7-3.12-10.32-4.53-.5-.21-1-.43-1.5-.64l-.06-.03q-4.485-1.92-8.99-3.76c-2.1-.86005-4.19-1.71-6.29-2.54-.82-.34-1.64-.66-2.47-.98-1.33-.53-2.67-1.05-4-1.57-1.1-.43-2.21-.85-3.31-1.27-1.27-.49-2.54-.96-3.80005-1.44q-2.25-.84-4.49-1.66a.08994.08994,0,0,0-.05-.01c-1.13-.42-2.26-.83-3.38-1.23-15.21-5.48-30.64-10.38-45.88-14.57q-.825-.225-1.65-.45-1.425-.39-2.85-.78-2.52-.675-5.06-1.32c-1.59-.42-3.19-.82-4.79-1.22-1.41-.35-2.82-.7-4.24-1.04-1.39-.34-2.78-.67-4.18-.99q-6.25506-1.47006-12.49-2.78a.27632.27632,0,0,0-.09-.01c-1-.22-1.99-.43-2.99-.63-15.18-3.11-30.62-5.61-45.89-7.44-.75-.09-1.5-.18-2.25-.26h-.02c-.13-.02-.27-.03-.4-.04q-1.89-.225-3.78-.42c-1.66-.18-3.31-.35-4.97-.51q-5.895-.585-11.77-1.02c-.99-.08-1.97-.15-2.95-.21-1.13-.09-2.26-.16-3.38-.23q-1.74-.12-3.48-.21c-.44-.03-.87-.05-1.3-.07-.54-.04-1.09-.06-1.63-.09q-1.215-.06-2.43-.12c-15.24-.73-30.67-.79-45.87-.18-.84.03-1.68.07-2.53.11h-.03c-.61.03-1.22.05-1.84.08-.22.01-.45.02-.67.03-1.51.08-3.02.16-4.53.25-1.61.09-3.21.19-4.81.3-1.01.07-2.01.14-3.01.21-.66.05-1.32.1-1.99.15-4.18.32-8.36.69-12.51,1.11-1.39.14-2.77.28-4.15.43-.77.08-1.53.16-2.29.25-15.24,1.72-30.68,4.15-45.88,7.21-1,.2-2.01.41-3.02.62-.02,0-.04.01-.06.01-.15.03-.31.06-.46.1-1.04.21-2.09.43-3.13.66-1.15.24-2.29.49-3.44.74-.96.21-1.92.43-2.88.65-2.26.51-4.53,1.03-6.79,1.58q-6.9,1.65006-13.79,3.49c-1.04.28-2.09.56-3.14.85a.031.031,0,0,0-.02.01c-.54.14-1.09.29-1.63.44-15.2,4.18-30.63,9.12-45.87,14.7-1.12.41-2.24.82-3.37,1.25a.23548.23548,0,0,0-.08.02q-4.545,1.695-9.14,3.48c-1.11.44-2.23.88-3.35,1.32-1.08.43-2.17.86-3.25,1.3-.95.38-1.89.76-2.84,1.15-.76.31-1.51.62-2.27.93q-3.9,1.62-7.79,3.28c-1.57.68-3.15,1.36-4.72,2.05-.51.22-1.03.44-1.54.67-3.78,1.67005-7.22,3.22-10.52,4.75a20.3368,20.3368,0,0,0-11.8,18.4v35.29a20.2371,20.2371,0,0,0,25.93,19.42c1.49-.44,2.98-.88,4.48-1.32,1.25-.37,2.51-.73,3.76-1.09,1.37-.39,2.73-.78,4.1-1.17,3.12994-.87,6.28-1.74,9.43-2.58q2.205-.585,4.41-1.17c2.31-.61,4.62-1.2,6.93-1.79q.96-.24,1.92-.48c10.05-2.52,20.15-4.86,30.17-6.98,1.03-.22,2.06-.43,3.08-.64q6.31494-1.32,12.56-2.5l3-.57h.03c.98-.19,1.96-.37,2.94-.55q4.11-.75,8.27-1.46c1.59-.28,3.19-.55,4.79-.81.16-.03.32-.06.48-.07995q4.14-.69,8.3-1.33c1.88-.29,3.77-.58,5.66-.85,1.61-.24,3.22-.47,4.83-.7,15.26-2.14,30.67-3.85,45.81-5.05,1.31-.11,2.62-.21,3.93-.31,5.08-.38,10.2-.72,15.33-1,6.34-.34,12.7-.61,19.03-.8,15.2-.47,30.61-.47,45.8,0,6.34.19,12.7.46,19.04.8,5.13.28,10.25.62005,15.33,1,1.31.1,2.62006.2,3.93006.31,15.12994,1.2,30.54,2.9,45.81994,5.05.73.1,1.45.21,2.18006.31.26.04.51.07.77.11,1.11.16,2.22.33,3.33.49q6.255.93,12.5,1.97c1.07.17,2.14.35,3.2.53q3.435.585,6.84,1.19c1.32.24,2.63.48,3.94.72.83.15,1.67005.3,2.5.46,1.01.19,2.02.38,3.02.57,1.65.31,3.3.63,4.96.96,1.04.21,2.09.41,3.14.63,11.19,2.25,22.49,4.78,33.74,7.54q1.755.435,3.51.87c.16.04.31.08.47.12,1.21.3,2.42.61,3.63.92q2.595.66,5.2,1.35,2.205.57,4.41,1.17c4.54,1.21,9.08,2.47,13.59,3.76q4.125,1.185,8.21,2.4h.02a19.75863,19.75863,0,0,0,3.32.68,19.33458,19.33458,0,0,0,2.4.15,20.22233,20.22233,0,0,0,20.18-20.25V233.71A20.3188,20.3188,0,0,0,791.71107,215.22Z" transform="translate(-288.32399 -74.31291)" fill="#1b75bb"/><path d="M359.59108,196.57a3.02459,3.02459,0,0,0-2.72-.37.23548.23548,0,0,0-.08.02q-4.545,1.695-9.14,3.48c-1.11.44-2.23.88-3.35,1.32-1.08.43-2.17.86-3.25,1.3-.95.38-1.89.76-2.84,1.15-.76.31-1.51.62-2.27.93q-3.9,1.62-7.79,3.28c-1.57.68-3.15,1.36-4.72,2.05a3.06358,3.06358,0,0,0-1.84,2.81v72.77a3.05507,3.05507,0,0,0,1.24,2.47,3.26182,3.26182,0,0,0,.8.43,3.00232,3.00232,0,0,0,1.87.04l4.47-1.32q1.875-.54,3.75-1.08c1.37006-.39,2.74-.78,4.12006-1.17,3.12994-.87,6.28-1.74,9.43-2.58q2.205-.6,4.41-1.17c2.31-.61,4.62-1.2,6.93-1.79a3.09437,3.09437,0,0,0,1.49-.88l.01-.01a3.06593,3.06593,0,0,0,.8-2.06v-77.1A3.06113,3.06113,0,0,0,359.59108,196.57Z" transform="translate(-288.32399 -74.31291)" fill="#3f3d56"/><path d="M443.931,172.35a2.99982,2.99982,0,0,0-2.48-.63c-.02,0-.04.01-.06.01-.15.03-.31.06-.46.1-1.04.21-2.09.43-3.13.66-1.15.24-2.29.49-3.44.74-.96.21-1.92.43-2.88.65-2.26.51-4.53,1.03-6.79,1.58q-6.915,1.65006-13.79,3.49c-.96.25-1.93.51-2.89.77a2.41075,2.41075,0,0,0-.25.08.031.031,0,0,0-.02.01,3.07868,3.07868,0,0,0-1.99,2.87v82.29a3.04516,3.04516,0,0,0,1.1,2.35,2.89966,2.89966,0,0,0,.79.47,3.07572,3.07572,0,0,0,1.16.23,3.2852,3.2852,0,0,0,.54-.05h.03c.98-.19,1.96-.37,2.94-.55q4.11-.75,8.27-1.46c1.59-.28,3.19-.55,4.79-.81.16-.03.32-.06.48-.07995q4.14-.69,8.3-1.33c1.88-.29,3.77-.58,5.66-.85.88-.14,1.76-.26,2.64-.39a2.99378,2.99378,0,0,0,1.57-.72,3.06463,3.06463,0,0,0,1.05-2.3V174.73A3.04973,3.04973,0,0,0,443.931,172.35Z" transform="translate(-288.32399 -74.31291)" fill="#3f3d56"/><path d="M528.28108,161.93a3.08937,3.08937,0,0,0-2.1-.85h-.15c-.57.03-1.15.05-1.72.08-.22.01-.45.02-.67.03-1.51.08-3.02.16-4.53.25-1.61.09-3.21.19-4.81.3-1.01.07-2.01.14-3.01.21-.66.05-1.32.1-1.99.15-4.18.32-8.36.69-12.51,1.11-1.39.14-2.77.28-4.15.43a3.05759,3.05759,0,0,0-2.73,3.05v87.19a3.01419,3.01419,0,0,0,.98,2.23,2.968,2.968,0,0,0,.62.45,3.07347,3.07347,0,0,0,1.46.37c.07,0,.15-.01.23-.01.39-.03.79-.06,1.18-.09,5.08-.38,10.2-.72,15.33-1,5.53-.31,11.06-.55,16.56-.73a2.96088,2.96088,0,0,0,1.66-.54,3.04651,3.04651,0,0,0,1.3-2.51v-87.9A3.039,3.039,0,0,0,528.28108,161.93Z" transform="translate(-288.32399 -74.31291)" fill="#3f3d56"/><path d="M610.69105,164.07h-.02c-.13-.02-.27-.03-.4-.04q-1.89-.225-3.78-.42c-1.66-.18-3.31-.35-4.97-.51q-5.895-.585-11.77-1.02c-.99-.08-1.97-.15-2.95-.21-1.13-.09-2.26-.16-3.38-.23q-1.74-.12-3.48-.21c-.44-.03-.87-.05-1.3-.07-.46-.03-.91-.06-1.36-.08a2.43535,2.43535,0,0,0-.27-.01,2.98942,2.98942,0,0,0-1.99.84,3.04873,3.04873,0,0,0-.96,2.23v87.71a3.02979,3.02979,0,0,0,1.31,2.51,2.92911,2.92911,0,0,0,1.65.54c5.5.18,11.03.42,16.56.73,5.13.28,10.25.62005,15.33,1,.39.03.79.06,1.18006.09.07995,0,.15.01.23.01a3.07353,3.07353,0,0,0,1.46-.37,2.96929,2.96929,0,0,0,.62-.45,3.0515,3.0515,0,0,0,.98-2.23V167.11A3.07447,3.07447,0,0,0,610.69105,164.07Z" transform="translate(-288.32399 -74.31291)" fill="#3f3d56"/><path d="M695.52107,180.54a2.26616,2.26616,0,0,0-.24-.08c-.87006-.24-1.74-.47-2.61005-.7q-2.52-.675-5.06-1.32c-1.59-.42-3.19-.82-4.79-1.22-1.41-.35-2.82-.7-4.24-1.04-1.39-.34-2.78-.67-4.18-.99q-6.25506-1.47006-12.49-2.78a.27632.27632,0,0,0-.09-.01,3.009,3.009,0,0,0-2.46.63,3.0499,3.0499,0,0,0-1.14,2.38v84.07a3.03907,3.03907,0,0,0,1.06006,2.3,2.96241,2.96241,0,0,0,1.56.72c.26.04.51.07.77.11,1.11.16,2.22.32,3.33.49q6.255.93,12.5,1.97c1.07.17,2.14.35,3.2.53q3.435.585,6.84,1.19c1.32.24,2.63.48,3.94.72.83.15,1.67005.3,2.5.46a3.65388,3.65388,0,0,0,.57.05,3.03793,3.03793,0,0,0,1.16-.23,2.75711,2.75711,0,0,0,.79-.47,3.045,3.045,0,0,0,1.1-2.35V183.42A3.071,3.071,0,0,0,695.52107,180.54Z" transform="translate(-288.32399 -74.31291)" fill="#3f3d56"/><path d="M779.89106,210.05l-.06-.03q-4.485-1.92-8.99-3.76c-2.1-.86005-4.19-1.71-6.29-2.54-.82-.34-1.64-.66-2.47-.98-1.33-.53-2.67-1.05-4-1.57-1.1-.43-2.21-.85-3.31-1.27-1.27-.49-2.54-.96-3.80005-1.44q-2.25-.84-4.49-1.66a.08994.08994,0,0,0-.05-.01,2.97542,2.97542,0,0,0-2.74.38,3.05953,3.05953,0,0,0-1.31,2.51v76.51a3.03813,3.03813,0,0,0,.57,1.77,3.25208,3.25208,0,0,0,.23.29l.01.01a3.04938,3.04938,0,0,0,1.49.88c.57.14,1.14.29,1.71.44q2.595.66,5.2,1.35,2.205.57,4.41,1.17c4.54,1.21,9.08,2.47,13.59,3.76q4.125,1.185,8.21,2.4h.02a3.11674,3.11674,0,0,0,.85.12,3.02762,3.02762,0,0,0,.99-.17,2.9575,2.9575,0,0,0,.8-.43,3.07376,3.07376,0,0,0,1.23-2.47V212.84A3.05226,3.05226,0,0,0,779.89106,210.05Z" transform="translate(-288.32399 -74.31291)" fill="#3f3d56"/><path d="M330.04832,286.98917c13.02232,8.77485,26.61927,16.66483,40.322,24.31954,14.65877,8.1888,29.47073,16.09968,44.13215,24.28374,14.74994,8.23346,29.36921,16.73237,43.47136,26.04141a299.99928,299.99928,0,0,1,38.7661,29.84209c11.4481,10.59661,21.817,22.43838,29.96818,35.77424q1.458,2.3853,2.81841,4.82787c.94121,1.686,3.53339.175,2.59041-1.51416a164.39189,164.39189,0,0,0-28.70286-36.87118,279.40457,279.40457,0,0,0-38.14589-30.76494c-14.01-9.58975-28.61492-18.27973-43.38832-26.63268-14.73014-8.3285-29.65133-16.31157-44.45886-24.50034-13.93881-7.70836-27.8079-15.58551-41.15956-24.28226q-2.36172-1.53834-4.69894-3.11375c-1.60543-1.08178-3.10855,1.51606-1.51416,2.59042Z" transform="translate(-288.32399 -74.31291)" fill="#3f3d56"/><path d="M380.66335,251.785a224.83949,224.83949,0,0,0,22.87631,39.93753,468.64184,468.64184,0,0,0,29.4249,36.92928c10.42577,12.0107,21.16383,23.74511,31.66508,35.68922,10.3818,11.80825,20.56091,23.825,29.85667,36.51548a239.725,239.725,0,0,1,23.92322,39.45561q1.21384,2.58312,2.34675,5.2029c.76559,1.76681,3.35093.24094,2.59041-1.51415a224.84072,224.84072,0,0,0-22.87631-39.93753,468.64,468.64,0,0,0-29.42491-36.92927c-10.42576-12.01071-21.16383-23.74512-31.66507-35.68923-10.38181-11.80824-20.56092-23.825-29.85667-36.51548a239.72361,239.72361,0,0,1-23.92322-39.45561q-1.21386-2.58312-2.34675-5.2029c-.7656-1.76681-3.35093-.24094-2.59041,1.51415Z" transform="translate(-288.32399 -74.31291)" fill="#3f3d56"/><path d="M747.38127,269.67447a376.86789,376.86789,0,0,1-36.28039,30.50043c-13.2,9.93534-26.75819,19.38141-40.24915,28.914-13.46911,9.51716-26.89118,19.11782-39.82408,29.35844a309.17175,309.17175,0,0,0-35.05606,31.77549c-10.13166,10.92421-19.21246,22.95527-26.0196,36.2438q-1.22786,2.39694-2.35368,4.84377c-.80331,1.74136,1.7817,3.26722,2.59041,1.51416A152.13917,152.13917,0,0,1,594.66879,396.127a283.354,283.354,0,0,1,34.11465-32.059c12.7129-10.32016,25.99138-19.91955,39.34378-29.3887,13.50158-9.575,27.10855-19.00589,40.40589-28.86516a424.3639,424.3639,0,0,0,36.87581-30.12075q2.06739-1.92717,4.09367-3.89761c1.387-1.34793-.73539-3.46819-2.12132-2.12132Z" transform="translate(-288.32399 -74.31291)" fill="#3f3d56"/><path d="M716.46146,242.05932a224.83967,224.83967,0,0,1-22.87631,39.93752,464.74277,464.74277,0,0,1-29.45895,36.90125c-10.436,12.00225-21.17538,23.736-31.66914,35.68735-10.37452,11.81554-20.52271,23.85478-29.81856,36.54538a239.7255,239.7255,0,0,0-23.92322,39.45562q-1.21384,2.58311-2.34675,5.2029c-.75979,1.7534,1.824,3.28287,2.59041,1.51416A224.84016,224.84016,0,0,1,601.83526,397.366a464.74476,464.74476,0,0,1,29.45894-36.90124c10.436-12.00225,21.17539-23.736,31.66914-35.68735,10.37453-11.81554,20.52272-23.85478,29.81856-36.54539a239.72361,239.72361,0,0,0,23.92322-39.45561q1.21386-2.58312,2.34675-5.2029c.75979-1.75341-1.824-3.28287-2.59041-1.51416Z" transform="translate(-288.32399 -74.31291)" fill="#3f3d56"/><polygon points="206.669 548.641 208.56 555.2 234.762 551.029 231.971 541.347 206.669 548.641" fill="#ffb6b6"/><path d="M488.0838,624.69438l5.81411,20.172.25512-.07353a8.17158,8.17158,0,0,0,5.58876-10.11428l-.00014-.00048,1.73353-4.49031-4.77709-6.06914-.50753-1.7609Z" transform="translate(-288.32399 -74.31291)" fill="#2f2e41"/><polygon points="319.171 580.861 325.832 579.364 323.228 552.96 313.397 555.17 319.171 580.861" fill="#ffb6b6"/><path d="M606.87962,662.65423l20.48235-4.60295-.0582-.259a8.17158,8.17158,0,0,0-9.76364-6.181l-.00049.00011-4.37915-1.99777-6.34276,4.40732-1.788.4018Z" transform="translate(-288.32399 -74.31291)" fill="#2f2e41"/><path d="M587.10806,513.75957l30.16139,123.75978-14.75356,1.30727-16.34774-41.41817-25.2349-48.74917L563.214,604.301l-46.94917,27.45684-11.03312-15.11375,37.53273-20.18676-16.39533-73.63727,4.36378-9.06051Z" transform="translate(-288.32399 -74.31291)" fill="#2f2e41"/><path d="M526.67811,524.59713c-4.88945-6.84533,4.15591-18.1156,5.265-20.50013h0a5.98652,5.98652,0,0,1-4.09768-6.39362l.47812-4.06427.49837-3.9865-3.57039-3.57039-.01-.089-2.0547-17.97866-2.98749-11.94123a26.21628,26.21628,0,0,1,7.441-25.40665l6.90554-1.09652,8.39238-8.08616H556.472l4.64038,4.43352c8.66257,1.51927,10.15077,1.0232,17.59176,9.9524L575.323,463.631l-.84349,3.81908L574.482,472.63l2.14441,2.38319a7.416,7.416,0,0,1,1.75916,6.4149l-.282,1.41h0c2.21163.94781,4.322,17.79167,4.82623,20.14441l.75317,3.51446c.64435.85025,4.89747,6.52128,4.89747,8.07158,0,.23276-.17181.45775-.54052.70734-2.89844,1.96265-28.27141,7.15858-35.36179,4.32134C545.12547,516.57728,526.67811,524.59713,526.67811,524.59713Z" transform="translate(-288.32399 -74.31291)" fill="#e6e6e6"/><path d="M499.55832,442.22627l5.95068,7.27762a26.84052,26.84052,0,0,0,18.17865,9.72423h0a11.7502,11.7502,0,0,0,11.09926-5.53517h0a11.72247,11.72247,0,0,0-3.27243-15.66687c-7.37184-5.18163-11.39326-13.20969-17.18871-10.60666l-1.24683-3.06215-16.34031-13.203-13.39244,11.492Z" transform="translate(-288.32399 -74.31291)" fill="#e6e6e6"/><path d="M614.74866,418.1416l-12.95691-11.98087-10.10526,6.435-1.35956,3.01378c-5.6949-2.81623-16.72494,11.21-24.28391,16.11458a11.72249,11.72249,0,0,0-3.85134,15.5347h0a11.75021,11.75021,0,0,0,10.88631,5.94308h0a26.84051,26.84051,0,0,0,18.52684-9.04321l6.21655-7.05186Z" transform="translate(-288.32399 -74.31291)" fill="#e6e6e6"/><circle cx="260.46799" cy="328.2346" r="15.03014" fill="#ffb6b6"/><path d="M537.88424,413.1415c-.13119-.11507-.255-.23792-.38325-.35618-.00461.01213-.0053.02456-.01021.03665Z" transform="translate(-288.32399 -74.31291)" fill="#2f2e41"/><path d="M562.90107,396.91c-.08-.05-.15-.1-.23-.14a5.47174,5.47174,0,0,0-3.47-1.17c-1.2.15-2.19,1.01-3.34,1.35-2.47.72-4.96-1.04-7.52-1.22h-.06a6.22152,6.22152,0,0,0-6.6,5.82c-.05.83.06,1.66-.04,2.48a2.53966,2.53966,0,0,1-1.26,2.03c-1.13.51-2.65-.25-3.61.54-.85.71-.54,2.09-.03,3.08a4.50123,4.50123,0,0,1,.83,2.87,2.17016,2.17016,0,0,1-.07.24,22.61191,22.61191,0,0,1-7.2-16.89,8.91639,8.91639,0,0,1,.84-4.04,4.217,4.217,0,0,1,3.21-2.37c1.18-.1,2.4.43,3.52.05,1.38-.46,1.96-2.05,2.68-3.33a9.61922,9.61922,0,0,1,8.8-4.77,19.07257,19.07257,0,0,1,3.74.75l2.37994.65a12.85173,12.85173,0,0,1,2.63.93,8.55954,8.55954,0,0,1,3.01,2.91,12.9475,12.9475,0,0,1,1.49,3.12,22.65807,22.65807,0,0,1-3.95-.14c1.5.93,3.01,1.86,4.51,2.79A12.68545,12.68545,0,0,1,562.90107,396.91Z" transform="translate(-288.32399 -74.31291)" fill="#2f2e41"/><circle cx="511.6163" cy="49.43208" r="49.43208" fill="#ff6584"/><path d="M910.58107,100.34c-2.86005-9.58-10.94-15.83-20.7-17.2-.1-.01-.21.00995-.31,0a2.8578,2.8578,0,0,0-.42-.1,61.7049,61.7049,0,0,0-39.69,8.64,63.74154,63.74154,0,0,1-8.5,4.46,82.38,82.38,0,0,1-29.75,6.43995c-.08,0-.16.01-.24.01a24.424,24.424,0,0,0-21.85,17.61,2.8588,2.8588,0,0,0,1.28,3.12995,12.60546,12.60546,0,0,0,5.16,2.63q6.165,1.305,12.36,2.39,12.105,2.115,24.33,3.42,8.1.87,16.23,1.36c11.18.7,22.41.87,33.61005.52,5.54-.17,10.87994-.35,15.96-2.8a23.67579,23.67579,0,0,0,9.15-7.99A26.955,26.955,0,0,0,910.58107,100.34Z" transform="translate(-288.32399 -74.31291)" fill="#f2f2f2"/><path d="M716.921,468.59c-2.06-6.9-7.88-11.41-14.92-12.4-.08-.01-.15.01-.23,0a2.63128,2.63128,0,0,0-.30005-.07,44.43015,44.43015,0,0,0-28.62,6.23c-8.25,5.15-17.86,7.48-27.58,7.86a1.02749,1.02749,0,0,0-.17.01,17.6121,17.6121,0,0,0-15.75,12.69,2.059,2.059,0,0,0,.92,2.26,8.95175,8.95175,0,0,0,3.72,1.89c2.96.63,5.94,1.2,8.92,1.73,5.81,1.01,11.67,1.83,17.54,2.46a259.68934,259.68934,0,0,0,35.93,1.36c3.99-.12,7.84-.25,11.5-2.02a17.099,17.099,0,0,0,6.61-5.76A19.453,19.453,0,0,0,716.921,468.59Z" transform="translate(-288.32399 -74.31291)" fill="#f2f2f2"/><path d="M400.921,386.59c-2.06-6.9-7.88-11.41-14.92-12.4-.08-.01-.15.01-.23,0a2.63128,2.63128,0,0,0-.3-.07,44.43015,44.43015,0,0,0-28.62,6.23c-8.25,5.15-17.86,7.48-27.58,7.86a1.02749,1.02749,0,0,0-.17.01,17.6121,17.6121,0,0,0-15.75,12.69,2.059,2.059,0,0,0,.92,2.26,8.95175,8.95175,0,0,0,3.72,1.89c2.96.63,5.94,1.2,8.92,1.73,5.81,1.01,11.67005,1.83,17.54,2.46a259.68934,259.68934,0,0,0,35.93,1.36c3.99-.12,7.84-.25,11.5-2.02a17.099,17.099,0,0,0,6.61-5.76A19.453,19.453,0,0,0,400.921,386.59Z" transform="translate(-288.32399 -74.31291)" fill="#f2f2f2"/><path d="M483.8481,814.3171q5.07,5.565,9.84,11.37a375.59062,375.59062,0,0,1-133.21-51.4c-.85-.53-1.69-1.06-2.53-1.6a379.42717,379.42717,0,0,1-63.94-51.21c3.4-3.19,5.5-5.09,5.5-5.09,47.45-50.96,52.77-68.9,100.22-119.86,15.78,63.94,82.13,108.36,116.93,164.27a130.854,130.854,0,0,1-32.97,16.65c-.08.09-.16.19-.24.28A27.58136,27.58136,0,0,0,483.8481,814.3171Z" transform="translate(-288.32399 -74.31291)" fill="#f2f2f2"/><path d="M892.82814,634.17708a379.87347,379.87347,0,0,1-117.46,130.57c-1.04.72-2.08,1.44-3.13,2.15a376.1879,376.1879,0,0,1-113.13,51.75,21.6896,21.6896,0,0,0-6.43-3.41v-.02q3.9-7.29,7.8-14.58c-8.98,9.16-24.64,10.73-35.26,3.55a33.44554,33.44554,0,0,1,7.34-10.51c-2.6,1.19-6.64-.53-7.76-3.53-1.41-3.75.19-7.9,1.87-11.54,18.53-40.08,79.24-104.97,80.19-105.98-.65.4-28.37,17.81-44.45,16.52-.82-4.92-22.15-10.93-24.53-13.43,9.69-21.79,54.63-62.33,54.63-62.33,47.45-50.96,52.77-68.9,100.22-119.86C806.2281,548.22713,856.7281,588.63711,892.82814,634.17708Z" transform="translate(-288.32399 -74.31291)" fill="#f2f2f2"/><g opacity="0.2"><path d="M288.324,272.3641c.29522-.39124.60461-.76758.90551-1.1529l.01636-.15368Z" transform="translate(-288.32399 -74.31291)"/><path d="M801.68812,276.48714a19.74847,19.74847,0,0,1-20.49,11.96,20.08583,20.08583,0,0,1-3.26-.67q-17.535-5.22-35.06-9.6-22.92-5.75994-45.84-10.12994-19.15494-3.66-38.31-6.35-22.935-3.22494-45.85-5.06-19.155-1.545-38.32-2.11-22.92-.705-45.83,0-19.15494.57-38.32,2.11-22.91994,1.83-45.84,5.06-19.155,2.7-38.32,6.35-22.92,4.365-45.84,10.12994-17.535,4.39509-35.05,9.6a20.08583,20.08583,0,0,1-3.26.67,19.7358,19.7358,0,0,1-22.03-19.61v-9.24c22.55-20.39,54.45-29.84,85.21-33.06,36.58-3.83,73.75-.56,110.13-5.99,29.66-4.43005,59.13-14.64,88.91-11.09,25.95,3.08,49.6,16.38,75.19,21.7,32.1,6.67,65.99.54,97.8,8.47,12.47,3.1,24.69,8.55,33.6,17.8A43.42383,43.42383,0,0,1,801.68812,276.48714Z" transform="translate(-288.32399 -74.31291)"/></g><circle cx="262.12578" cy="391.49682" r="19.2126" fill="#1b75bb"/><path d="M547.82877,475.809a2.13651,2.13651,0,0,1-1.70954-.855l-5.24149-6.98877a2.13709,2.13709,0,1,1,3.41942-2.56439l3.42917,4.57187,8.80736-13.21087a2.13718,2.13718,0,1,1,3.55648,2.371l-10.483,15.72448a2.138,2.138,0,0,1-1.71893.951Z" transform="translate(-288.32399 -74.31291)" fill="#fff"/><path d="M786.67811,577.95711q-1.365,22.425-2.72,44.86-2.4,39.63006-4.8,79.27-1.89,31.335-3.79,62.66c-1.04.72-2.08,1.44-3.13,2.15q.915-14.95506,1.81-29.91,2.4-39.64507,4.8-79.27,2.41506-39.885,4.83-79.76C783.7881,576.02712,786.7881,576.02712,786.67811,577.95711Z" transform="translate(-288.32399 -74.31291)" fill="#fff"/><path d="M688.23222,651.60982l52.86863-44.57635,14.83364-12.507c1.47791-1.24611-.65345-3.359-2.12132-2.12133l-52.86863,44.57636-14.83364,12.507c-1.47791,1.2461.65345,3.359,2.12132,2.12132Z" transform="translate(-288.32399 -74.31291)" fill="#fff"/><path d="M694.98287,735.45306l38.55118-34.01574c1.45055-1.2799-.67785-3.395-2.12132-2.12132l-38.55118,34.01574c-1.45055,1.2799.67785,3.395,2.12132,2.12132Z" transform="translate(-288.32399 -74.31291)" fill="#fff"/><path d="M323.98287,720.45306l38.55118-34.01574c1.45055-1.2799-.67785-3.395-2.12132-2.12132l-38.55118,34.01574c-1.45055,1.2799.67785,3.395,2.12132,2.12132Z" transform="translate(-288.32399 -74.31291)" fill="#fff"/><path d="M820.90707,622.3717a29.53094,29.53094,0,0,1,25.797,13.08067c1.0541,1.60832,3.65286.10691,2.59041-1.51415a32.5768,32.5768,0,0,0-28.38744-14.56652c-1.92218.09045-1.9332,3.091,0,3Z" transform="translate(-288.32399 -74.31291)" fill="#fff"/><path d="M400.79531,678.64524a121.12644,121.12644,0,0,1,58.043,58.8697c.80425,1.75259,3.39079.23,2.59041-1.51416a124.70778,124.70778,0,0,0-42.6337-50.44756,120.895,120.895,0,0,0-16.48551-9.49839c-1.73436-.8255-3.25839,1.76021-1.51416,2.59041Z" transform="translate(-288.32399 -74.31291)" fill="#fff"/><path d="M398.86812,657.78713q-3.09,17.175-7.54,34.07a438.20428,438.20428,0,0,1-19.86,58.35q-5.13,12.21-10.99,24.08c-.85-.53-1.69-1.06-2.53-1.6a436.84616,436.84616,0,0,0,22.94-56.16,436.09517,436.09517,0,0,0,15.07995-59.53C396.30812,655.09713,399.20814,655.90713,398.86812,657.78713Z" transform="translate(-288.32399 -74.31291)" fill="#fff"/><circle cx="138.65442" cy="432.7774" r="14.56439" fill="#e6e6e6"/><path d="M424.99152,514.67039a1.61963,1.61963,0,0,1-1.29594-.64816l-3.97339-5.29794a1.62005,1.62005,0,1,1,2.59215-1.944l2.59952,3.46577,6.67655-10.01469a1.62012,1.62012,0,1,1,2.696,1.79736l-7.94678,11.92017a1.62078,1.62078,0,0,1-1.303.72095Z" transform="translate(-288.32399 -74.31291)" fill="#fff"/><circle cx="166.70281" cy="432.7774" r="14.56439" fill="#e6e6e6"/><path d="M453.03991,514.67039a1.61962,1.61962,0,0,1-1.29594-.64816l-3.97339-5.29794a1.62005,1.62005,0,1,1,2.59214-1.944l2.59953,3.46577,6.67655-10.01469a1.62012,1.62012,0,1,1,2.696,1.79736l-7.94678,11.92017a1.6208,1.6208,0,0,1-1.30306.72095Z" transform="translate(-288.32399 -74.31291)" fill="#fff"/><circle cx="152.29958" cy="409.2774" r="14.56439" fill="#e6e6e6"/><path d="M438.63668,491.17039a1.61963,1.61963,0,0,1-1.29594-.64816l-3.97338-5.29794a1.62005,1.62005,0,1,1,2.59214-1.944l2.59953,3.46577,6.67654-10.01469a1.62012,1.62012,0,0,1,2.696,1.79736l-7.94677,11.92017a1.62081,1.62081,0,0,1-1.30306.721Z" transform="translate(-288.32399 -74.31291)" fill="#fff"/><path d="M482.73825,484.58714l-2.15075.2151-10.6129,28.04839H412.36169l-10.6129-28.04839-2.15075-.2151a4.93854,4.93854,0,0,0-5.42989,4.91405v63.57757a18.90086,18.90086,0,0,0,18.90085,18.9009h56.19829a18.90086,18.90086,0,0,0,18.90086-18.9009V489.50119A4.93854,4.93854,0,0,0,482.73825,484.58714Z" transform="translate(-288.32399 -74.31291)" fill="#f2f2f2"/><path d="M563.9461,421.09888c-.71069-2.09113-3.45319-2.48651-5.6618-2.48q-7.38639.0218-14.75562.62829l.49262-.56909a7.33753,7.33753,0,0,0-4.13684-.46393c-1.35517.38447-2.46888,1.94019-1.85657,3.20875.45984.95269,1.74481,1.558,1.65246,2.61187-.15625,1.784-3.60888,1.191-4.146,2.89942a1.68128,1.68128,0,0,0,.75634,1.7854,4.55692,4.55692,0,0,0,1.96161.62182,40.41357,40.41357,0,0,0,21.56665-2.78076,9.0193,9.0193,0,0,0,3.18256-1.9873A3.59464,3.59464,0,0,0,563.9461,421.09888Z" transform="translate(-288.32399 -74.31291)" fill="#e6e6e6"/></svg>