<svg xmlns="http://www.w3.org/2000/svg" data-name="Layer 1" width="765.43727" height="647.17292" viewBox="0 0 765.43727 647.17292" xmlns:xlink="http://www.w3.org/1999/xlink"><path d="M832.13856,296.07645l-13.04-51.28-18.33985-72.1-1.04-4.07v-.01l-7.25-28.51a18.1915,18.1915,0,0,0-22.08984-13.13l-48.18018,12.25-301.04,76.57a18.19159,18.19159,0,0,0-13.12989,22.09l10.39014,40.86,26.3999,103.79,9.93018,39.05.50976,2h2.2002l-.51026-2-9.48974-37.34v-.00994l-27.54-108.26-9.82031-38.61a16.06077,16.06077,0,0,1,11.59033-19.5l300.40967-76.41,48.80029-12.41a16.06072,16.06072,0,0,1,19.5,11.59l7.69971,30.26,1.04,4.11,17.82031,70.07,12.96973,51,.54,2.14h2.22022Z" transform="translate(-217.28137 -126.41354)" fill="#ccc"/><circle cx="290.8798" cy="189.32903" r="51.55746" fill="#f2f2f2"/><path d="M625.11854,296.07645l2.47021,2.14H588.3285a16.05763,16.05763,0,0,0-16.04,16.04V436.61649l-.56983,28.97-25.08984-22.44-2.3501.6-18.60009-16.41a14.96508,14.96508,0,0,0-9.91993-3.75H466.81873l.75-2,9.77979-26.13,55.45019-148.25,5.7002-15.23a6.1952,6.1952,0,0,1,9.85986-2.51l37.31006,32.37,21.96,19.06Z" transform="translate(-217.28137 -126.41354)" fill="#e6e6e6"/><path d="M788.35877,296.07645l2.48,2.14H670.69861l.81006-2.14,25.58985-67.55a6.19412,6.19412,0,0,1,9.84033-2.51l50.86963,43.78,2.93017,2.51Z" transform="translate(-217.28137 -126.41354)" fill="#e6e6e6"/><path d="M834.93013,317.06567A30.28061,30.28061,0,0,0,810.75,329.08913,19.93751,19.93751,0,0,0,782.9315,347.3982h82.33116A30.33247,30.33247,0,0,0,834.93013,317.06567Z" transform="translate(-217.28137 -126.41354)" fill="#e6e6e6"/><path d="M948.65858,296.07645H588.3285a18.22092,18.22092,0,0,0-17.63965,13.78v.01a18.134,18.134,0,0,0-.54,4.38995v152.3l1.16992,1.03.96973.86v-154.19a16.05763,16.05763,0,0,1,16.04-16.04H948.65858a16.051,16.051,0,0,1,16.04,16.04v185.33h1.02a10.38615,10.38615,0,0,1,1.12012.05v-185.38A18.20652,18.20652,0,0,0,948.65858,296.07645Z" transform="translate(-217.28137 -126.41354)" fill="#3f3d56"/><circle cx="437.28404" cy="260.53495" r="48.84677" fill="#1b75bb"/><path d="M949.05848,499.58646H614.02869a17.14841,17.14841,0,0,1-11.25-4.25l-7.52-6.63,1.14991-1.66,2.08007-3,90.29981-130.01,9.27-13.35a6.19679,6.19679,0,0,1,10.18017,0l28.18018,40.57v.01l16.58008,23.87,39.57959,56.98,60.03027-85.69a6.19713,6.19713,0,0,1,10.15967,0l38.51025,54.96,2.21,3.16,44.16993,63.04Z" transform="translate(-217.28137 -126.41354)" fill="#3f3d56"/><path d="M770.10068,367.71368a37.35918,37.35918,0,0,0-29.83262,14.83414,24.59823,24.59823,0,0,0-34.32153,22.58911h101.5774A37.42318,37.42318,0,0,0,770.10068,367.71368Z" transform="translate(-217.28137 -126.41354)" fill="#ccc"/><path d="M595.18885,485.96647l-12.43994-10.96-.03028-.01995-.04-.03-.02979-.03c-.39014-.28-.78027-.57-1.16016-.87006-.10009-.06994-.18994-.13995-.27978-.21-.05029-.04-.09033-.07-.14014-.11-.02-.01-.03027-.03-.05029-.04-.27979-.22-.56983-.45-.84961-.68-.14014-.1-.27-.21-.41016-.32-.37988-.31-.75976-.63-1.14013-.95-.39991-.34-.79981-.68-1.19971-1.03-.01025-.01-.03027-.02-.04-.03-.08008-.07-.15039-.14-.23-.2-.38037-.34-.76025-.68006-1.14014-1.04-.31982-.29-.64013-.59-.95019-.88-.29-.27-.58008-.54-.85987-.82995l-.06005-.06c-.21-.2-.41993-.41-.63965-.63-.21045-.2-.41016-.41-.61035-.62-.21-.2-.41016-.41-.6001-.62006l-.15967-.16-.05029-.05-1.92969-1.71v2.67l1.16992,1.03.96973.86,20.55029,18.12,1.92969,1.71.49023.43.46-.67.69-.99Zm298.65967,11.62c.03027.66.08008,1.33.12988,2h70.72021v-2Zm-298.65967-11.62-12.43994-10.96-.03028-.01995-.04-.03-.02979-.03c-.39014-.28-.78027-.57-1.16016-.87006-.10009-.06994-.18994-.13995-.27978-.21-.05029-.04-.09033-.07-.14014-.11-.02-.01-.03027-.03-.05029-.04-.27979-.22-.56983-.45-.84961-.68-.14014-.1-.27-.21-.41016-.32-.37988-.31-.75976-.63-1.14013-.95-.39991-.34-.79981-.68-1.19971-1.03-.01025-.01-.03027-.02-.04-.03-.08008-.07-.15039-.14-.23-.2-.38037-.34-.76025-.68006-1.14014-1.04-.31982-.29-.64013-.59-.95019-.88-.29-.27-.58008-.54-.85987-.82995l-.06005-.06c-.21-.2-.41993-.41-.63965-.63-.21045-.2-.41016-.41-.61035-.62-.21-.2-.41016-.41-.6001-.62006l-.15967-.16-.05029-.05-1.92969-1.71v2.67l1.16992,1.03.96973.86,20.55029,18.12,1.92969,1.71.49023.43.46-.67.69-.99Zm352.46973,11.62H893.84852c.03027.66.08008,1.33.12988,2h55.08008Zm-352.46973-11.62-12.43994-10.96-.03028-.01995-.04-.03-.02979-.03c-.39014-.28-.78027-.57-1.16016-.87006-.10009-.06994-.18994-.13995-.27978-.21-.05029-.04-.09033-.07-.14014-.11-.02-.01-.03027-.03-.05029-.04-.27979-.22-.56983-.45-.84961-.68-.14014-.1-.27-.21-.41016-.32-.37988-.31-.75976-.63-1.14013-.95-.39991-.34-.79981-.68-1.19971-1.03-.01025-.01-.03027-.02-.04-.03-.08008-.07-.15039-.14-.23-.2-.38037-.34-.76025-.68006-1.14014-1.04-.31982-.29-.64013-.59-.95019-.88-.29-.27-.58008-.54-.85987-.82995l-.06005-.06c-.21-.2-.41993-.41-.63965-.63-.21045-.2-.41016-.41-.61035-.62-.21-.2-.41016-.41-.6001-.62006l-.15967-.16-.05029-.05-1.92969-1.71v2.67l1.16992,1.03.96973.86,20.55029,18.12,1.92969,1.71.49023.43.46-.67.69-.99Zm-48.56006-42.82-19.62988-17.31a16.97377,16.97377,0,0,0-11.24024-4.25H456.94861l.51026,2h58.2998a14.96508,14.96508,0,0,1,9.91993,3.75l18.60009,16.41,25.87012,22.81v-2.67Zm420.21,54.48c-.37012-.03-.74023-.04-1.12012-.04H614.02869a14.94465,14.94465,0,0,1-9.31006-3.24c-.21-.16-.41015-.33-.60986-.51l-6.98-6.16-.72021-.63-1.21973-1.08-12.43994-10.96-.03028-.01995-.04-.03-.02979-.03-8.31006-7.34-2.05029-1.81-.15967-.13-.05029-.05-1.92969-1.71-23.52-20.74-19.62988-17.31a16.97377,16.97377,0,0,0-11.24024-4.25h-86.04a17.02412,17.02412,0,0,0-17,17v318a17.02411,17.02411,0,0,0,17,17h536a17.0241,17.0241,0,0,0,17-17v-242A17.02788,17.02788,0,0,0,966.83875,497.62644Zm13.87988,258.96a15.01828,15.01828,0,0,1-15,15h-536a15.01828,15.01828,0,0,1-15-15v-318a15.01828,15.01828,0,0,1,15-15h86.04a14.96508,14.96508,0,0,1,9.91993,3.75l18.60009,16.41,25.87012,22.81,1.16992,1.03.96973.86,20.55029,18.12,1.92969,1.71.49023.43,7.52,6.63a17.14841,17.14841,0,0,0,11.25,4.25H965.71863a10.38615,10.38615,0,0,1,1.12012.05,15.01154,15.01154,0,0,1,13.87988,14.95Zm-385.52978-270.62-12.43994-10.96-.03028-.01995-.04-.03-.02979-.03c-.39014-.28-.78027-.57-1.16016-.87006-.10009-.06994-.18994-.13995-.27978-.21-.05029-.04-.09033-.07-.14014-.11-.02-.01-.03027-.03-.05029-.04-.27979-.22-.56983-.45-.84961-.68-.14014-.1-.27-.21-.41016-.32-.37988-.31-.75976-.63-1.14013-.95-.39991-.34-.79981-.68-1.19971-1.03-.01025-.01-.03027-.02-.04-.03-.08008-.07-.15039-.14-.23-.2-.38037-.34-.76025-.68006-1.14014-1.04-.31982-.29-.64013-.59-.95019-.88-.29-.27-.58008-.54-.85987-.82995l-.06005-.06c-.21-.2-.41993-.41-.63965-.63-.21045-.2-.41016-.41-.61035-.62-.21-.2-.41016-.41-.6001-.62006l-.15967-.16-.05029-.05-1.92969-1.71v2.67l1.16992,1.03.96973.86,20.55029,18.12,1.92969,1.71.49023.43.46-.67.69-.99Zm298.65967,11.62c.03027.66.08008,1.33.12988,2h70.72021v-2Zm-298.65967-11.62-12.43994-10.96-.03028-.01995-.04-.03-.02979-.03c-.39014-.28-.78027-.57-1.16016-.87006-.10009-.06994-.18994-.13995-.27978-.21-.05029-.04-.09033-.07-.14014-.11-.02-.01-.03027-.03-.05029-.04-.27979-.22-.56983-.45-.84961-.68-.14014-.1-.27-.21-.41016-.32-.37988-.31-.75976-.63-1.14013-.95-.39991-.34-.79981-.68-1.19971-1.03-.01025-.01-.03027-.02-.04-.03-.08008-.07-.15039-.14-.23-.2-.38037-.34-.76025-.68006-1.14014-1.04-.31982-.29-.64013-.59-.95019-.88-.29-.27-.58008-.54-.85987-.82995l-.06005-.06c-.21-.2-.41993-.41-.63965-.63-.21045-.2-.41016-.41-.61035-.62-.21-.2-.41016-.41-.6001-.62006l-.15967-.16-.05029-.05-1.92969-1.71v2.67l1.16992,1.03.96973.86,20.55029,18.12,1.92969,1.71.49023.43.46-.67.69-.99Zm0,0-12.43994-10.96-.03028-.01995-.04-.03-.02979-.03c-.39014-.28-.78027-.57-1.16016-.87006-.10009-.06994-.18994-.13995-.27978-.21-.05029-.04-.09033-.07-.14014-.11-.02-.01-.03027-.03-.05029-.04-.27979-.22-.56983-.45-.84961-.68-.14014-.1-.27-.21-.41016-.32-.37988-.31-.75976-.63-1.14013-.95-.39991-.34-.79981-.68-1.19971-1.03-.01025-.01-.03027-.02-.04-.03-.08008-.07-.15039-.14-.23-.2-.38037-.34-.76025-.68006-1.14014-1.04-.31982-.29-.64013-.59-.95019-.88-.29-.27-.58008-.54-.85987-.82995l-.06005-.06c-.21-.2-.41993-.41-.63965-.63-.21045-.2-.41016-.41-.61035-.62-.21-.2-.41016-.41-.6001-.62006l-.15967-.16-.05029-.05-1.92969-1.71v2.67l1.16992,1.03.96973.86,20.55029,18.12,1.92969,1.71.49023.43.46-.67.69-.99Zm352.46973,11.62H893.84852c.03027.66.08008,1.33.12988,2h55.08008Z" transform="translate(-217.28137 -126.41354)" fill="#3f3d56"/><path d="M270.21863,439.18607V415.58646a35.5,35.5,0,0,1,71,0v23.59961a1.90257,1.90257,0,0,1-1.90039,1.90039h-2.13379a1.90234,1.90234,0,0,1-1.73657-1.12891l-.50586-1.13769a.90063.90063,0,0,0-1.72339.36621,1.90257,1.90257,0,0,1-1.90039,1.90039H272.119A1.90258,1.90258,0,0,1,270.21863,439.18607Z" transform="translate(-217.28137 -126.41354)" fill="#2f2e41"/><polygon points="127.488 633.487 139.748 633.487 145.58 586.199 127.486 586.2 127.488 633.487" fill="#ffb8b8"/><path d="M342.14225,756.39728H380.673a0,0,0,0,1,0,0v14.88687a0,0,0,0,1,0,0H357.0291a14.88686,14.88686,0,0,1-14.88686-14.88686v0A0,0,0,0,1,342.14225,756.39728Z" transform="translate(505.56872 1401.2514) rotate(179.99738)" fill="#2f2e41"/><polygon points="36.488 633.487 48.748 633.487 54.58 586.199 36.486 586.2 36.488 633.487" fill="#ffb8b8"/><path d="M251.14225,756.39728H289.673a0,0,0,0,1,0,0v14.88687a0,0,0,0,1,0,0H266.0291a14.88686,14.88686,0,0,1-14.88686-14.88686v0a0,0,0,0,1,0,0Z" transform="translate(323.56872 1401.25555) rotate(179.99738)" fill="#2f2e41"/><path d="M324.82215,717.50345l-23.70532-96.35058a3.5,3.5,0,0,0-6.89307.6416l-5.27685,94.23047a4.4998,4.4998,0,0,1-4.85181,4.23242l-42.14771-3.37109a4.4965,4.4965,0,0,1-4.13964-4.60059c.55493-20.73242,11.167-165.373,41.43481-196.99023a4.48253,4.48253,0,0,1,4.17407-1.24122l40.42041,11.001a4.51181,4.51181,0,0,1,3.428,3.39551l44.53467,179.50976a4.49984,4.49984,0,0,1-3.52564,5.40723l-38.21777,7.47656a4.49311,4.49311,0,0,1-5.23413-3.34082Z" transform="translate(-217.28137 -126.41354)" fill="#2f2e41"/><circle cx="93.28766" cy="289.59024" r="24.56103" fill="#ffb8b8"/><path d="M323.32874,527.72611l-42.40552-9.51953a4.494,4.494,0,0,1-3.4917-3.93946l-2.94946-29.22558a32.01247,32.01247,0,0,1,24.89038-34.502q.51049-.1128,1.01978-.21875h.00024a31.4633,31.4633,0,0,1,29.344,9.19921,32.00291,32.00291,0,0,1,7.8916,30.2627l-8.95655,34.67773a4.47751,4.47751,0,0,1-4.34008,3.377A4.5944,4.5944,0,0,1,323.32874,527.72611Z" transform="translate(-217.28137 -126.41354)" fill="#1b75bb"/><path d="M218.19174,572.04011a9.07777,9.07777,0,0,1,5.64894-12.72182l30.69314-62.72552,15.83345,11.7907-35.034,57.7625a9.12691,9.12691,0,0,1-17.14157,5.89414Z" transform="translate(-217.28137 -126.41354)" fill="#ffb8b8"/><path d="M426.98517,538.28008a9.07768,9.07768,0,0,0-10.67255-8.936l-55.17218-42.80877-9.02616,17.557,56.88493,36.4416a9.12692,9.12692,0,0,0,17.986-2.25381Z" transform="translate(-217.28137 -126.41354)" fill="#ffb8b8"/><path d="M269.00545,513.40052a3.70491,3.70491,0,0,1-1.7854-.459L250.599,503.80579a3.72282,3.72282,0,0,1-1.56152-4.877l16.74218-34.791a14.7397,14.7397,0,0,1,7.48731-7.29883,14.3368,14.3368,0,0,1,14.51855,1.99122,13.67253,13.67253,0,0,1,3.74732,4.54492,14.2798,14.2798,0,0,1-.1626,13.59765l-19.09937,34.50879A3.73029,3.73029,0,0,1,269.00545,513.40052Z" transform="translate(-217.28137 -126.41354)" fill="#1b75bb"/><path d="M352.66684,507.27182l-32.34064-22.5771a14.27982,14.27982,0,0,1-6.132-12.13761,13.67257,13.67257,0,0,1,1.3639-5.73048,14.33678,14.33678,0,0,1,12.15947-8.17928,14.7397,14.7397,0,0,1,9.93588,3.25746L368.00186,485.773a3.72283,3.72283,0,0,1,.74487,5.06638l-10.90214,15.51986a3.72688,3.72688,0,0,1-5.17775.91258Z" transform="translate(-217.28137 -126.41354)" fill="#1b75bb"/><path d="M282.21863,407.58646a25.5,25.5,0,0,1,51,0v1.5h-6.60205a1.69326,1.69326,0,0,1-1.37475-.707l-1.199-1.67773a.6893.6893,0,0,0-1.24536.48535,1.68915,1.68915,0,0,1-1.67651,1.89941H282.21863Z" transform="translate(-217.28137 -126.41354)" fill="#2f2e41"/><path d="M938.2992,761.08646H452.13807A15.93753,15.93753,0,0,1,436.21863,745.167V456.73587a15.93753,15.93753,0,0,1,15.91944-15.91943A14.09637,14.09637,0,0,1,466.21863,454.897v271.27a14.93639,14.93639,0,0,0,14.91944,14.91943H936.65735a10.12544,10.12544,0,0,1,9.91529,7.5874,9.72,9.72,0,0,1-4.30689,11.18457A7.595,7.595,0,0,1,938.2992,761.08646Z" transform="translate(-217.28137 -126.41354)" fill="#f2f2f2"/></svg>