<svg id="fae85302-d6a4-4167-97e9-e5a398e49112" data-name="Layer 1" xmlns="http://www.w3.org/2000/svg" width="1018.4289" height="725.18799" viewBox="0 0 1018.4289 725.18799"><title>complete_task</title><ellipse cx="161.24006" cy="670.83913" rx="89.5" ry="15.10848" opacity="0.1"/><ellipse cx="487.24006" cy="707.83913" rx="89.5" ry="15.10848" opacity="0.1"/><path d="M165.483,467.73737c6.47428,8.63511,13.45881,18.51669,20.35217,29.28623l.9842-49.676.54312.3471A96.95771,96.95771,0,0,0,163.378,434.874l.543.30179Z" transform="translate(-90.78555 -87.40601)" fill="#e6e6e6"/><path d="M162.83193,434.68311c-8.87815-3.02781-17.4924-4.03229-25.36643-2.628-.40959.07309-.81227.15715-1.21409.24247,2.00076,2.14641,13.65979,14.82283,28.09317,33.92708Z" transform="translate(-90.78555 -87.40601)" fill="#e6e6e6"/><path d="M214.7809,551.32018q1.59225,3.80152,3.02846,7.55131L236.03,505.07169l.52407.50008q-3.22755-6.0704-6.84245-11.80386l-14.68225,57.77126Z" transform="translate(-90.78555 -87.40601)" fill="#e6e6e6"/><path d="M204.1413,528.63263l9.52187-56.40484.54067.43271A152.42187,152.42187,0,0,0,187.9149,448.096l-1.0034,50.6226Q196.53361,513.90366,204.1413,528.63263Z" transform="translate(-90.78555 -87.40601)" fill="#e6e6e6"/><path d="M107.38012,488.72068l-.22262-.68834a127.26972,127.26972,0,0,0,5.02886,25.15362l87.55405,9.03078c-4.57074-8.42866-9.289-16.33638-13.86955-23.5435Z" transform="translate(-90.78555 -87.40601)" fill="#e6e6e6"/><path d="M112.62406,514.56166l-.231-.68808q1.32864,4.3322,2.97871,8.7613l-.23586-.68708,88.61274,7.87652q-1.60551-3.141-3.24735-6.19852Z" transform="translate(-90.78555 -87.40601)" fill="#e6e6e6"/><path d="M214.15386,549.85322l14.55987-57.2898.53283.4697a182.01917,182.01917,0,0,0-14.53059-19.7709l-9.65051,57.16763Q210.08252,540.28014,214.15386,549.85322Z" transform="translate(-90.78555 -87.40601)" fill="#e6e6e6"/><path d="M217.85912,561.74862l-86.23181-8.30382a176.08868,176.08868,0,0,0,15.28577,17.94333l-.21385-.76355,78.82367,16.216A218.907,218.907,0,0,0,217.85912,561.74862Z" transform="translate(-90.78555 -87.40601)" fill="#e6e6e6"/><path d="M135.54024,432.84256l.20307-.43536c-11.85412,2.69118-20.22374,10.75634-24.82892,22.43019l52.74994,11.91913C148.04319,446.091,135.71757,433.02952,135.54024,432.84256Z" transform="translate(-90.78555 -87.40601)" fill="#e6e6e6"/><path d="M219.40686,563.141a217.50952,217.50952,0,0,1,6.89379,22.64067l20.53453-51.50181.50155.503a86.2269,86.2269,0,0,0-6.55582-20.75212q-1.81692-3.88927-3.804-7.66122l-18.43813,54.441C218.8298,561.58794,219.12585,562.36713,219.40686,563.141Z" transform="translate(-90.78555 -87.40601)" fill="#e6e6e6"/><path d="M184.95353,497.23728c-6.82253-10.64245-13.72811-20.40521-20.12832-28.93874l-53.96023-12.193-.18293-.681c-3.36858,8.8711-4.60022,19.76917-3.58,31.94124Z" transform="translate(-90.78555 -87.40601)" fill="#e6e6e6"/><path d="M130.58012,552.01038l86.72459,8.35114.01741-.05152a295.42409,295.42409,0,0,0-12.86241-29.08492l-88.83084-7.896q2.26228,5.99057,5.11349,12.10943A105.86309,105.86309,0,0,0,130.58012,552.01038Z" transform="translate(-90.78555 -87.40601)" fill="#e6e6e6"/><path d="M340.17419,568.83192l.197.61373a96.95741,96.95741,0,0,0-10.29538-25.17207l.22572.57883-19.56528,26.07486c-.52112,10.78008-1.44434,22.84561-3.00416,35.53688Z" transform="translate(-90.78555 -87.40601)" fill="#e6e6e6"/><path d="M329.77692,543.77828c-4.90669-7.99458-10.90062-14.26248-17.86071-18.20313-.36213-.205-.72591-.39708-1.08983-.58763.172,2.92923,1.06639,20.12882-.00216,44.04847Z" transform="translate(-90.78555 -87.40601)" fill="#e6e6e6"/><path d="M295.39463,666.7448q-1.19844,3.94347-2.4839,7.74755l48.34769-29.8146.08463.71936q1.386-6.73391,2.25869-13.45543L295.44634,667.072Z" transform="translate(-90.78555 -87.40601)" fill="#e6e6e6"/><path d="M301.67052,642.485l43.30955-37.36926.14036.67813a152.41931,152.41931,0,0,0-4.57987-35.6868l-33.06062,38.349Q305.20556,626.28865,301.67052,642.485Z" transform="translate(-90.78555 -87.40601)" fill="#e6e6e6"/><path d="M345.13108,606.58394l-43.895,37.8747q-2.41857,10.78659-5.38876,20.75636l47.75417-34.83749.11081.70163A182.02027,182.02027,0,0,0,345.13108,606.58394Z" transform="translate(-90.78555 -87.40601)" fill="#e6e6e6"/><path d="M260.41465,734.48434q.05781-.88637.11059-1.8211a151.47489,151.47489,0,0,0,19.87039-30.464L253.885,669.16274q-.52117-1.69084-1.09069-3.37334l28.21822,35.16429A218.885,218.885,0,0,0,291.1139,676.74l-55.80955-56.06251c.17423-.44.35084-.89108.5291-1.35011L291.57166,675.318l.04631-.02855a295.45933,295.45933,0,0,0,8.64431-30.6048L244.9128,589.89529q.1743-.763.34386-1.53411L300.608,643.15233q.76678-3.44315,1.45246-6.84521L246.873,580.11254q.13829-.80431.26937-1.61468l55.23083,56.23872c1.85558-9.407,3.26518-18.5068,4.33416-26.97917l-54.1049-57.7279.26764-.67216c-1.28183,1.867-2.52741,3.82552-3.74164,5.85407a111.53989,111.53989,0,0,0-1.55738-19.14674l-20.73119,51.9947a167.38124,167.38124,0,0,1,3.593,21.76778c-.12555,1.23929-.23888,2.4856-.329,3.74466l.68125.68431c.04314.6681.0832,1.33482.11663,1.99878l-.90632-.91042c-.04271.72954-.07493,1.46447-.10657,2.19962a157.62767,157.62767,0,0,0-4.04653-29.35073l-78.24689-16.09746c3.94147,4.04606,8.07235,7.97761,12.29391,11.76966a95.65216,95.65216,0,0,0-25.28029-4.31989l.60977.11919L146.769,610.14913c8.82631,6.21109,18.5232,13.44989,28.40784,21.56133l-14.21923-46.88991q.79039.703,1.58434,1.3995l14.18242,46.76975Q190.569,644.457,202.35677,656.11322l-6.51764-44.01586q.68545.478,1.3638.94745l6.58825,44.492q7.81608,7.81714,14.647,15.663l-3.159-48.25691q.6724.42061,1.32044.82292l3.19234,48.76676-.304-.13148q2.68941,3.12324,5.21424,6.24547l.61071-49.61683q.7053.41339,1.3039.76007l-.62157,50.47544c.51709.64932,1.0395,1.29883,1.54594,1.948a217.498,217.498,0,0,1,13.55431,19.40112l.2946-4.51447q.54438,2.00757,1.08976,3.9469l-.16747,2.56707c.607,1.00944,1.19618,2.018,1.77655,3.02609q.6792,2.30635,1.34453,4.48495-1.92834-3.573-4.02841-7.07524l-79.39087,8.87668c41.74354,21.95826,93.544,32.36772,96.84538,33.01686-.78308-3.46318-1.73528-6.89594-2.83094-10.29656.285-.29831.56656-.60021.84859-.90169.13475.406.27411.81249.40433,1.21812-.14734.15755-.29245.31938-.44029.47581q.24507-.11547.513-.243,1.14409,3.58623,2.05109,7.14888c.24161-1.92947.56506-4.86.84729-8.56618,14.29769-7.15748,51.32647-28.07513,70.12672-60.86937l-49.1299,26.82314A152.97744,152.97744,0,0,1,260.41465,734.48434ZM244.13605,657.014l.12152-1.8627,1.24616,1.55285-.12152,1.86273Z" transform="translate(-90.78555 -87.40601)" fill="#e6e6e6"/><path d="M309.931,524.95365l.43418-.20573c-10.84641-5.488-22.4367-4.6146-33.42929,1.4392l33.02524,42.82468C311.1107,543.13209,309.94839,525.21079,309.931,524.95365Z" transform="translate(-90.78555 -87.40601)" fill="#e6e6e6"/><path d="M291.41793,678.79958a217.49236,217.49236,0,0,1-9.131,21.83458L330.951,674.06522l.06544.70732a86.22927,86.22927,0,0,0,8.18683-20.16445q1.0812-4.15434,1.9566-8.3268L292.23573,676.451C291.96406,677.23538,291.69513,678.02435,291.41793,678.79958Z" transform="translate(-90.78555 -87.40601)" fill="#e6e6e6"/><path d="M309.87173,570.93989l-33.78279-43.80755.29353-.6412c-8.25263,4.68393-16.15219,12.2919-23.13,22.31745l53.66426,57.25776C308.45,593.51814,309.35831,581.59452,309.87173,570.93989Z" transform="translate(-90.78555 -87.40601)" fill="#e6e6e6"/><path d="M134.03068,579.533c-9.37927-.1353-17.88206,1.572-24.93649,5.34133-.367.19613-.724.40053-1.07977.6059,2.56624,1.42287,17.57265,9.87475,37.20423,23.58215Z" transform="translate(-90.78555 -87.40601)" fill="#e6e6e6"/><path d="M175.72066,633.2683l-77.72341,14.796-.42454-.58583A127.2704,127.2704,0,0,0,110.13023,669.846l86.058-18.47412C189.23606,644.76871,182.30452,638.70668,175.72066,633.2683Z" transform="translate(-90.78555 -87.40601)" fill="#e6e6e6"/><path d="M202.35166,657.36794q-2.49786-2.49086-5.00434-4.89123L110.97177,671.019l-.43238-.583q2.60247,3.70935,5.54084,7.41156l-.43662-.58055Z" transform="translate(-90.78555 -87.40601)" fill="#e6e6e6"/><path d="M240.68319,704.8618a218.91,218.91,0,0,0-15.04438-21.49435L141.063,702.12424a176.09177,176.09177,0,0,0,20.08352,12.33982l-.43943-.66Z" transform="translate(-90.78555 -87.40601)" fill="#e6e6e6"/><path d="M107.50661,586.21833l.05853-.47682c-10.44171,6.22346-15.90863,16.48073-16.68,29.00633l53.851-4.96936C123.4924,594.95338,107.733,586.34133,107.50661,586.21833Z" transform="translate(-90.78555 -87.40601)" fill="#e6e6e6"/><path d="M146.31683,610.88614l-55.08666,5.083-.38442-.59111c-.46165,9.47793,1.73556,20.223,6.46824,31.48369l77.0904-14.67557C164.62631,624.17371,155.04138,617.0235,146.31683,610.88614Z" transform="translate(-90.78555 -87.40601)" fill="#e6e6e6"/><path d="M224.68352,682.16526a295.44132,295.44132,0,0,0-21.22268-23.68491l-86.92141,19.948q4.00307,4.99793,8.606,9.93588a105.8698,105.8698,0,0,0,14.47832,12.71953l85.05914-18.86407Z" transform="translate(-90.78555 -87.40601)" fill="#e6e6e6"/><path d="M165.483,467.73737c6.47428,8.63511,13.45881,18.51669,20.35217,29.28623l.9842-49.676.54312.3471A96.95771,96.95771,0,0,0,163.378,434.874l.543.30179Z" transform="translate(-90.78555 -87.40601)" fill="#1b75bb"/><path d="M162.83193,434.68311c-8.87815-3.02781-17.4924-4.03229-25.36643-2.628-.40959.07309-.81227.15715-1.21409.24247,2.00076,2.14641,13.65979,14.82283,28.09317,33.92708Z" transform="translate(-90.78555 -87.40601)" fill="#1b75bb"/><path d="M214.7809,551.32018q1.59225,3.80152,3.02846,7.55131L236.03,505.07169l.52407.50008q-3.22755-6.0704-6.84245-11.80386l-14.68225,57.77126Z" transform="translate(-90.78555 -87.40601)" fill="#1b75bb"/><path d="M204.1413,528.63263l9.52187-56.40484.54067.43271A152.42187,152.42187,0,0,0,187.9149,448.096l-1.0034,50.6226Q196.53361,513.90366,204.1413,528.63263Z" transform="translate(-90.78555 -87.40601)" fill="#1b75bb"/><path d="M107.38012,488.72068l-.22262-.68834a127.26972,127.26972,0,0,0,5.02886,25.15362l87.55405,9.03078c-4.57074-8.42866-9.289-16.33638-13.86955-23.5435Z" transform="translate(-90.78555 -87.40601)" fill="#1b75bb"/><path d="M112.62406,514.56166l-.231-.68808q1.32864,4.3322,2.97871,8.7613l-.23586-.68708,88.61274,7.87652q-1.60551-3.141-3.24735-6.19852Z" transform="translate(-90.78555 -87.40601)" fill="#1b75bb"/><path d="M214.15386,549.85322l14.55987-57.2898.53283.4697a182.01917,182.01917,0,0,0-14.53059-19.7709l-9.65051,57.16763Q210.08252,540.28014,214.15386,549.85322Z" transform="translate(-90.78555 -87.40601)" fill="#1b75bb"/><path d="M217.85912,561.74862l-86.23181-8.30382a176.08868,176.08868,0,0,0,15.28577,17.94333l-.21385-.76355,78.82367,16.216A218.907,218.907,0,0,0,217.85912,561.74862Z" transform="translate(-90.78555 -87.40601)" fill="#1b75bb"/><path d="M135.54024,432.84256l.20307-.43536c-11.85412,2.69118-20.22374,10.75634-24.82892,22.43019l52.74994,11.91913C148.04319,446.091,135.71757,433.02952,135.54024,432.84256Z" transform="translate(-90.78555 -87.40601)" fill="#1b75bb"/><path d="M219.40686,563.141a217.50952,217.50952,0,0,1,6.89379,22.64067l20.53453-51.50181.50155.503a86.2269,86.2269,0,0,0-6.55582-20.75212q-1.81692-3.88927-3.804-7.66122l-18.43813,54.441C218.8298,561.58794,219.12585,562.36713,219.40686,563.141Z" transform="translate(-90.78555 -87.40601)" fill="#1b75bb"/><path d="M184.95353,497.23728c-6.82253-10.64245-13.72811-20.40521-20.12832-28.93874l-53.96023-12.193-.18293-.681c-3.36858,8.8711-4.60022,19.76917-3.58,31.94124Z" transform="translate(-90.78555 -87.40601)" fill="#1b75bb"/><path d="M130.58012,552.01038l86.72459,8.35114.01741-.05152a295.42409,295.42409,0,0,0-12.86241-29.08492l-88.83084-7.896q2.26228,5.99057,5.11349,12.10943A105.86309,105.86309,0,0,0,130.58012,552.01038Z" transform="translate(-90.78555 -87.40601)" fill="#1b75bb"/><path d="M340.17419,568.83192l.197.61373a96.95741,96.95741,0,0,0-10.29538-25.17207l.22572.57883-19.56528,26.07486c-.52112,10.78008-1.44434,22.84561-3.00416,35.53688Z" transform="translate(-90.78555 -87.40601)" fill="#1b75bb"/><path d="M329.77692,543.77828c-4.90669-7.99458-10.90062-14.26248-17.86071-18.20313-.36213-.205-.72591-.39708-1.08983-.58763.172,2.92923,1.06639,20.12882-.00216,44.04847Z" transform="translate(-90.78555 -87.40601)" fill="#1b75bb"/><path d="M295.39463,666.7448q-1.19844,3.94347-2.4839,7.74755l48.34769-29.8146.08463.71936q1.386-6.73391,2.25869-13.45543L295.44634,667.072Z" transform="translate(-90.78555 -87.40601)" fill="#1b75bb"/><path d="M301.67052,642.485l43.30955-37.36926.14036.67813a152.41931,152.41931,0,0,0-4.57987-35.6868l-33.06062,38.349Q305.20556,626.28865,301.67052,642.485Z" transform="translate(-90.78555 -87.40601)" fill="#1b75bb"/><path d="M345.13108,606.58394l-43.895,37.8747q-2.41857,10.78659-5.38876,20.75636l47.75417-34.83749.11081.70163A182.02027,182.02027,0,0,0,345.13108,606.58394Z" transform="translate(-90.78555 -87.40601)" fill="#1b75bb"/><path d="M260.41465,734.48434q.05781-.88637.11059-1.8211a151.47489,151.47489,0,0,0,19.87039-30.464L253.885,669.16274q-.52117-1.69084-1.09069-3.37334l28.21822,35.16429A218.885,218.885,0,0,0,291.1139,676.74l-55.80955-56.06251c.17423-.44.35084-.89108.5291-1.35011L291.57166,675.318l.04631-.02855a295.45933,295.45933,0,0,0,8.64431-30.6048L244.9128,589.89529q.1743-.763.34386-1.53411L300.608,643.15233q.76678-3.44315,1.45246-6.84521L246.873,580.11254q.13829-.80431.26937-1.61468l55.23083,56.23872c1.85558-9.407,3.26518-18.5068,4.33416-26.97917l-54.1049-57.7279.26764-.67216c-1.28183,1.867-2.52741,3.82552-3.74164,5.85407a111.53989,111.53989,0,0,0-1.55738-19.14674l-20.73119,51.9947a167.38124,167.38124,0,0,1,3.593,21.76778c-.12555,1.23929-.23888,2.4856-.329,3.74466l.68125.68431c.04314.6681.0832,1.33482.11663,1.99878l-.90632-.91042c-.04271.72954-.07493,1.46447-.10657,2.19962a157.62767,157.62767,0,0,0-4.04653-29.35073l-78.24689-16.09746c3.94147,4.04606,8.07235,7.97761,12.29391,11.76966a95.65216,95.65216,0,0,0-25.28029-4.31989l.60977.11919L146.769,610.14913c8.82631,6.21109,18.5232,13.44989,28.40784,21.56133l-14.21923-46.88991q.79039.703,1.58434,1.3995l14.18242,46.76975Q190.569,644.457,202.35677,656.11322l-6.51764-44.01586q.68545.478,1.3638.94745l6.58825,44.492q7.81608,7.81714,14.647,15.663l-3.159-48.25691q.6724.42061,1.32044.82292l3.19234,48.76676-.304-.13148q2.68941,3.12324,5.21424,6.24547l.61071-49.61683q.7053.41339,1.3039.76007l-.62157,50.47544c.51709.64932,1.0395,1.29883,1.54594,1.948a217.498,217.498,0,0,1,13.55431,19.40112l.2946-4.51447q.54438,2.00757,1.08976,3.9469l-.16747,2.56707c.607,1.00944,1.19618,2.018,1.77655,3.02609q.6792,2.30635,1.34453,4.48495-1.92834-3.573-4.02841-7.07524l-79.39087,8.87668c41.74354,21.95826,93.544,32.36772,96.84538,33.01686-.78308-3.46318-1.73528-6.89594-2.83094-10.29656.285-.29831.56656-.60021.84859-.90169.13475.406.27411.81249.40433,1.21812-.14734.15755-.29245.31938-.44029.47581q.24507-.11547.513-.243,1.14409,3.58623,2.05109,7.14888c.24161-1.92947.56506-4.86.84729-8.56618,14.29769-7.15748,51.32647-28.07513,70.12672-60.86937l-49.1299,26.82314A152.97744,152.97744,0,0,1,260.41465,734.48434ZM244.13605,657.014l.12152-1.8627,1.24616,1.55285-.12152,1.86273Z" transform="translate(-90.78555 -87.40601)" fill="#1b75bb"/><path d="M309.931,524.95365l.43418-.20573c-10.84641-5.488-22.4367-4.6146-33.42929,1.4392l33.02524,42.82468C311.1107,543.13209,309.94839,525.21079,309.931,524.95365Z" transform="translate(-90.78555 -87.40601)" fill="#1b75bb"/><path d="M291.41793,678.79958a217.49236,217.49236,0,0,1-9.131,21.83458L330.951,674.06522l.06544.70732a86.22927,86.22927,0,0,0,8.18683-20.16445q1.0812-4.15434,1.9566-8.3268L292.23573,676.451C291.96406,677.23538,291.69513,678.02435,291.41793,678.79958Z" transform="translate(-90.78555 -87.40601)" fill="#1b75bb"/><path d="M309.87173,570.93989l-33.78279-43.80755.29353-.6412c-8.25263,4.68393-16.15219,12.2919-23.13,22.31745l53.66426,57.25776C308.45,593.51814,309.35831,581.59452,309.87173,570.93989Z" transform="translate(-90.78555 -87.40601)" fill="#1b75bb"/><path d="M134.03068,579.533c-9.37927-.1353-17.88206,1.572-24.93649,5.34133-.367.19613-.724.40053-1.07977.6059,2.56624,1.42287,17.57265,9.87475,37.20423,23.58215Z" transform="translate(-90.78555 -87.40601)" fill="#1b75bb"/><path d="M175.72066,633.2683l-77.72341,14.796-.42454-.58583A127.2704,127.2704,0,0,0,110.13023,669.846l86.058-18.47412C189.23606,644.76871,182.30452,638.70668,175.72066,633.2683Z" transform="translate(-90.78555 -87.40601)" fill="#1b75bb"/><path d="M202.35166,657.36794q-2.49786-2.49086-5.00434-4.89123L110.97177,671.019l-.43238-.583q2.60247,3.70935,5.54084,7.41156l-.43662-.58055Z" transform="translate(-90.78555 -87.40601)" fill="#1b75bb"/><path d="M240.68319,704.8618a218.91,218.91,0,0,0-15.04438-21.49435L141.063,702.12424a176.09177,176.09177,0,0,0,20.08352,12.33982l-.43943-.66Z" transform="translate(-90.78555 -87.40601)" fill="#1b75bb"/><path d="M107.50661,586.21833l.05853-.47682c-10.44171,6.22346-15.90863,16.48073-16.68,29.00633l53.851-4.96936C123.4924,594.95338,107.733,586.34133,107.50661,586.21833Z" transform="translate(-90.78555 -87.40601)" fill="#1b75bb"/><path d="M146.31683,610.88614l-55.08666,5.083-.38442-.59111c-.46165,9.47793,1.73556,20.223,6.46824,31.48369l77.0904-14.67557C164.62631,624.17371,155.04138,617.0235,146.31683,610.88614Z" transform="translate(-90.78555 -87.40601)" fill="#1b75bb"/><path d="M224.68352,682.16526a295.44132,295.44132,0,0,0-21.22268-23.68491l-86.92141,19.948q4.00307,4.99793,8.606,9.93588a105.8698,105.8698,0,0,0,14.47832,12.71953l85.05914-18.86407Z" transform="translate(-90.78555 -87.40601)" fill="#1b75bb"/><rect x="479.2762" y="415" width="15" height="110" fill="#3f3d56"/><rect x="656.2762" y="415" width="15" height="110" fill="#3f3d56"/><rect x="302.2762" y="398" width="546" height="25" fill="#e6e6e6"/><rect x="302.2762" y="477" width="546" height="25" fill="#e6e6e6"/><rect x="302.2762" y="431" width="546" height="15" fill="#e6e6e6"/><rect x="302.2762" y="454" width="546" height="15" fill="#e6e6e6"/><rect x="300.7762" y="393.5" width="17" height="132" fill="#3f3d56"/><rect x="831.2762" y="393" width="17" height="132" fill="#3f3d56"/><rect x="254.2762" y="560" width="17" height="137" fill="#3f3d56"/><rect x="310.2762" y="555" width="17" height="73" fill="#3f3d56"/><rect x="827.2762" y="555" width="17" height="73" fill="#3f3d56"/><rect x="875.2762" y="560" width="17" height="137" fill="#3f3d56"/><rect x="254.2762" y="560" width="638" height="18" fill="#3f3d56"/><polygon points="300.276 520 254.276 560 892.276 560 848.276 520 300.276 520" fill="#e6e6e6"/><path d="M290.54173,115.146l-.13-.72-12.30994-6.52H276.17l-.73889-1.41614H250.06175l-5.883,1.41614h-21.667l-5.86987,6.85-.06006.42c-.38,2.45-8.87,60.06,13.53,78.39l9.34,4.34h6.03992l-1.18067-2.35749,5.25073,2.35749h17l.302-.45313,10.088-3.77691.26-.3C278.12181,192.296,299.56175,166.246,290.54173,115.146Z" transform="translate(-90.78555 -87.40601)" fill="#1b75bb" opacity="0.1"/><rect x="159.2762" y="85" width="10" height="26" fill="#e6e6e6"/><rect x="154.7762" y="144.5" width="18" height="500" fill="#3f3d56"/><rect x="150.2762" y="136" width="27" height="17" fill="#3f3d56"/><polygon points="140.276 105 157.276 123 150.276 136 164.276 139 177.276 136 169.276 122 185.276 105 140.276 105" fill="#3f3d56"/><path d="M218.06175,115.406l-8-8,6-6h76l6,7-9,7S241.06175,113.406,218.06175,115.406Z" transform="translate(-90.78555 -87.40601)" fill="#3f3d56"/><path d="M290.54173,115.146l-.13-.72-12.30994-6.52-5.62011-2.98-31.54993-2.03-17.69006,4.16-.73.85-5.86987,6.85-.06006.42c-.38,2.45-8.87,60.06,13.53,78.39l9.34,4.34,7.86,3.65-1.82006-3.65-2.99-5.97c-3.12988-18.22-10.01-66.09-5.61987-76.09l18.13989-5.85,16.1001,5.98c1.10987,7.19,8.28992,57.6-4.29,75.57l-.27.39v5.63l10.39-3.89.26-.3C278.12181,192.296,299.56175,166.246,290.54173,115.146Zm-15.3999,76-5.58008,2.1v-.38c13.80005-20.59,4.78-75.88,4.39-78.24l-.14-.86-15.78-5.86-2.92993-1.09-3.38012,1.09-16.91993,5.46-.29.51c-6.42993,11.53,4.6001,76.04,5.07007,78.78l.04.22,1.18994,2.38-8.95-4.13c-19.95007-16.61-13.11011-69.8-12.38012-75.07l5.40014-6.3,7.85987-1.85,8.45007-1.99,13.91.9,16.54,1.07.03992.02,16.03,8.48C295.65184,162.736,277.43175,188.186,275.14183,191.146Z" transform="translate(-90.78555 -87.40601)" fill="#3f3d56"/><ellipse cx="164.2762" cy="14" rx="27" ry="14" fill="#3f3d56"/><path d="M241.06175,706.406l-16,51s25,14,59,0l-16-51Z" transform="translate(-90.78555 -87.40601)" fill="#3f3d56"/><circle cx="164.2762" cy="80" r="8" fill="#1b75bb"/><path d="M524.372,446.72463a33.84039,33.84039,0,0,1,9.2634-4.64548,236.20528,236.20528,0,0,1,65.26844-14.20789c19.40737-1.37621,40.44151.25837,55.59968,12.4555a19.11765,19.11765,0,0,1,5.63984,6.57067c1.907,4.11522,1.32909,8.89873.71173,13.39213a15.13268,15.13268,0,0,1-1.29868,5.04158c-2.03978,3.88374-7.06181,5.24426-11.42383,4.77856s-8.45511-2.31131-12.75765-3.167a57.0268,57.0268,0,0,0-8.05768-.8206l-26.98461-1.46088c-16.78-.90843-33.78111-1.80174-50.24091,1.58481a50.04442,50.04442,0,0,0-14.51562,5.002c-3.75947,2.11073-6.291,5.13948-9.77939,1.24086C519.66819,465.6396,516.2759,453.051,524.372,446.72463Z" transform="translate(-90.78555 -87.40601)" fill="#2f2e41"/><path d="M566.18737,458.65767s36.29535-16.27033,50.06255,2.50313-7.50938,11.26408-7.50938,11.26408l-23.77971,7.50938L558.678,474.928Z" transform="translate(-90.78555 -87.40601)" fill="#f2f2f2"/><path d="M568.06472,446.76782s5.00625,23.77971,1.25156,30.03753,21.27659,15.01877,21.27659,15.01877l23.77971-10.01252s-6.25782-38.79847,0-46.30786Z" transform="translate(-90.78555 -87.40601)" fill="#ffb9b9"/><path d="M568.06472,446.76782s5.00625,23.77971,1.25156,30.03753,21.27659,15.01877,21.27659,15.01877l23.77971-10.01252s-6.25782-38.79847,0-46.30786Z" transform="translate(-90.78555 -87.40601)" opacity="0.1"/><path d="M544.61251,732.7028c3.58075,6.86517,5.90169,14.30252,8.27061,21.67413a1.76326,1.76326,0,0,0,2.19056,1.45707l22.26192-.02477c2.74729-.00306,6.43329-.88568,6.40473-3.63283-.02006-1.93017-1.99313-3.13372-3.46151-4.38664-4.07524-3.47725-5.13619-9.21075-6.824-14.295a48.49736,48.49736,0,0,0-18.04518-24.23659,10.561,10.561,0,0,0-3.85777-1.90671,10.75565,10.75565,0,0,0-4.22941.22948c-3.90786.78843-18.50124,3.4861-15.74445,9.1703,1.187,2.44746,5.586,4.99516,7.43034,7.28157A52.295,52.295,0,0,1,544.61251,732.7028Z" transform="translate(-90.78555 -87.40601)" fill="#575a89"/><path d="M622.02589,706.88319a50.58023,50.58023,0,0,1-2.61718,4.81123c-3.22515,5.3192-7.03114,10.28106-10.03451,15.72857-1.87336,3.39792-3.4503,7.07052-3.65734,10.94512s1.15762,7.99861,4.24858,10.34411c3.23168,2.45228,7.66234,2.56577,11.67869,1.99446s8.00942-1.72247,12.05486-1.41937c-1.3639-7.71825,5.14536-14.51112,6.77334-22.178.45727-2.15349.52522-4.38624,1.13812-6.50071a31.86192,31.86192,0,0,1,2.5196-5.57151,72.03641,72.03641,0,0,0,6.79861-20.05158c.15329-.84662-19.78885-.98545-21.65951-.58089C623.43146,695.66707,624.28528,702.04246,622.02589,706.88319Z" transform="translate(-90.78555 -87.40601)" fill="#575a89"/><path d="M468.32061,585.62686c-5.693,8.909-4.38124,20.71541-.38282,30.50283s10.36228,18.43967,14.71789,28.07344c2.77679,6.14171,4.724,12.65384,7.85086,18.62493,3.872,7.39394,9.52528,13.91124,12.12351,21.84294,1.65625,5.05608,2.03622,10.59753,4.71916,15.192a46.55976,46.55976,0,0,0,5.52767,6.85776,63.37267,63.37267,0,0,1,12.74056,22.75738c2.452-7.30468,9.79481-12.09409,17.33638-13.67384s15.35581-.50662,22.98531.5711c-4.256-6.59313-8.55317-13.27-11.09012-20.69609-2.45363-7.18218-3.17754-14.82319-4.83032-22.23078-3.38929-15.19054-10.62959-29.2014-17.79735-43.01671l36.84192-2.92225a143.634,143.634,0,0,1,18.10091-.67137c9.50936.44824,18.82532,2.77934,28.28408,3.85676s19.46489.79528,27.89428-3.629a133.67272,133.67272,0,0,0-23.9834,78.94293,30.56426,30.56426,0,0,1,46.26706,10.91875c14.43813-19.73009,12.72169-47.19734,24.1623-68.804,2.3525-4.44293,5.23562-8.58129,7.77468-12.92031,5.02179-8.58179,8.66362-17.88626,12.28434-27.14671,3.20032-8.18527,6.42409-17.293,3.35466-25.52822a26.654,26.654,0,0,0-5.46933-8.41068c-6.601-7.27753-15.78889-12.661-25.61163-12.88516-15.07892-.34418-27.53544,10.833-40.76278,18.0808-15.58013,8.53692-33.75635,11.93023-51.47766,10.67546-18.16917-1.28648-35.52166-7.2339-52.832-12.47168a251.3697,251.3697,0,0,0-26.36672-6.80163c-7.42323-1.39244-14.493.15-21.80834,2.04829C480.90916,574.83055,472.90446,578.45349,468.32061,585.62686Z" transform="translate(-90.78555 -87.40601)" fill="#2f2e41"/><path d="M625.63665,422.9881A37.5777,37.5777,0,0,1,588.08974,460.535a36.64244,36.64244,0,0,1-6.67086-.60073,37.54538,37.54538,0,1,1,44.21777-36.94619Z" transform="translate(-90.78555 -87.40601)" fill="#ffb9b9"/><path d="M566.18737,458.65767s6.8836,3.12891,9.38673,5.632,10.01251,16.27033,22.52815,7.50938,13.7672-13.7672,17.52189-13.7672,8.76095,7.50938,8.76095,7.50938l34.418,103.254a144.14748,144.14748,0,0,1-31.91488,26.90863c-20.025,12.51563-43.80474,18.77345-55.06881,13.7672s-32.54066-8.761-36.29535-18.77346-10.01252-40.05-10.01252-40.05l17.5219-76.3454Z" transform="translate(-90.78555 -87.40601)" fill="#f2f2f2"/><path d="M561.355,563.08574c2.7286-5.89382,3.12542-12.56507,3.35623-19.05576a115.5142,115.5142,0,0,0-.50938-19.277c-1.10914-8.37194-3.83541-16.4375-5.55717-24.70522a104.44318,104.44318,0,0,1-2.18873-22.049c.02512-3.3796.26978-6.93742,2.11138-9.7713,1.28477-1.977,3.29437-3.50817,4.09719-5.72508,1.57416-4.34683-2.3153-8.89829-6.57778-10.68831-5.07079-2.12947-10.86647-1.98651-16.20147-.65036s-10.311,3.79412-15.23974,6.23441c-3.56041,1.76282-7.19641,3.57994-9.95724,6.43683-3.885,4.02021-5.59333,9.61952-6.97273,15.03734-1.104,4.33628-2.08523,8.858-1.24524,13.25307,1.36407,7.13711,7.18227,12.505,10.28388,19.07605,3.60165,7.63046,3.35908,16.52257,1.92654,24.83783s-3.97562,16.44555-4.7598,24.84679.41959,17.43205,5.68306,24.02686c2.1449,2.68744,7.96354,9.05652,11.89015,8.3359,3.08478-.56613,7.55707-7.35677,10.04206-9.5093C548.71494,577.52108,557.23261,571.99006,561.355,563.08574Z" transform="translate(-90.78555 -87.40601)" fill="#2f2e41"/><path d="M626.92782,454.57605c.10958,6.98034-2.96727,13.61537-6.58588,19.58554s-7.8692,11.61657-10.53578,18.06844a41.41269,41.41269,0,0,0-1.93292,25.47742,82.19824,82.19824,0,0,0,2.76118,8.52516l6.8573,18.80947a32.64684,32.64684,0,0,0,3.97643,8.34863,26.9602,26.9602,0,0,0,5.40421,5.19875,50.43715,50.43715,0,0,0,17.63245,9.19868c6.4521,1.70509,13.5114,1.5981,19.607-1.11854A283.7228,283.7228,0,0,1,676.291,491.47369c1.371-4.50506,2.86935-9.24789,1.81175-13.83665-1.18463-5.1399-5.31321-8.99889-9.23771-12.52311-12.00211-10.77791-25.20052-22.09907-41.266-23.55205C618.30089,440.721,626.84858,449.52947,626.92782,454.57605Z" transform="translate(-90.78555 -87.40601)" fill="#2f2e41"/><path d="M544.79452,600.08843c.95192,1.86329,1.54439,3.89265,2.4857,5.76133a32.1886,32.1886,0,0,0,5.10681,6.867c8.36825,9.279,18.59741,18.52266,31.08,19.08238a8.52255,8.52255,0,0,0,3.66329-.46109c2.1837-.90794,3.47374-3.24754,3.89857-5.574.88507-4.84687-1.25447-9.68315-3.39666-14.1201-4.64288-9.61639-9.867-19.4767-18.55991-25.67874-8.5691-6.11372-20.051-7.59837-30.04421-4.52-4.52814,1.3949-12.03662,3.83071-6.04143,7.962C537.53482,592.5413,542.15772,594.92713,544.79452,600.08843Z" transform="translate(-90.78555 -87.40601)" fill="#ffb9b9"/><path d="M598.75422,477.65867c-1.52893-3.41495-3.12752-6.929-5.87358-9.47035a21.7906,21.7906,0,0,0-8.97209-4.54547,49.0651,49.0651,0,0,0-13.16177-1.88638c-5.3005-.033-11.44644,1.38878-13.69732,6.18773-1.78741,3.81083-.40174,8.32344,1.39791,12.12851a11.89155,11.89155,0,0,0,3.71037,5.0122c2.28579,1.54439,5.242,1.49546,7.95172,2.01274,4.24844.81105,8.05109,3.08823,11.75257,5.32564l9.28379,5.61169,15.94624,9.6389c-.4202-.254-.27082-11.18929-.76059-12.98146C604.75375,488.91917,601.202,483.12583,598.75422,477.65867Z" transform="translate(-90.78555 -87.40601)" fill="#ffb9b9"/><path d="M552.30313,751.54319c-3.73128,5.07055-2.98316,12.31868-6.28836,17.67672-2.865,4.64442-8.26439,7.07963-11.84794,11.19509a30.00981,30.00981,0,0,0-3.0461,4.38179c-3.32426,5.56824-6.02627,12.70465-2.75231,18.30262,2.63369,4.50324,8.16962,6.26326,13.24668,7.46281,6.41711,1.51617,13.08453,2.7296,19.57572,1.571s12.83514-5.13334,15.14958-11.30759a43.67948,43.67948,0,0,1,1.61986-4.57108c3.51829-6.92638,14.55387-7.00125,18.15458-13.88514,2.51985-4.81749.20348-10.64068-2.11191-15.5597l-7.07174-15.02381c-2.3468-4.98574-11.86036-2.1185-16.82-3.31325C563.64278,746.91445,556.95648,745.19771,552.30313,751.54319Z" transform="translate(-90.78555 -87.40601)" fill="#2f2e41"/><path d="M607.00124,738.63672c-3.001,2.10319-4.941,5.40322-6.39838,8.76553-3.49982,8.07435-4.70181,16.926-5.86882,25.64852-.46753,3.4944-.93262,7.07082-.20241,10.51991,1.50815,7.1235,7.96321,12.36912,14.91121,14.54718s14.40007,1.84273,21.67272,1.486c2.33583-.11459,4.76454-.25444,6.81258-1.38351,3.65508-2.015,5.083-6.753,4.4562-10.87934s-2.88106-7.7979-5.08771-11.34059-4.46306-7.21227-5.09505-11.33787c-1.0631-6.93981,1.93687-17.12677-2.32662-23.40529C625.60223,734.96509,612.70352,734.64032,607.00124,738.63672Z" transform="translate(-90.78555 -87.40601)" fill="#2f2e41"/><path d="M624.69217,403.42065a9.53037,9.53037,0,0,0-4.1335-5.39538,21.87249,21.87249,0,0,0-.87275-7.12025c-2.27381-6.72219-7.66041-6.33689-12.74282-9.30889-2.20506-1.28946-2.06886-2.42911-3.21676-4.547a16.87581,16.87581,0,0,0-6.50265-6.63465c-3.26068-2.07749-6.70263-4.217-10.56-4.47994-8.10629-.55252-14.32148,7.07206-22.06935,9.51912-3.41507,1.07854-7.08466,1.123-10.51775,2.14264s-6.85824,3.45433-7.3699,6.99888c-.2362,1.63641.18051,3.31514-.059,4.9511-.47629,3.25151-3.329,5.52876-5.23863,8.20315-4.223,5.91407-3.74,14.269-.36285,20.70374a29.10147,29.10147,0,0,0,2.43514,3.81069,23.441,23.441,0,0,0,2.57111,8.70495c3.3771,6.43474,9.18827,11.24314,15.25879,15.238a36.0164,36.0164,0,0,1-.90041-6.49783,4.4825,4.4825,0,0,1,.2763-2.153c.67605-1.4132,2.46242-1.789,3.82444-2.563,2.82106-1.60311,3.92733-5.15086,4.00891-8.39458s-.60584-6.49279-.266-9.71963a5.31085,5.31085,0,0,1,1.81806-3.90671,6.27973,6.27973,0,0,1,3.42767-.81721c5.78008-.23582,11.81935-.342,16.91773-3.07537,1.73924-.93248,3.35617-2.16571,5.26568-2.66369,4.3328-1.12988,8.76117,1.907,11.25827,5.62378s3.74208,8.13983,6.046,11.97939,6.28409,7.26356,10.73859,6.80866a1.78255,1.78255,0,0,0,1.33032-.59156,1.99416,1.99416,0,0,0,.24506-1.13339l.24887-17.0275A25.73666,25.73666,0,0,0,624.69217,403.42065Z" transform="translate(-90.78555 -87.40601)" fill="#2f2e41"/><path d="M505.86763,492.48863c-3.5824,5.28506-7.713,10.36666-9.68211,16.44021-1.15738,3.56982-1.51681,7.34356-2.35473,11.00157-2.79095,12.18406-10.854,23.00592-11.66444,35.47925A16.86858,16.86858,0,0,0,483.351,563.556c2.313,5.03124,7.84851,7.68282,13.12879,9.3507s10.95082,2.86958,15.16546,6.46122a46.474,46.474,0,0,1,5.74667,6.66208,55.66548,55.66548,0,0,0,26.58928,18.19242c-.82649-5.69488-1.21434-12.55909,3.338-16.07918,2.46424-1.90548,5.757-2.24462,8.86043-2.51282l14.66444-1.26732a188.44105,188.44105,0,0,0-32.14612-25.0422c-4.05492-2.505-8.46834-5.14724-10.31986-9.53916-1.15748-2.74563-1.14165-5.82105-1.16909-8.80056a216.86482,216.86482,0,0,0-2.76252-32.55644c-1.2072-7.47624-2.80573-14.88573-4.63393-22.23483-.51324-2.06315-3.5467-11.3174-7.28054-9.152-.87948.51005-1.70237,6.3805-2.21589,7.59859A46.086,46.086,0,0,1,505.86763,492.48863Z" transform="translate(-90.78555 -87.40601)" fill="#2f2e41"/><path d="M674.76671,472.51642l5.98854,12.45451a29.92583,29.92583,0,0,1,3.7756,16.841l.35548,37.35964c.0475,4.99241.08578,10.06011-1.22852,14.87665a11.91338,11.91338,0,0,1-2.06531,4.44215,13.8846,13.8846,0,0,1-3.54186,2.85312c-11.33379,7.08154-26.03039,11.10646-38.00488,5.17228a52.5939,52.5939,0,0,1-7.79175-5.08635c-4.77238-3.53418-9.6152-7.13732-13.18542-11.88281-3.73661-4.96664-5.878-10.91288-8.39181-16.59711a127.54587,127.54587,0,0,0-17.33866-28.4384c-1.01694-1.26105-2.11029-2.63655-2.147-4.25614-.07429-3.27465,3.811-4.88673,6.84034-6.13261,5.17533-2.12848,10.05559-6.23571,10.92192-11.76418,11.00529,14.432,23.14967,29.68062,40.516,34.95427a1.79191,1.79191,0,0,0,2.75627-1.53162c.98552-4.12464,1.33418-8.37187,2.05533-12.55085a71.48938,71.48938,0,0,1,7.54185-21.74986C663.87931,477.67026,670.53961,463.7252,674.76671,472.51642Z" transform="translate(-90.78555 -87.40601)" fill="#2f2e41"/><path d="M526.16093,508.53256a57.44137,57.44137,0,0,1-5.488,25.59709,21.15187,21.15187,0,0,0-2.149,5.63878c-.65691,4.20771,1.73771,8.28126,4.47459,11.54406a47.46886,47.46886,0,0,0,20.29576,14.11971" transform="translate(-90.78555 -87.40601)" opacity="0.1"/><path d="M656.20073,501.08113c-.88234,2.3728-.081,4.99693.599,7.43543a74.91745,74.91745,0,0,1,2.73038,21.73834.79121.79121,0,0,1-.92533.94835c-2.88883.177-6.19612.19568-8.15607-1.93394" transform="translate(-90.78555 -87.40601)" opacity="0.1"/><rect x="661.12351" y="127.5" width="357.30539" height="70.54491" fill="#e6e6e6"/><rect x="661.12351" y="209.95509" width="357.30539" height="70.54491" fill="#e6e6e6"/><circle cx="698.68638" cy="162.31437" r="21.07186" fill="#1b75bb"/><rect x="749.0756" y="154.06886" width="207.97006" height="4.58084" fill="#1b75bb"/><rect x="749.0756" y="165.97904" width="207.97006" height="4.58084" fill="#1b75bb"/><circle cx="698.68638" cy="245.68563" r="21.07186" fill="#ccc"/><rect x="749.0756" y="237.44012" width="207.97006" height="4.58084" fill="#ccc"/><rect x="749.0756" y="249.3503" width="207.97006" height="4.58084" fill="#ccc"/><rect x="661.12351" y="290.95509" width="357.30539" height="70.54491" fill="#e6e6e6"/><circle cx="698.68638" cy="326.68563" r="21.07186" fill="#ccc"/><rect x="749.0756" y="318.44012" width="207.97006" height="4.58084" fill="#ccc"/><rect x="749.0756" y="330.3503" width="207.97006" height="4.58084" fill="#ccc"/><polygon points="696.766 170.281 689.219 160.218 691.007 158.878 697.155 167.075 721.361 147.27 722.776 149 696.766 170.281" fill="#f2f2f2"/></svg>