<svg xmlns="http://www.w3.org/2000/svg" data-name="Layer 1" width="933.03873" height="637.11024" viewBox="0 0 933.03873 637.11024" xmlns:xlink="http://www.w3.org/1999/xlink"><circle cx="276.03873" cy="51" r="51" fill="#ff6584"/><path d="M501.397,142.83238c-24.7168-3.34094-52.93512,10.01868-59.34131,34.12354a21.59652,21.59652,0,0,0-41.0935,2.1087l2.82971,2.02668a372.27461,372.27461,0,0,0,160.65881-.72638C547.2578,162.296,526.11382,146.17327,501.397,142.83238Z" transform="translate(-133.32283 -130.962)" fill="#f0f0f0"/><path d="M395.397,210.83238c-24.7168-3.34094-52.93512,10.01868-59.34131,34.12354a21.59652,21.59652,0,0,0-41.0935,2.1087l2.82971,2.02668a372.27461,372.27461,0,0,0,160.65881-.72638C441.2578,230.296,420.11382,214.17327,395.397,210.83238Z" transform="translate(-133.32283 -130.962)" fill="#f0f0f0"/><path d="M584.08252,347.21943c-8.366-13.83661-18.2793-28.61-33.80438-33.128-17.97913-5.23218-36.44818,5.16174-52.1142,15.4184A1518.60779,1518.60779,0,0,0,363.01709,429.0843l.04724.53711q50.42432-3.47736,100.84851-6.95465c24.28772-1.67493,49.40985-3.58087,70.87348-15.0705,8.14471-4.35986,16.084-10.18377,25.31335-10.5896,11.46655-.50415,21.46466,7.50409,29.32178,15.87085,46.47741,49.49213,59.92706,125.17743,112.07007,168.66A1654.78665,1654.78665,0,0,0,584.08252,347.21943Z" transform="translate(-133.32283 -130.962)" fill="#f2f2f2"/><path d="M869.77241,767.00252c-5.13965-6.49-7.23974-8.01-12.30957-14.56q-61.9204-80.08494-116.40039-165.58-37.00488-58.065-70.33984-118.36-15.87012-28.665-30.87012-57.78-11.63965-22.575-22.75977-45.42c-2.12011-4.35-4.18017-8.72-6.23-13.1-4.83007-10.3-9.57031-20.65-14.66015-30.81-5.79981-11.58-12.85987-23.72-23.51026-31.5a32.07579,32.07579,0,0,0-16.71-6.43c-8.66992-.56-16.66992,3.02-24.18994,6.93-55.02,28.69-106.52978,64.66-153.11963,105.59a797.15615,797.15615,0,0,0-124.40039,138.09c-1.09961,1.57-3.6997.07-2.58984-1.51q6.55518-9.27008,13.37012-18.34a801.56189,801.56189,0,0,1,204.63964-190.88q19.90577-12.9,40.56006-24.59c6.93994-3.93,13.91016-7.81,21-11.45,6.9502-3.57,14.33008-6.78,22.27-6.9,27.02-.42,41.01026,30.18,50.62012,50.77q4.53,9.72,9.16992,19.38,17.53491,36.67494,36.41992,72.68,11.655,22.23,23.82032,44.2,37.85961,68.415,80.48,134.06c37.64013,57.97,74.98,109.18,117.85986,163.39C873.07271,766.38252,870.96284,768.52253,869.77241,767.00252Z" transform="translate(-133.32283 -130.962)" fill="#e4e4e4"/><path d="M376.00239,380.87257c-1.56982-1.75-3.12988-3.5-4.71-5.25-12.46-13.78-25.82959-27.4-42.93994-35.3a62.29773,62.29773,0,0,0-26.1001-6.05c-9.33984.03-18.46972,2.48-27.09961,5.91-4.08007,1.63-8.07031,3.48-12,5.45-4.49023,2.26-8.90039,4.67-13.29,7.1q-12.36034,6.84-24.3999,14.28-23.95532,14.805-46.41015,31.87-11.64039,8.85-22.8003,18.28-10.37988,8.76-20.33984,17.99c-1.41992,1.31-3.54-.81-2.12012-2.12,1.75-1.63,3.52-3.25,5.29-4.85q7.5-6.78,15.24024-13.3,14.11449-11.91,28.96-22.9,23.0852-17.1,47.75976-31.88,12.33033-7.38,25-14.14c2.55029-1.36,5.13037-2.69,7.74024-3.95a123.38878,123.38878,0,0,1,18.3999-7.49,65.45682,65.45682,0,0,1,27.79-2.73,72.35208,72.35208,0,0,1,25.64013,8.87c16.79981,9.39,29.82959,23.91,42.50977,38.08C379.40278,380.18257,377.29243,382.31257,376.00239,380.87257Z" transform="translate(-133.32283 -130.962)" fill="#e4e4e4"/><path d="M720.2258,523.67006,760.48254,508.946l19.98761-7.31056c6.50962-2.38092,13.0036-5.09142,19.733-6.79628,5.94967-1.50732,11.99508-1.754,17.86079.22757a41.165,41.165,0,0,1,13.931,8.63575A113.05346,113.05346,0,0,1,843.42127,515.905c4.35168,5.22973,8.63907,10.51429,12.94569,15.78113q26.6614,32.606,52.97414,65.495,26.31214,32.88847,52.27246,66.05639,26.02375,33.249,51.68959,66.77607,3.14409,4.1072,6.28282,8.21849c1.15607,1.51417,3.76281.02141,2.59042-1.51415q-25.85517-33.86422-52.07076-67.4512-26.28007-33.66726-52.92331-67.04892-26.64271-33.381-53.64551-66.47249-6.72721-8.24409-13.47663-16.47c-3.79558-4.62592-7.54837-9.30172-11.71148-13.60732-7.64169-7.90326-17.189-14.88761-28.61729-15.07712-6.71922-.11141-13.222,2.02075-19.46484,4.2792-6.73008,2.43471-13.444,4.915-20.16547,7.37338l-40.53825,14.82705-10.13456,3.70676c-1.79851.65781-1.02158,3.55818.79751,2.89284Z" transform="translate(-133.32283 -130.962)" fill="#e4e4e4"/><path d="M323.05481,357.662c-20.45758-10.51416-46.65637-8.4549-65.45544,4.681a933.583,933.583,0,0,1,106.2149,24.79C349.3252,378.642,337.99127,365.33863,323.05481,357.662Z" transform="translate(-133.32283 -130.962)" fill="#f2f2f2"/><path d="M257.398,362.30677l-3.93835,3.20117c1.33215-1.12042,2.717-2.17089,4.13971-3.165C257.53217,362.33137,257.46521,362.31837,257.398,362.30677Z" transform="translate(-133.32283 -130.962)" fill="#f2f2f2"/><path d="M830.47913,523.81715c-3.96277-4.82373-8.2472-9.87445-14.1745-11.83374l-5.53388.21826A627.70418,627.70418,0,0,0,977.95959,703.33784Q904.21936,613.57752,830.47913,523.81715Z" transform="translate(-133.32283 -130.962)" fill="#f2f2f2"/><path d="M418.37151,712.2298c2.2563-18.1432,13.50046-36.01951,30.80358-41.9238a84.23663,84.23663,0,0,0,.00418,57.8341c2.65882,7.192,6.36493,14.91443,3.864,22.1629-1.55607,4.5102-5.3628,7.9609-9.618,10.11853-4.25542,2.15763-8.978,3.186-13.64158,4.19379l-.91781.75908C421.46259,748.65742,416.11522,730.373,418.37151,712.2298Z" transform="translate(-133.32283 -130.962)" fill="#f0f0f0"/><path d="M449.3468,670.64906a71.99962,71.99962,0,0,0-17.899,40.52135,31.00571,31.00571,0,0,0,.35269,9.70821,17.783,17.783,0,0,0,4.42287,8.24814c1.99348,2.19025,4.28623,4.19977,5.71258,6.83646a10.88857,10.88857,0,0,1,.532,8.889c-1.25932,3.612-3.74137,6.556-6.26867,9.3507-2.80607,3.103-5.76987,6.28151-6.96266,10.39522-.14453.49844-.90948.245-.76517-.25264,2.07526-7.15715,9.023-11.22255,12.3363-17.6689,1.54607-3.008,2.195-6.50013.74559-9.67536-1.26745-2.77661-3.63-4.85087-5.66759-7.0511a18.97584,18.97584,0,0,1-4.6251-7.90377,28.66392,28.66392,0,0,1-.72463-9.65883A69.85254,69.85254,0,0,1,435.63758,691.16a73.27638,73.27638,0,0,1,13.176-21.11527c.34453-.3858.87547.22106.53319.60435Z" transform="translate(-133.32283 -130.962)" fill="#fff"/><path d="M431.6647,706.294a10.80224,10.80224,0,0,1-8.22263-11.31574c.04106-.51683.84611-.47731.805.0402a10.00263,10.00263,0,0,0,7.67028,10.51037c.50444.11993.24891.88442-.25265.76517Z" transform="translate(-133.32283 -130.962)" fill="#fff"/><path d="M435.06632,728.14935a20.82049,20.82049,0,0,0,9.29757-11.991c.14628-.49791.91127-.24466.76517.25264a21.65641,21.65641,0,0,1-9.70033,12.4581c-.44683.265-.80681-.45609-.36241-.7197Z" transform="translate(-133.32283 -130.962)" fill="#fff"/><path d="M439.541,684.18505a6.11461,6.11461,0,0,0,5.79456-.29415c.44325-.27058.80277.45088.36241.7197a6.85189,6.85189,0,0,1-6.40961.33962.41646.41646,0,0,1-.25627-.50891.40493.40493,0,0,1,.50891-.25626Z" transform="translate(-133.32283 -130.962)" fill="#fff"/><path d="M501.91744,702.712c-.272.17683-.54393.35365-.81622.53729a80.525,80.525,0,0,0-10.29614,8.03847c-.25171.22444-.50341.45569-.74815.68689a84.89212,84.89212,0,0,0-18.4368,25.2377,82.44017,82.44017,0,0,0-4.51581,11.68373c-1.66632,5.529-3.03312,11.65649-6.33156,16.179a14.14151,14.14151,0,0,1-1.10181,1.36016H429.86311c-.06774-.034-.13582-.06123-.20389-.09522l-1.19014.05441c.04782-.21082.10195-.42845.14977-.63927.02723-.12241.0611-.24482.08833-.36723.02025-.0816.04084-.16325.05446-.238.00664-.02719.01361-.05437.02025-.0748.01362-.0748.03421-.14283.04782-.21082q.44879-1.826.92481-3.652c0-.00681,0-.00681.00664-.01362a121.21857,121.21857,0,0,1,10.20116-26.78145c.13615-.25162.272-.51006.42173-.76168a78.66681,78.66681,0,0,1,7.0661-10.718,69.54281,69.54281,0,0,1,4.63137-5.29778,57.83138,57.83138,0,0,1,14.4719-10.84044c10.691-5.64463,23.06817-7.80727,34.49367-4.35928C501.33931,702.52836,501.62522,702.61673,501.91744,702.712Z" transform="translate(-133.32283 -130.962)" fill="#f0f0f0"/><path d="M501.85043,703.09027a71.99959,71.99959,0,0,0-38.688,21.57761,31.00547,31.00547,0,0,0-5.56341,7.9638,17.783,17.783,0,0,0-1.43454,9.24855c.273,2.949.89376,5.93389.44516,8.8979a10.88859,10.88859,0,0,1-4.92707,7.41767c-3.18015,2.12575-6.93445,2.982-10.635,3.69184-4.10869.78809-8.38883,1.54157-11.81794,4.108-.41549.311-.8737-.35191-.45884-.6624,5.96608-4.46514,13.96108-3.52814,20.48775-6.68033,3.04546-1.47087,5.66611-3.86843,6.42055-7.27633.65972-2.98006.02222-6.05865-.28-9.04218a18.976,18.976,0,0,1,1.06573-9.09536,28.664,28.664,0,0,1,5.23671-8.14831,69.85277,69.85277,0,0,1,16.85382-13.87752,73.27646,73.27646,0,0,1,23.23318-8.92648c.50736-.10061.56591.7036.06186.80355Z" transform="translate(-133.32283 -130.962)" fill="#fff"/><path d="M466.27154,720.90493a10.80223,10.80223,0,0,1,.24755-13.98558c.34394-.38794.96294.12831.61854.51677a10.00261,10.00261,0,0,0-.20368,13.01c.33056.39947-.33374.856-.66241.45884Z" transform="translate(-133.32283 -130.962)" fill="#fff"/><path d="M455.82912,740.4032a20.82043,20.82043,0,0,0,14.643-3.97639c.41658-.30948.87491.3533.45884.6624a21.65647,21.65647,0,0,1-15.24581,4.10683c-.51634-.0574-.36959-.84992.14395-.79284Z" transform="translate(-133.32283 -130.962)" fill="#fff"/><path d="M485.87142,707.99421a6.1146,6.1146,0,0,0,4.80373,3.25387c.51681.05082.3695.84332-.14395.79283a6.85188,6.85188,0,0,1-5.32219-3.58786.41643.41643,0,0,1,.10179-.56062.40494.40494,0,0,1,.56062.10178Z" transform="translate(-133.32283 -130.962)" fill="#fff"/><path d="M635.09378,613.64549c-14.62048-32.33949-14.08141-73.33131,8.60906-100.62078a163.52006,163.52006,0,0,0,58.52675,95.80513c11.682,9.22412,25.63557,18.2672,28.82681,32.80582,1.98584,9.04623-.82887,18.6146-5.69485,26.4946-4.86642,7.88026-11.64948,14.3625-18.35545,20.75085l-.75238,2.1862C677.07408,670.86462,649.71426,645.985,635.09378,613.64549Z" transform="translate(-133.32283 -130.962)" fill="#f0f0f0"/><path d="M644.33441,513.41929a139.76568,139.76568,0,0,0,11.34992,85.23986,60.188,60.188,0,0,0,10.40759,15.726,34.52045,34.52045,0,0,0,15.673,9.18876c5.51866,1.61128,11.35024,2.62038,16.38112,5.54511a21.13693,21.13693,0,0,1,9.87569,14.18751c1.56856,7.25791.43569,14.64658-.92326,21.83358-1.50886,7.9798-3.20251,16.2444-1.016,24.26621.26492.97195-1.25871,1.32619-1.52323.3557-3.80409-13.95657,3.592-27.72149,2.5582-41.75329-.4824-6.5475-2.94089-12.9893-8.55491-16.78287-4.90921-3.31732-10.9219-4.363-16.52376-5.94621a36.836,36.836,0,0,1-15.65954-8.41365,55.64221,55.64221,0,0,1-10.9738-15.26782,135.59768,135.59768,0,0,1-13.02782-40.32823,142.24424,142.24424,0,0,1,.46208-48.31231c.18039-.98775,1.674-.51963,1.4948.46166Z" transform="translate(-133.32283 -130.962)" fill="#fff"/><path d="M651.10943,590.36132a20.96931,20.96931,0,0,1-25.07172-10.4258c-.45494-.89773.91871-1.64686,1.37426-.74794a19.4171,19.4171,0,0,0,23.34175,9.6505c.957-.31174,1.30726,1.21328.35571,1.52324Z" transform="translate(-133.32283 -130.962)" fill="#fff"/><path d="M678.8591,623.12544a40.41664,40.41664,0,0,0,3.26936-29.27245c-.26147-.97286,1.26208-1.32739,1.52323-.35571a42.03938,42.03938,0,0,1-3.464,30.45373c-.472.89121-1.79808.0608-1.32861-.82557Z" transform="translate(-133.32283 -130.962)" fill="#fff"/><path d="M641.78632,545.76544a11.86963,11.86963,0,0,0,9.30177-6.35057c.4605-.89675,1.78612-.06534,1.32861.82557a13.30085,13.30085,0,0,1-10.27468,7.04823.80839.80839,0,0,1-.93947-.58376.78607.78607,0,0,1,.58377-.93947Z" transform="translate(-133.32283 -130.962)" fill="#fff"/><path d="M763.86725,513.34147c-.27162.56813-.54324,1.13625-.80852,1.716a156.31605,156.31605,0,0,0-8.923,23.735c-.18989.6265-.37289,1.26428-.54438,1.89493a164.79283,164.79283,0,0,0-5.0059,60.46479,160.03356,160.03356,0,0,0,4.34126,23.92488c2.83412,10.84561,6.77,22.37951,5.88185,33.20919a27.45446,27.45446,0,0,1-.449,3.36814l-49.38039,30.16127c-.14662.01223-.287.036-.43412.04856l-1.91654,1.2944c-.13411-.39764-.26465-.81294-.39875-1.21058-.07876-.23034-.1465-.46739-.22525-.69773-.049-.15569-.09753-.31178-.15066-.44947-.01651-.05176-.03247-.10386-.04213-.14441-.05313-.13769-.08786-.27122-.13411-.39764q-1.10415-3.47908-2.16324-6.98578c-.00689-.01128-.00689-.01128-.00278-.02928-5.33438-17.82666-9.22738-36.25527-10.19951-54.6889-.02906-.55461-.06556-1.12016-.07207-1.68855a152.70842,152.70842,0,0,1,.86076-24.90562,135.00144,135.00144,0,0,1,2.31183-13.46272,112.26262,112.26262,0,0,1,13.00552-32.602c11.99934-20.16876,30.31544-36.27541,52.73207-42.12435C762.72373,513.62232,763.2868,513.47941,763.86725,513.34147Z" transform="translate(-133.32283 -130.962)" fill="#f0f0f0"/><path d="M764.139,514.036a139.76558,139.76558,0,0,0-42.258,74.89269,60.18785,60.18785,0,0,0-1.15826,18.8224A34.52043,34.52043,0,0,0,727.7045,624.524c3.43623,4.60914,7.48488,8.92585,9.74086,14.29a21.13692,21.13692,0,0,1-.65667,17.27378c-3.11736,6.73941-8.47038,11.95679-13.8825,16.877-6.00912,5.463-12.33728,11.04211-15.42118,18.76349-.37366.93555-1.80347.30105-1.43038-.63309,5.36547-13.43386,19.55829-19.9714,27.181-31.79745,3.55687-5.51825,5.47231-12.14184,3.27382-18.55083-1.92248-5.60438-6.09367-10.05938-9.61327-14.69616a36.8361,36.8361,0,0,1-7.43767-16.146,55.64207,55.64207,0,0,1,.43033-18.79749,135.59759,135.59759,0,0,1,13.87838-40.04348,142.24434,142.24434,0,0,1,29.4563-38.29647c.73872-.68,1.64945.593.91556,1.26859Z" transform="translate(-133.32283 -130.962)" fill="#fff"/><path d="M723.2241,579.54894a20.96928,20.96928,0,0,1-13.74131-23.41932c.17725-.99069,1.72506-.76179,1.54758.23022a19.41711,19.41711,0,0,0,12.82681,21.75873c.95183.32729.3133,1.75579-.63308,1.43037Z" transform="translate(-133.32283 -130.962)" fill="#fff"/><path d="M725.65439,622.41648a40.41659,40.41659,0,0,0,20.23444-21.404c.377-.9342,1.80688-.3,1.43038.63308a42.0394,42.0394,0,0,1-21.101,22.23c-.91346.42738-1.47227-1.034-.56378-1.45909Z" transform="translate(-133.32283 -130.962)" fill="#fff"/><path d="M742.62992,538.32848a11.86965,11.86965,0,0,0,11.25042.52974c.90759-.43876,1.46546,1.02319.56377,1.45908a13.30087,13.30087,0,0,1-12.44727-.55845.80838.80838,0,0,1-.39865-1.03173.78606.78606,0,0,1,1.03173-.39864Z" transform="translate(-133.32283 -130.962)" fill="#fff"/><polygon points="725.514 520.131 781.058 477.961 808.131 505.035 717.646 566.955 725.514 520.131" fill="#3f3d56"/><path d="M807.03294,767.20732H617.03105l6.66385-21.59187,0,0c41.3017-14.95146,18.10249-47.08878,57.38991-66.73248,96.0948-48.04741,133.297-191.42584,119.2256-248.10373l62.97293-2.66264S950.24935,675.08693,807.03294,767.20732Z" transform="translate(-133.32283 -130.962)" fill="#3f3d56"/><path d="M969.24011,665.71012a31.93613,31.93613,0,0,1-41.26779.77207l-.1235-.10145-.00424-.1588a30.5991,30.5991,0,0,0-1.22673-7.80948,21.85993,21.85993,0,0,1-.79373,5.40552l-.15916.59276-.42679-.44059c-.3686-.3801-.72535-.76621-1.06037-1.1471a32.20586,32.20586,0,0,1-4.90515-7.4278,93.88529,93.88529,0,0,0-26.0497-32.46942,45.58123,45.58123,0,0,1-5.4649-5.25843,45.05344,45.05344,0,0,1,56.57619-68.63908l.28151.16481-.14618.29138a23.46809,23.46809,0,0,1-4.1873,6.04,30.60544,30.60544,0,0,0,6.44891-4.65918l.20458-.19293.23182.15986a45.24493,45.24493,0,0,1,8.23895,7.33376l.26263.3011a20.1126,20.1126,0,0,0,14.89315,6.87274,31.92614,31.92614,0,0,1,30.91491,37.40367l-.03616.21093-.20517.06215a27.39642,27.39642,0,0,1-11.15786,1.3922,31.12474,31.12474,0,0,0,9.93853,2.48923l.44277.03514-.14055.4216a31.90481,31.90481,0,0,1-9.20813,13.88347l-.12121.10606c-.043.03725-.086.07508-.12869.11264a31.35132,31.35132,0,0,0-10.83089,21.76127A32.17035,32.17035,0,0,1,969.24011,665.71012Z" transform="translate(-133.32283 -130.962)" fill="#1b75bb"/><path d="M975.05222,655.44662a31.84413,31.84413,0,0,1-.35905,3.433,32.27636,32.27636,0,0,0,5.18891-15.99059c.04233-.87182.13383-1.74027.25659-2.60484A30.29057,30.29057,0,0,0,975.05222,655.44662Z" transform="translate(-133.32283 -130.962)" opacity="0.15"/><path d="M985.10047,616.63725a31.07694,31.07694,0,0,0,7.942,2.24554,31.95882,31.95882,0,0,0,2.91006-3.55058A27.07953,27.07953,0,0,1,985.10047,616.63725Z" transform="translate(-133.32283 -130.962)" opacity="0.15"/><path d="M996.8045,606.15171a32.12049,32.12049,0,0,1-.22722,8.285,31.752,31.752,0,0,0,3.59374-7.41116l.14056-.42161-.44278-.03514A30.8607,30.8607,0,0,1,996.8045,606.15171Z" transform="translate(-133.32283 -130.962)" opacity="0.15"/><path d="M993.85,575.84677a32.00121,32.00121,0,0,0-23.43542-10.83611,20.11266,20.11266,0,0,1-14.8932-6.87276l-.2626-.3011a45.24585,45.24585,0,0,0-8.23894-7.33375l-.23183-.15984-.20458.19291a30.605,30.605,0,0,1-6.449,4.65918,23.46938,23.46938,0,0,0,4.18745-6.04l.1461-.29137-.28147-.16479a45.01994,45.01994,0,0,0-66.70073,29.1457,45.02824,45.02824,0,0,1,61.87087-16.58807l.28147.16479-.1461.29137a23.46915,23.46915,0,0,1-4.18745,6.04,30.60431,30.60431,0,0,0,6.449-4.65917l.20459-.19291.23182.15984a45.24585,45.24585,0,0,1,8.23894,7.33375l.2626.3011a20.11269,20.11269,0,0,0,14.8932,6.87276,31.93166,31.93166,0,0,1,30.8822,26.2436,38.699,38.699,0,0,0,4.62114-1.12451l.20518-.06214.03632-.21089A31.80343,31.80343,0,0,0,993.85,575.84677Z" transform="translate(-133.32283 -130.962)" opacity="0.15"/><path d="M1061.07334,444.374a102.83134,102.83134,0,0,1-85.89211,101.41687l-.50791.08287-.393-.32747a98.52562,98.52562,0,0,0-21.49007-13.64148A70.38587,70.38587,0,0,1,964.17154,545.319l1.09469,1.64537-1.97284.0949c-1.70285.08287-3.395.12431-5.02834.12431a103.69889,103.69889,0,0,1-28.38967-3.93633c-41.95228-11.936-87.00283-13.977-133.89924-6.06689a146.76531,146.76531,0,0,1-24.33505,2.03032c-79.96223,0-145.01653-65.06767-145.01653-145.04527a144.81484,144.81484,0,0,1,99.37786-137.70726l.99712-.33014.39363.97305a75.56556,75.56556,0,0,1,5.69865,22.96837,98.54689,98.54689,0,0,0,2.44934-25.49991l-.03141-.90489.8795-.22054a145.68482,145.68482,0,0,1,35.25184-4.32394l1.28649.00534A64.76057,64.76057,0,0,0,821.2154,227.733a102.79916,102.79916,0,0,1,156.17525,4.7971l.43306.536-.286.62821c-6.00674,13.23916-12.5508,22.88416-20.362,29.93747a100.21813,100.21813,0,0,0,27.1533-18.73531l1.02652-.99578.72043,1.23637a102.73045,102.73045,0,0,1,13.985,51.78708l-.00134.51861c-.00133.18311-.00133.36757-.00133.55068,0,27.835,10.76374,54.217,29.58058,72.46316A103.58531,103.58531,0,0,1,1061.07334,444.374Z" transform="translate(-133.32283 -130.962)" fill="#1b75bb"/><g opacity="0.15"><path d="M935.38412,201.41437A72.62637,72.62637,0,0,1,922.4307,217.305a99.96437,99.96437,0,0,0,20.239-12.6496Q939.09242,202.8932,935.38412,201.41437Z" transform="translate(-133.32283 -130.962)"/><path d="M994.89387,324.12985a103.22171,103.22171,0,0,1,14.78285,18.00929,105.08365,105.08365,0,0,1-9.61841-44.14573c0-.18314,0-.36759.00132-.55067l.00132-.51862A102.73113,102.73113,0,0,0,986.076,245.13705l-.72046-1.2364-1.02659.99577a100.44911,100.44911,0,0,1-18.75086,14.27814C967.32809,284.20458,977.77809,307.53321,994.89387,324.12985Z" transform="translate(-133.32283 -130.962)"/><path d="M965.31591,250.59739l-.00132.51863c-.00132.18308-.00132.36753-.00132.55066,0,1.00916.01828,2.01577.04646,3.02083a107.07093,107.07093,0,0,0,12.178-20.99321l.286-.62824-.433-.536a103.64161,103.64161,0,0,0-18.59874-17.988A102.96379,102.96379,0,0,1,965.31591,250.59739Z" transform="translate(-133.32283 -130.962)"/><path d="M1029.63891,370.45657a92.95145,92.95145,0,0,1-13.10328-15.94191,102.70515,102.70515,0,0,1-76.09941,144.94942l-.50793.0829-.39293-.32748A98.53044,98.53044,0,0,0,918.04525,485.578a70.38382,70.38382,0,0,1,11.38121,13.41422l1.09473,1.6454-1.97278.09487c-1.70295.08289-3.395.12431-5.02835.12431a103.69869,103.69869,0,0,1-28.38972-3.93633c-41.9523-11.93593-87.00286-13.977-133.89924-6.06686a146.76782,146.76782,0,0,1-24.335,2.03028,144.4054,144.4054,0,0,1-96.34681-36.74144,145.19723,145.19723,0,0,0,131.09185,83.06816,146.76686,146.76686,0,0,0,24.335-2.03028c46.89638-7.91009,91.94693-5.86907,133.89923,6.06686a103.69834,103.69834,0,0,0,28.38973,3.93634c1.63329,0,3.32539-.04143,5.02834-.12432l1.97279-.09487-1.09474-1.6454a70.38382,70.38382,0,0,0-11.38121-13.41422,98.53,98.53,0,0,1,21.49011,13.64146l.39294.32748.50792-.08289a102.75467,102.75467,0,0,0,54.45765-175.33424Z" transform="translate(-133.32283 -130.962)"/></g><path d="M545.79557,418.35655c-5.53391-5.96273-8.40379-14.91047-5.46119-22.49453a37.4811,37.4811,0,0,0,19.70041,16.55586c3.21091,1.15336,6.90231,2.10184,8.65525,5.02887a8.37852,8.37852,0,0,1,.693,6.17286,24.88312,24.88312,0,0,1-2.477,5.84718l-.0042.52993C559.08834,427.73251,551.32947,424.31928,545.79557,418.35655Z" transform="translate(-133.32283 -130.962)" fill="#1b75bb"/><path d="M820.66745,591.30964c-5.5339-5.96273-8.40378-14.91046-5.46118-22.49452A37.48115,37.48115,0,0,0,834.90668,585.371c3.21091,1.15336,6.90231,2.10184,8.65525,5.02887a8.37852,8.37852,0,0,1,.693,6.17286,24.88312,24.88312,0,0,1-2.477,5.84718l-.00421.52993C833.96023,600.68561,826.20136,597.27237,820.66745,591.30964Z" transform="translate(-133.32283 -130.962)" fill="#1b75bb"/><path d="M950.27993,702.93648c-3.86586-7.15775-4.40552-16.53895.34116-23.14544a37.48113,37.48113,0,0,0,14.93108,20.95866c2.82017,1.92011,6.15681,3.76208,7.12158,7.03463a8.37854,8.37854,0,0,1-.87361,6.14989,24.88366,24.88366,0,0,1-3.86126,5.04138l-.13667.512C960.80377,715.34032,954.14579,710.09423,950.27993,702.93648Z" transform="translate(-133.32283 -130.962)" fill="#1b75bb"/><path d="M1043.70549,564.72842c-3.86586-7.15775-4.40553-16.53895.34116-23.14544a37.4811,37.4811,0,0,0,14.93108,20.95866c2.82017,1.92011,6.15681,3.76209,7.12158,7.03463a8.37858,8.37858,0,0,1-.87362,6.1499,24.88324,24.88324,0,0,1-3.86126,5.04137l-.13667.512C1054.22933,577.13226,1047.57135,571.88618,1043.70549,564.72842Z" transform="translate(-133.32283 -130.962)" fill="#1b75bb"/><path d="M432.96486,618.00416c-3.86586-7.15776-4.40552-16.539.34116-23.14545a37.4811,37.4811,0,0,0,14.93108,20.95866c2.82017,1.92011,6.15681,3.76209,7.12158,7.03463a8.37853,8.37853,0,0,1-.87362,6.1499,24.88389,24.88389,0,0,1-3.86125,5.04138l-.13668.512C443.4887,630.408,436.83072,625.16191,432.96486,618.00416Z" transform="translate(-133.32283 -130.962)" fill="#e6e6e6"/><path d="M782.04986,686.54967c3.35737-26.99708,20.08869-53.597,45.83573-62.38262a125.3441,125.3441,0,0,0,.00621,86.05715c3.95633,10.70172,9.471,22.19268,5.74957,32.9784-2.31544,6.71118-7.97986,11.84581-14.31153,15.05637-6.33207,3.21055-13.35934,4.74076-20.29867,6.24036l-1.3657,1.12951C786.64939,740.754,778.69249,713.54674,782.04986,686.54967Z" transform="translate(-133.32283 -130.962)" fill="#e6e6e6"/><path d="M828.14109,624.67753a107.13528,107.13528,0,0,0-26.6337,60.29577,46.13628,46.13628,0,0,0,.52479,14.44582,26.46115,26.46115,0,0,0,6.58123,12.27323c2.9663,3.25908,6.37791,6.24926,8.50032,10.17265a16.20217,16.20217,0,0,1,.79156,13.22688c-1.87387,5.37459-5.56716,9.75534-9.32778,13.91384-4.17544,4.61721-8.58557,9.34689-10.36045,15.46809-.215.74167-1.35329.36462-1.13857-.37593,3.088-10.64984,13.42617-16.69916,18.35642-26.29133,2.30055-4.47588,3.26617-9.67218,1.10944-14.39694-1.886-4.13159-5.40141-7.21809-8.43337-10.492a28.236,28.236,0,0,1-6.88215-11.76082,42.65149,42.65149,0,0,1-1.07825-14.37234,103.94046,103.94046,0,0,1,7.5912-31.58665,109.0351,109.0351,0,0,1,19.60593-31.41952c.51266-.57407,1.30269.32894.79338.89927Z" transform="translate(-133.32283 -130.962)" fill="#fff"/><path d="M801.83013,677.71721a16.07373,16.07373,0,0,1-12.23528-16.83782c.06109-.769,1.259-.71023,1.19784.05983a14.88393,14.88393,0,0,0,11.41337,15.63943c.75062.17846.37039,1.316-.37593,1.13856Z" transform="translate(-133.32283 -130.962)" fill="#fff"/><path d="M806.89173,710.238a30.98079,30.98079,0,0,0,13.83479-17.84267c.21767-.74088,1.356-.36405,1.13857.37593A32.22473,32.22473,0,0,1,807.431,711.30888c-.66488.39439-1.20053-.67867-.53927-1.07092Z" transform="translate(-133.32283 -130.962)" fill="#fff"/><path d="M813.55,644.81908a9.09852,9.09852,0,0,0,8.62231-.43769c.65955-.40263,1.19452.67091.53927,1.07091a10.19562,10.19562,0,0,1-9.53751.50535.61965.61965,0,0,1-.38132-.75725.60255.60255,0,0,1,.75725-.38132Z" transform="translate(-133.32283 -130.962)" fill="#fff"/><path d="M906.36621,672.38711c-.40469.26312-.80937.52624-1.21455.79948A119.82218,119.82218,0,0,0,889.831,685.14785c-.37455.334-.74909.67805-1.11325,1.02208a126.31959,126.31959,0,0,0-27.434,37.55371,122.67177,122.67177,0,0,0-6.71952,17.38538c-2.47949,8.2272-4.51328,17.34486-9.42136,24.07439a21.04417,21.04417,0,0,1-1.63949,2.02391H799.14936c-.1008-.05059-.20209-.0911-.30339-.14169l-1.77092.081c.07115-.3137.15169-.63753.22285-.95124.04051-.18214.09091-.36428.13143-.54643.03014-.12143.06078-.24292.081-.35422.00988-.04046.02026-.08091.03014-.1113.02026-.1113.05089-.21253.07115-.3137q.6678-2.71707,1.37612-5.4342c0-.01013,0-.01013.00989-.02026,3.63325-13.793,8.44992-27.40376,15.17932-39.8508.20259-.37441.40469-.759.62753-1.13338a117.05624,117.05624,0,0,1,10.51436-15.94842,103.48284,103.48284,0,0,1,6.89147-7.88311A86.05357,86.05357,0,0,1,853.74454,678.469c15.90815-8.39922,34.32544-11.61723,51.32658-6.48661C905.50594,672.11392,905.93138,672.24542,906.36621,672.38711Z" transform="translate(-133.32283 -130.962)" fill="#e6e6e6"/><path d="M906.26649,672.95005a107.13544,107.13544,0,0,0-57.56774,32.10748,46.13617,46.13617,0,0,0-8.27836,11.85014,26.46114,26.46114,0,0,0-2.13459,13.76184c.40623,4.38811,1.32992,8.82963.6624,13.24007a16.20224,16.20224,0,0,1-7.33148,11.0375c-4.73206,3.16311-10.31846,4.43728-15.8248,5.49345-6.11374,1.17268-12.48258,2.29387-17.58511,6.1127-.61824.46271-1.30005-.52365-.68274-.98565,8.87752-6.64413,20.77408-5.24987,30.48576-9.94033,4.53165-2.18865,8.43118-5.75623,9.55378-10.82718.98167-4.43433.03307-9.01527-.41665-13.45477a28.23609,28.23609,0,0,1,1.58581-13.53389,42.65167,42.65167,0,0,1,7.79222-12.12469A103.94038,103.94038,0,0,1,871.60348,685.037a109.0353,109.0353,0,0,1,34.571-13.28261c.755-.14971.84208,1.047.092,1.19568Z" transform="translate(-133.32283 -130.962)" fill="#fff"/><path d="M853.32511,699.45826a16.07372,16.07372,0,0,1,.36835-20.81054c.51179-.57725,1.43285.19093.92038.76895a14.88393,14.88393,0,0,0-.30307,19.35885c.49188.59441-.4966,1.27376-.98566.68274Z" transform="translate(-133.32283 -130.962)" fill="#fff"/><path d="M837.78678,728.47169a30.98081,30.98081,0,0,0,21.78882-5.91687c.61986-.4605,1.30186.52571.68275.98566a32.22471,32.22471,0,0,1-22.68576,6.111c-.76832-.0854-.54995-1.26467.21419-1.17974Z" transform="translate(-133.32283 -130.962)" fill="#fff"/><path d="M882.48972,680.24712a9.09851,9.09851,0,0,0,7.14795,4.84175c.769.07562.54983,1.25487-.21419,1.17974a10.19561,10.19561,0,0,1-7.91942-5.33875.61965.61965,0,0,1,.15146-.8342.60253.60253,0,0,1,.8342.15146Z" transform="translate(-133.32283 -130.962)" fill="#fff"/><polygon points="423.592 559.289 386.779 531.34 368.836 549.283 428.807 590.322 423.592 559.289" fill="#3f3d56"/><path d="M591.24832,767.20732h125.9266L712.75836,752.897l0,0c-27.37333-9.90931-11.9977-31.20879-38.036-44.228-63.68827-31.84413-88.3446-126.87034-79.01856-164.43446l-41.73625-1.76471S496.32949,706.15315,591.24832,767.20732Z" transform="translate(-133.32283 -130.962)" fill="#3f3d56"/><path d="M476.592,685.0317a20.77856,20.77856,0,0,0-7.17833-14.42261c-.0283-.02489-.05681-.05-.08529-.07465l-.08034-.0703a21.14542,21.14542,0,0,1-6.10282-9.20148l-.09315-.27942.29345-.02329a20.62843,20.62843,0,0,0,6.58691-1.64977,18.15748,18.15748,0,0,1-7.395-.92271l-.136-.04119-.024-.13979a21.15953,21.15953,0,0,1,20.48932-24.78985,13.32989,13.32989,0,0,0,9.87066-4.555l.17406-.19956a29.98723,29.98723,0,0,1,5.46049-4.86056l.15365-.10594.13558.12786a20.2843,20.2843,0,0,0,4.27412,3.08795,15.55377,15.55377,0,0,1-2.7752-4.00312l-.09688-.19312.18657-.10923a29.85984,29.85984,0,0,1,37.49672,45.49158,30.209,30.209,0,0,1-3.62195,3.48511,62.22387,62.22387,0,0,0-17.26483,21.51959,21.34447,21.34447,0,0,1-3.251,4.92289c-.222.25244-.45848.50834-.70277.76025l-.28286.292-.10549-.39287a14.48749,14.48749,0,0,1-.52605-3.58259,20.28,20.28,0,0,0-.813,5.17585l-.00281.10525-.08185.06724A21.15038,21.15038,0,0,1,476.592,685.0317Z" transform="translate(-133.32283 -130.962)" fill="#e6e6e6"/><path d="M479.891,693.13624a21.10374,21.10374,0,0,0,.238,2.27524,21.39156,21.39156,0,0,1-3.439-10.598c-.02806-.57781-.0887-1.15339-.17006-1.72639A20.07549,20.07549,0,0,1,479.891,693.13624Z" transform="translate(-133.32283 -130.962)" opacity="0.15"/><path d="M473.23139,667.41475a20.59681,20.59681,0,0,1-5.2637,1.48826,21.18121,21.18121,0,0,1-1.92868-2.3532A17.94749,17.94749,0,0,0,473.23139,667.41475Z" transform="translate(-133.32283 -130.962)" opacity="0.15"/><path d="M465.47437,660.46529a21.28854,21.28854,0,0,0,.15059,5.491,21.04389,21.04389,0,0,1-2.3818-4.91186L463.15,660.765l.29346-.02329A20.45233,20.45233,0,0,0,465.47437,660.46529Z" transform="translate(-133.32283 -130.962)" opacity="0.15"/><path d="M467.43251,640.38024a21.20931,21.20931,0,0,1,15.53218-7.18179,13.33,13.33,0,0,0,9.87069-4.555l.17405-.19956a29.98711,29.98711,0,0,1,5.46048-4.86055l.15364-.10593.13559.12785a20.28412,20.28412,0,0,0,4.27415,3.08794A15.55463,15.55463,0,0,1,500.258,622.69l-.09683-.19311.18655-.10921a29.83764,29.83764,0,0,1,44.20691,19.31675,29.84315,29.84315,0,0,0-41.00585-10.994l-.18655.10921.09683.19311a15.55457,15.55457,0,0,0,2.77529,4.00312,20.28372,20.28372,0,0,1-4.27415-3.08793l-.13559-.12786-.15364.10594a29.98711,29.98711,0,0,0-5.46048,4.86055l-.174.19956a13.33,13.33,0,0,1-9.87069,4.555,21.16319,21.16319,0,0,0-20.46764,17.39334,25.64845,25.64845,0,0,1-3.06273-.74529l-.136-.04119-.02407-.13977A21.07819,21.07819,0,0,1,467.43251,640.38024Z" transform="translate(-133.32283 -130.962)" opacity="0.15"/><path d="M443.7129,504.25479c12.47115-12.09288,19.605-29.578,19.605-48.026,0-.12136,0-.24361-.00089-.365l-.00088-.34372a68.08611,68.08611,0,0,1,9.26876-34.32266l.47748-.81943.68034.66a66.42122,66.42122,0,0,0,17.99625,12.41711c-5.177-4.67469-9.51414-11.06706-13.4952-19.84151l-.18957-.41635.287-.35523a68.13168,68.13168,0,0,1,103.50749-3.17935,42.92106,42.92106,0,0,0,32.00348,14.17819l.85264-.00354a96.55461,96.55461,0,0,1,23.36369,2.86576l.58289.14617-.02081.59972a65.31311,65.31311,0,0,0,1.62334,16.90045,50.0824,50.0824,0,0,1,3.77686-15.22263l.26089-.6449.66085.2188A96.14585,96.14585,0,0,1,614.7048,616.09912a97.27086,97.27086,0,0,1-16.12842-1.34563c-31.0813-5.24252-60.93923-3.88981-88.74373,4.02093a68.728,68.728,0,0,1-18.81568,2.60885c-1.08252,0-2.204-.02746-3.33261-.08238l-1.30753-.0629.72552-1.09049a46.64968,46.64968,0,0,1,7.5431-8.8905,65.29981,65.29981,0,0,0-14.24286,9.0411l-.26045.217-.33662-.05492A68.1022,68.1022,0,0,1,443.7129,504.25479Z" transform="translate(-133.32283 -130.962)" fill="#e6e6e6"/><g opacity="0.15"><path d="M506.18165,392.21954a48.13413,48.13413,0,0,0,8.58507,10.53177,66.25271,66.25271,0,0,1-13.4137-8.38372Q503.72392,393.19967,506.18165,392.21954Z" transform="translate(-133.32283 -130.962)"/><path d="M466.74067,473.55107a68.41147,68.41147,0,0,0-9.79756,11.93593,69.6458,69.6458,0,0,0,6.37475-29.25825c0-.12137,0-.24362-.00088-.365l-.00087-.34372a68.08661,68.08661,0,0,1,9.26871-34.32266l.4775-.81944.68039.66a66.57423,66.57423,0,0,0,12.42741,9.46305C485.0103,447.09,478.08441,462.5514,466.74067,473.55107Z" transform="translate(-133.32283 -130.962)"/><path d="M486.34391,424.81634l.00087.34372c.00088.12134.00088.24359.00088.365,0,.66884-.01212,1.336-.0308,2.0021a70.9624,70.9624,0,0,1-8.07116-13.91357l-.18953-.41637.287-.35522a68.6901,68.6901,0,0,1,12.32659-11.92181A68.24082,68.24082,0,0,0,486.34391,424.81634Z" transform="translate(-133.32283 -130.962)"/><path d="M443.71287,504.25481a61.60525,61.60525,0,0,0,8.6844-10.56575,68.06938,68.06938,0,0,0,50.436,96.06741l.33664.05494.26042-.217a65.30294,65.30294,0,0,1,14.24289-9.04109,46.648,46.648,0,0,0-7.54306,8.89048l-.72555,1.09052,1.30749.06287c1.12865.05494,2.25012.08239,3.33261.08239a68.728,68.728,0,0,0,18.81572-2.60886c27.80451-7.91072,57.66244-9.26344,88.74372-4.0209a97.27265,97.27265,0,0,0,16.1284,1.34559,95.70685,95.70685,0,0,0,63.85529-24.35094,96.23166,96.23166,0,0,1-86.88309,55.05468,97.27254,97.27254,0,0,1-16.12839-1.3456c-31.08128-5.24254-60.93921-3.88982-88.74373,4.0209a68.72762,68.72762,0,0,1-18.81572,2.60886c-1.08249,0-2.204-.02745-3.33261-.08239l-1.30749-.06287.72555-1.09052a46.6477,46.6477,0,0,1,7.54307-8.89047,65.302,65.302,0,0,0-14.24289,9.04108l-.26043.217-.33663-.05494a68.10219,68.10219,0,0,1-36.09263-116.20539Z" transform="translate(-133.32283 -130.962)"/></g><path d="M181.78693,693.57171a46.53387,46.53387,0,0,1-45.89381-38.86844l-.0375-.22984.14819-.17783a44.58573,44.58573,0,0,0,6.17313-9.72482,31.85183,31.85183,0,0,1-6.07031,5.15032l-.74457.49537-.04294-.89276c-.0375-.77058-.05626-1.53632-.05626-2.27545a46.92613,46.92613,0,0,1,1.7813-12.84708c5.40133-18.98451,6.32494-39.37107,2.74542-60.59294a66.4154,66.4154,0,0,1-.91877-11.01225,65.647,65.647,0,0,1,127.953-20.6527l.1494.45122-.44033.17813a34.195,34.195,0,0,1-10.39379,2.57879,44.5956,44.5956,0,0,0,11.53938,1.1084l.40949-.01422.0998.398a65.9264,65.9264,0,0,1,1.95669,15.95239l-.00241.58217a29.30588,29.30588,0,0,0,9.68066,21.85152,46.51931,46.51931,0,0,1-2.17081,70.67341l-.24255.196-.28428-.12944c-5.99107-2.71821-10.35568-5.67957-13.54749-9.21433a45.35125,45.35125,0,0,0,8.47822,12.28758l.45061.46453-.55948.326a46.48835,46.48835,0,0,1-23.435,6.32857l-.23469-.0006c-.08286-.00061-.16633-.00061-.2492-.00061a45.68174,45.68174,0,0,0-32.79148,13.386A46.8751,46.8751,0,0,1,181.78693,693.57171Z" transform="translate(-133.32283 -130.962)" fill="#e4e4e4"/><path d="M165.32242,766.87579a.83963.83963,0,0,1-.83024-.72133c-.03567-.25064-3.52987-25.45125-.39168-58.94392,2.89813-30.93128,12.2052-75.48322,40.08556-112.073a.8397.8397,0,1,1,1.33577,1.01789c-27.63955,36.27382-36.87159,80.49885-39.7493,111.21174-3.11994,33.29778.34686,58.30187.38226,58.5506a.84042.84042,0,0,1-.83237.958Z" transform="translate(-133.32283 -130.962)" fill="#3f3d56"/><path d="M179.25973,643.51939a.83968.83968,0,0,1-.49432-1.51891A115.72848,115.72848,0,0,1,204.314,628.99483c14.09564-5.1605,35.53016-9.83884,57.59661-2.81586a.83958.83958,0,1,1-.50921,1.60008c-21.61437-6.87866-42.66035-2.27767-56.51,2.7929a113.82664,113.82664,0,0,0-25.13877,12.787A.83639.83639,0,0,1,179.25973,643.51939Z" transform="translate(-133.32283 -130.962)" fill="#3f3d56"/><path d="M269.26112,608.67509a6.87435,6.87435,0,0,0,4.40447-9.57676l14.81486-48.3-10.8969-2.16008-13.54964,47.34412a6.91164,6.91164,0,0,0,5.22721,12.69273Z" transform="translate(-133.32283 -130.962)" fill="#ffb6b6"/><path d="M289.34367,536.687a7.93787,7.93787,0,0,0-4.94-.3v.01a7.08517,7.08517,0,0,0-1.59.59,7.4416,7.4416,0,0,0-1.54,1.01,7.78323,7.78323,0,0,0-2.28,3.16l-7.22,12.58a2.83882,2.83882,0,0,0-.22,2.38,2.86762,2.86762,0,0,0,1.66,1.73l1.56.61,7.41,2.91,2.73,1.08,1.84.72a2.86843,2.86843,0,0,0,3.85-2.03l3.26-14.09A8.00448,8.00448,0,0,0,289.34367,536.687Z" transform="translate(-133.32283 -130.962)" fill="#3f3d56"/><polygon points="177.492 623.065 185.036 623.065 188.626 593.969 177.492 593.969 177.492 623.065" fill="#ffb6b6"/><path d="M306.8338,767.097h5.40962l.96558-5.10736,2.47305,5.10736h14.34774a3.22522,3.22522,0,0,0,1.83267-5.87931l-11.45764-7.913v-5.16338l-12.05145.7193Z" transform="translate(-133.32283 -130.962)" fill="#2f2e41"/><polygon points="104.13 608.098 110.618 611.946 128.548 588.751 118.972 583.072 104.13 608.098" fill="#ffb6b6"/><path d="M227.36155,748.2712l4.65292,2.75941,3.43574-3.90041-.4781,5.65443,12.34076,7.31867a3.22522,3.22522,0,0,0,4.57531-4.12207l-5.81856-12.65062,2.63381-4.44112-10.7326-5.52868Z" transform="translate(-133.32283 -130.962)" fill="#2f2e41"/><polygon points="180.859 437.027 184.525 460.396 149.7 460.855 154.283 438.402 180.859 437.027" fill="#ffb6b6"/><path d="M317.98191,591.063l9.94661,24.12267.72455,64.50994-8.48793,61.59358H310.7717l-3.84858-60.58947-9.466-41.45768-9.336,43.36044L259.09238,725.0438H244.828l26.225-46.76892,3.03511-50.94647s-1.89173-21.6128,7.78968-34.36624l2.35654-6.80823Z" transform="translate(-133.32283 -130.962)" fill="#2f2e41"/><path d="M318.46366,546.46707c-.02-.21-.05-.43006-.09-.64a19.27541,19.27541,0,0,0-21.83-16.23,19.67939,19.67939,0,0,0-12.14,6.79v.01c-.16.19-.31.38995-.46.59-.27.34-.52.7-.76,1.06a19.29111,19.29111,0,0,0-3.2,11.06v.01a19.05736,19.05736,0,0,0,.63,4.48,71.76481,71.76481,0,0,1,1.57,7.77c.26,1.66.46,3.29.61,4.88.09.8.16,1.59.22,2.36v.01c.3,3.81.4,7.23.49,9.88.04,1.44.08,2.64.15,3.56a1.10085,1.10085,0,0,0,.02.18,3.03306,3.03306,0,0,0,.76,1.66,1.44649,1.44649,0,0,0,.17.18,3.58138,3.58138,0,0,0,1.56.82,3.07976,3.07976,0,0,0,.61.06h.06006l5.82995-2.72,4.6-2.14,15.61-7.28a3.14161,3.14161,0,0,0,2.9-2.1v-.01c.02-.08.05-.16.07-.25.84-3.31,2.33-6.86,2.86-12.57.07-.82.13-1.67.16-2.58v-.01A58.96277,58.96277,0,0,0,318.46366,546.46707Z" transform="translate(-133.32283 -130.962)" fill="#3f3d56"/><circle cx="163.4613" cy="380.74853" r="14.72438" fill="#ffb6b6"/><path d="M281.0637,534.59707a11.715,11.715,0,0,0-11.7,11.69995v24.25a11.68613,11.68613,0,0,0,9.53,11.49h.01a11.80527,11.80527,0,0,0,2.16.2h16.2v-47.64Z" transform="translate(-133.32283 -130.962)" fill="#1b75bb"/><path d="M281.27366,536.987v17.69a2.04,2.04,0,1,0,4.08,0v-17.69Z" transform="translate(-133.32283 -130.962)" fill="#3f3d56"/><path d="M290.26371,566.247H278.40366a2.57134,2.57134,0,0,0-2.56994,2.58v7.09a2.57769,2.57769,0,0,0,2.56994,2.58h11.86005a2.58625,2.58625,0,0,0,2.58-2.58v-7.09A2.57986,2.57986,0,0,0,290.26371,566.247Z" transform="translate(-133.32283 -130.962)" fill="#3f3d56"/><path d="M312.17265,564.0041a22.53848,22.53848,0,0,0,4.82975-14.43177c0-10.50683-6.25824-19.0545-13.95062-19.0545-4.12979,0-8.02051,2.4682-10.67463,6.77162l1.15834.71441c2.40076-3.89238,5.86931-6.125,9.51629-6.125,6.94192,0,12.58959,7.93727,12.58959,17.69347a21.16456,21.16456,0,0,1-4.50711,13.55188Z" transform="translate(-133.32283 -130.962)" fill="#1b75bb"/><path d="M344.25973,599.58141a6.8744,6.8744,0,0,0-4.24811-9.64714l-26.33132-43.1165-8.84247,6.72453,26.45474,41.53559a6.91164,6.91164,0,0,0,12.96716,4.50352Z" transform="translate(-133.32283 -130.962)" fill="#ffb6b6"/><path d="M322.82371,552.07705l-4.45-6.25-2.38-3.34-1.55-2.18a7.92147,7.92147,0,0,0-1.99-2.5,7.997,7.997,0,0,0-12.28,9.72l4.62,13.75a2.88512,2.88512,0,0,0,4.04,1.64l1.49-.76,2.35-1.2,2.11-1.07h.01l3.91-2,1.33-.67,1.76-.9a2.8905,2.8905,0,0,0,1.03-4.24Z" transform="translate(-133.32283 -130.962)" fill="#3f3d56"/><path d="M1018.65347,768.07224H136.18221a.91935.91935,0,1,1,0-1.83869h882.47126a.91934.91934,0,0,1,0,1.83869Z" transform="translate(-133.32283 -130.962)" fill="#ccc"/><path d="M602.96486,691.00416c-3.86586-7.15776-4.40552-16.539.34116-23.14545a37.4811,37.4811,0,0,0,14.93108,20.95866c2.82017,1.92011,6.15681,3.76209,7.12158,7.03463a8.37853,8.37853,0,0,1-.87362,6.1499,24.88389,24.88389,0,0,1-3.86125,5.04138l-.13668.512C613.4887,703.408,606.83072,698.16191,602.96486,691.00416Z" transform="translate(-133.32283 -130.962)" fill="#e6e6e6"/><path d="M365.96486,510.00416c-3.86586-7.15776-4.40552-16.539.34116-23.14545a37.4811,37.4811,0,0,0,14.93108,20.95866c2.82017,1.92011,6.15681,3.76209,7.12158,7.03463a8.37853,8.37853,0,0,1-.87362,6.1499,24.88389,24.88389,0,0,1-3.86125,5.04138l-.13668.512C376.4887,522.408,369.83072,517.16191,365.96486,510.00416Z" transform="translate(-133.32283 -130.962)" fill="#e6e6e6"/><path d="M287.80369,499.6967v.01036a7.4017,7.4017,0,0,1-.24309,1.89826c-.02589.10864-.05692.22241-.09313.33105v.00517a7.50863,7.50863,0,0,1-4.62929,4.8207c-.16034.06206-.32586.11377-.49138.16034a6.70942,6.70942,0,0,1-1.06552.21723,6.79829,6.79829,0,0,1-.97759.06725,7.44528,7.44528,0,0,1-.76551-.03621,7.2432,7.2432,0,0,1-1.7431-.39829,2.19148,2.19148,0,0,1-.25862-.0931,1.26189,1.26189,0,0,1-.12417-.05171,7.50745,7.50745,0,0,1-3.87413-10.16381l.00518-.00517a7.357,7.357,0,0,1,1.47416-2.069,7.47269,7.47269,0,0,1,5.28619-2.18274,2.81474,2.81474,0,0,1,.29483.01032,7.529,7.529,0,0,1,5.80343,3.12934,7.41336,7.41336,0,0,1,1.21036,2.66895A7.51091,7.51091,0,0,1,287.80369,499.6967Z" transform="translate(-133.32283 -130.962)" fill="#2f2e41"/><path d="M279.14845,495.14835a12.24543,12.24543,0,0,0-23.19321-1.4379c-1.61105,3.99645-1.02053,8.53123-1.98556,12.73073a17.989,17.989,0,0,1-17.07156,13.53791l14.59735,5.88183a9.56424,9.56424,0,0,0,5.05224,1.02345c2.53994-.43049,4.3073-2.8565,5.02284-5.33129s.65749-5.10308,1.11039-7.63912a19.50126,19.50126,0,0,1,11.32568-14.24144c1.64349-.70229,3.47-1.23158,4.63211-2.58946s1.09738-3.91949-.58681-4.51763" transform="translate(-133.32283 -130.962)" fill="#2f2e41"/><path d="M302.80369,495.20706c-1.98014-4.32665-7.20471-3.44632-11.9286-2.8756a14.68148,14.68148,0,0,0-10.99993,8.16278,20.06231,20.06231,0,0,0-1.08779,13.92619,15.25754,15.25754,0,0,0,4.81732,8.12109c2.4948,2.00632,14.2227,6.75132,15.199,2.66554-1.22046,5.33037,1.23489,4.496,4.8694,8.58166,1.88249-5.65493,2.765-16.30985,4.64746-21.96477l.8501-2.55367c.59731-1.79428,1.19548-3.59159,1.62709-5.43277.54219-2.3129.75085-4.96508-.68583-6.857s-5.05593-1.96552-5.78207.29637" transform="translate(-133.32283 -130.962)" fill="#2f2e41"/><path d="M300.43308,513.21389l-.62939-4.00683c.42773-4.9834-.27051-12.91016,3-14l2,2C303.53855,497.62893,301.1323,505.08108,300.43308,513.21389Z" transform="translate(-133.32283 -130.962)" fill="#ff6584"/></svg>