<?xml version="1.0" encoding="utf-8"?>
<!-- Generator: Adobe Illustrator 26.3.1, SVG Export Plug-In . SVG Version: 6.00 Build 0)  -->
<svg version="1.1" id="Blue" xmlns="http://www.w3.org/2000/svg" xmlns:xlink="http://www.w3.org/1999/xlink" x="0px" y="0px"
	 viewBox="0 0 3637.8 916.7" style="enable-background:new 0 0 3637.8 916.7;" xml:space="preserve">
<style type="text/css">
	.st0{fill:#FFFFFF;}
	.st1{font-family:'Exo-Regular';}
	.st2{font-size:800px;}
	.st3{letter-spacing:20;}
</style>
<path class="st0" d="M3276.7,335.2c-115,0-208.3,93.3-208.3,208.3s93.3,208.3,208.3,208.3c0-13.2,0-33.7,0-56.9c0,0,0,0,0,0
	c-0.1,0-0.3,0-0.4,0c-84,0-152.1-68.1-152.1-152.1c0-84,68.1-152.1,152.1-152.1s152.1,68.1,152.1,152.1c0,7.1-0.7,14-1.6,20.8
	c19.4,0.1,38.6,0.2,56.1,0.6c1-7.5,1.7-13.5,2.1-20.8C3485,428.5,3391.7,335.2,3276.7,335.2z"/>
<rect x="3265.9" y="404.3" class="st0" width="20.8" height="148.3"/>
<rect x="3265.9" y="544.7" class="st0" width="113.1" height="19.5"/>
<text transform="matrix(1 0 0 1 89.2855 761.8551)" class="st0 st1 st2 st3">leantim</text>
</svg>
