<svg xmlns="http://www.w3.org/2000/svg" data-name="Layer 1" width="769.00149" height="771.63628" viewBox="0 0 769.00149 771.63628" xmlns:xlink="http://www.w3.org/1999/xlink"><path d="M984.50074,64.18186H525.78541a400.76942,400.76942,0,0,0-5.28467,65c0,219.80932,178.19068,398,398,398a400.69956,400.69956,0,0,0,66-5.44983Z" transform="translate(-215.49926 -64.18186)" fill="#2f2e41"/><path d="M790.3484,312.99045a57.40089,57.40089,0,0,1-20.16211-3.63867,2.99986,2.99986,0,1,1,2.10547-5.61816,52.39348,52.39348,0,0,0,51.26367-8.53077c-22.03808.23438-43.59472-10.18066-54.31933-26.89257-6.89454-10.74317-9.14844-23.38477-6.52051-36.5586a65.225,65.225,0,0,1,12.08887-26.27637A52.05122,52.05122,0,0,0,738.781,260.12522a3,3,0,1,1-5.97071.59179,58.04445,58.04445,0,0,1,49.792-63.13769,2.99959,2.99959,0,0,1,2.55078,5.07568c-15.34375,15.58545-24.65528,40.92871-10.86817,62.415,10.87793,16.94922,34.28321,26.64356,56.92871,23.57959a2.99977,2.99977,0,0,1,2.64161,4.96875A58.38718,58.38718,0,0,1,790.3484,312.99045Z" transform="translate(-215.49926 -64.18186)" fill="#1b75bb"/><path d="M742.50074,314.18186a22,22,0,1,1,22-22A22.02489,22.02489,0,0,1,742.50074,314.18186Zm0-38a16,16,0,1,0,16,16A16.01833,16.01833,0,0,0,742.50074,276.18186Z" transform="translate(-215.49926 -64.18186)" fill="#1b75bb"/><path d="M224.19,631.26023h0a10.27553,10.27553,0,0,1-8.2717-13.05184l7.78833-26.48031,11.83467,2.219.50881,26.96689A10.27564,10.27564,0,0,1,224.19,631.26023Z" transform="translate(-215.49926 -64.18186)" fill="#9f616a"/><polygon points="76.996 736.132 62.203 733.913 65.901 589.678 45.191 651.81 34.096 739.091 20.042 735.393 17.083 644.414 33.356 537.162 114.719 555.654 76.996 736.132" fill="#2f2e41"/><path d="M285.70382,835.81814h0A10.87284,10.87284,0,0,1,274.831,824.9453q0-.53314.05221-1.06435l2.29713-23.35413a3.42792,3.42792,0,0,1,1.78363-2.67831c4.36074-2.352,8.84494-1.78159,13.43468,1.28818a3.4071,3.4071,0,0,1,1.48046,2.42879l2.62188,22.09881a10.87276,10.87276,0,0,1-10.79713,12.15385Z" transform="translate(-215.49926 -64.18186)" fill="#2f2e41"/><path d="M225.3201,834.07967h0a9.79374,9.79374,0,0,1-4.75458-14.66182l15.78006-23.4568c5.68853-4.08229,9.11936-2.09385,10.45321,5.534l3.19029-7.99363,2.40382,2.62238a7.64655,7.64655,0,0,1,.40476,9.85431l-16.368,24.90994A9.7938,9.7938,0,0,1,225.3201,834.07967Z" transform="translate(-215.49926 -64.18186)" fill="#2f2e41"/><circle cx="109.54168" cy="375.91458" r="22.19" fill="#9f616a"/><path d="M339.09461,480.77811l-37.723-7.39667c4.85894-10.3636,8.75013-13.87,4.438-25.14867H336.136C333.46143,459.91516,336.046,470.88023,339.09461,480.77811Z" transform="translate(-215.49926 -64.18186)" fill="#9f616a"/><path d="M334.65661,630.19078l-88.76-25.14867c17.77875-39.12975,21.50264-82.09081,16.23138-127.50388a8.21726,8.21726,0,0,1,7.20717-9.11611q.14965-.0175.29988-.0295c11.5779-.95362,23.64864-2.17763,36.17458-3.8872l14.05367,9.61566,16.27267-3.69833c5.22159,2.5308,10.481,4.63569,15.22759,6.73429A19.03754,19.03754,0,0,1,361.714,500.57119C347.25144,544.2476,337.57031,587.51132,334.65661,630.19078Z" transform="translate(-215.49926 -64.18186)" fill="#e6e6e6"/><path d="M237.76026,596.90579l-17.01233-2.219,40.30215-116.12491c2.05-5.90683,7.134-9.104,13.32367-9.98827l5.91733.73966-4.438,68.789Z" transform="translate(-215.49926 -64.18186)" fill="#e6e6e6"/><path d="M371.02389,574.70629h0a13.48378,13.48378,0,0,1-13.48632-8.27159l-16.22391-39.05758,13.314-48.07835,3.51947,2.23968q.50863.3237,1.00408.66348a31.653,31.653,0,0,1,13.00245,31.47119l-3.47233,20.361,14.32332,30.753A13.48379,13.48379,0,0,1,371.02389,574.70629Z" transform="translate(-215.49926 -64.18186)" fill="#e6e6e6"/><path d="M326.74763,407.20865h0a23.56428,23.56428,0,0,1,10.76567,3.16967c.75452.4391.40576,2.02262,1.10308,2.53906.87822.65038,2.785.25543,3.56268,1.01722a23.61489,23.61489,0,0,1,7.02245,19.02624l-1.23821,12.31121-2.921-3.19451a30.44772,30.44772,0,0,0-20.30553-9.96875q-.49686-.03377-.99555-.053l2.24721-3.93262-3.90555,3.90555a38.02961,38.02961,0,0,0-5.32092.43313l2.98847-5.22981-5.73409,5.73409-.00045.00024a15.331,15.331,0,0,0-10.71244,8.73716l-.63671,1.41159-.71328-11.745A23.6737,23.6737,0,0,1,325.107,407.18745Q325.92745,407.16962,326.74763,407.20865Z" transform="translate(-215.49926 -64.18186)" fill="#2f2e41"/><ellipse cx="131.87669" cy="380.20471" rx="1.78228" ry="4.23294" fill="#9f616a"/><ellipse cx="87.31944" cy="378.868" rx="1.78228" ry="4.23294" fill="#9f616a"/><path d="M389.53294,499.60092h0a10.27555,10.27555,0,0,1,7.134,13.70688L386.659,539.03145l-11.60357-3.21559,1.782-26.91278a10.27556,10.27556,0,0,1,12.69546-9.30216Z" transform="translate(-215.49926 -64.18186)" fill="#9f616a"/><polygon points="160.579 509.055 142.087 497.22 157.62 465.414 176.851 472.811 167.236 500.918 160.579 509.055" fill="#e6e6e6"/><path d="M388.50073,473.2829V348.18182h-2V473.2829a5,5,0,1,0,2,0Zm-1,7.89892a3,3,0,1,1,3-3A3.00328,3.00328,0,0,1,387.50073,481.18182Z" transform="translate(-215.49926 -64.18186)" fill="#3f3d56"/><path d="M385.93382,228.751A4.31388,4.31388,0,0,1,381.62,224.4372V211.49569a4.31384,4.31384,0,0,1,8.62767,0V224.4372A4.3138,4.3138,0,0,1,385.93382,228.751Z" transform="translate(-215.49926 -64.18186)" fill="#1b75bb"/><path d="M385.93382,327.96926a4.31379,4.31379,0,0,1-4.31384-4.31384v-12.9415a4.31384,4.31384,0,1,1,8.62767,0v12.9415A4.31371,4.31371,0,0,1,385.93382,327.96926Z" transform="translate(-215.49926 -64.18186)" fill="#1b75bb"/><path d="M416.43793,241.38515a4.31391,4.31391,0,0,1-3.05028-7.36425l9.15084-9.15071a4.31384,4.31384,0,0,1,6.10056,6.10082l-9.15084,9.15071A4.3008,4.3008,0,0,1,416.43793,241.38515Z" transform="translate(-215.49926 -64.18186)" fill="#1b75bb"/><path d="M346.27886,311.54435a4.31391,4.31391,0,0,1-3.05041-7.36412l9.15071-9.15084A4.31384,4.31384,0,0,1,358.48,301.13l-9.15071,9.15084A4.30087,4.30087,0,0,1,346.27886,311.54435Z" transform="translate(-215.49926 -64.18186)" fill="#1b75bb"/><path d="M442.01368,271.88939H429.07217a4.31384,4.31384,0,0,1,0-8.62767h12.94151a4.31384,4.31384,0,1,1,0,8.62767Z" transform="translate(-215.49926 -64.18186)" fill="#1b75bb"/><path d="M342.79546,271.88939H329.854a4.31384,4.31384,0,1,1,0-8.62767h12.94151a4.31384,4.31384,0,0,1,0,8.62767Z" transform="translate(-215.49926 -64.18186)" fill="#1b75bb"/><path d="M425.58877,311.54435a4.30035,4.30035,0,0,1-3.05028-1.26356L413.38765,301.13a4.31375,4.31375,0,1,1,6.10056-6.10056l9.15084,9.15084a4.31384,4.31384,0,0,1-3.05028,7.36412Z" transform="translate(-215.49926 -64.18186)" fill="#1b75bb"/><path d="M355.42957,241.38515a4.29985,4.29985,0,0,1-3.05028-1.26356l-9.15084-9.15058a4.31393,4.31393,0,0,1,6.10082-6.10082l9.15058,9.15084a4.31384,4.31384,0,0,1-3.05028,7.36412Z" transform="translate(-215.49926 -64.18186)" fill="#1b75bb"/><path d="M385.93382,293.45857a25.883,25.883,0,1,1,25.883-25.883A25.91233,25.91233,0,0,1,385.93382,293.45857Zm0-43.13835a17.25534,17.25534,0,1,0,17.25534,17.25534A17.27494,17.27494,0,0,0,385.93382,250.32022Z" transform="translate(-215.49926 -64.18186)" fill="#1b75bb"/></svg>