<svg xmlns="http://www.w3.org/2000/svg" data-name="Layer 1" width="822" height="694.94444" viewBox="0 0 822 694.94444" xmlns:xlink="http://www.w3.org/1999/xlink"><path d="M925.98958,752.22561l-13.82416,12.72678,10.98638-18.43426c-8.65565-15.69637-22.81186-29.26186-22.81186-29.26186s-29.36922,28.138-29.36922,50.25636,13.149,29.84122,29.36922,29.84122c16.22,0,29.369-7.72289,29.369-29.84122A38.79986,38.79986,0,0,0,925.98958,752.22561Z" transform="translate(-189 -102.52778)" fill="#f0f0f0"/><path d="M908.61024,765.64138v1.09022c-.06477,12.67279-2.20206,22.56058-6.39575,29.523-.05936.10255-.12412.1997-.18352.30224l-.46956-.286-.44794-.28067c4.65243-7.51838,6.29859-18.14559,6.35795-29.19917.0054-.35624.01081-.71785.0054-1.07945-.0162-4.67945-.30224-9.41283-.761-14.01131-.03239-.35624-.07017-.71784-.108-1.07945-.63687-6.06652-1.55441-11.86317-2.49353-16.89882-.06476-.35624-.13493-.71245-.2051-1.06328-1.62458-8.51686-3.28154-14.68593-3.65936-16.05145-.04315-.16732-.07016-.25906-.07557-.28064l.51275-.14573.0054-.00541.51815-.14573c.0054.02161.09715.32925.24825.90136.57752,2.1373,2.078,7.93935,3.55141,15.59267.06477.34543.13493.70167.1997,1.05787.7664,4.08573,1.51663,8.65183,2.11035,13.44457q.22665,1.80542.40479,3.56221c.04315.36161.08094.72321.11332,1.07945Q908.58329,759.12419,908.61024,765.64138Z" transform="translate(-189 -102.52778)" fill="#fff"/><path d="M905.01027,732.52376c-.36161.04859-.72862.09718-1.101.13493a29.77466,29.77466,0,0,1-3.04406.15654,28.96369,28.96369,0,0,1-12.52165-2.82816c-.22668.286-.45336.57211-.68543.86355a30.03618,30.03618,0,0,0,13.20708,3.04406,30.80847,30.80847,0,0,0,3.24916-.17271c.367-.03779.734-.08638,1.09563-.14034a29.78368,29.78368,0,0,0,8.60864-2.60688q-.34812-.44527-.68006-.87436A28.86451,28.86451,0,0,1,905.01027,732.52376Z" transform="translate(-189 -102.52778)" fill="#fff"/><path d="M907.72511,750.58841q-.55861.03237-1.11724.03238c-.11335.0054-.23208.0054-.34543.0054a29.11731,29.11731,0,0,1-23.89909-12.48387c-.21587.31842-.43177.63688-.64224.9607a30.19849,30.19849,0,0,0,24.54133,12.60262c.15114,0,.30225,0,.45339-.0054.37778-.0054.75019-.01621,1.1226-.03238a30.03893,30.03893,0,0,0,16.0029-5.61316c-.17272-.31842-.34544-.63688-.52356-.9553A28.91728,28.91728,0,0,1,907.72511,750.58841Z" transform="translate(-189 -102.52778)" fill="#fff"/><path d="M908.61024,765.64138c-.37779.03238-.7556.054-1.13342.07017-.40479.01617-.80958.027-1.21438.027a29.19607,29.19607,0,0,1-27.99019-21.00616c-.24288.43721-.48577.869-.71784,1.30616a30.26522,30.26522,0,0,0,28.708,20.77946c.4048,0,.80959-.00541,1.209-.027.38322-.01081.761-.03238,1.13882-.0594a30.17665,30.17665,0,0,0,19.9159-9.72047c-.11335-.39939-.24288-.79338-.37241-1.19277A29.10189,29.10189,0,0,1,908.61024,765.64138Z" transform="translate(-189 -102.52778)" fill="#fff"/><path d="M810.39186,274.11505l.57978-11.03442,2.95987,12.26736c10.09249,3.04072,21.62155,2.92406,21.62155,2.92406s.77943-23.905-8.31419-33.20442-17.79709-7.14039-24.61671-.47168c-6.8195,6.6686-9.17269,15.32159-.07907,24.621A22.816,22.816,0,0,0,810.39186,274.11505Z" transform="translate(-189 -102.52778)" fill="#f0f0f0"/><path d="M812.18311,261.3293l-.44823-.45838c-5.183-5.35475-8.34961-10.39067-9.44893-15.04212-.0172-.06753-.02991-.135-.0471-.20253l.315-.07279.30373-.06617c1.135,5.0738,4.81211,10.21868,9.33166,14.89043.14419.152.29059.30626.44153.45607,1.9307,1.96076,3.997,3.83325,6.08049,5.578.16008.13646.32463.273.48919.40946,2.76192,2.28875,5.53089,4.34866,7.99607,6.07973.17369.12315.34964.24407.52338.36272,4.18461,2.9129,7.41758,4.82538,8.13784,5.24416.08694.0526.136.08007.14716.08692l-.15566.27208,0,.0045-.15794.2743c-.01115-.00687-.17621-.09849-.475-.27691-1.12152-.66116-4.1378-2.48368-7.90383-5.09564-.16925-.11861-.34521-.23954-.51889-.36267-2.002-1.40271-4.19471-3.014-6.4148-4.785q-.83757-.66588-1.63474-1.33126c-.16681-.13429-.33137-.27079-.49144-.40726Q814.87388,264.0583,812.18311,261.3293Z" transform="translate(-189 -102.52778)" fill="#fff"/><path d="M827.31248,273.77315c.13206-.1691.26638-.34042.40744-.50941a17.50868,17.50868,0,0,1,1.21548-1.31733,17.032,17.032,0,0,1,6.42734-3.959c-.0223-.21346-.04461-.42693-.06685-.64488a17.66284,17.66284,0,0,0-6.80429,4.15005,18.11673,18.11673,0,0,0-1.29506,1.40846c-.13877.16678-.2731.3381-.403.50946a17.51384,17.51384,0,0,0-2.54762,4.63534q.32943.04409.6454.088A16.97342,16.97342,0,0,1,827.31248,273.77315Z" transform="translate(-189 -102.52778)" fill="#fff"/><path d="M818.74405,267.29424q.22156-.24329.45642-.473c.04543-.04888.09535-.09769.143-.14429A17.12235,17.12235,0,0,1,834.52413,262.1c-.04016-.22263-.08031-.44529-.125-.668a17.75817,17.75817,0,0,0-15.4995,4.79116c-.06355.06214-.12708.12427-.1884.18868-.15661.15759-.30875.31524-.45867.47515a17.66433,17.66433,0,0,0-4.42047,8.93934c.20353.06287.40708.12575.61288.18639A17.0048,17.0048,0,0,1,818.74405,267.29424Z" transform="translate(-189 -102.52778)" fill="#fff"/><path d="M812.18311,261.3293c.14552-.16894.2955-.33334.44768-.49549.16354-.17323.32929-.34419.49948-.51062a17.16869,17.16869,0,0,1,20.40452-2.67594c-.07763-.28368-.153-.56507-.2352-.84429a17.79741,17.79741,0,0,0-20.61312,3.06639c-.17019.16642-.33816.33512-.49721.50839-.15667.1621-.30665.32651-.45438.49318a17.74537,17.74537,0,0,0-4.377,12.275c.21187.12131.42831.23371.647.34837A17.11329,17.11329,0,0,1,812.18311,261.3293Z" transform="translate(-189 -102.52778)" fill="#fff"/><path d="M391.15284,356.11505l.57978-11.03442,2.95987,12.26736c10.09249,3.04072,21.62155,2.92406,21.62155,2.92406s.77943-23.905-8.31419-33.20442-17.79709-7.14039-24.61671-.47168c-6.8195,6.6686-9.17269,15.32159-.07907,24.621A22.816,22.816,0,0,0,391.15284,356.11505Z" transform="translate(-189 -102.52778)" fill="#f0f0f0"/><path d="M392.94409,343.3293l-.44823-.45838c-5.183-5.35475-8.34961-10.39067-9.44892-15.04212-.01721-.06753-.02992-.135-.04711-.20253l.315-.07279.30373-.06617c1.135,5.0738,4.81211,10.21868,9.33166,14.89043.1442.152.29059.30626.44153.45607,1.9307,1.96076,3.997,3.83325,6.08049,5.578.16008.13646.32463.273.48919.40946,2.76192,2.28875,5.5309,4.34866,7.99607,6.07973.17369.12315.34964.24407.52338.36272,4.18462,2.9129,7.41758,4.82538,8.13785,5.24416.08693.0526.136.08007.14715.08692l-.15566.27208,0,.0045-.15794.2743c-.01115-.00687-.17621-.09849-.47495-.27691-1.12153-.66116-4.1378-2.48368-7.90384-5.09564-.16925-.11861-.34521-.23954-.51889-.36267-2.002-1.40271-4.19471-3.014-6.4148-4.785q-.83756-.66588-1.63474-1.33126c-.16681-.13429-.33137-.27079-.49144-.40726Q395.63486,346.0583,392.94409,343.3293Z" transform="translate(-189 -102.52778)" fill="#fff"/><path d="M408.07346,355.77315c.13206-.1691.26639-.34042.40744-.50941a17.50868,17.50868,0,0,1,1.21548-1.31733,17.032,17.032,0,0,1,6.42734-3.959c-.02229-.21346-.04461-.42693-.06685-.64488a17.66284,17.66284,0,0,0-6.80429,4.15005,18.11673,18.11673,0,0,0-1.29506,1.40846c-.13877.16678-.2731.3381-.40295.50946a17.51384,17.51384,0,0,0-2.54762,4.63534q.32943.04409.6454.088A16.97342,16.97342,0,0,1,408.07346,355.77315Z" transform="translate(-189 -102.52778)" fill="#fff"/><path d="M399.505,349.29424q.22156-.24329.45642-.473c.04544-.04888.09535-.09769.143-.14429A17.12235,17.12235,0,0,1,415.28511,344.1c-.04015-.22263-.08031-.44529-.12495-.668a17.75817,17.75817,0,0,0-15.4995,4.79116c-.06354.06214-.12708.12427-.1884.18868-.15661.15759-.30875.31524-.45867.47515a17.66433,17.66433,0,0,0-4.42047,8.93934c.20353.06287.40708.12575.61288.18639A17.0048,17.0048,0,0,1,399.505,349.29424Z" transform="translate(-189 -102.52778)" fill="#fff"/><path d="M392.94409,343.3293c.14552-.16894.2955-.33334.44768-.49549.16354-.17323.32929-.34419.49949-.51062a17.16867,17.16867,0,0,1,20.40451-2.67594c-.07763-.28368-.153-.56507-.2352-.84429a17.79741,17.79741,0,0,0-20.61312,3.06639c-.17019.16642-.33816.33512-.49721.50839-.15667.1621-.30665.32651-.45438.49318a17.74537,17.74537,0,0,0-4.377,12.275c.21187.12131.42831.23371.647.34837A17.11329,17.11329,0,0,1,392.94409,343.3293Z" transform="translate(-189 -102.52778)" fill="#fff"/><path d="M461.15284,216.11505l.57978-11.03442,2.95987,12.26736c10.09249,3.04072,21.62155,2.92406,21.62155,2.92406s.77943-23.905-8.31419-33.20442-17.79709-7.14039-24.61671-.47168c-6.8195,6.6686-9.17269,15.32159-.07907,24.621A22.816,22.816,0,0,0,461.15284,216.11505Z" transform="translate(-189 -102.52778)" fill="#f0f0f0"/><path d="M462.94409,203.3293l-.44823-.45838c-5.183-5.35475-8.34961-10.39067-9.44892-15.04212-.01721-.06753-.02992-.135-.04711-.20253l.315-.07279.30373-.06617c1.135,5.0738,4.81211,10.21868,9.33166,14.89043.1442.152.29059.30626.44153.45607,1.9307,1.96076,3.997,3.83325,6.08049,5.578.16008.13646.32463.273.48919.40946,2.76192,2.28875,5.5309,4.34866,7.99607,6.07973.17369.12315.34964.24407.52338.36272,4.18462,2.9129,7.41758,4.82538,8.13785,5.24416.08693.0526.136.08007.14715.08692l-.15566.27208,0,.0045-.15794.2743c-.01115-.00687-.17621-.09849-.47495-.27691-1.12153-.66116-4.1378-2.48368-7.90384-5.09564-.16925-.11861-.34521-.23954-.51889-.36267-2.002-1.40271-4.19471-3.014-6.4148-4.785q-.83756-.66588-1.63474-1.33126c-.16681-.13429-.33137-.27079-.49144-.40726Q465.63486,206.0583,462.94409,203.3293Z" transform="translate(-189 -102.52778)" fill="#fff"/><path d="M478.07346,215.77315c.13206-.1691.26639-.34042.40744-.50941a17.50868,17.50868,0,0,1,1.21548-1.31733,17.032,17.032,0,0,1,6.42734-3.959c-.02229-.21346-.04461-.42693-.06685-.64488a17.66284,17.66284,0,0,0-6.80429,4.15,18.11673,18.11673,0,0,0-1.29506,1.40846c-.13877.16678-.2731.3381-.40295.50946a17.51384,17.51384,0,0,0-2.54762,4.63534q.32943.04408.6454.088A16.97342,16.97342,0,0,1,478.07346,215.77315Z" transform="translate(-189 -102.52778)" fill="#fff"/><path d="M469.505,209.29424q.22156-.24329.45642-.47295c.04544-.04888.09535-.09769.143-.14429a17.12235,17.12235,0,0,1,15.18065-4.577c-.04015-.22263-.08031-.44529-.12495-.668a17.75817,17.75817,0,0,0-15.4995,4.79116c-.06354.06214-.12708.12427-.1884.18868-.15661.15759-.30875.31524-.45867.47515a17.66433,17.66433,0,0,0-4.42047,8.93934c.20353.06287.40708.12575.61288.18639A17.0048,17.0048,0,0,1,469.505,209.29424Z" transform="translate(-189 -102.52778)" fill="#fff"/><path d="M462.94409,203.3293c.14552-.16894.2955-.33334.44768-.49549.16354-.17323.32929-.34419.49949-.51062a17.16867,17.16867,0,0,1,20.40451-2.67594c-.07763-.28368-.153-.56507-.2352-.84429a17.79741,17.79741,0,0,0-20.61312,3.06639c-.17019.16642-.33816.33512-.49721.50839-.15667.1621-.30665.32651-.45438.49318a17.74537,17.74537,0,0,0-4.377,12.275c.21187.12131.42831.23371.647.34837A17.11329,17.11329,0,0,1,462.94409,203.3293Z" transform="translate(-189 -102.52778)" fill="#fff"/><path d="M301.67379,718.17606l-23.94824,22.04721,19.03223-31.93455C281.76319,681.09716,257.2397,657.597,257.2397,657.597S206.362,706.34187,206.362,744.65849s22.77859,51.69536,50.87769,51.69536c28.09865,0,50.87724-13.37873,50.87724-51.69536C308.11694,736.13,305.59273,727.08531,301.67379,718.17606Z" transform="translate(-189 -102.52778)" fill="#f0f0f0"/><path d="M271.56673,741.41684v1.88864c-.11219,21.95368-3.81473,39.08276-11.07964,51.14414-.10284.17765-.215.34594-.31793.52359l-.81344-.49551-.776-.48622c8.05964-13.02445,10.91136-31.43446,11.01419-50.5831.00936-.61713.01872-1.24356.00936-1.87-.02808-8.10643-.52359-16.30628-1.31832-24.27244-.05609-.61713-.12155-1.24356-.187-1.87-1.10328-10.50931-2.69278-20.55113-4.31966-29.27463-.11219-.61713-.23375-1.2342-.3553-1.842-2.81434-14.75416-5.68478-25.44113-6.33928-27.80669-.07476-.28984-.12156-.44878-.13092-.48616l.88826-.25246.00936-.00936.89761-.25247c.00936.03744.16829.57039.43006,1.56148,1.00045,3.70254,3.59976,13.75371,6.15227,27.01191.1122.59841.23375,1.21554.346,1.83261,1.32767,7.0779,2.62733,14.988,3.65585,23.29065q.39265,3.12762.70125,6.171c.07476.62643.14021,1.25286.19631,1.87Q271.52,730.12682,271.56673,741.41684Z" transform="translate(-189 -102.52778)" fill="#fff"/><path d="M265.33034,684.04561c-.62643.08418-1.26221.16835-1.90736.23375a51.58077,51.58077,0,0,1-5.27338.27118,50.17518,50.17518,0,0,1-21.69185-4.89935c-.39268.49552-.78536.99109-1.1874,1.496a52.03307,52.03307,0,0,0,22.87925,5.27337,53.37134,53.37134,0,0,0,5.62868-.2992c.63579-.06546,1.27158-.14964,1.898-.24311a51.59524,51.59524,0,0,0,14.91315-4.516q-.60306-.77136-1.1781-1.51469A50.00287,50.00287,0,0,1,265.33034,684.04561Z" transform="translate(-189 -102.52778)" fill="#fff"/><path d="M270.03339,715.33986q-.96773.05607-1.93545.0561c-.19636.00936-.402.00936-.5984.00936a50.44129,50.44129,0,0,1-41.40153-21.6264c-.374.55162-.748,1.10329-1.11259,1.66426a52.3143,52.3143,0,0,0,42.51412,21.83212c.26182,0,.52359,0,.78541-.00935.65445-.00936,1.2996-.02808,1.94475-.0561a52.0377,52.0377,0,0,0,27.72257-9.72395c-.29921-.55162-.59841-1.10329-.907-1.6549A50.095,50.095,0,0,1,270.03339,715.33986Z" transform="translate(-189 -102.52778)" fill="#fff"/><path d="M271.56673,741.41684c-.65445.05609-1.30895.09347-1.96346.12155-.70125.028-1.40249.04674-2.10373.04674a50.57774,50.57774,0,0,1-48.48874-36.39c-.42076.7574-.84151,1.50538-1.24355,2.26273a52.42989,52.42989,0,0,0,49.73229,35.99723c.70124,0,1.40248-.00936,2.09437-.04673.66387-.01872,1.31837-.0561,1.97282-.1029A52.2765,52.2765,0,0,0,306.068,726.46625c-.19637-.69189-.42076-1.37442-.64514-2.0663A50.4146,50.4146,0,0,1,271.56673,741.41684Z" transform="translate(-189 -102.52778)" fill="#fff"/><ellipse cx="888.11024" cy="497.97222" rx="83.5" ry="43.5" transform="translate(-297.17527 605.51898) rotate(-41.18662)" fill="#e4e4e4"/><ellipse cx="341.11024" cy="497.97222" rx="43.5" ry="83.5" transform="translate(-447.27385 324.23175) rotate(-48.81338)" fill="#e4e4e4"/><ellipse cx="293.11024" cy="649.44444" rx="83.5" ry="43.5" fill="#e4e4e4"/><ellipse cx="558.11024" cy="649.44444" rx="83.5" ry="43.5" fill="#e4e4e4"/><path d="M614.61024,735.47222c-113.03736,0-205-91.9624-205-205s91.96264-205,205-205,205,91.9624,205,205S727.64759,735.47222,614.61024,735.47222Zm0-408c-111.93457,0-203,91.06543-203,203s91.06543,203,203,203,203-91.06543,203-203S726.54481,327.47222,614.61024,327.47222Z" transform="translate(-189 -102.52778)" fill="#3f3d56"/><path d="M564.63663,667.01251A180.457,180.457,0,0,1,446.457,460.68985,180.42744,180.42744,0,1,0,784.736,577.05833,180.457,180.457,0,0,1,564.63663,667.01251Z" transform="translate(-189 -102.52778)" fill="#f0f0f0"/><path d="M554.23231,514.13531c-10.37744,0-18.82007-10.98584-18.82007-24.48975s8.44263-24.49023,18.82007-24.49023,18.82006,10.98633,18.82006,24.49023S564.60975,514.13531,554.23231,514.13531Z" transform="translate(-189 -102.52778)" fill="#3f3d56"/><path d="M668.23231,514.13531c-10.37744,0-18.82007-10.98584-18.82007-24.48975s8.44263-24.49023,18.82007-24.49023,18.82006,10.98633,18.82006,24.49023S678.60975,514.13531,668.23231,514.13531Z" transform="translate(-189 -102.52778)" fill="#3f3d56"/><ellipse cx="412.61024" cy="22.94444" rx="18" ry="13" fill="#2f2e41"/><ellipse cx="412.61024" cy="7.94444" rx="11" ry="7.94444" fill="#2f2e41"/><path d="M588.66569,130.66677c-6.19167-6.19168-8.15123-14.53971-5.06265-19.9119a9.5789,9.5789,0,0,0-2.00842,1.52712c-5.0768,5.07681-3.49375,14.891,3.53554,21.92031,7.02963,7.02964,16.8435,8.61234,21.92031,3.53553a9.57819,9.57819,0,0,0,1.52711-2.00841C603.2054,138.818,594.85737,136.85844,588.66569,130.66677Z" transform="translate(-189 -102.52778)" fill="#2f2e41"/><polygon points="227.324 349.912 221.002 339.408 258.508 310.023 267.839 325.525 227.324 349.912" fill="#ffb6b6"/><path d="M407.7552,461.24731l-20.38637-33.86852.42837-.25787a15.38729,15.38729,0,0,1,21.11751,5.247l.0005.00084,12.45123,20.68578Z" transform="translate(-189 -102.52778)" fill="#2f2e41"/><polygon points="622.45 335.912 628.772 325.408 591.266 296.023 581.935 311.525 622.45 335.912" fill="#ffb6b6"/><path d="M806.4073,439.05451l12.45123-20.68578.00051-.00084a15.38728,15.38728,0,0,1,21.1175-5.247l.42837.25787-20.38637,33.86852Z" transform="translate(-189 -102.52778)" fill="#2f2e41"/><polygon points="377.331 195.734 374.943 205.27 310.513 256.849 241.173 321.65 248.61 338.944 413.887 228.325 600.218 324.911 608.543 305.846 523.513 248.849 453.194 200.357 377.331 195.734" fill="#2f2e41"/><path d="M588.02648,196.23581l-27.84827,9.13686,3.76468,101.441s48.43217,29.0787,78.25107-3.92918V201.422L625.564,196.23581Z" transform="translate(-189 -102.52778)" fill="#1b75bb"/><path d="M636.01286,208.3963l6.1811-6.97431s17.18524,6.27745,15.75207,25.116-11.53314,78.75564-11.53314,78.75564l-1.9,39.08294h-17.94l7.15-101.07338Z" transform="translate(-189 -102.52778)" fill="#1b75bb"/><path d="M568.01286,211.3963l-6.1811-6.97431s-17.18524,6.27745-15.75207,25.116,11.53313,78.75564,11.53313,78.75564l1.9,39.08294h17.94l-7.15-101.07338Z" transform="translate(-189 -102.52778)" fill="#1b75bb"/><circle cx="379.61024" cy="249.94444" r="11" fill="#ffb6b6"/><circle cx="446.61024" cy="249.94444" r="11" fill="#ffb6b6"/><circle cx="412.14582" cy="54.91465" r="30.46442" fill="#2f2e41"/><circle cx="413.06366" cy="61.82327" r="24.56103" fill="#ffb6b6"/><path d="M576.25574,148.90224a33.40487,33.40487,0,0,0,19.09068,5.89985,20.47089,20.47089,0,0,1-8.11361,3.338,67.359,67.359,0,0,0,27.514.15459,17.80742,17.80742,0,0,0,5.75978-1.97823,7.28926,7.28926,0,0,0,3.55521-4.75471c.60365-3.44852-2.08348-6.58157-4.876-8.69307a35.96732,35.96732,0,0,0-30.22446-6.03969c-3.37627.87272-6.75852,2.34727-8.9515,5.05866s-2.84257,6.8915-.75322,9.68353Z" transform="translate(-189 -102.52778)" fill="#2f2e41"/><path d="M1010,797.47222H190a1,1,0,0,1,0-2h820a1,1,0,0,1,0,2Z" transform="translate(-189 -102.52778)" fill="#3f3d56"/><path d="M583.61024,610.47222a28,28,0,1,0,56,0Z" transform="translate(-189 -102.52778)" fill="#3f3d56"/><circle cx="525.73231" cy="448.94444" r="24" fill="#f0f0f0"/><circle cx="318.73231" cy="448.94444" r="24" fill="#f0f0f0"/></svg>