<svg xmlns="http://www.w3.org/2000/svg" width="868.64431" height="699.46442" viewBox="0 0 868.64431 699.46442" xmlns:xlink="http://www.w3.org/1999/xlink"><g><g><polygon points="360.81967 595.43236 370.34943 592.36656 363.05949 554.14986 348.99444 558.67469 360.81967 595.43236" fill="#a0616a"/><path d="M369.26979,586.70427l-.00963,.00272-9.99118,3.8814-.00963,.00272-2.31179,.90222,5.15153,22.21616,.27381,1.19036,6.77444-2.17286-.15833-1.22297-.6972-5.55982,4.22262,4.42916,.91735,.96709,17.94886-5.7649c1.06696-.34291,1.90851-1.07932,2.40447-2.00911,.54555-.97494,.69624-2.17089,.31928-3.32178-.38128-3.77859-17.7611-6.63275-20.31032-8.04302l-2.07354-6.45957-2.45074,.9622Z" fill="#2f2e41"/></g><path d="M343.32868,462.68598c1.54649,1.27573,2.63225,3.02315,3.09104,4.97472h0l2.04593,8.73622,21.58355,93.18277-23.62444,8.88178c-15.21611-30.36918-24.30667-49.40239-24.82061-70.75634-.14421-5.91632,.37589-12.02016,1.60068-18.59037,0,0-15.38245,10.47065-33.66281,22.4545-1.60497,1.0508-3.23555,2.12019-4.88827,3.18598-15.16448,9.87612-31.51145,20.23238-42.41239,26.30107-6.63236,3.69347-12.97825,3.66439-18.67127,1.40758-16.25133-6.39713-27.32557-30.80917-25.17483-38.37643l24.55071-36.54031,30.37189,15.14211,3.17475,1.57982,53.12041-31.17513c7.75053-4.54861,17.51725-3.77033,24.44961,1.94832l9.26604,7.64373Z" fill="#2f2e41"/></g><path d="M839.89755,282.13796c7.5-13.79999,12.37-27.33002,14.11005-39.81-6.95349-.81305-13.10406-.24664-18.47479,1.5564,9.24677-15.40875,15.42004-34.38501,7.38477-44.1264-5.06-5.37-11.59998-9.39001-19.33002-12.06,2.5-11.57001,2.53003-22.41003-.32001-31.94-13.21997-44.37-100.71997,35.57001-156.56,.96997-23.40997-14.5-48.60999,3.77002-69.01996,33.15002,2.79999,9.77002,7.96997,18.84998,15.22998,25.97998-9.25-.65997-18.34998-3.38-26.45001-7.89996-21.83997,39.19-35.03998,88.25-28.42999,110.42999,4.28998,14.39001,14.56,24.06,28.97003,29.03998-2.5,11.57001,51.51654,94.62488,61.46991,94.53851,26.46008-.22955,34.68768-60.33179,52.35406,16.68909l-39.35406,240.31091h57v-247.8313c15.86017-24.48822,32.24268-8.10919,70-27.1687,115.80963-58.45959,66.43896-122.89294,51.42004-141.82849Z" fill="#f2f2f2"/><path d="M355.84411,175.90008c9.41154-17.31722,15.52276-34.29567,17.7063-49.95645-8.72574-1.02027-16.44392-.30951-23.1835,1.95308,11.60351-19.33601,19.35018-43.14878,9.26693-55.37298-6.34965-6.73866-14.55648-11.78327-24.2567-15.13375,3.13718-14.51888,3.17486-28.12172-.40157-40.08061-16.58937-55.67866-126.39066,44.6358-196.46274,1.21719C109.13632,.33091,77.51353,23.25744,51.90163,60.12559c3.51363,12.26012,10.00129,23.6543,19.11167,32.60155-11.60757-.82818-23.02687-4.24147-33.19138-9.91344C10.41557,131.99212-6.14876,193.55614,2.14593,221.38919c5.38337,18.05763,18.27093,30.19222,36.35368,36.44145-3.13718,14.51888,64.64666,118.7421,77.13686,118.63373,33.20402-.28806,43.5286-75.70867,65.69765,20.94267l-49.38431,301.55942h71.5277V387.96991c19.90248-30.72958,40.46043-10.176,87.84103-34.09324,145.32625-73.3593,83.37239-154.2149,64.52557-177.97659Z" fill="#f2f2f2"/><path d="M502.21473,680.77711c2.06592,.12937,3.20768-2.43737,1.64468-3.93333l-.1555-.61819c.02047-.04951,.04105-.09897,.06178-.14839,2.08924-4.9818,9.16992-4.94742,11.24139,.04177,1.83859,4.42817,4.17942,8.86389,4.75579,13.54594,.25838,2.0668,.14213,4.17236-.31648,6.20047,4.30807-9.41059,6.57515-19.68661,6.57515-30.02077,0-2.59652-.14213-5.19301-.43275-7.78295-.239-2.11854-.56839-4.2241-.99471-6.31034-2.30575-11.2772-7.29852-22.01825-14.50012-30.98962-3.46197-1.89248-6.34906-4.85065-8.09295-8.39652-.62649-1.27891-1.11739-2.65462-1.34991-4.05618,.39398,.05168,1.48556-5.94866,1.18841-6.3168,.54906-.83317,1.53178-1.24733,2.13144-2.06034,2.98232-4.04341,7.0912-3.33741,9.23621,2.15727,4.58224,2.31266,4.62659,6.14806,1.81495,9.83683-1.78878,2.34682-2.03456,5.52233-3.60408,8.03478,.16151,.20671,.32944,.40695,.4909,.61366,2.96106,3.79788,5.52208,7.88002,7.68104,12.16859-.61017-4.76621,.29067-10.50822,1.82641-14.20959,1.74819-4.21732,5.02491-7.76915,7.91045-11.41501,3.46601-4.37924,10.57337-2.46806,11.18401,3.08332,.00591,.05375,.01166,.10745,.01731,.1612-.4286,.24178-.84849,.49867-1.25864,.76992-2.33949,1.54723-1.53096,5.17386,1.24107,5.60174l.06277,.00967c-.15503,1.54366-.41984,3.07444-.80734,4.57937,3.70179,14.31579-4.29011,19.5299-15.70147,19.76412-.25191,.12916-.49738,.25832-.74929,.38109,1.15617,3.25525,2.07982,6.59447,2.76441,9.97891,.61359,2.99043,1.03991,6.01317,1.27885,9.04888,.29715,3.83006,.27129,7.67959-.05168,11.50323l.01939-.13562c.82024-4.21115,3.10671-8.14462,6.4266-10.87028,4.94561-4.06264,11.93282-5.55869,17.26826-8.82425,2.56833-1.57196,5.85945,.45945,5.41121,3.43708l-.02182,.14261c-.79443,.32289-1.56947,.69755-2.31871,1.11733-.4286,.24184-.84848,.49867-1.25864,.76992-2.33949,1.54729-1.53096,5.17392,1.24107,5.6018l.06282,.00965c.0452,.00646,.08397,.01295,.12911,.01944-1.36282,3.23581-3.26168,6.23922-5.63854,8.82922-2.31463,12.49713-12.25603,13.68282-22.89022,10.04354h-.00648c-1.16259,5.06378-2.86128,10.01127-5.0444,14.72621h-18.02019c-.06463-.20022-.12274-.40692-.18089-.60717,1.6664,.10341,3.34571,.00649,4.98629-.29702-1.33701-1.64059-2.67396-3.29409-4.01097-4.93462-.03229-.0323-.05816-.0646-.08397-.09689-.67817-.8396-1.36282-1.67283-2.04099-2.51246l-.00036-.00102c-.04245-2.57755,.26652-5.14662,.87876-7.63984l.00057-.00035Z" fill="#f2f2f2"/><path d="M606.6062,674.96259c2.81252,.17612,4.3669-3.3182,2.23905-5.35479l-.21169-.8416c.02787-.06741,.05589-.13474,.08411-.20202,2.84427-6.78216,12.48382-6.73537,15.30389,.05686,2.50303,6.02846,5.68982,12.06719,6.47448,18.44129,.35176,2.81372,.19349,5.68021-.43086,8.44124,5.86496-12.81146,8.95133-26.80112,8.95133-40.86992,0-3.53487-.19349-7.0697-.58914-10.59561-.32537-2.88415-.7738-5.75064-1.35418-8.59082-3.13902-15.35265-9.93612-29.97539-19.74029-42.1889-4.71308-2.5764-8.64354-6.60362-11.01765-11.43092-.8529-1.74109-1.52121-3.61397-1.83776-5.52203,.53635,.07035,2.02242-8.09844,1.61788-8.59961,.74748-1.13427,2.08534-1.6981,2.90171-2.80493,4.0601-5.50464,9.65388-4.54351,12.57406,2.93688,6.23821,3.14843,6.29859,8.3699,2.47085,13.39175-2.43522,3.19493-2.76982,7.51803-4.90656,10.93846,.21987,.28141,.4485,.55402,.66831,.83543,4.03115,5.17039,7.51769,10.72776,10.45688,16.56618-.83067-6.48866,.39572-14.30576,2.48645-19.34476,2.37997-5.74141,6.84085-10.57683,10.76919-15.54027,4.71858-5.96185,14.39447-3.35998,15.22578,4.1976,.00804,.07318,.01588,.14627,.02357,.21945-.58349,.32916-1.15512,.67889-1.71349,1.04816-3.18495,2.10638-2.08424,7.04363,1.68957,7.62615l.08545,.01317c-.21106,2.10153-.57157,4.18551-1.09911,6.23431,5.03958,19.48935-5.84051,26.58778-21.3758,26.90665-.34295,.17584-.67713,.35168-1.02007,.51881,1.574,4.43166,2.83144,8.97764,3.76344,13.58517,.83534,4.07114,1.41572,8.18626,1.74102,12.31904,.40454,5.2142,.36933,10.45491-.07035,15.66036l.02639-.18463c1.11666-5.73301,4.22944-11.088,8.7491-14.79867,6.73289-5.53083,16.2452-7.56753,23.5088-12.01324,3.49649-2.14005,7.97699,.62549,7.36676,4.6792-.00974,.0647-.01962,.12944-.0297,.19414-1.08153,.43958-2.13666,.94963-3.15667,1.52112-.58349,.32924-1.15512,.67889-1.7135,1.04816-3.18495,2.10646-2.08423,7.04371,1.68958,7.62623l.08552,.01313c.06153,.00879,.11431,.01763,.17577,.02646-1.85532,4.4052-4.44041,8.49401-7.67624,12.02-3.15112,17.01344-16.68522,18.62764-31.16248,13.67315h-.00882c-1.58274,6.89378-3.89532,13.62922-6.86739,20.04809h-24.53247c-.08799-.27257-.1671-.55398-.24627-.8266,2.26862,.14078,4.55481,.00883,6.78828-.40436-1.82019-2.23348-3.6403-4.48454-5.46049-6.71794-.04396-.04397-.07917-.08794-.11431-.13191-.92325-1.14302-1.85533-2.27737-2.77858-3.42043l-.00049-.00139c-.05779-3.50904,.36284-7.00655,1.19633-10.40079l.00078-.00048Z" fill="#f2f2f2"/><path d="M744.21473,680.77711c2.06592,.12937,3.20768-2.43737,1.64468-3.93333l-.1555-.61819c.02047-.04951,.04105-.09897,.06178-.14839,2.08924-4.9818,9.16992-4.94742,11.24139,.04177,1.83859,4.42817,4.17942,8.86389,4.75579,13.54594,.25838,2.0668,.14213,4.17236-.31648,6.20047,4.30807-9.41059,6.57515-19.68661,6.57515-30.02077,0-2.59652-.14213-5.19301-.43275-7.78295-.239-2.11854-.56839-4.2241-.99471-6.31034-2.30575-11.2772-7.29852-22.01825-14.50012-30.98962-3.46197-1.89248-6.34906-4.85065-8.09295-8.39652-.62649-1.27891-1.11739-2.65462-1.34991-4.05618,.39398,.05168,1.48556-5.94866,1.18841-6.3168,.54906-.83317,1.53178-1.24733,2.13144-2.06034,2.98232-4.04341,7.0912-3.33741,9.23621,2.15727,4.58224,2.31266,4.62659,6.14806,1.81495,9.83683-1.78878,2.34682-2.03456,5.52233-3.60408,8.03478,.16151,.20671,.32944,.40695,.4909,.61366,2.96106,3.79788,5.52208,7.88002,7.68104,12.16859-.61017-4.76621,.29067-10.50822,1.82641-14.20959,1.74819-4.21732,5.02491-7.76915,7.91045-11.41501,3.46601-4.37924,10.57337-2.46806,11.18401,3.08332,.00591,.05375,.01166,.10745,.01731,.1612-.4286,.24178-.84849,.49867-1.25864,.76992-2.33949,1.54723-1.53096,5.17386,1.24107,5.60174l.06277,.00967c-.15503,1.54366-.41984,3.07444-.80734,4.57937,3.70179,14.31579-4.29011,19.5299-15.70147,19.76412-.25191,.12916-.49738,.25832-.74929,.38109,1.15617,3.25525,2.07982,6.59447,2.76441,9.97891,.61359,2.99043,1.03991,6.01317,1.27885,9.04888,.29715,3.83006,.27129,7.67959-.05168,11.50323l.01939-.13562c.82024-4.21115,3.10671-8.14462,6.4266-10.87028,4.94561-4.06264,11.93282-5.55869,17.26826-8.82425,2.56833-1.57196,5.85945,.45945,5.41121,3.43708l-.02182,.14261c-.79443,.32289-1.56947,.69755-2.31871,1.11733-.4286,.24184-.84848,.49867-1.25864,.76992-2.33949,1.54729-1.53096,5.17392,1.24107,5.6018l.06282,.00965c.0452,.00646,.08397,.01295,.12911,.01944-1.36282,3.23581-3.26168,6.23922-5.63854,8.82922-2.31463,12.49713-12.25603,13.68282-22.89022,10.04354h-.00648c-1.16259,5.06378-2.86128,10.01127-5.0444,14.72621h-18.02019c-.06463-.20022-.12274-.40692-.18089-.60717,1.6664,.10341,3.34571,.00649,4.98629-.29702-1.33701-1.64059-2.67396-3.29409-4.01097-4.93462-.03229-.0323-.05816-.0646-.08397-.09689-.67817-.8396-1.36282-1.67283-2.04099-2.51246l-.00036-.00102c-.04245-2.57755,.26652-5.14662,.87876-7.63984l.00057-.00035Z" fill="#f2f2f2"/><path d="M296.83106,674.43504c2.88026,.18036,4.47207-3.39812,2.29298-5.48376l-.21679-.86187c.02854-.06903,.05723-.13798,.08614-.20689,2.91278-6.94551,12.78449-6.89759,15.67248,.05823,2.56331,6.17366,5.82686,12.35783,6.63042,18.88544,.36023,2.88149,.19815,5.81701-.44123,8.64455,6.00622-13.12002,9.16692-27.44662,9.16692-41.85427,0-3.62-.19815-7.23997-.60333-10.85081-.3332-2.95362-.79243-5.88914-1.3868-8.79773-3.21462-15.72241-10.17543-30.69734-20.21573-43.20501-4.82659-2.63845-8.85172-6.76266-11.28301-11.70623-.87344-1.78303-1.55785-3.70102-1.88202-5.65503,.54927,.07205,2.07113-8.29348,1.65685-8.80673,.76548-1.16159,2.13557-1.739,2.9716-2.87248,4.15789-5.63722,9.88639-4.65294,12.87691,3.00761,6.38845,3.22426,6.45029,8.57148,2.53036,13.71428-2.49387,3.27188-2.83653,7.6991-5.02473,11.20191,.22517,.28819,.4593,.56737,.68441,.85555,4.12824,5.29492,7.69876,10.98614,10.70873,16.96517-.85068-6.64493,.40525-14.65032,2.54633-19.81068,2.43729-5.87969,7.00561-10.83157,11.02857-15.91455,4.83223-6.10544,14.74115-3.44091,15.59249,4.2987,.00824,.07494,.01626,.1498,.02413,.22474-.59754,.33709-1.18294,.69524-1.75476,1.0734-3.26166,2.15711-2.13444,7.21328,1.73026,7.80982l.08751,.01349c-.21614,2.15214-.58533,4.28631-1.12558,6.38446,5.16095,19.95874-5.98117,27.22814-21.89063,27.55469-.35121,.18008-.69344,.36015-1.04464,.5313,1.61191,4.53839,2.89963,9.19386,3.85408,13.91237,.85545,4.1692,1.44982,8.38342,1.78295,12.61574,.41428,5.33979,.37822,10.70671-.07205,16.03753l.02703-.18908c1.14356-5.87109,4.3313-11.35505,8.95982-15.15509,6.89505-5.66404,16.63647-7.7498,24.07501-12.30257,3.5807-2.19159,8.16912,.64055,7.54419,4.7919-.00997,.06626-.02009,.13256-.03042,.19882-1.10758,.45017-2.18812,.9725-3.23269,1.55776-.59754,.33717-1.18294,.69524-1.75477,1.0734-3.26166,2.15719-2.13443,7.21336,1.73027,7.8099l.08758,.01345c.06301,.00901,.11707,.01805,.18,.0271-1.90001,4.51129-4.54736,8.69858-7.86112,12.3095-3.22701,17.4232-17.08708,19.07628-31.91303,14.00247h-.00904c-1.62086,7.05981-3.98914,13.95748-7.03278,20.53094h-25.12333c-.09011-.27914-.17112-.56732-.2522-.8465,2.32326,.14417,4.66451,.00905,6.95178-.4141-1.86402-2.28727-3.72798-4.59255-5.592-6.87974-.04502-.04503-.08108-.09006-.11707-.13509-.94549-1.17055-1.90001-2.33222-2.8455-3.50281l-.0005-.00143c-.05918-3.59356,.37158-7.1753,1.22515-10.65129l.00079-.00049Z" fill="#f2f2f2"/><path d="M161.21473,680.77711c2.06592,.12937,3.20768-2.43737,1.64468-3.93333l-.1555-.61819c.02047-.04951,.04105-.09897,.06178-.14839,2.08924-4.9818,9.16992-4.94742,11.24139,.04177,1.83859,4.42817,4.17942,8.86389,4.75579,13.54594,.25838,2.0668,.14213,4.17236-.31648,6.20047,4.30807-9.41059,6.57515-19.68661,6.57515-30.02077,0-2.59652-.14213-5.19301-.43275-7.78295-.239-2.11854-.56839-4.2241-.99471-6.31034-2.30575-11.2772-7.29852-22.01825-14.50012-30.98962-3.46197-1.89248-6.34906-4.85065-8.09295-8.39652-.62649-1.27891-1.11739-2.65462-1.34991-4.05618,.39398,.05168,1.48556-5.94866,1.18841-6.3168,.54906-.83317,1.53178-1.24733,2.13144-2.06034,2.98232-4.04341,7.0912-3.33741,9.23621,2.15727,4.58224,2.31266,4.62659,6.14806,1.81495,9.83683-1.78878,2.34682-2.03456,5.52233-3.60408,8.03478,.16151,.20671,.32944,.40695,.4909,.61366,2.96106,3.79788,5.52208,7.88002,7.68104,12.16859-.61017-4.76621,.29067-10.50822,1.82641-14.20959,1.74819-4.21732,5.02491-7.76915,7.91045-11.41501,3.46601-4.37924,10.57337-2.46806,11.18401,3.08332,.00591,.05375,.01166,.10745,.01731,.1612-.4286,.24178-.84849,.49867-1.25864,.76992-2.33949,1.54723-1.53096,5.17386,1.24107,5.60174l.06277,.00967c-.15503,1.54366-.41984,3.07444-.80734,4.57937,3.70179,14.31579-4.29011,19.5299-15.70147,19.76412-.25191,.12916-.49738,.25832-.74929,.38109,1.15617,3.25525,2.07982,6.59447,2.76441,9.97891,.61359,2.99043,1.03991,6.01317,1.27885,9.04888,.29715,3.83006,.27129,7.67959-.05168,11.50323l.01939-.13562c.82024-4.21115,3.10671-8.14462,6.4266-10.87028,4.94561-4.06264,11.93282-5.55869,17.26826-8.82425,2.56833-1.57196,5.85945,.45945,5.41121,3.43708l-.02182,.14261c-.79443,.32289-1.56947,.69755-2.31871,1.11733-.4286,.24184-.84848,.49867-1.25864,.76992-2.33949,1.54729-1.53096,5.17392,1.24107,5.6018l.06282,.00965c.0452,.00646,.08397,.01295,.12911,.01944-1.36282,3.23581-3.26168,6.23922-5.63854,8.82922-2.31463,12.49713-12.25603,13.68282-22.89022,10.04354h-.00648c-1.16259,5.06378-2.86128,10.01127-5.0444,14.72621h-18.02019c-.06463-.20022-.12274-.40692-.18089-.60717,1.6664,.10341,3.34571,.00649,4.98629-.29702-1.33701-1.64059-2.67396-3.29409-4.01097-4.93462-.03229-.0323-.05816-.0646-.08397-.09689-.67817-.8396-1.36282-1.67283-2.04099-2.51246l-.00036-.00102c-.04245-2.57755,.26652-5.14662,.87876-7.63984l.00057-.00035Z" fill="#f2f2f2"/><g><path d="M234.71943,383.12245s-31.90189-1.49882-24.8741,7.36742c4.57327,5.76964,25.89367,38.26549,37.98906,44.77036,6.02338,3.23936,13.52581,.62301,16.24186-5.65375l22.54049-52.09067-14.78861-5.36472-17.89388,41.21692-19.21482-30.24557Z" fill="#a0616a"/><circle cx="279.50733" cy="369.01268" r="11" fill="#a0616a"/></g><path d="M292.17868,429.67055l-42.80371-4.29102,.17383-.58105c8.62744-28.7998,15.67334-53.9209,14.49512-69.67188-.03369-.44824,.18457-.87305,.56982-1.11035,.39014-.23828,.87549-.24121,1.2666-.00488l45.25586,27.39258-3.40332,15.39453-15.5542,32.87207Z" fill="#e6e6e6"/><polygon points="244.42833 457.21938 254.2866 489.36958 209.42833 494.21938 225.42833 453.21938 244.42833 457.21938" fill="#a0616a"/><path d="M255.40831,432.33937c-1.07001,7.64001-1.32001,14.85999,.02002,18.88,.35629,1.06887,5.69178,8.88274,6,10,2.75418,9.98352-9,12-9,12l-45.09302,14.9706c-2.5966,.86206-4.78235-2.14578-3.12334-4.32137,3.69858-4.85026,7.07707-11.85798,6.83635-21.13922-.37512-14.46322-6.77592-37.46541-10.31388-49.1613-1.4559-4.81296-1.10486-9.98511,.98004-14.56086l5.03386-11.04787,7.32001-16.04999,2.35999-11.69,21,1,2.59003,9.51001,19.53998,29.82996c.78998,1.21002,1.31,2.56,1.53998,3.95001,.31,1.73999,.16003,3.56-.45001,5.27002-2.02997,5.69-4.09998,14.35999-5.23999,22.56Z" fill="#1b75bb"/><path d="M197.05752,347.61641c8.38995,10.46002-6.48999,27.30005,2.63,37.13-1.75,.70001-3.62,.97003-5.5,.88-.09003-.32001-.19-.64001-.29004-.95001-.81-2.51996-1.88995-4.94995-3.23999-7.22998,.26001,2.47998,.06,5.02002-.59998,7.42999-1.41003-.42999-2.77002-1.04999-4.03003-1.81-.15997-.08997-.29999-.17999-.45996-.28998-4.12006-7.69-5.71002-16.73999-4.26001-25.34003-2.78003,4.01001-5.46002,8.22003-6.94,12.85004-5.01001-7.92004-8.48999-16.95001-8.27002-26.27002,.22003-10.37,5.79999-21.01001,15.28003-25.22998,3.90997-1.74005,8.54999-2.52002,11.27997-5.82001,1.47003-1.76001,2.16998-4.02002,3.22998-6.06,1.06-2.04004,2.71002-4.02002,4.99005-4.35004,1.35999-.19,2.81,.56,3.56,1.64001-3.69,4.03998-3.48004,10.59998-2.28003,16.10999,1.28003,5.92004,5.15002,13.26001,1.20001,17.85004-2.42999,2.82996-14.33002-.54004-6.29999,9.45996Z" fill="#2f2e41"/><path d="M245.88152,338.68848c-.54166-1.89581,3.19176,9.69287,1.39023,9.90208-8.20531,.94132-19.46907,5.84176-25.184,8.12793-.25738-.02991-.51476-.05978-.76452-.09713-.61312-.06726-1.21114-.16439-1.80153-.27643-13.30712-2.51777-18.42436-22.95907-18.42436-23.14584,0-.91893,2.2055-26.15831,5.67986-26.53186,.90077-.09713,1.81669-.14943,2.74772-.14943h8.62162c1.8318-.38851,3.64848-.65746,5.41213-.78446h.01517c24.85135-2.83384,36.85098,8.08525,29.76309,22.12947-.00757,.01492-.02273,.02988-.03026,.04484-.37094,.55286-.69642,1.07584-.98407,1.5764-.28007,.47068-.51472,.91893-.71906,1.34479-1.58204,3.28732,2.48454,7.42377-.21196,8.19585-3.58634,1.02687,9.43221,34.7781-4.76294,34.7781,6.90484,1.96318,.74711-29.88452-.74711-35.11431Z" fill="#2f2e41"/><circle cx="230.38732" cy="338.07956" r="20.41274" fill="#a0616a"/><path d="M253.33749,328.97646c-.33997,.17999-.66998,.33997-1.01001,.50995-.35999,.17004-.71997,.34003-1.06995,.5-2.28003,1.03003-4.42004,1.76001-6.38,2.09003-.55005-1.71997-1.29004-3.38-2.21002-4.94,.17999,1.72998,.02997,3.5-.44,5.17999-2.72998-.04999-5.02002-1.08002-6.75-3.33997-.09003-2.33002-.60999-4.65002-1.54999-6.80005,.17999,2.38-.48004,4.81-1.79999,6.80005l.34998,27.98999c-7,4.64996,8.12,20.32996,6,24-.60999-.07001-21.40002-26.10999-21.98999-26.22003-13.31-2.51996-21.76001-24.44-20.67999-25.67999,0-3.64996,.84998-7.08997,2.37-10.16998,1.96997-4,5.06-7.35999,8.89001-9.66998,2.25-1.09003,4.62994-1.98004,7.09998-2.66003,.06-.02002,.10999-.02997,.16998-.04999,.75-.20001,1.52002-.39001,2.28003-.53998,1.57001-.33002,3.15997-.58002,4.77997-.73004,.12-.01001,.23004-.01001,.34003-.01001,.65997,0,1.27997,.18005,1.82001,.5h.01996c.39001,.24005,.74005,.54004,1.01001,.91003,.47003,.59998,.73999,1.33997,.73999,2.15997h7.57001c.28003,0,.56,0,.84003,.02002,10.54999,.41998,19.02002,8.71002,19.57001,19.08002,.01996,.35999,.02997,.70996,.02997,1.07001Z" fill="#2f2e41"/><path d="M222.15359,309.00256c0,7.42714-6.02089,13.44803-13.44803,13.44803-7.42714,0-13.44803-6.02089-13.44803-13.44803s6.02089-13.44803,13.44803-13.44803c7.42714,0,13.44803,6.02089,13.44803,13.44803Z" fill="#2f2e41"/><path d="M849.47751,609.05318v-39.17346c5.27917-2.16724,9-7.35309,9-13.41327s-3.72083-11.24603-9-13.41327v-16.58673c0-1.93298-1.56702-3.5-3.5-3.5s-3.5,1.56702-3.5,3.5v15.5c-140.76465,5.02319-280.37286,9.7912-354,0v-15.5c0-1.93298-1.56702-3.5-3.5-3.5s-3.5,1.56702-3.5,3.5v15.5H129.47751v-15.5c0-1.93298-1.56702-3.5-3.5-3.5s-3.5,1.56702-3.5,3.5v16.22076c-5.80328,1.89447-10,7.34326-10,13.77924s4.19672,11.88477,10,13.77924v38.44153c-5.80328,1.89447-10,7.34326-10,13.77924s4.19672,11.88477,10,13.77924v57.22076c0,1.93298,1.56702,3.5,3.5,3.5s3.5-1.56702,3.5-3.5v-56.5H481.47751v56.5c0,1.93298,1.56702,3.5,3.5,3.5s3.5-1.56702,3.5-3.5v-56.5h354v56.5c0,1.93298,1.56702,3.5,3.5,3.5s3.5-1.56702,3.5-3.5v-57.58673c5.27917-2.16724,9-7.35309,9-13.41327s-3.72083-11.24603-9-13.41327Zm-720-38.08673c136.9472-11.12781,270.94458-20.58209,352,0-7.48779,12.44562-7.62744,24.78107,0,37-93.41211,11.02679-218.42416,7.48718-352,0,4.20108-10.97803,3.42603-23.5614,0-37Zm359,37v-37h354c-14.82074,12.00378-17.07416,24.28705,0,37-68.50842,23.40247-221.00146,7.09216-354,0Z" fill="#e6e6e6"/><path d="M291.6777,445.03188c-.72559,0-1.46094-.07227-2.19971-.22168l-41.87598-8.50879c-2.6665-.54199-4.91406-2.23828-6.16602-4.6543s-1.3418-5.23047-.24658-7.7207l16.19287-36.83496c.8877-2.02051,2.96777-3.30664,5.16895-3.17188l37.60791,2.09766c1.01855,.04395,1.60059-.58203,1.8291-1.19727,.22852-.61621,.18945-1.49121-.60498-2.10156l-36.18164-27.77441c-.24756-.19336-.30127-.53516-.12451-.79492,.17725-.25977,.51367-.33496,.78369-.1748l46.37402,27.07324c3.41406,1.99414,4.99902,6.02832,3.85449,9.81152l-14.05029,46.4502c-1.41455,4.67773-5.6582,7.72266-10.36133,7.72266Zm-26.32324-90.19531l.00342,.00195-.00342-.00195Z" fill="#3f3d56"/><g><path d="M243.47751,400.96645s-21.88623-23.25875-23-12c-.72478,7.32655-7.996,45.50598-3.82573,58.59111,2.07675,6.51626,9.28802,9.85232,15.60435,7.22961l52.41907-21.76585-6.89868-14.1383-41.51891,17.18153,7.2199-35.0981Z" fill="#a0616a"/><circle cx="285.47783" cy="421.96677" r="11" fill="#a0616a"/></g><path d="M82.97427,698.27441c0,.66003,.53003,1.19,1.19006,1.19H867.45431c.65997,0,1.19-.52997,1.19-1.19,0-.65997-.53003-1.19-1.19-1.19H84.16433c-.66003,0-1.19006,.53003-1.19006,1.19Z" fill="#ccc"/><g><polygon points="230.32443 665.54704 238.37019 671.50365 265.17475 643.3048 253.29996 634.51339 230.32443 665.54704" fill="#a0616a"/><path d="M240.51092,674.21048l4.03844-5.4543-2.21077-1.43683-8.98752-5.86479-2.08328-1.35297-15.04861,17.1392-.80671,.9189,5.71269,4.22975,.9037-.83655,4.10272-3.80625-1.13075,6.00673-.2508,1.31996,15.14552,11.21394c.90448,.66969,1.98926,.92533,3.02758,.78863,1.11791-.13048,2.17554-.70563,2.89561-1.67815,2.84985-2.51225-4.96672-18.29191-5.30781-21.18729Z" fill="#2f2e41"/></g><path d="M328.42833,581.21938l-2.03003,2.32996-5.89996,6.76001-63.07001,71.91003-21-14c15.78003-30.08002,25.92999-48.57001,42.96997-61.45001,4.72003-3.57001,9.98004-6.71002,16.03003-9.54999,0,0-17.47998-6.38-37.88-14.23004-1.78998-.69-3.60999-1.38995-5.44-2.10999-16.87-6.54999-34.82001-13.77997-46.10999-19.08997-6.87-3.23004-10.54999-8.40002-12.03998-14.34003-4.29004-16.92999,9.06995-40.16998,16.46997-42.83997l44-1.39001,5.42999,33.5,.57001,3.5s16.12,7.78998,33.03998,15.57996c2.54004,1.16003,5.09003,2.33002,7.61005,3.47003,4,1.79999,7.89996,3.53998,11.51996,5.10999,.0827,.0359,.16553,.07177,.24848,.1076,10.49055,4.53143,17.02074,15.14447,16.2606,26.54657l-.67906,10.18587Z" fill="#2f2e41"/></svg>