<svg xmlns="http://www.w3.org/2000/svg" data-name="Layer 1" width="751.13137" height="683.41247" viewBox="0 0 751.13137 683.41247" xmlns:xlink="http://www.w3.org/1999/xlink"><path d="M874.578,687.36066H323.57851v-93.543h8.5v-69.626a61.94385,61.94385,0,0,1,61.874-61.874H805.204a61.94411,61.94411,0,0,1,61.874,61.874v69.626h7.5Z" transform="translate(-224.43432 -108.29377)" fill="#e4e4e4"/><path d="M889.50765,790.31757h-27.4292v-.5a91.60367,91.60367,0,0,0-91.5-91.5h-343a91.60366,91.60366,0,0,0-91.5,91.5v.5H308.64928a23.59738,23.59738,0,0,1-23.5708-23.5708V613.83561c-7.965-4.5-14.44324-28.94043-10.23535-48.459,2.64074-12.249,10.26416-27.042,31.58569-27.958,20.75562-.89257,36.1615,18.59327,37.5376,37.35059a40.45411,40.45411,0,0,1-8.148,27.54834h.26v21.814c45.00854-14.42334,90.08084-21.7627,133.97439-21.814a410.04811,410.04811,0,0,1,132.0293,21.97314c88.38428-28.58691,175.853-29.14306,259.99634-1.647V602.31754h.26a40.4538,40.4538,0,0,1-8.148-27.54834c1.50928-20.57373,18.33862-37.3291,37.51563-37.35107h.06372c22.61352,0,30.61181,13.61377,33.34008,25.04052,4.82813,20.22217-4.03588,46.83936-12.03149,51.37647V766.74677A23.59744,23.59744,0,0,1,889.50765,790.31757Z" transform="translate(-224.43432 -108.29377)" fill="#cacaca"/><polygon points="511.829 641.106 525.069 650.564 567.85 603.997 548.309 590.039 511.829 641.106" fill="#ffb6b6"/><path d="M735.97434,742.66485,739.701,745.327l18.77584,4.47717,3.57146,11.4866.00106.00075a20.42159,20.42159,0,0,1,4.74551,28.48614l-.38575.54-42.69043-30.49608Z" transform="translate(-224.43432 -108.29377)" fill="#2f2e41"/><path d="M825.982,624.72712H728.7658a34.19328,34.19328,0,0,1,0-68.38655H825.982a34.19327,34.19327,0,0,1,0,68.38655Z" transform="translate(-224.43432 -108.29377)" fill="#2f2e41"/><path d="M778.28564,385.96227l15.6808,11.94038,18.911,5.81136s7.818,109.97111,14.86242,117.01555.69122,7.23376,2.10672,16.38491,4.85591,27.90995,4.85591,27.90995c-47.55014,25.17038-88.54336,25.84557-121.4713-3.60806a8.20157,8.20157,0,0,1,4.47483-9.25726c6.12845-3.25181-5.64947-18.42924-.64107-20.9669s-2.036-24.55151-2.036-24.55151l4.62111-45.93021-3.65091-7.342,8.90956-44.92494,15.4598-5.64591,6.17552-14.87919Z" transform="translate(-224.43432 -108.29377)" fill="#1b75bb"/><path d="M788.10889,283.28993a13.59328,13.59328,0,0,0,15.49745,13.93885l22.0993,42.95457,12.31223-21.87551-22.87343-37.43668a13.667,13.667,0,0,0-27.03546,2.41875Z" transform="translate(-224.43432 -108.29377)" fill="#ffb6b6"/><path d="M825.32591,293.79769l47.39985,73.46416-.15645.338c-.179.38727-10.91257,23.56912-21.31294,44.80221-1.60163,3.26985-3.19536,6.49348-4.74143,9.58053q-1.00088,1.99848-1.97194,3.91338c-4.36818,8.6118-8.18477,15.72964-10.46287,19.11074a40.12214,40.12214,0,0,1-21.26079,16.12839l-.2193.0564-.20937-.08729a20.36068,20.36068,0,0,1-12.11719-22.3978,144.21978,144.21978,0,0,1,26.761-60.504l7.68424-10.12859-26.70383-58.05679Z" transform="translate(-224.43432 -108.29377)" fill="#1b75bb"/><path d="M743.433,274.28993a13.59327,13.59327,0,0,1-15.49744,13.93885l-22.09931,42.95457L693.524,309.30784l22.87342-37.43668a13.667,13.667,0,0,1,27.03546,2.41875Z" transform="translate(-224.43432 -108.29377)" fill="#ffb6b6"/><path d="M706.216,284.79769l-47.39986,73.46416.15646.338c.179.38727,10.91256,23.56912,21.31293,44.80221,1.60163,3.26985,3.19537,6.49348,4.74143,9.58053q1.00089,1.99848,1.97194,3.91338c4.36818,8.6118,8.18477,15.72964,10.46287,19.11074a40.12212,40.12212,0,0,0,21.2608,16.12839l.21929.0564.20938-.08729a20.36068,20.36068,0,0,0,12.11718-22.3978,144.21978,144.21978,0,0,0-26.761-60.504l-7.68424-10.12859,26.70383-58.05679Z" transform="translate(-224.43432 -108.29377)" fill="#1b75bb"/><circle cx="537.79867" cy="240.00581" r="31.01709" fill="#ffb6b6"/><path d="M736.96917,321.65316c2.55076-7.4208,15.24867-12.56793,35.8339-13.28362,20.58524-.71575,25.806,23.54308,25.806,23.54308,13.74216,11.1477-14.67393,40.99292-16.04871,39.918l.61805-5.60734c1.02368-9.28784,5.37284-16.53476-.15833-26.2143l-5.31129.061-10.07377,1.93712a2.91426,2.91426,0,0,1-2.47617-5.04907l.09223-.08122-.229-.35433c-3.54884,1.62812-7.20556,3.13785-11.08535,3.36587-4.36481.25657-9.13667-1.48055-11.22734-5.32071a8.94064,8.94064,0,0,1-1.00307-3.40178c-5.88593,2.35163-8.57745,9.60779-8.57745,9.60779S734.41841,329.074,736.96917,321.65316Z" transform="translate(-224.43432 -108.29377)" fill="#2f2e41"/><polygon points="596.305 627.912 583.887 638.426 537.423 595.534 555.749 580.016 596.305 627.912" fill="#ffb6b6"/><path d="M834.09806,745.5599l-40.03837,33.903-.42884-.5064a20.42161,20.42161,0,0,1,2.3872-28.77988l.001-.00084,2.6149-11.74136,18.34413-6.00584,3.49512-2.95951Z" transform="translate(-224.43432 -108.29377)" fill="#2f2e41"/><path d="M743.99816,617.60523l10.26371-22.25757c-.11508-20.30193-17.1095-36.79012-37.37184-35.51777-11.284.70856-21.85031,7.01994-26.21591,25.77805-11.22582,48.23515,98.922,148.61316,98.922,148.61316L809.83558,721.713l.93275-13.21375-11.33484-6.98632-.01011-11.26922-10.80822-5.12655Z" transform="translate(-224.43432 -108.29377)" fill="#2f2e41"/><path d="M811.4269,611.47534l-12.68613-18.6539c-1.55462-20.24264,14.02654-38.07235,34.32488-38.47036,11.30406-.22165,22.35353,5.19956,28.24671,23.53519,15.1539,47.14879-86.36747,156.2437-86.36747,156.2437l-21.1994-10.80163L751.72942,710.236l10.722-7.89466-.91652-11.23189,10.35009-5.99789Z" transform="translate(-224.43432 -108.29377)" fill="#2f2e41"/><path d="M766.77387,458.7168v5.96H747.0141v-5.96h6.11963V444.35694l-5.71973,3.27978v-6.43994l8.79981-5h4.3999v22.52Z" transform="translate(-224.43432 -108.29377)" fill="#fff"/><path d="M771.23334,461.27686q-2.81982-3.75952-2.81982-10.87988,0-6.99976,2.81982-10.74024a10.64208,10.64208,0,0,1,16.20019,0q2.81983,3.74049,2.81983,10.74024,0,7.11987-2.81983,10.87988a10.60536,10.60536,0,0,1-16.20019,0Zm10.85986-3.98a20.25891,20.25891,0,0,0,.84033-6.8999,19.58994,19.58994,0,0,0-.84033-6.76026,2.87082,2.87082,0,0,0-5.51953,0,19.58994,19.58994,0,0,0-.84033,6.76026,20.25891,20.25891,0,0,0,.84033,6.8999,2.86337,2.86337,0,0,0,5.51953,0Z" transform="translate(-224.43432 -108.29377)" fill="#fff"/><polygon points="331.612 666.195 316.44 666.194 309.221 607.669 331.615 607.67 331.612 666.195" fill="#a0616a"/><path d="M556.58093,790.31757l-46.65911-.00176v-.59008a18.162,18.162,0,0,1,18.161-18.16074h.00112l8.52288-6.4659,15.90182,6.46689,4.073.00014Z" transform="translate(-224.43432 -108.29377)" fill="#2f2e41"/><polygon points="438.972 666.195 454.144 666.194 461.362 607.669 438.968 607.67 438.972 666.195" fill="#a0616a"/><path d="M662.87122,790.31757l46.65911-.00176v-.59008a18.162,18.162,0,0,0-18.161-18.16074h-.00112l-8.52289-6.4659L666.94348,771.566l-4.073.00014Z" transform="translate(-224.43432 -108.29377)" fill="#2f2e41"/><path d="M532.98765,672.9556c.22408-3.33947,2.00582-21.80787,2.00582-21.80787l4.26768-39.16668L546.78293,508.159l.49081-6.79628,39.40138-7.5645,26.92907-12.90972,32.00762,10.2318,24.92326,9.34624s.04265,4.00095.23469,8.83414c.256,6.32689.70414,14.08337,1.77106,16.09986,1.78174,3.56355,1.33365,22.69343,1.33365,22.69343s1.77106,38.92125,4.001,43.18893,2.67791,13.15516,2.00581,14.9369,2.22989,48.52354,2.22989,48.52354,7.44824,82.71566,2.77512,95.188-22.33179,4.3024-22.33179,4.3024.85352-3.32879-4.26769-4.8972-20.71965-118.855-20.71965-118.855-2.902-24.04844-5.56929-30.9407-5.12121-26.25691-5.12121-26.25691S610.40336,541.23353,610.19,534.1065c0,0-2.1552-6.66825-4.193.67217s-8.04456,24.92325-8.04456,24.92325L592.095,581.29633,585.20269,613.56,580.743,640.72383s-6.67893,36.05123-7.74585,37.609,0,34.49357,0,34.49357-5.16386,28.04933-12.46163,32.94652-26.63239.07778-26.63239.07778S532.76357,676.29507,532.98765,672.9556Z" transform="translate(-224.43432 -108.29377)" fill="#2f2e41"/><polygon points="325.363 284.766 334.122 307.702 323.314 318.887 328.073 323.144 324.563 329.164 315.408 392.25 365.596 408.796 382.496 390.376 395.822 408.796 453.895 396.461 439.086 316.012 439.086 310.753 434.904 300.598 434.904 279.099 454.108 215.104 412.989 205.068 397.231 194.226 392.131 209.474 370.419 206.116 369.853 194.662 353.241 208.305 331.092 211.774 314.342 215.104 312.208 219.741 316.475 218.813 323.944 279.145 325.363 284.766" fill="#2f2e41"/><path d="M583.56971,331.13273l10.71805-28.1113,27.37716-.50142,9.08454,28.61272,32.653,182.40887s-100.03529,27.858-99.02054-5.62864c1.06692-35.20839,5.88067-81.97689,5.88067-81.97689Z" transform="translate(-224.43432 -108.29377)" fill="#3f3d56"/><circle cx="382.92988" cy="154.61426" r="32.25051" fill="#a0616a"/><path d="M573.21188,239.51221c5.25055-5.71479,11.81785-16.1756,31.70957-20.56836,24.57942-5.428,36.194,16.77629,29.99556,17.14026,18.125,5.48863,6.48178,42.997,1.28556,39.85128a1.52725,1.52725,0,0,1-.12843-.10017,25.53119,25.53119,0,0,1-10.19793-17.41964l-.9862-8.87595c-.14079,7.22171-7.52243,8.177-15.06306,5.51733a9.46071,9.46071,0,0,1,6.68385-6.581c-4.61266,4.255-10.61689,7.29893-19.0041,8.26887,1.0297-3.98477,3.08038-6.918,6.29111-8.65662l-.29762-.29242c-3.07282,2.33866-6.27532,4.58638-9.97027,5.64541-4.15685,1.19146-9.13763.5469-11.98568-2.707a8.84215,8.84215,0,0,1-1.70364-3.066c.61574,5.71927-3.22033,12.24783-6.20017,11.12694C571.16155,258.31334,569.71655,243.31658,573.21188,239.51221Z" transform="translate(-224.43432 -108.29377)" fill="#2f2e41"/><path d="M647.12848,261.12966,676.459,310.47513l21.67877-10.23884s-37.3551-46.65606-38.5452-47.99833a11.47838,11.47838,0,1,0-12.46412,8.8917Z" transform="translate(-224.43432 -108.29377)" fill="#a0616a"/><path d="M661.32913,383.75535l45.51982-32.79244a26.30769,26.30769,0,0,0,4.45318-38.63272l-32.75966-37.57933-14.27153,19.33887,11,23-21.29922,5.61641Z" transform="translate(-224.43432 -108.29377)" fill="#2f2e41"/><path d="M583.20079,265.76776l-29.33055,49.34546-21.67876-10.23883s37.35509-46.65606,38.5452-47.99834a11.47838,11.47838,0,1,1,12.46411,8.89171Z" transform="translate(-224.43432 -108.29377)" fill="#a0616a"/><path d="M569.00014,388.39345,523.48032,355.601a26.3077,26.3077,0,0,1-4.45317-38.63272L551.7868,279.389l14.27154,19.33887-11,23,21.29921,5.61641Z" transform="translate(-224.43432 -108.29377)" fill="#2f2e41"/><path d="M615.05414,379.21241a6.44033,6.44033,0,0,1,1.52,4.36035,6.86369,6.86369,0,0,1-1.44043,4.35986,9.03859,9.03859,0,0,1-3.98,2.81983,17.77114,17.77114,0,0,1-11.63965,0,9.03579,9.03579,0,0,1-3.98-2.81983,6.86369,6.86369,0,0,1-1.44043-4.35986,6.56679,6.56679,0,0,1,1.52-4.41992,7.93559,7.93559,0,0,1,4.28027-2.46045,7.9736,7.9736,0,0,1-3.72021-2.46,5.96327,5.96327,0,0,1-1.35986-3.89991,6.48455,6.48455,0,0,1,1.37988-4.12011,8.72558,8.72558,0,0,1,3.76025-2.69971,15.86625,15.86625,0,0,1,10.75977,0,8.72851,8.72851,0,0,1,3.76025,2.69971,6.48455,6.48455,0,0,1,1.37989,4.12011,6.12452,6.12452,0,0,1-1.37989,3.98,7.4834,7.4834,0,0,1-3.66015,2.41993A8.19935,8.19935,0,0,1,615.05414,379.21241Zm-6.6001,6.08008a2.61576,2.61576,0,0,0,1.19971-2.31983,2.92076,2.92076,0,0,0-1.15967-2.3999,4.54032,4.54032,0,0,0-6.32031,0,2.91943,2.91943,0,0,0-1.15967,2.3999,2.61576,2.61576,0,0,0,1.19971,2.31983,6.48239,6.48239,0,0,0,6.24023,0Zm-5.66015-16.33985a2.64956,2.64956,0,0,0-.98,2.25977q0,2.64038,3.52,3.52,3.51928-.87891,3.52-3.52a2.65086,2.65086,0,0,0-.98-2.25977,4.72807,4.72807,0,0,0-5.08007,0Z" transform="translate(-224.43432 -108.29377)" fill="#fff"/><path d="M254.5149,284.34305a8.53865,8.53865,0,0,0,13.0244,1.33891l27.11395,13.6223-1.84718-15.65955-25.46468-10.53519a8.585,8.585,0,0,0-12.82649,11.23353Z" transform="translate(-224.43432 -108.29377)" fill="#9e616a"/><path d="M366.68457,347.54962l-13.50022-9.31055s-15.45969-1.04841-17.78481-5.96327-2.717-3.26243-5.19566-3.85027-3.75768-7.98542-7.91268-7.1127c-9.34811,1.96345-53.31172-27.0866-48.56683-30.71732l3.527-14.87186a47.88775,47.88775,0,0,0,11.567,2.74326c5.97945.54542,20.06751,7.37733,22.15426,9.6176s5.78349,1.37163,10.74078,2.54731,6.69232,9.14971,14.91428,7.02785c11.56869-2.98556,71.503,25.44167,77.98733,28.09523,7.1164,2.91223,12.08616,11.59324,12.08616,11.59324l-1.95948,8.26214Z" transform="translate(-224.43432 -108.29377)" fill="#1b75bb"/><polygon points="239.681 661.637 251.447 661.637 257.046 616.254 239.68 616.254 239.681 661.637" fill="#9e616a"/><path d="M460.27485,761.87241l18.79785-1.122v8.05381L496.94433,781.147a5.03072,5.03072,0,0,1-2.85862,9.17053H471.70617l-3.85745-7.96645-1.50614,7.96645h-8.438Z" transform="translate(-224.43432 -108.29377)" fill="#2f2e41"/><polygon points="92.211 651.641 103.143 655.993 125.13 615.898 108.996 609.476 92.211 651.641" fill="#9e616a"/><path d="M316.05806,751.02767l17.87992,5.90984-2.97865,7.48275,12.03953,18.07732a5.03072,5.03072,0,0,1-6.04759,7.463l-20.79269-8.27692-.6376-8.82824L311.17529,779.7l-7.83968-3.12073Z" transform="translate(-224.43432 -108.29377)" fill="#2f2e41"/><path d="M440.39769,634.88578l-19.62042-91.56193L390.13937,645.057l-48.51354,96.46947-.257.51188-15.36744-8.274c-2.16878-39.17077,2.98213-75.87686,21.82154-107.9738l8.92093-88.09853c.27337-3.01032,6.92787-73.68082,27.999-86.21327l6.17092-14.07082,61.37545-15.1583.22327.25158a46.92134,46.92134,0,0,1,11.24293,23.56627L482.095,557.16868l.01035.06208L477.188,634.73655l6.72637,114.3462-24.33843,0Q436.991,706.58723,440.39769,634.88578Z" transform="translate(-224.43432 -108.29377)" fill="#2f2e41"/><path d="M493.23252,250.87789a8.53869,8.53869,0,0,1-.34719,13.08844L502.90755,292.607l-15.292-3.84573-7.17285-26.60809a8.585,8.585,0,0,1,12.78978-11.2753Z" transform="translate(-224.43432 -108.29377)" fill="#9e616a"/><path d="M372.82313,467.21739c-1.65286,0-2.59173-.32414-2.9553-1.01917-.53343-1.02014.39229-2.35275,1.464-3.89659.74758-1.07563,2.93108-3.21449,1.85729-3.34563-16.28137-1.98834-8.46587-102.36922-1.40992-115.63792,1.43367-2.696-.0832-6.83242,1.53121-11.40749,4.41008-12.49481,10.42971-16.33495,22.42175-23.98408q1.46012-.93156,3.041-1.94587c1.36327-.87608,1.28734-3.78076,1.207-6.85676-.08907-3.41865-.18155-6.95411,1.49322-9.16377l.109-.14407.1757-.04088c4.05088-.93643,17.67535-2.675,25.744.01265l.11145.038.08323.08275c1.91666,1.91666,2.09139,5.62928,2.26028,9.21925.13823,2.94751.26915,5.73052,1.35354,6.93951,8.29013,9.24067,17.69238,9.06058,17.78778,9.05864l.46578-.01363.04625.46334c5.81219,11.06274,1.26138,52.14824,5.30141,77.66918,4.10446,25.928,39.1572,47.99915,9.14254,51.91781a.65037.65037,0,0,1,.02045.67362C462.26139,449.22471,379.053,467.21739,372.82313,467.21739Zm90.39708-21.50964Z" transform="translate(-224.43432 -108.29377)" fill="#1b75bb"/><path d="M508.509,340.78573l-16.6593,8.26346c-32.10165,12.33147-48.87876,9.3277-57.30774,4.63952-8.99366-5.00212-10.55306-12.67092-10.61411-12.99458l-.00546-.15624,2.05492-16.278a14.70476,14.70476,0,0,1,18.21513-12.4083l38.32717,9.75371-.6991-18.60489,1.51588-6.699-2.79585-8.14291,1.14553-16.35386,13.74791-3.36479,14.42089,25.82986-2.59066,7.12875,2.4411,3.54886-.00488.16451Z" transform="translate(-224.43432 -108.29377)" fill="#1b75bb"/><path d="M424.934,353.83759v5.6001l-12.3999,22.87988h-8l12.35986-22.52H403.77387v-5.96Z" transform="translate(-224.43432 -108.29377)" fill="#fff"/><path d="M974.375,791.3989l-748.75.30733a1.19069,1.19069,0,0,1,0-2.38137l748.75-.30733a1.19069,1.19069,0,0,1,0,2.38137Z" transform="translate(-224.43432 -108.29377)" fill="#cacaca"/><path d="M741.91743,214.2689c9.211-19.58411,1.75723-42.47783-11.55241-48.73775s-35.69738,2.59841-44.90839,22.18252c-8.52592,18.12752-2.17522,39.35961,8.75653,47.09457a1.50251,1.50251,0,0,0-.50612.26164l-2.62656,2.1634a1.5218,1.5218,0,0,0,.34953,2.56532l6.62486,2.944a1.52186,1.52186,0,0,0,2.13837-1.45977l-.15475-3.39937a1.50629,1.50629,0,0,0-.06525-.34837C712.9158,241.0916,733.373,232.43582,741.91743,214.2689Z" transform="translate(-224.43432 -108.29377)" fill="#ccc"/><path d="M734.37275,186.1815a25.037,25.037,0,0,1-14.30164,31.37595c-1.35547.56421-.27346,2.57526,1.07314,2.01472a27.37619,27.37619,0,0,0,15.45653-33.88988C736.14085,184.29926,733.90943,184.78824,734.37275,186.1815Z" transform="translate(-224.43432 -108.29377)" fill="#fff"/><path d="M903.5239,279.89019c18.63785-11.00048,25.36574-34.11794,17.88965-46.78448s-30.96608-17.94873-49.60393-6.94825c-17.25163,10.1823-23.95575,31.30547-19.27534,43.85243a1.50284,1.50284,0,0,0-.56559-.06868l-3.38872.30936a1.5218,1.5218,0,0,0-1.1553,2.317l3.818,6.16271a1.52187,1.52187,0,0,0,2.58912-.00265l1.78582-2.89665a1.50569,1.50569,0,0,0,.14219-.32465C864.45439,285.73186,886.23477,290.09464,903.5239,279.89019Z" transform="translate(-224.43432 -108.29377)" fill="#1b75bb"/><path d="M913.10049,252.42907A25.037,25.037,0,0,1,883.617,270.30946c-1.43789-.29676-1.67577,1.97447-.24728,2.26928a27.37621,27.37621,0,0,0,31.85329-19.308C915.62143,251.86881,913.50192,251.01673,913.10049,252.42907Z" transform="translate(-224.43432 -108.29377)" fill="#fff"/><path d="M784.89027,189.939a35.91476,35.91476,0,0,1,1.48-32.61592c.80012-1.38974,1.59684-3.072,3.35058-3.33908a2.97634,2.97634,0,0,1,3.26771,1.7536,3.90044,3.90044,0,0,1-6.44489,3.88915c-3.32573-2.67941-2.90335-7.3949-2.58355-11.19074.72872-8.64914.71747-17.72945-2.96231-25.77949-3.40465-7.44806-10.35437-13.67791-18.74834-14.35829-1.46855-.119-1.55152,2.16286-.09024,2.28129,8.32474.6748,14.83869,7.53327,17.60578,15.03955a41.89537,41.89537,0,0,1,2.2987,14.05407c.02631,2.45427-.08654,4.90828-.27611,7.35477a40.59258,40.59258,0,0,0-.22365,7.18853c.39134,3.91378,2.75866,8.10984,6.9904,8.7352,3.94794.58341,7.80355-3.5463,6.73584-7.47055a5.35839,5.35839,0,0,0-8.57723-2.5432c-1.48247,1.23793-2.44605,3.364-3.29181,5.06291a38.2,38.2,0,0,0-.54558,33.01144c.62619,1.33012,2.63928.25351,2.01472-1.07314Z" transform="translate(-224.43432 -108.29377)" fill="#ccc"/><path d="M440.27094,296.354c-.86-1.57-2.34-6.06-4-6a19.79931,19.79931,0,0,1-5.06-.43c-.18-.03-.36-.07-.53-.11005a94.47616,94.47616,0,0,0-21.43-2.8c-5.83-.08-12.23.62-16.3,4.79-4.07,4.17-3.47,12.77,2.14,14.36a72.32935,72.32935,0,0,1-53.64-11.89c-9.93-6.98-17.89-16.33-26.31-25.07-8.42-8.75-17.7-17.16-29.05-21.44-11.36-4.29-25.25-3.69-34.4,4.3-11.16,9.74-12.02,26.5-12.03,41.31-.01,5.54,1.72,4.37,6.61,6.98,4.54,2.42,9.31,7.4,12.08,3.07,2.77-4.33,3.26-9.68,3.83-14.79.56-5.11,1.39-10.49,4.63-14.48,5.57-6.86,16.54-6.93,24.23-2.58,7.69,4.35,12.86,11.96,17.75,19.32,4.88995,7.35,10.05,14.98,17.73,19.36,10.09,5.75,22.76,4.9,33.29,9.8,6.69,3.12,12.1,8.35,17.65,13.2,5.56,4.85,11.65,9.52,18.86,11.09,7.2,1.58,15.75-.8,19.29-7.27,3.19-5.85,1.63-13.34,4.47-19.38,2.19-4.66,6.66-7.75,10.69-10.97,1.66-1.33,2.09,3.25,3.5,1.63C438.34094,307.544,442.161,299.804,440.27094,296.354Z" transform="translate(-224.43432 -108.29377)" fill="#3f3d56"/><circle cx="187.79712" cy="148.18841" r="31.59805" fill="#2f2e41"/><circle cx="414.13205" cy="267.98953" r="22.70798" transform="translate(-231.85816 -96.45725) rotate(-1.62294)" fill="#9e616a"/><path d="M414.35154,233.3585l-9.20522.26083a21.91046,21.91046,0,0,0-21.2641,22.49621l.00577.20387.16774.10512a29.05187,29.05187,0,0,0,16.90582,4.81l.51748-.01466,5.0863-.23043a14.05213,14.05213,0,0,0,.83165-6.9291,46.74183,46.74183,0,0,1,1.79375,6.80762l22.82163-1.039a5.09673,5.09673,0,0,0,4.84306-5.2144A21.91049,21.91049,0,0,0,414.35154,233.3585Z" transform="translate(-224.43432 -108.29377)" fill="#2f2e41"/><path d="M396.00808,227.66049c-2.07752,2.56213-5.41376,3.62971-8.4113,5.01731a35.96887,35.96887,0,0,0-20.14392,26.85893c-.7063,4.70477-.45926,9.54734-1.65507,14.14831-1.188,4.60074-4.3229,9.17034-8.98151,10.09492-3.15238.63078-6.3626-.50242-9.37636-1.62552q-2.48614-.91827-4.97247-1.84443,2.38167-6.50615,4.7555-13.012a65.232,65.232,0,0,1-9.18051,11.37966q-8.90991-3.30234-17.8355-6.60424c14.4759-.35524,11.60786-14.33616,14.44669-28.52587,1.56039-7.79726,16.56821-13.47229,19.3311-20.927a22.55666,22.55666,0,0,1,40.84-3.21318C397.83,220.50715,398.04731,225.13087,396.00808,227.66049Z" transform="translate(-224.43432 -108.29377)" fill="#2f2e41"/><circle cx="173.02119" cy="116.99786" r="11.76609" fill="#2f2e41"/></svg>