<svg version="1.2" xmlns="http://www.w3.org/2000/svg" viewBox="0 0 3395 911" width="300" height="81">
    <style>.a{fill:#fff}</style>
    <path class="a"
          d="m2217.5 274.2c-115 0-208.3 93.3-208.3 208.3 0.1 115.1 93.3 208.3 208.3 208.3v-56.9q-0.2 0-0.4 0c-83.9 0-152-68.1-152-152.1 0-83.9 68.1-152 152-152 84 0 152.1 68.1 152.1 152 0 7.1-0.6 14.1-1.6 20.9 19.4 0 38.6 0.2 56.1 0.6 1-7.5 1.8-13.5 2.1-20.8 0-115-93.2-208.3-208.3-208.3z"/>
    <path fill-rule="evenodd" class="a" d="m2222.8 362v148.3h-20.8v-148.3z"/>
    <path fill-rule="evenodd" class="a" d="m2315.6 502.8l0.1 19.5-113.2 0.5-0.1-19.6z"/>
    <path class="a"
          d="m155.8 687h-29.6v-545.6q21.6-5.6 55.2-8.8 34.4-3.2 72-3.2 113.6 0 169.6 42.4 56.8 41.6 56.8 124.8 0 58.4-24.8 96-24.8 36.8-76.8 54.4-52 16.8-135.2 16.8h-87.2zm0-523.2v272.8h84.8q59.2 0 106.4-10.4 47.2-10.4 74.4-40 28-30.4 28-90.4 0-46.4-22.4-76.8-21.6-31.2-64.8-46.4-43.2-16-108.8-16-21.6 0-51.2 1.6-28.8 1.6-46.4 5.6zm586.4 528.8q-67.2 0-112-24-44-24-65.6-72.8-21.6-48.8-21.6-123.2 0-52 20-99.2 20-47.2 59.2-76.8 39.2-29.6 97.6-29.6 53.6 0 88 24.8 34.4 24.8 51.2 67.2 17.6 41.6 17.6 92.8 0 7.2-0.8 15.2 0 7.2-0.8 14.4h-303.2q1.6 95.2 43.2 140.8 42.4 44.8 128 44.8 28 0 55.2-6.4 27.2-7.2 43.2-16.8l6.4 24q-16.8 10.4-46.4 17.6-29.6 7.2-59.2 7.2zm-170.4-235.2h276q0-54.4-15.2-91.2-15.2-36.8-44-55.2-28.8-18.4-68.8-18.4-47.2 0-79.2 24-32 23.2-48.8 60.8-16.8 37.6-20 80zm556.2 234.4q-52 0-88-13.6-35.2-14.4-52.8-42.4-17.6-28-17.6-69.6 0-40 18.4-67.2 18.4-27.2 55.2-40.8 37.6-13.6 93.6-13.6 24 0 51.2 4.8 27.2 4 45.6 10.4v-31.2q0-48-12-77.6-11.2-30.4-37.6-44-25.6-14.4-69.6-14.4-25.6 0-52.8 5.6-26.4 4.8-42.4 12.8l-4-25.6q20.8-8.8 46.4-13.6 25.6-4.8 57.6-4.8 49.6 0 80.8 17.6 31.2 16.8 45.6 49.6 15.2 32 15.2 79.2v260q-29.6 8.8-64.8 13.6-34.4 4.8-68 4.8zm4-25.6q24 0 50.4-2.4 27.2-3.2 51.2-9.6v-170.4q-19.2-7.2-43.2-11.2-24-4-52.8-4-46.4 0-77.6 11.2-30.4 10.4-46.4 32-15.2 21.6-15.2 54.4 0 51.2 32 76 32.8 24 101.6 24zm295.2 20.8h-27.2v-389.6q28.8-14.4 60-21.6 32-7.2 64-7.2 16 0 28.8 1.6 13.6 0.8 24.8 3.2 11.2 1.6 20 5.6l-5.6 24q-12-4-30.4-6.4-18.4-2.4-39.2-2.4-24 0-49.6 5.6-24.8 4.8-45.6 14.4zm569.2 0h-331.1v-560h72v502.5h259.1z"/>
    <path class="a"
          d="m2675.4 891.6q-52.1 0-96.2-17.6-42.6-18.1-72-52-28.8-34.1-36.9-83.1h71.2q11.5 40.1 47.3 65.5 36.5 24.7 85.9 24.7 37.8 0 67.7-15.9 31.2-16.5 48.8-48.8 18.1-32.6 18.1-80.2v-56.6q-12.6 21.8-34.1 41.6-20.5 19.2-50.4 32-29 11.9-67.5 11.9-55.7 0-101.3-26.3-45.4-27.9-72-74.4-26.5-47.4-26.5-106.7 0-59.4 26.5-105.3 26.6-47.2 72-73.6 45.6-27.2 101.8-27.2 52 0 91 23.2 39.9 22.9 60.5 55.5v-69.1h72v373.1q0 65.6-26.9 112.5-26.6 46.7-73.6 72-46.1 24.8-105.4 24.8zm-6.4-241q39.7 0 70.2-18.2 31.8-18.6 49.6-51.2 17.9-33.1 17.9-75.3 0-43-17.9-75.1-17.8-32.5-49.6-50.4-30.5-18.1-70.2-18.1-39.4 0-71.4 18.1-30.5 17.9-48.8 50.4-17.5 31.9-17.5 74.9 0 42.1 17.5 75.5 18.3 32.6 48.8 51.2 32 18.2 71.4 18.2z"/>
</svg>
