<?xml version="1.0" encoding="UTF-8"?><svg id="a" xmlns="http://www.w3.org/2000/svg" viewBox="0 0 3340.69 595.21"><defs><style>.b{fill:#1b75bb;}</style></defs><g><path class="b" d="M22.45,561.92C7.47,542.84,0,508.78,0,459.76V0H18.58V459.76c0,29.93,2.71,52.76,8.13,68.5,5.42,15.75,13.02,26.7,22.83,32.89,9.8,6.19,22.7,10.06,38.7,11.61l49.54,5.42v12.38h-46.44c-30.96,0-53.93-9.54-68.89-28.64Z"/><path class="b" d="M301.09,575.08c-23.22-13.41-39.61-35.22-49.15-65.4-9.55-30.19-14.32-72.37-14.32-126.55s5.29-96.23,15.87-126.16c10.57-29.92,27.73-51.08,51.47-63.47,23.73-12.38,56.24-18.58,97.52-18.58,51.08,0,88.49,9.81,112.23,29.41,23.73,19.62,35.6,53.67,35.6,102.17,0,59.86-35.1,89.78-105.26,89.78h-188.86c0,46.44,3.99,82.56,12,108.36,7.99,25.81,22.31,44.5,42.96,56.12,20.63,11.61,50.31,17.42,89.01,17.42h142.42v12.38c-41.29,3.1-89.28,4.64-143.96,4.64-41.8,0-74.3-6.7-97.52-20.12Zm143.96-195.82c30.44,0,52.5-5.42,66.18-16.25,13.67-10.84,20.51-29.67,20.51-56.5,0-29.92-4.14-53.14-12.38-69.66-8.26-16.51-21.67-28.12-40.25-34.83-18.58-6.7-44.12-10.06-76.63-10.06-39.22,0-69.15,5.42-89.78,16.25-20.64,10.84-35.22,29.41-43.73,55.73-8.51,26.32-12.77,64.76-12.77,115.33h188.86Z"/><path class="b" d="M713.62,568.12c-19.1-18.06-28.64-43.08-28.64-75.08v-23.99c0-33.54,10.57-60.11,31.73-79.72,21.15-19.6,51.59-29.41,91.33-29.41h167.18v-68.89c0-33.02-8.9-58.3-26.7-75.85-17.8-17.54-48.89-26.32-93.27-26.32h-131.58v-12.38l21.67-.77c50.04-2.58,87.97-3.87,113.78-3.87,47.47,0,81.78,9.94,102.94,29.8,21.15,19.87,31.73,49.67,31.73,89.4v299.54h-12.38l-6.19-49.54c-1.04,.52-21.42,9.67-61.15,27.48-39.74,17.8-81.79,26.7-126.16,26.7-30.45,0-55.22-9.02-74.3-27.09Zm146.29-2.32c27.34-7.22,51.86-14.57,73.53-22.06,21.67-7.47,35.6-12.5,41.8-15.09v-156.35l-171.83,5.42c-35.1,1.04-60.5,9.81-76.24,26.32-15.75,16.52-23.61,38.19-23.61,65.02v20.12c0,30.45,8.77,52.63,26.32,66.56,17.54,13.93,37.93,20.9,61.15,20.9,18.58,0,41.53-3.6,68.89-10.84Z"/><path class="b" d="M1170.27,179.57h10.84l7.74,47.99c24.77-16.51,51.47-29.8,80.11-39.86,28.64-10.06,57.66-15.09,87.08-15.09,26.32,0,49.02,6.07,68.11,18.19,19.08,12.13,33.67,28.25,43.73,48.38,10.06,20.12,15.09,41.8,15.09,65.02v286.38h-18.58V304.18c0-32.51-9.81-59.72-29.41-81.66-19.62-21.93-45.93-32.89-78.95-32.89s-59.09,3.75-82.82,11.22c-23.74,7.49-51.86,20-84.37,37.54v352.17h-18.58V179.57Z"/><path class="b" d="M1692.71,558.83c-19.62-21.15-28.9-56.5-27.86-106.04l3.1-212.85h-65.79v-50.31l67.34-13.16,11.61-116.1h61.15v116.1h112.23v63.47h-112.23v212.08c0,27.86,5.29,47.21,15.87,58.05,10.57,10.84,23.86,17.03,39.86,18.58l51.08,4.64v57.28h-62.69c-42.84,0-74.05-10.57-93.65-31.73Z"/><path class="b" d="M1972.12,103.33c-2.59-2.32-3.87-5.54-3.87-9.67V28.64c0-9.29,4.64-13.93,13.93-13.93h57.28c4.12,0,7.22,1.29,9.29,3.87,2.06,2.59,3.1,5.94,3.1,10.06V93.65c0,8.78-4.14,13.16-12.38,13.16h-57.28c-4.14,0-7.49-1.16-10.06-3.48Zm-.77,73.14h77.4v414.09h-77.4V176.47Z"/><path class="b" d="M2195.8,176.47h61.92l15.48,44.89c23.22-15.99,46.83-28.64,70.82-37.93,23.99-9.29,50.43-13.93,79.33-13.93,24.77,0,46.17,5.42,64.24,16.25,18.06,10.84,32.24,25.54,42.57,44.12,20.63-15.99,45.79-30.05,75.46-42.18,29.67-12.12,57.66-18.19,83.98-18.19,44.37,0,77.13,13.04,98.3,39.09,21.15,26.06,31.73,61.28,31.73,105.65v276.32h-77.4V321.21c0-24.77-7.1-44.51-21.29-59.21-14.2-14.71-33.42-22.06-57.66-22.06-19.62,0-40.13,3.75-61.53,11.22-21.42,7.49-41.93,17.42-61.53,29.8,4.12,13.93,6.19,27.61,6.19,41.02v268.58h-77.4V321.21c0-24.77-6.97-44.51-20.9-59.21-13.93-14.71-33.03-22.06-57.28-22.06-21.67,0-41.41,3.1-59.21,9.29-17.8,6.19-37.28,15.48-58.44,27.86v313.47h-77.4V176.47Z"/></g><path class="b" d="M3132.4,173.98c-115.03,0-208.29,93.25-208.29,208.29s93.25,208.29,208.29,208.29v-56.89h0c-.13-.01-.26,0-.4,0-83.99,0-152.07-68.09-152.07-152.07s68.09-152.07,152.07-152.07,152.07,68.09,152.07,152.07c0,7.09-.65,14.01-1.59,20.84,19.43,.06,38.58,.24,56.12,.61,1-7.5,1.73-13.47,2.08-20.79,0-115.03-93.25-208.29-208.29-208.29Z"/><rect class="b" x="3121.58" y="243.06" width="20.84" height="148.32"/><rect class="b" x="3121.58" y="383.42" width="113.14" height="19.55"/></svg>