<?xml version="1.0" encoding="utf-8"?>
<!-- Generator: Adobe Illustrator 26.3.1, SVG Export Plug-In . SVG Version: 6.00 Build 0)  -->
<svg version="1.1" id="Blue" xmlns="http://www.w3.org/2000/svg" xmlns:xlink="http://www.w3.org/1999/xlink" x="0px" y="0px"
	 viewBox="0 0 3443.3 695.3" style="enable-background:new 0 0 3443.3 695.3;" xml:space="preserve">
<style type="text/css">
	.st0{fill:#036C9E;}
</style>
<path class="st0" d="M3176.1,205.7c-115,0-208.3,93.3-208.3,208.3s93.3,208.3,208.3,208.3c0-13.2,0-33.7,0-56.9c0,0,0,0,0,0
	c-0.1,0-0.3,0-0.4,0c-84,0-152.1-68.1-152.1-152.1c0-84,68.1-152.1,152.1-152.1c84,0,152.1,68.1,152.1,152.1c0,7.1-0.7,14-1.6,20.8
	c19.4,0.1,38.6,0.2,56.1,0.6c1-7.5,1.7-13.5,2.1-20.8C3384.4,299,3291.1,205.7,3176.1,205.7z"/>
<rect x="3165.3" y="274.8" class="st0" width="20.8" height="148.3"/>
<rect x="3165.3" y="415.2" class="st0" width="113.1" height="19.5"/>
<g>
	<path class="st0" d="M83.1,601.9c-16.5-20-24.8-55.3-24.8-106V21.5h32.8v472c0,28.8,2.7,50.9,8,66.4c5.3,15.5,12.8,26.3,22.4,32.4
		c9.6,6.1,22.4,10,38.4,11.6l48.8,5.6v22.4h-50.4C124.7,631.9,99.7,621.9,83.1,601.9z"/>
	<path class="st0" d="M356.3,616.3c-24.3-13.6-41.6-36.1-52-67.6c-10.4-31.5-15.6-75.2-15.6-131.2s5.6-99.5,16.8-130.4
		c11.2-30.9,29.1-52.9,53.6-66c24.5-13.1,58.7-19.6,102.4-19.6c54.4,0,94,10.3,118.8,30.8c24.8,20.5,37.2,56.1,37.2,106.8
		c0,64-37.6,96-112.8,96H321.5c0,44.3,3.9,78.8,11.6,103.6c7.7,24.8,21.9,42.8,42.4,54c20.5,11.2,50.3,16.8,89.2,16.8h144v20
		c-51.7,4.8-101.6,7.2-149.6,7.2C414.8,636.7,380.6,629.9,356.3,616.3z M503.1,410.3c29.3,0,50.7-5.2,64-15.6
		c13.3-10.4,20-28.9,20-55.6c0-28.8-4.1-51.2-12.4-67.2c-8.3-16-21.3-27.3-39.2-34c-17.9-6.7-42.5-10-74-10
		c-37.3,0-65.9,5.2-85.6,15.6c-19.7,10.4-33.7,28.5-42,54.4c-8.3,25.9-12.4,63.3-12.4,112.4H503.1z"/>
	<path class="st0" d="M761.1,608.3c-20-18.9-30-44.9-30-78v-26.4c0-34.7,11.2-62.1,33.6-82.4c22.4-20.3,54.4-30.4,96-30.4h164v-65.6
		c0-32.5-8.8-57.2-26.4-74c-17.6-16.8-48.8-25.2-93.6-25.2H769.5v-20c53.9-4.8,102.4-7.2,145.6-7.2c49.6,0,85.7,10.4,108.4,31.2
		c22.7,20.8,34,52.3,34,94.4v307.2h-24l-8-50.4c-2.7,2.1-15.1,7.9-37.2,17.2c-22.1,9.3-46.9,18-74.4,26c-27.5,8-52.7,12-75.6,12
		C806.8,636.7,781.1,627.2,761.1,608.3z M915.1,598.7c26.1-6.7,49.5-13.6,70-20.8c20.5-7.2,33.7-12.1,39.6-14.8V410.3l-163.2,4.8
		c-34.1,1.6-58.9,10.3-74.4,26c-15.5,15.7-23.2,36.7-23.2,62.8v20.8c0,29.3,8.5,50.7,25.6,64c17.1,13.3,37.1,20,60,20
		C867.1,608.7,889,605.4,915.1,598.7z"/>
	<path class="st0" d="M1211.9,206.3h23.2l9.6,48.8c25.1-16.5,52-30,80.8-40.4c28.8-10.4,57.9-15.6,87.2-15.6
		c27.7,0,51.5,6.4,71.2,19.2c19.7,12.8,34.7,29.7,44.8,50.8c10.1,21.1,15.2,43.9,15.2,68.4v294.4h-32.8v-292
		c0-31.5-9.5-57.9-28.4-79.2c-18.9-21.3-44.4-32-76.4-32c-30.4,0-57.2,3.7-80.4,11.2c-23.2,7.5-50.3,19.7-81.2,36.8v355.2h-32.8
		V206.3z"/>
	<path class="st0" d="M1739.9,599.5c-19.7-21.6-29.1-56.9-28-106l2.4-236.8h-68v-40.8l68.8-11.2l10.4-119.2h48.8v119.2h123.2v52
		h-123.2v236.8c0,32.5,6.1,54.8,18.4,66.8c12.3,12,27.7,18.8,46.4,20.4l52,4.8v46.4h-58.4C1790.6,631.9,1759.6,621.1,1739.9,599.5z"
		/>
	<path class="st0" d="M2005.1,125.1c-2.4-2.4-3.6-5.5-3.6-9.2V53.5c0-8.5,4.3-12.8,12.8-12.8h44.8c8,0,12,4.3,12,12.8v62.4
		c0,8.5-4,12.8-12,12.8h-44.8C2010.6,128.7,2007.5,127.5,2005.1,125.1z M2004.7,204.7h63.2v427.2h-63.2V204.7z"/>
	<path class="st0" d="M2209.5,204.7h49.6l13.6,47.2c53.3-36.3,106.7-54.4,160-54.4c25.6,0,47.9,5.7,66.8,17.2
		c18.9,11.5,33.7,26.8,44.4,46c22.4-16.5,49.7-31.2,82-44c32.3-12.8,62.3-19.2,90-19.2c44.3,0,77.6,13.6,100,40.8
		c22.4,27.2,33.6,62.4,33.6,105.6v288h-63.2V348.7c0-27.7-8.1-50.3-24.4-67.6c-16.3-17.3-38.3-26-66-26c-22.9,0-46.8,4.3-71.6,12.8
		c-24.8,8.5-48.7,19.7-71.6,33.6c5.3,17.1,8,33.1,8,48v282.4h-63.2V348.7c0-27.7-7.9-50.3-23.6-67.6c-15.7-17.3-37.5-26-65.2-26
		c-25.6,0-48.4,3.3-68.4,10c-20,6.7-42.5,17.2-67.6,31.6v335.2h-63.2V204.7z"/>
</g>
<g>
</g>
<g>
</g>
<g>
</g>
<g>
</g>
<g>
</g>
<g>
</g>
</svg>
