<?xml version="1.0" encoding="utf-8"?>
<!-- Generator: Adobe Illustrator 27.5.0, SVG Export Plug-In . SVG Version: 6.00 Build 0)  -->
<svg version="1.1" xmlns="http://www.w3.org/2000/svg" xmlns:xlink="http://www.w3.org/1999/xlink" x="0px" y="0px"
	 viewBox="0 0 750 500" style="enable-background:new 0 0 750 500;" xml:space="preserve">

<g id="OBJECTS">
	<g>
		<defs>
			<rect id="SVGID_1_" width="750" height="500"/>
		</defs>
		<clipPath id="SVGID_00000106122528972847217630000008595682276011984274_">
			<use xlink:href="#SVGID_1_"  style="overflow:visible;"/>
		</clipPath>
		<g style="clip-path:url(#SVGID_00000106122528972847217630000008595682276011984274_);">
			<g>
				<path style="fill:none;stroke:#FFFFFF;stroke-miterlimit:10;" d="M426.707-52.299c-6.034,25.852-13.618,51.341-22.699,76.287
					c-4.037,11.089-8.517,22.32-16.312,31.18C367.77,77.816,332.9,78.523,303.138,73.603c-27.412-4.532-54.281-12.338-79.855-23.199
					c-25.343-10.763-49.852-24.65-77.006-29.21c-27.153-4.56-58.735,2.771-73.366,26.095c-8.705,13.877-10.091,31.442-6.69,47.467
					c3.401,16.025,11.197,30.772,19.85,44.681c9.908,15.926,21.413,32.05,22.9,50.747c1.539,19.355-9.156,39.151-26.189,48.472
					c-24.231,13.26-53.897,4.943-81.071-0.014c-34.522-6.298-71.553-6.241-103.092,9.145c-31.54,15.386-55.92,48.823-52.684,83.766"
					/>
				<path style="fill:none;stroke:#F9F9F9;stroke-miterlimit:10;" d="M420.585-57.528c-5.879,25.273-13.337,50.174-22.304,74.513
					c-3.986,10.82-8.411,21.766-16.007,30.445c-19.415,22.18-53.154,23.401-82.092,19.179c-6.871-1.002-13.711-2.216-20.507-3.638
					c-19.571-4.096-38.78-9.92-57.327-17.384c-24.762-9.966-48.762-22.975-75.295-27.162c-26.529-4.188-56.458,3.459-71.909,25.142
					c-5.813,8.157-9.782,16.948-11.462,26.437c-1.148,6.464-1.395,13.173-0.722,19.844c0.305,3.051,0.791,6.103,1.453,9.164
					c2.657,12.238,8.313,24.224,14.503,35.608c0.614,1.129,1.233,2.255,1.855,3.377c9.681,17.478,19.904,35.348,20.463,54.892
					c0.538,18.825-9.396,37.967-25.986,47.154c-23.604,13.073-52.394,5.585-78.687,1.407c-2.073-0.329-4.154-0.635-6.242-0.914
					c-31.559-4.22-64.558-2.498-92.716,12.063c-30.021,15.522-52.953,48.232-49.321,82.185"/>
				<path style="fill:none;stroke:#F4F4F4;stroke-miterlimit:10;" d="M414.463-62.757c-5.723,24.695-13.057,49.006-21.909,72.74
					c-3.935,10.551-8.304,21.212-15.702,29.71C357.95,61.405,325.34,63.14,297.227,59.616c-6.676-0.836-13.326-1.878-19.938-3.123
					c-19.041-3.585-37.764-8.855-55.876-15.723c-24.181-9.17-47.671-21.3-73.585-25.114c-25.905-3.816-54.358,4.114-70.453,24.189
					c-6.491,8.096-11.798,16.081-14.626,25.295c-1.934,6.277-3.02,12.951-3.052,19.799c-0.02,3.134,0.171,6.315,0.585,9.554
					c1.676,12.938,7.297,26.028,13.37,38.393c0.603,1.226,1.208,2.449,1.816,3.67c9.454,19.031,18.421,38.568,18.026,59.037
					c-0.352,18.252-9.635,36.783-25.782,45.837c-22.977,12.885-50.891,6.226-76.304,2.827c-2.003-0.268-4.014-0.512-6.03-0.731
					c-30.474-3.305-62.059-0.807-88.794,13.885c-28.503,15.659-49.987,47.642-45.957,80.604"/>
				<path style="fill:none;stroke:#EEEEEE;stroke-miterlimit:10;" d="M408.341-67.986c-5.567,24.116-12.775,47.839-21.514,70.967
					c-3.884,10.281-8.198,20.659-15.397,28.975c-18.391,21.244-49.87,23.494-77.159,20.667c-6.481-0.669-12.941-1.54-19.369-2.608
					c-18.512-3.076-36.748-7.791-54.426-14.062c-23.6-8.373-46.581-19.625-71.874-23.066c-25.281-3.444-52.427,4.718-68.996,23.235
					c-7.213,8.062-13.814,15.214-17.79,24.153c-2.719,6.09-4.646,12.728-5.382,19.755c-0.344,3.218-0.449,6.527-0.282,9.943
					c0.695,13.638,6.28,27.831,12.237,41.177c0.591,1.322,1.184,2.643,1.776,3.963c9.228,20.583,16.971,41.724,15.589,63.183
					c-1.137,17.649-9.874,35.598-25.579,44.519c-22.349,12.698-49.388,6.867-73.92,4.247c-1.934-0.206-3.874-0.39-5.818-0.548
					c-29.39-2.39-59.56,0.885-84.871,15.707c-26.985,15.795-47.021,47.05-42.594,79.023"/>
				<path style="fill:none;stroke:#E9E9E9;stroke-miterlimit:10;" d="M402.219-73.215c-5.412,23.537-12.494,46.671-21.118,69.193
					c-3.834,10.012-8.092,20.105-15.092,28.24c-17.879,20.776-48.228,23.539-74.692,21.411c-6.286-0.503-12.556-1.201-18.8-2.093
					c-17.982-2.565-35.732-6.726-52.975-12.401c-23.02-7.577-45.49-17.95-70.164-21.018c-24.656-3.072-50.65,5.256-67.539,22.282
					c-7.978,8.043-15.83,14.347-20.954,23.011c-3.505,5.903-6.271,12.506-7.712,19.711c-0.669,3.301-1.069,6.739-1.148,10.333
					c-0.286,14.338,5.263,29.635,11.103,43.962c0.579,1.419,1.159,2.837,1.737,4.256c9.001,22.136,15.562,44.829,13.152,67.328
					c-1.823,17.026-10.114,34.414-25.375,43.202c-21.722,12.511-47.885,7.508-71.537,5.667c-1.865-0.145-3.734-0.267-5.607-0.365
					c-28.306-1.475-57.062,2.576-80.949,17.528c-25.467,15.932-44.055,46.459-39.231,77.442"/>
				<path style="fill:none;stroke:#E3E3E3;stroke-miterlimit:10;" d="M396.097-78.444c-5.256,22.959-12.213,45.503-20.723,67.42
					c-3.783,9.743-7.986,19.551-14.786,27.504c-17.368,20.308-46.586,23.586-72.226,22.155c-6.091-0.337-12.171-0.863-18.231-1.578
					c-17.452-2.055-34.716-5.662-51.524-10.739c-22.439-6.78-44.4-16.275-68.453-18.97c-24.032-2.7-49.008,5.721-66.083,21.329
					c-8.784,8.029-17.846,13.481-24.118,21.869c-4.291,5.716-7.896,12.283-10.042,19.666c-0.994,3.385-1.689,6.951-2.016,10.722
					c-1.267,15.038,4.246,31.439,9.97,46.747c0.568,1.515,1.134,3.031,1.697,4.549c8.774,23.688,14.199,47.896,10.716,71.473
					c-2.422,16.392-10.353,33.23-25.172,41.884c-21.094,12.323-46.382,8.15-69.153,7.087c-1.795-0.083-3.594-0.145-5.395-0.182
					c-27.221-0.56-54.563,4.268-77.026,19.35c-23.949,16.069-41.089,45.868-35.868,75.861"/>
				<path style="fill:none;stroke:#DEDEDE;stroke-miterlimit:10;" d="M389.975-83.673c-5.101,22.38-11.932,44.336-20.328,65.646
					c-3.732,9.473-7.88,18.997-14.481,26.769c-16.856,19.84-44.944,23.632-69.759,22.899c-5.896-0.171-11.786-0.525-17.661-1.063
					c-16.922-1.545-33.699-4.598-50.073-9.078c-21.858-5.983-43.309-14.6-66.743-16.922c-23.408-2.328-47.481,6.11-64.626,20.375
					c-9.628,8.011-19.861,12.614-27.282,20.727c-5.077,5.53-9.522,12.061-12.371,19.622c-1.318,3.468-2.309,7.162-2.882,11.112
					c-2.248,15.737,3.229,33.243,8.837,49.532c0.556,1.611,1.109,3.226,1.658,4.841c8.548,25.241,12.89,50.938,8.279,75.618
					c-2.943,15.753-10.592,32.045-24.968,40.567c-20.467,12.136-44.878,8.791-66.77,8.507c-1.726-0.022-3.454-0.022-5.183,0.001
					c-26.137,0.355-52.064,5.959-73.104,21.172c-22.431,16.205-38.123,45.277-32.504,74.28"/>
				<path style="fill:none;stroke:#D8D8D8;stroke-miterlimit:10;" d="M383.853-88.902c-4.945,21.802-11.651,43.168-19.933,63.873
					c-3.682,9.204-7.773,18.444-14.176,26.034c-16.345,19.372-43.303,23.678-67.293,23.643c-5.7-0.004-11.402-0.187-17.092-0.548
					c-16.392-1.035-32.683-3.533-48.622-7.417c-21.277-5.187-42.219-12.925-65.032-14.874c-22.784-1.956-48.628,3.593-63.169,19.422
					c-11.759,5.988-21.877,11.747-30.446,19.585c-5.863,5.343-11.147,11.838-14.701,19.577c-1.643,3.551-2.929,7.374-3.749,11.502
					c-3.229,16.437,2.213,35.047,7.703,52.316c0.544,1.708,1.085,3.42,1.619,5.135c8.321,26.793,11.64,53.965,5.842,79.764
					c-3.397,15.115-10.832,30.861-24.765,39.249c-19.839,11.949-43.375,9.432-64.386,9.928c-1.657,0.039-3.314,0.1-4.971,0.184
					c-25.052,1.27-49.566,7.651-69.181,22.994c-20.913,16.342-35.157,44.686-29.141,72.699"/>
				<path style="fill:none;stroke:#D2D2D2;stroke-miterlimit:10;" d="M377.731-94.131c-4.789,21.223-11.37,42-19.538,62.099
					c-3.631,8.935-7.667,17.89-13.871,25.299c-15.833,18.904-41.66,23.724-64.826,24.387c-5.505,0.162-11.017,0.151-16.523-0.033
					c-15.862-0.525-31.667-2.469-47.171-5.756c-20.696-4.39-41.128-11.25-63.322-12.826c-22.159-1.584-47.184,3.711-61.713,18.469
					c-12.699,5.664-23.893,10.88-33.61,18.443c-6.649,5.156-12.772,11.616-17.031,19.533c-1.968,3.635-3.549,7.586-4.617,11.891
					c-4.21,17.137,1.196,36.851,6.57,55.101c0.533,1.804,1.06,3.614,1.579,5.427c8.095,28.346,10.454,56.99,3.405,83.909
					c-3.792,14.483-11.071,29.676-24.561,37.932C3.29,261.507-19.37,259.819-39.5,261.094c-1.587,0.101-3.174,0.223-4.76,0.367
					c-23.968,2.185-47.067,9.342-65.259,24.816c-19.395,16.478-32.19,44.095-25.778,71.118"/>
				<path style="fill:none;stroke:#CDCDCD;stroke-miterlimit:10;" d="M371.609-99.36c-4.634,20.645-11.089,40.833-19.143,60.326
					c-3.58,8.665-7.561,17.336-13.566,24.564C323.579,3.966,298.881,9.3,276.54,10.662c-5.31,0.328-10.632,0.489-15.954,0.482
					c-15.332-0.015-30.651-1.404-45.72-4.095c-20.116-3.593-40.038-9.576-61.611-10.778c-21.535-1.212-45.74,3.828-60.256,17.516
					C79.36,19.127,67.09,23.8,56.225,31.088c-7.434,4.969-14.398,11.393-19.361,19.488c-2.293,3.718-4.169,7.798-5.483,12.281
					c-5.191,17.837,0.179,38.655,5.437,57.886c0.521,1.901,1.035,3.808,1.54,5.72c7.868,29.898,9.338,60.022,0.968,88.054
					c-4.138,13.858-11.311,28.492-24.358,36.614c-18.585,11.574-40.369,10.715-59.619,12.768c-1.518,0.162-3.035,0.345-4.548,0.549
					c-22.883,3.1-44.569,11.034-61.336,26.637c-17.877,16.615-29.224,43.505-22.414,69.537"/>
				<path style="fill:none;stroke:#C7C7C7;stroke-miterlimit:10;" d="M365.487-104.589c-4.478,20.066-10.808,39.665-18.748,58.552
					c-3.53,8.396-7.455,16.782-13.261,23.829C318.668-4.239,295.101,1.609,273.585,3.668c-5.115,0.494-10.247,0.827-15.385,0.997
					c-14.802,0.495-29.634-0.34-44.269-2.433c-19.535-2.797-38.948-7.901-59.901-8.731c-20.911-0.84-44.296,3.946-58.799,16.562
					c-14.579,5.016-27.925,9.147-39.938,16.159c-8.22,4.783-16.023,11.171-21.691,19.444c-2.617,3.802-4.789,8.01-6.35,12.67
					c-6.172,18.536-0.838,40.459,4.303,60.671c0.509,1.997,1.01,4.003,1.5,6.013c7.641,31.451,8.298,63.072-1.469,92.2
					c-4.441,13.244-11.55,27.308-24.155,35.297c-17.957,11.387-38.866,11.356-57.235,14.188c-1.449,0.224-2.895,0.467-4.336,0.732
					c-21.799,4.015-42.07,12.725-57.414,28.459c-16.359,16.751-26.258,42.914-19.051,67.956"/>
				<path style="fill:none;stroke:#C2C2C2;stroke-miterlimit:10;" d="M359.365-109.818c-4.323,19.487-10.527,38.497-18.353,56.779
					c-3.479,8.127-7.349,16.228-12.956,23.094c-14.298,17.5-36.735,23.862-57.427,26.62c-4.92,0.661-9.862,1.165-14.815,1.512
					c-14.272,1.005-28.618,0.724-42.819-0.772c-18.954-2-37.857-6.226-58.19-6.682c-20.287-0.468-42.852,4.063-57.343,15.609
					c-15.519,4.692-29.94,8.28-43.102,15.017c-9.006,4.596-17.648,10.948-24.021,19.399c-2.942,3.885-5.409,8.222-7.217,13.06
					c-7.153,19.236-1.854,42.263,3.17,63.455c0.497,2.094,0.986,4.197,1.461,6.306c7.415,33.003,7.339,66.151-3.906,96.345
					c-4.708,12.642-11.789,26.123-23.951,33.979c-17.33,11.199-37.363,11.997-54.852,15.608c-1.379,0.285-2.755,0.59-4.124,0.915
					c-20.714,4.93-39.571,14.417-53.491,30.281c-14.841,16.888-23.292,42.323-15.688,66.375"/>
				<path style="fill:none;stroke:#BCBCBC;stroke-miterlimit:10;" d="M353.243-115.047c-4.167,18.909-10.246,37.33-17.958,55.006
					c-3.428,7.858-7.243,15.675-12.651,22.359c-13.786,17.032-35.093,23.908-54.96,27.364c-4.725,0.827-9.477,1.503-14.246,2.027
					c-13.742,1.515-27.602,1.789-41.368,0.889c-18.373-1.204-36.767-4.551-56.48-4.635c-19.662-0.095-41.408,4.181-55.886,14.656
					c-16.459,4.369-31.956,7.413-46.265,13.875C43.637,20.903,34.155,27.22,27.078,35.85c-3.267,3.969-6.029,8.433-8.084,13.45
					c-8.134,19.936-2.871,44.066,2.037,66.24c0.486,2.19,0.961,4.391,1.422,6.599c7.188,34.555,6.468,69.27-6.343,100.49
					c-4.946,12.054-12.029,24.939-23.748,32.662c-16.702,11.012-35.86,12.639-52.468,17.028c-1.31,0.347-2.615,0.712-3.913,1.098
					c-19.63,5.845-37.073,16.108-49.569,32.103c-13.323,17.025-20.326,41.732-12.324,64.794"/>
				<path style="fill:none;stroke:#B7B7B7;stroke-miterlimit:10;" d="M347.121-120.276c-4.012,18.33-9.965,36.162-17.563,53.232
					c-3.378,7.588-7.136,15.121-12.346,21.624c-13.274,16.564-33.451,23.954-52.493,28.108c-4.53,0.993-9.092,1.841-13.677,2.542
					c-13.212,2.025-26.586,2.853-39.917,2.55c-17.793-0.407-35.676-2.876-54.769-2.587c-19.038,0.277-38.554,6.945-54.429,13.702
					C85.49,5.893,67.954,5.443,52.497,11.63c-10.578,4.222-20.899,10.503-28.681,19.311c-3.592,4.052-6.649,8.645-8.951,13.839
					c-9.115,20.636-3.888,45.87,0.903,69.025c0.474,2.287,0.936,4.585,1.382,6.892c6.962,36.108,5.689,72.441-8.779,104.635
					c-5.161,11.483-12.268,23.755-23.544,31.344c-16.075,10.825-34.356,13.28-50.085,18.449c-1.241,0.408-2.475,0.835-3.701,1.281
					c-18.546,6.76-34.574,17.8-45.646,33.924c-11.805,17.161-17.36,41.141-8.961,63.213"/>
				<path style="fill:none;stroke:#B1B1B1;stroke-miterlimit:10;" d="M340.999-125.505c-3.856,17.752-9.684,34.994-17.168,51.459
					c-3.327,7.319-7.03,14.567-12.041,20.889c-12.763,16.096-31.809,24-50.027,28.852c-4.335,1.16-8.708,2.18-13.108,3.057
					c-12.682,2.535-25.569,3.918-38.466,4.212c-17.212,0.389-34.586-1.201-53.059-0.539c-18.414,0.649-37.368,6.847-52.973,12.749
					C86.655,1.794,68.17,0.854,51.565,6.766c-11.363,4.035-22.524,10.281-31.011,19.266c-3.916,4.135-7.269,8.857-9.818,14.229
					C0.64,61.597,5.831,87.935,10.506,112.07c0.462,2.383,0.911,4.779,1.343,7.185c6.735,37.66,5.008,75.674-11.216,108.781
					c-5.356,10.929-12.507,22.57-23.341,30.027c-15.448,10.637-32.853,13.921-47.701,19.869c-1.171,0.47-2.335,0.957-3.489,1.464
					c-17.461,7.675-32.075,19.491-41.724,35.746c-10.287,17.298-14.394,40.55-5.598,61.632"/>
				<path style="fill:none;stroke:#ABABAB;stroke-miterlimit:10;" d="M334.877-130.734c-3.7,17.173-9.403,33.827-16.773,49.685
					c-3.276,7.05-6.924,14.013-11.736,20.154c-12.251,15.628-30.167,24.046-47.56,29.596c-4.14,1.326-8.323,2.518-12.539,3.572
					c-12.152,3.045-24.553,4.982-37.015,5.873c-16.631,1.186-33.495,0.474-51.348,1.509c-17.79,1.021-36.174,6.708-51.516,11.796
					C87.809-2.386,68.387-3.736,50.633,1.901C38.484,5.75,26.483,11.96,17.292,21.123c-4.241,4.219-7.889,9.069-10.685,14.619
					C-4.47,57.777,0.685,85.22,5.244,110.336c0.451,2.48,0.887,4.974,1.303,7.478c6.508,39.213,4.43,78.983-13.653,112.926
					c-5.537,10.393-12.747,21.386-23.138,28.709c-14.82,10.45-31.35,14.562-45.318,21.289c-1.102,0.531-2.195,1.08-3.277,1.647
					c-16.377,8.59-29.577,21.183-37.801,37.568c-8.769,17.434-11.428,39.959-2.234,60.051"/>
				<path style="fill:none;stroke:#A6A6A6;stroke-miterlimit:10;" d="M328.755-135.963c-3.545,16.595-9.122,32.659-16.378,47.912
					c-3.225,6.78-6.818,13.46-11.431,19.419c-11.739,15.16-28.525,24.092-45.094,30.34c-3.945,1.492-7.938,2.856-11.969,4.087
					c-11.622,3.555-23.537,6.046-35.564,7.534c-16.05,1.983-32.405,2.149-49.638,3.557c-17.166,1.393-34.962,6.532-50.059,10.842
					c-19.666,5.615-40.02,3.946-58.921,9.308C36.766,0.699,23.926,6.873,14.03,16.214c-4.566,4.302-8.509,9.281-11.552,15.008
					C-9.58,53.958-4.461,82.504-0.019,108.601c0.439,2.576,0.862,5.168,1.264,7.771c6.282,40.765,3.958,82.381-16.09,117.071
					c-5.708,9.878-12.986,20.202-22.934,27.392c-14.193,10.263-29.847,15.204-42.934,22.709c-1.032,0.593-2.055,1.202-3.066,1.83
					c-15.292,9.505-27.078,22.874-33.879,39.39c-7.251,17.571-8.461,39.368,1.129,58.47"/>
				<path style="fill:none;stroke:#A0A0A0;stroke-miterlimit:10;" d="M322.633-141.192c-3.389,16.016-8.841,31.492-15.983,46.138
					c-3.175,6.511-6.712,12.906-11.125,18.684c-11.228,14.691-26.883,24.138-42.627,31.084c-3.75,1.658-7.553,3.194-11.4,4.602
					c-11.092,4.066-22.521,7.111-34.113,9.195c-15.469,2.779-31.314,3.824-47.927,5.605c-16.541,1.765-33.727,6.323-48.603,9.889
					c-20.75,4.974-42.035,3.08-62.085,8.166c-13.721,3.475-27.4,9.613-38.001,19.133c-4.89,4.385-9.129,9.492-12.419,15.398
					c-13.039,23.435-7.955,53.086-3.63,80.164c0.427,2.673,0.837,5.362,1.224,8.064c6.055,42.318,3.594,85.881-18.527,121.217
					c-5.874,9.383-13.226,19.017-22.731,26.074c-13.565,10.075-28.344,15.845-40.551,24.129c-0.963,0.654-1.915,1.325-2.854,2.013
					c-14.208,10.42-24.579,24.565-29.956,41.211c-5.733,17.707-5.495,38.777,4.492,56.889"/>
				<path style="fill:none;stroke:#9B9B9B;stroke-miterlimit:10;" d="M316.511-146.421c-3.234,15.438-8.56,30.324-15.588,44.365
					c-3.124,6.242-6.605,12.352-10.82,17.949c-10.716,14.224-25.241,24.184-40.161,31.828c-3.555,1.825-7.168,3.532-10.831,5.118
					c-10.562,4.575-21.505,8.175-32.662,10.856c-14.889,3.576-30.224,5.499-46.217,7.653c-15.917,2.137-32.459,6.085-47.146,8.936
					c-21.825,4.237-44.051,2.213-65.249,7.024C33.33-9.404,18.811-3.301,7.506,6.396C2.291,10.865-2.243,16.101-5.78,22.184
					c-14.02,24.135-8.972,54.89-4.763,82.948c0.416,2.769,0.813,5.556,1.185,8.357c5.828,43.87,3.338,89.497-20.964,125.362
					c-6.038,8.911-13.465,17.833-22.527,24.757c-12.938,9.888-26.841,16.486-38.167,25.549c-0.894,0.716-1.775,1.447-2.642,2.196
					c-13.123,11.335-22.081,26.257-26.034,43.033c-4.215,17.844-2.529,38.186,7.856,55.308"/>
				<path style="fill:none;stroke:#959595;stroke-miterlimit:10;" d="M310.389-151.65c-3.078,14.859-8.279,29.156-15.193,42.591
					c-3.073,5.972-6.499,11.798-10.515,17.213c-10.204,13.755-23.599,24.23-37.694,32.572c-3.359,1.991-6.783,3.87-10.262,5.632
					c-10.032,5.086-20.488,9.24-31.211,12.518c-14.308,4.372-29.133,7.174-44.506,9.701c-15.293,2.509-31.154,5.822-45.689,7.983
					c-22.884,3.402-46.067,1.346-68.413,5.882C31.612-14.455,16.254-8.388,4.244,1.487C-1.296,6.04-6.125,11.403-9.909,17.664
					c-15.001,24.835-9.989,56.694-5.896,85.733c0.404,2.866,0.788,5.75,1.146,8.65c5.602,45.423,3.189,93.24-23.4,129.507
					c-6.204,8.462-13.704,16.649-22.324,23.439c-12.31,9.701-25.338,17.127-35.783,26.97c-0.824,0.777-1.635,1.57-2.43,2.379
					c-12.039,12.251-19.582,27.949-22.111,44.855c-2.697,17.981,0.437,37.595,11.219,53.727"/>
				<path style="fill:none;stroke:#909090;stroke-miterlimit:10;" d="M304.267-156.879c-2.923,14.28-7.998,27.989-14.798,40.818
					c-3.023,5.703-6.393,11.244-10.21,16.478c-9.692,13.287-21.957,24.276-35.228,33.316c-3.164,2.157-6.398,4.208-9.693,6.147
					c-9.503,5.596-19.472,10.304-29.761,14.179c-13.727,5.169-28.043,8.849-42.796,11.749c-14.669,2.881-29.807,5.538-44.233,7.029
					c-23.918,2.472-48.083,0.479-71.577,4.74c-16.078,2.915-32.276,8.946-44.991,19c-5.865,4.636-10.989,10.128-15.02,16.567
					c-15.981,25.534-11.005,58.497-7.03,88.518c0.392,2.962,0.763,5.945,1.106,8.943c5.375,46.975,3.14,97.124-25.837,133.652
					c-6.375,8.037-13.944,15.464-22.121,22.122c-11.683,9.513-23.834,17.769-33.4,28.39c-0.755,0.839-1.495,1.692-2.219,2.562
					c-10.954,13.165-17.083,29.64-18.189,46.677c-1.179,18.117,3.403,37.004,14.582,52.146"/>
				<path style="fill:none;stroke:#8A8A8A;stroke-miterlimit:10;" d="M298.145-162.108c-7.862,38.935-33.353,73.164-66.192,95.511
					c-32.839,22.347-72.518,33.4-112.171,35.713c-24.92,1.454-50.099-0.388-74.741,3.598C20.398-23.299-4.613-12.337-18.167,8.626
					C-35.13,34.86-30.189,68.927-26.33,99.929c6.346,50.981,6.257,108.054-27.207,147.034
					c-16.668,19.416-40.253,32.404-54.94,53.359c-20.364,29.052-18.784,71.602,3.679,99.064"/>
			</g>
			<g>
				<path style="fill:none;stroke:#FFFFFF;stroke-miterlimit:10;" d="M89.94,505.772c15.548-21.517,32.387-42.101,50.395-61.605
					c8.005-8.671,16.475-17.3,27.087-22.463c27.126-13.197,59.564-0.385,85.118,15.646c23.536,14.765,45.307,32.341,64.703,52.234
					c19.221,19.714,36.467,41.988,59.754,56.679c23.286,14.691,55.25,20.124,77.752,4.258c13.389-9.44,21.45-25.107,24.5-41.202
					c3.05-16.095,1.553-32.709-1.058-48.881c-2.99-18.516-7.376-37.832-1.529-55.653c6.054-18.448,23.564-32.579,42.875-34.6
					c27.472-2.875,51.626,16.252,74.778,31.317c29.413,19.14,63.593,33.386,98.628,31.372c35.034-2.014,70.435-23.444,80.943-56.926
					"/>
				<path style="fill:none;stroke:#F9F9F9;stroke-miterlimit:10;" d="M93.568,512.959c15.265-21.166,31.886-41.345,49.701-60.388
					c7.919-8.465,16.295-16.869,26.723-21.949c20.947-10.204,45.066-5.018,66.685,5.027c5.892,2.734,11.599,5.827,17.006,9.068
					c23.256,13.951,44.845,30.698,64.161,49.753c19.139,18.882,36.314,40.42,59.358,54.569
					c12.919,7.932,28.227,13.364,43.305,14.341c13.133,0.845,26.162-1.77,37.055-9.219c1.946-1.33,3.786-2.789,5.522-4.364
					c10.69-9.707,17.183-23.665,20.025-37.961c0.912-4.592,1.481-9.225,1.786-13.868c0.798-12.128-0.137-24.403-1.53-36.394
					c-2.187-19.025-5.102-38.512,1.48-56.295c6.537-17.662,23.327-31.394,42.178-33.463c26.821-2.944,50.487,15.08,73.128,29.087
					c1.785,1.104,3.587,2.189,5.405,3.253c27.482,16.079,58.586,27.232,90.183,24.674c33.687-2.726,67.471-24.044,77.23-56.766"/>
				<path style="fill:none;stroke:#F4F4F4;stroke-miterlimit:10;" d="M97.196,520.147c14.981-20.815,31.384-40.59,49.007-59.171
					c7.832-8.258,16.115-16.437,26.361-21.435c20.572-10.036,44.208-5.358,65.483,4.034c5.805,2.555,11.435,5.459,16.781,8.51
					c22.976,13.136,44.382,29.056,63.62,47.271c19.058,18.05,36.173,38.833,58.962,52.458c13.411,8.018,29.119,13.681,44.656,14.901
					c13.503,1.05,27.014-1.413,38.312-8.914c2.022-1.341,3.938-2.82,5.745-4.426c11.137-9.893,17.788-24.279,20.848-39.022
					c0.98-4.728,1.621-9.498,2.012-14.268c1.021-12.462,0.455-25.087-0.443-37.374c-1.384-19.535-2.853-39.166,4.488-56.936
					c6.97-16.872,23.091-30.209,41.482-32.326c26.17-3.014,49.348,13.908,71.477,26.856c1.745,1.021,3.505,2.022,5.28,3.003
					c26.835,14.816,56.934,24.707,87.268,21.478c32.339-3.438,64.506-24.644,73.517-56.607"/>
				<path style="fill:none;stroke:#EEEEEE;stroke-miterlimit:10;" d="M100.824,527.334c14.697-20.464,30.883-39.834,48.314-57.954
					c7.745-8.052,15.935-16.006,25.997-20.921c20.198-9.867,43.349-5.698,64.282,3.042c5.718,2.376,11.27,5.09,16.555,7.952
					c22.696,12.321,43.92,27.414,63.078,44.789c18.976,17.218,36.046,37.231,58.566,50.347c13.908,8.1,30.011,13.998,46.008,15.461
					c13.872,1.254,27.867-1.055,39.568-8.61c2.098-1.352,4.089-2.851,5.969-4.487c11.583-10.079,18.393-24.893,21.671-40.084
					c1.047-4.863,1.761-9.77,2.237-14.668c1.244-12.796,1.048-25.77,0.645-38.354c-0.581-20.044-0.633-39.798,7.497-57.578
					c7.354-16.084,22.854-29.024,40.785-31.19c25.519-3.083,48.209,12.736,69.827,24.626c1.704,0.937,3.423,1.855,5.156,2.752
					c26.188,13.553,55.283,22.182,84.354,18.283c30.992-4.15,61.542-25.245,69.804-56.447"/>
				<path style="fill:none;stroke:#E9E9E9;stroke-miterlimit:10;" d="M104.452,534.521c14.414-20.113,30.381-39.079,47.62-56.736
					c7.658-7.846,15.756-15.574,25.635-20.408c19.823-9.698,42.491-6.038,63.08,2.049c5.63,2.197,11.106,4.722,16.33,7.393
					c22.416,11.507,43.457,25.771,62.536,42.307c18.894,16.385,35.929,35.613,58.171,48.236
					c14.409,8.178,30.903,14.315,47.359,16.021c14.241,1.459,28.719-0.698,40.824-8.306c2.174-1.363,4.24-2.882,6.192-4.548
					c12.029-10.266,18.998-25.507,22.495-41.146c1.115-4.999,1.901-10.043,2.462-15.069c1.467-13.13,1.641-26.454,1.733-39.335
					c0.222-20.553,1.557-40.413,10.505-58.219c7.688-15.3,22.618-27.84,40.089-30.053c24.868-3.153,47.07,11.564,68.177,22.396
					c1.664,0.854,3.341,1.688,5.031,2.502c25.541,12.29,53.631,19.657,81.439,15.088c29.644-4.863,58.578-25.845,66.091-56.287"/>
				<path style="fill:none;stroke:#E3E3E3;stroke-miterlimit:10;" d="M108.08,541.709c14.13-19.763,29.88-38.323,46.926-55.519
					c7.572-7.64,15.576-15.143,25.271-19.894c19.449-9.529,41.632-6.378,61.879,1.056c5.543,2.018,10.942,4.353,16.104,6.835
					c22.137,10.692,42.995,24.129,61.994,39.825c18.812,15.553,35.822,33.981,57.775,46.125
					c14.914,8.251,31.795,14.632,48.71,16.581c14.611,1.664,29.571-0.341,42.08-8.002c2.25-1.374,4.391-2.913,6.416-4.609
					c12.475-10.452,19.603-26.121,23.318-42.208c1.182-5.134,2.042-10.316,2.688-15.469c1.69-13.465,2.207-27.139,2.821-40.315
					c0.982-21.065,3.715-41.018,13.513-58.861c7.975-14.524,22.381-26.655,39.393-28.916c24.217-3.222,45.931,10.392,66.526,20.165
					c1.624,0.77,3.26,1.521,4.906,2.251c24.894,11.027,51.979,17.132,78.524,11.893c28.297-5.575,55.614-26.445,62.378-56.128"/>
				<path style="fill:none;stroke:#DEDEDE;stroke-miterlimit:10;" d="M111.709,548.896c13.846-19.412,29.379-37.568,46.232-54.302
					c7.485-7.434,15.396-14.712,24.909-19.38c19.075-9.361,40.774-6.718,60.677,0.064c5.455,1.839,10.777,3.985,15.879,6.277
					c21.857,9.878,42.532,22.486,61.452,37.343c18.731,14.721,35.724,32.335,57.379,44.014
					c15.424,8.319,32.686,14.949,50.062,17.141c14.98,1.868,30.424,0.016,43.337-7.697c2.326-1.386,4.542-2.944,6.639-4.67
					c12.922-10.638,20.208-26.735,24.141-43.27c1.25-5.27,2.182-10.589,2.913-15.869c1.914-13.799,2.797-27.824,3.908-41.295
					c1.78-21.576,5.839-41.616,16.522-59.502c8.217-13.759,22.145-25.47,38.696-27.779c23.566-3.292,44.792,9.22,64.876,17.935
					c1.584,0.687,3.178,1.354,4.781,2.001c24.247,9.765,50.328,14.607,75.609,8.698c26.949-6.287,52.649-27.045,58.666-55.968"/>
				<path style="fill:none;stroke:#D8D8D8;stroke-miterlimit:10;" d="M115.337,556.084c13.563-19.061,28.877-36.812,45.538-53.085
					c7.398-7.228,15.216-14.28,24.546-18.866c18.7-9.192,39.915-7.058,59.475-0.929c5.368,1.66,10.613,3.617,15.653,5.719
					c21.577,9.063,42.07,20.844,60.911,34.862c18.649,13.889,35.634,30.677,56.983,41.903c15.938,8.381,33.578,15.266,51.413,17.701
					c15.349,2.073,31.276,0.373,44.593-7.393c2.402-1.397,4.693-2.975,6.863-4.731c13.368-10.824,20.813-27.349,24.964-44.331
					c1.318-5.405,2.322-10.862,3.139-16.269c2.137-14.133,3.388-28.509,4.996-42.275c2.58-22.087,7.927-42.216,19.53-60.144
					c8.417-13.006,21.908-24.285,38-26.642c22.914-3.361,43.653,8.048,63.226,15.704c1.543,0.603,3.096,1.188,4.657,1.75
					c23.6,8.502,48.676,12.082,72.694,5.503c25.602-6.999,49.685-27.645,54.953-55.808"/>
				<path style="fill:none;stroke:#D2D2D2;stroke-miterlimit:10;" d="M118.965,563.271c13.279-18.71,28.376-36.057,44.844-51.867
					c7.311-7.022,15.036-13.849,24.183-18.353c18.326-9.023,39.046-7.358,58.274-1.922c5.278,1.492,10.449,3.248,15.428,5.161
					c21.297,8.248,41.607,19.201,60.369,32.38c18.567,13.057,35.551,29.007,56.587,39.792c16.455,8.436,34.47,15.583,52.765,18.261
					c15.719,2.277,32.129,0.73,45.849-7.089c2.478-1.408,4.845-3.005,7.086-4.792c13.814-11.01,21.417-27.962,25.788-45.393
					c1.385-5.541,2.462-11.135,3.364-16.67c2.36-14.467,3.98-29.194,6.084-43.256c3.382-22.598,9.979-42.822,22.539-60.785
					c8.578-12.269,21.672-23.1,37.303-25.506c22.263-3.431,42.514,6.876,61.575,13.474c1.503,0.52,3.014,1.021,4.532,1.5
					c22.953,7.239,47.024,9.557,69.78,2.308c24.254-7.711,46.721-28.246,51.24-55.648"/>
				<path style="fill:none;stroke:#CDCDCD;stroke-miterlimit:10;" d="M122.593,570.458c12.995-18.359,27.874-35.301,44.15-50.65
					c7.225-6.816,14.857-13.417,23.82-17.839c17.951-8.854,38.188-7.695,57.072-2.915c5.19,1.314,10.284,2.88,15.202,4.602
					c21.017,7.434,41.145,17.558,59.827,29.898c18.486,12.224,35.474,27.326,56.191,37.681
					c16.977,8.485,35.362,15.899,54.116,18.821c16.088,2.482,32.981,1.088,47.105-6.784c2.554-1.419,4.996-3.036,7.31-4.853
					c14.26-11.196,22.023-28.576,26.611-46.455c1.453-5.677,2.602-11.407,3.59-17.07c2.583-14.802,4.572-29.879,7.172-44.236
					c4.184-23.109,11.991-43.442,25.547-61.427c8.705-11.549,21.435-21.915,36.607-24.369c21.612-3.5,41.375,5.704,59.925,11.243
					c1.463,0.436,2.932,0.853,4.407,1.249c22.306,5.976,45.372,7.032,66.865-0.887c22.906-8.423,43.756-28.846,47.527-55.489"/>
				<path style="fill:none;stroke:#C7C7C7;stroke-miterlimit:10;" d="M126.221,577.646c12.712-18.009,27.373-34.546,43.456-49.433
					c7.138-6.61,14.677-12.986,23.457-17.325c17.577-8.686,37.33-8.033,55.87-3.907c5.103,1.136,10.12,2.511,14.977,4.044
					c20.737,6.619,40.682,15.916,59.285,27.416c18.404,11.392,35.402,25.635,55.795,35.57c17.502,8.526,36.254,16.216,55.468,19.381
					c16.458,2.686,33.833,1.445,48.362-6.48c2.63-1.431,5.147-3.067,7.533-4.914c14.707-11.383,22.628-29.19,27.434-47.517
					c1.52-5.812,2.743-11.68,3.815-17.47c2.806-15.136,5.165-30.563,8.26-45.216c4.987-23.62,13.965-44.083,28.555-62.068
					c8.8-10.848,21.199-20.73,35.911-23.232c20.961-3.57,40.236,4.532,58.275,9.013c1.423,0.353,2.85,0.686,4.283,0.999
					c21.659,4.713,43.721,4.507,63.95-4.082c21.559-9.135,40.792-29.446,43.814-55.329"/>
				<path style="fill:none;stroke:#C2C2C2;stroke-miterlimit:10;" d="M129.849,584.833c12.428-17.658,26.872-33.79,42.762-48.216
					c7.051-6.404,14.497-12.555,23.094-16.811c17.202-8.517,36.473-8.372,54.669-4.9c5.016,0.957,9.956,2.143,14.751,3.486
					c20.457,5.804,40.22,14.274,58.743,24.934c18.322,10.56,35.335,23.935,55.399,33.46c18.032,8.56,37.145,16.533,56.819,19.941
					c16.827,2.891,34.686,1.802,49.618-6.176c2.706-1.442,5.298-3.098,7.757-4.976c15.153-11.569,23.233-29.804,28.257-48.578
					c1.588-5.948,2.883-11.953,4.041-17.87c3.029-15.47,5.759-31.248,9.347-46.197c5.792-24.13,15.897-44.753,31.563-62.71
					c8.869-10.165,20.962-19.545,35.214-22.095c20.31-3.639,39.097,3.36,56.624,6.783c1.382,0.269,2.769,0.52,4.158,0.748
					c21.012,3.451,42.069,1.981,61.035-7.277c20.211-9.848,37.828-30.046,40.101-55.169"/>
				<path style="fill:none;stroke:#BCBCBC;stroke-miterlimit:10;" d="M133.477,592.021c12.144-17.307,26.37-33.035,42.068-46.999
					c6.964-6.198,14.317-12.123,22.731-16.297c16.828-8.348,35.616-8.712,53.467-5.893c4.929,0.778,9.792,1.774,14.526,2.927
					c20.177,4.99,39.758,12.631,58.201,22.453c18.24,9.728,35.272,22.225,55.003,31.349c18.565,8.584,38.037,16.85,58.171,20.501
					c17.196,3.096,35.538,2.159,50.874-5.871c2.782-1.453,5.449-3.129,7.98-5.037c15.599-11.755,23.838-30.418,29.081-49.64
					c1.656-6.084,3.023-12.226,4.266-18.271c3.252-15.804,6.382-31.924,10.435-47.177c6.644-24.628,17.789-45.459,34.572-63.351
					c8.914-9.503,20.726-18.36,34.518-20.959c19.659-3.708,37.958,2.188,54.974,4.552c1.342,0.186,2.687,0.353,4.033,0.498
					c20.365,2.188,40.417-0.544,58.12-10.473c18.864-10.56,34.864-30.646,36.388-55.01"/>
				<path style="fill:none;stroke:#B7B7B7;stroke-miterlimit:10;" d="M137.105,599.208c11.861-16.956,25.869-32.279,41.374-45.781
					c6.877-5.992,14.138-11.692,22.368-15.783c16.453-8.179,34.759-9.052,52.266-6.885c4.843,0.599,9.627,1.406,14.3,2.369
					c19.897,4.175,39.295,10.989,57.66,19.971c18.159,8.896,35.213,20.507,54.608,29.238c19.103,8.599,38.929,17.167,59.522,21.061
					c17.565,3.3,36.391,2.516,52.13-5.567c2.858-1.465,5.6-3.16,8.204-5.098c16.045-11.941,24.443-31.032,29.904-50.702
					c1.723-6.219,3.163-12.499,4.492-18.671c3.475-16.139,6.975-32.608,11.523-48.157c7.447-25.137,19.64-46.211,37.58-63.993
					c8.941-8.862,20.489-17.175,33.822-19.822c19.008-3.778,36.819,1.016,53.324,2.322c1.302,0.102,2.605,0.185,3.909,0.247
					c19.718,0.925,38.766-3.069,55.205-13.668c17.516-11.272,31.899-31.247,32.675-54.85"/>
				<path style="fill:none;stroke:#B1B1B1;stroke-miterlimit:10;" d="M140.733,606.395c11.577-16.605,25.367-31.523,40.68-44.564
					c6.791-5.786,13.958-11.26,22.005-15.27c16.079-8.01,33.903-9.394,51.064-7.878c4.756,0.42,9.463,1.037,14.075,1.811
					c19.617,3.361,38.833,9.346,57.118,17.489c18.077,8.064,35.157,18.781,54.212,27.127c19.644,8.605,39.821,17.484,60.873,21.621
					c17.935,3.505,37.243,2.874,53.387-5.262c2.934-1.476,5.751-3.191,8.427-5.159c16.492-12.127,25.048-31.646,30.727-51.764
					c1.791-6.355,3.303-12.772,4.717-19.071c3.698-16.473,7.568-33.292,12.611-49.137c8.249-25.646,21.45-47.016,40.589-64.634
					c8.954-8.243,20.253-15.99,33.125-18.685c18.357-3.847,35.681-0.156,51.674,0.091c1.262,0.019,2.523,0.018,3.784-0.003
					c19.07-0.338,37.114-5.594,52.291-16.863c16.169-11.984,28.935-31.847,28.962-54.69"/>
				<path style="fill:none;stroke:#ABABAB;stroke-miterlimit:10;" d="M144.361,613.583c11.293-16.255,24.866-30.768,39.986-43.347
					c6.704-5.58,13.778-10.829,21.642-14.756c15.704-7.842,33.046-9.737,49.862-8.871c4.669,0.24,9.299,0.669,13.849,1.253
					c19.338,2.546,38.37,7.704,56.576,15.007c17.995,7.231,35.103,17.047,53.816,25.016c20.19,8.599,40.713,17.801,62.225,22.181
					c18.304,3.709,38.095,3.231,54.643-4.958c3.01-1.487,5.903-3.222,8.651-5.22c16.938-12.314,25.653-32.26,31.55-52.825
					c1.858-6.49,3.444-13.045,4.943-19.472c3.921-16.807,8.16-33.976,13.698-50.118c9.052-26.155,23.22-47.883,43.597-65.276
					c8.957-7.645,20.016-14.805,32.429-17.548c17.706-3.917,34.542-1.328,50.023-2.139c1.221-0.065,2.441-0.148,3.659-0.254
					c18.424-1.601,35.462-8.119,49.376-20.058c14.821-12.696,25.971-32.447,25.249-54.531"/>
				<path style="fill:none;stroke:#A6A6A6;stroke-miterlimit:10;" d="M147.989,620.77c11.01-15.904,24.365-30.012,39.292-42.13
					c6.617-5.373,13.598-10.397,21.279-14.242c15.33-7.673,32.189-10.081,48.661-9.864c4.582,0.06,9.134,0.3,13.624,0.695
					c19.058,1.731,37.908,6.061,56.034,12.525c17.913,6.399,35.052,15.305,53.42,22.905c20.739,8.581,41.604,18.118,63.576,22.741
					c18.674,3.914,38.948,3.588,55.899-4.654c3.086-1.498,6.054-3.253,8.874-5.281c17.384-12.5,26.258-32.874,32.373-53.887
					c1.926-6.626,3.584-13.317,5.168-19.872c4.144-17.141,8.753-34.66,14.786-51.098c9.855-26.665,24.952-48.822,46.605-65.917
					c8.954-7.069,19.78-13.62,31.732-16.411c17.055-3.986,33.403-2.499,48.373-4.369c1.181-0.148,2.36-0.315,3.535-0.504
					c17.776-2.863,33.81-10.644,46.461-23.253c13.473-13.408,23.006-33.047,21.536-54.371"/>
				<path style="fill:none;stroke:#A0A0A0;stroke-miterlimit:10;" d="M151.617,627.957c10.726-15.553,23.863-29.257,38.598-40.913
					c6.53-5.167,13.419-9.966,20.916-13.728c14.956-7.504,31.332-10.426,47.459-10.856c4.495-0.12,8.97-0.068,13.398,0.136
					c18.778,0.917,37.445,4.419,55.492,10.043c17.832,5.567,35.002,13.557,53.024,20.794c21.293,8.551,42.496,18.435,64.928,23.301
					c19.043,4.118,39.8,3.945,57.155-4.349c3.163-1.51,6.205-3.284,9.098-5.342c17.83-12.686,26.863-33.487,33.197-54.949
					c1.993-6.762,3.724-13.59,5.394-20.272c4.367-17.476,9.346-35.343,15.874-52.078c10.658-27.174,26.648-49.84,49.614-66.559
					c8.949-6.515,19.543-12.435,31.036-15.275c16.404-4.056,32.264-3.672,46.723-6.6c1.141-0.231,2.278-0.482,3.41-0.755
					c17.129-4.126,32.159-13.169,43.546-26.448c12.126-14.12,20.042-33.647,17.823-54.211"/>
				<path style="fill:none;stroke:#9B9B9B;stroke-miterlimit:10;" d="M155.245,635.145c10.442-15.202,23.362-28.501,37.904-39.695
					c6.443-4.961,13.239-9.535,20.553-13.214c14.581-7.335,30.473-10.799,46.257-11.849c4.408-0.308,8.806-0.436,13.173-0.422
					c18.498,0.102,36.983,2.776,54.951,7.561c17.75,4.735,34.953,11.802,52.628,18.683c21.851,8.507,43.388,18.752,66.279,23.861
					c19.412,4.323,40.653,4.303,58.412-4.045c3.239-1.521,6.356-3.315,9.321-5.403c18.277-12.872,27.468-34.102,34.02-56.011
					c2.061-6.897,3.864-13.863,5.619-20.673c4.59-17.81,9.938-36.027,16.962-53.058c11.46-27.683,28.314-50.946,52.622-67.2
					c8.947-5.983,19.307-11.251,30.34-14.138c15.753-4.125,31.125-4.843,45.072-8.83c1.101-0.315,2.196-0.649,3.285-1.005
					c16.482-5.389,30.507-15.694,40.631-29.643c10.779-14.833,17.078-34.248,14.11-54.052"/>
				<path style="fill:none;stroke:#959595;stroke-miterlimit:10;" d="M158.874,642.332c10.159-14.851,22.86-27.746,37.21-38.478
					c6.357-4.755,13.059-9.103,20.19-12.701c14.207-7.167,29.615-11.139,45.056-12.842c4.32-0.487,8.642-0.805,12.947-0.98
					c18.218-0.712,36.52,1.134,54.409,5.08c17.668,3.903,34.904,10.041,52.232,16.572c22.413,8.448,44.28,19.069,67.631,24.421
					c19.782,4.527,41.505,4.66,59.668-3.741c3.315-1.532,6.507-3.346,9.545-5.465c18.723-13.058,28.073-34.715,34.843-57.072
					c2.129-7.033,4.005-14.136,5.845-21.073c4.813-18.144,10.531-36.711,18.049-54.039c12.263-28.192,29.955-52.146,55.631-67.842
					c8.952-5.472,19.07-10.065,29.643-13.001c15.101-4.195,29.986-6.015,43.422-11.061c1.06-0.398,2.114-0.816,3.161-1.256
					c15.835-6.652,28.855-18.22,37.716-32.838c9.431-15.545,14.114-34.848,10.397-53.892"/>
				<path style="fill:none;stroke:#909090;stroke-miterlimit:10;" d="M162.502,649.52c9.875-14.5,22.359-26.99,36.516-37.261
					c6.27-4.549,12.879-8.672,19.827-12.187c13.832-6.998,28.756-11.479,43.854-13.834c4.233-0.666,8.477-1.173,12.722-1.538
					c17.938-1.527,36.058-0.509,53.867,2.598c17.586,3.071,34.856,8.274,51.836,14.462c22.979,8.373,45.172,19.386,68.982,24.981
					c20.151,4.732,42.358,5.017,60.924-3.437c3.391-1.543,6.658-3.377,9.768-5.526c19.169-13.245,28.678-35.329,35.666-58.134
					c2.196-7.169,4.145-14.409,6.07-21.473c5.036-18.478,11.124-37.395,19.137-55.019c13.066-28.702,31.576-53.446,58.639-68.483
					c8.967-4.983,18.833-8.881,28.947-11.864c14.45-4.264,28.847-7.187,41.772-13.291c1.02-0.482,2.032-0.983,3.036-1.506
					c15.188-7.915,27.204-20.745,34.802-36.033c8.083-16.257,11.149-35.448,6.684-53.732"/>
				<path style="fill:none;stroke:#8A8A8A;stroke-miterlimit:10;" d="M166.13,656.707c22.287-32.879,59.018-54.611,97.939-62.544
					s79.79-2.808,117.262,10.37c23.549,8.282,46.063,19.703,70.334,25.541c24.27,5.839,51.575,5.384,72.172-8.719
					c25.777-17.65,34.374-50.982,42.785-81.069c13.832-49.477,35.952-102.089,81.872-125.124
					c22.873-11.474,49.643-14.348,71.283-28.006c30.003-18.936,44.975-58.795,34.858-92.801"/>
			</g>
			<g>
				<path style="fill:none;stroke:#8A8A8A;stroke-miterlimit:10;" d="M-264.232-61.16c19.174-18.36,39.449-35.57,60.68-51.506
					c9.438-7.085,19.325-14.045,30.693-17.21c29.062-8.089,58.657,10.363,80.901,30.74c20.487,18.768,38.732,39.982,54.222,63.047
					c15.351,22.857,28.297,47.876,48.552,66.527c20.255,18.65,50.715,29.758,75.709,18.21c14.871-6.87,25.626-20.827,31.529-36.108
					c5.903-15.281,7.427-31.892,7.775-48.27c0.399-18.752-0.432-38.542,8.534-55.017c9.281-17.054,29.053-27.795,48.411-26.3
					c27.54,2.127,47.848,25.296,67.904,44.29c25.479,24.13,56.529,44.308,91.352,48.645c34.823,4.337,73.508-10.357,89.882-41.395"
					/>
				<path style="fill:none;stroke:#909090;stroke-miterlimit:10;" d="M-261.96-53.436c18.832-18.066,38.819-34.917,59.777-50.434
					c9.315-6.897,19.07-13.653,30.244-16.77c22.444-6.259,45.232,3.192,64.685,16.971c5.302,3.751,10.358,7.824,15.092,11.986
					C-71.802-73.766-53.588-53.4-38.025-31.174C-22.604-9.15-9.596,15.132,10.519,33.205C21.796,43.337,35.873,51.44,50.527,55.12
					c12.766,3.2,26.052,2.977,38.11-2.385c2.154-0.957,4.227-2.06,6.218-3.297c12.266-7.62,21.169-20.178,26.543-33.727
					c1.725-4.352,3.12-8.807,4.258-13.318c2.972-11.785,4.266-24.027,5.058-36.073c1.28-19.108,1.927-38.8,11.608-55.105
					c9.615-16.193,28.607-26.673,47.522-25.308c26.912,1.941,46.939,23.938,66.683,41.798c1.556,1.408,3.133,2.8,4.729,4.175
					c24.132,20.771,52.714,37.352,84.255,40.533c33.626,3.394,70.701-11.482,86.202-41.907"/>
				<path style="fill:none;stroke:#959595;stroke-miterlimit:10;" d="M-259.687-45.712c18.489-17.772,38.19-34.264,58.875-49.362
					c9.193-6.711,18.815-13.261,29.794-16.33c22.045-6.161,44.449,2.703,63.682,15.778c5.249,3.56,10.263,7.432,14.971,11.397
					c20.23,17.064,38.414,36.584,54.051,57.969c15.49,21.191,28.577,44.72,48.535,62.231c11.745,10.305,26.174,18.708,41.236,22.71
					c13.092,3.468,26.826,3.483,39.291-1.859c2.23-0.954,4.382-2.063,6.449-3.317c12.738-7.722,21.875-20.673,27.544-34.623
					c1.816-4.473,3.307-9.05,4.552-13.671c3.252-12.073,4.972-24.593,6.305-36.841c2.162-19.464,4.257-39.038,14.683-55.193
					c9.899-15.338,28.16-25.55,46.632-24.315c26.284,1.755,46.03,22.58,65.462,39.307c1.532,1.319,3.083,2.621,4.652,3.906
					c23.723,19.412,51.545,34.57,81.964,36.865c32.429,2.451,67.893-12.607,82.521-42.42"/>
				<path style="fill:none;stroke:#9B9B9B;stroke-miterlimit:10;" d="M-257.415-37.988c18.147-17.478,37.561-33.612,57.973-48.29
					c9.07-6.523,18.561-12.869,29.344-15.89c21.646-6.063,43.666,2.214,62.679,14.585c5.195,3.368,10.168,7.039,14.85,10.807
					c20.102,16.213,38.256,34.885,53.966,55.43c15.56,20.358,28.74,43.121,48.526,60.084c12.219,10.475,26.994,19.181,42.465,23.505
					c13.418,3.736,27.6,3.988,40.472-1.333c2.307-0.951,4.536-2.067,6.68-3.337c13.211-7.825,22.58-21.168,28.545-35.519
					c1.907-4.594,3.494-9.293,4.846-14.024c3.532-12.362,5.678-25.159,7.551-37.609c3.043-19.82,6.555-39.259,17.758-55.282
					c10.134-14.494,27.714-24.427,45.742-23.323c25.657,1.57,45.122,21.221,64.241,36.815c1.507,1.229,3.032,2.442,4.575,3.637
					c23.314,18.054,50.376,31.789,79.673,33.197c31.232,1.507,65.086-13.732,78.84-42.932"/>
				<path style="fill:none;stroke:#A0A0A0;stroke-miterlimit:10;" d="M-255.143-30.264c17.805-17.184,36.931-32.959,57.071-47.218
					c8.948-6.336,18.306-12.478,28.895-15.45c21.247-5.964,42.883,1.724,61.676,13.392c5.142,3.176,10.072,6.647,14.729,10.217
					c19.974,15.361,38.097,33.186,53.881,52.892C-23.262,3.092-9.974,25.077,9.626,41.504
					c12.698,10.642,27.814,19.653,43.693,24.299c13.745,4.004,28.374,4.493,41.653-0.807c2.384-0.949,4.69-2.07,6.911-3.356
					c13.683-7.928,23.286-21.663,29.547-36.414c1.998-4.716,3.681-9.536,5.14-14.377c3.811-12.651,6.385-25.724,8.798-38.377
					c3.925-20.176,8.82-39.47,20.832-55.37c10.321-13.662,27.268-23.304,44.852-22.33c25.029,1.384,44.213,19.863,63.02,34.324
					c1.483,1.14,2.982,2.263,4.497,3.368c22.905,16.695,49.206,29.007,77.382,29.528c30.035,0.563,62.278-14.857,75.159-43.445"/>
				<path style="fill:none;stroke:#A6A6A6;stroke-miterlimit:10;" d="M-252.87-22.54c17.463-16.89,36.302-32.306,56.169-46.146
					c8.825-6.149,18.051-12.086,28.445-15.01c20.849-5.865,42.1,1.235,60.674,12.199c5.088,2.984,9.977,6.255,14.607,9.627
					C-73.13-47.361-55.037-30.383-39.18-11.518C-23.481,7.173-10.073,28.366,9.329,44.271C22.511,55.076,37.963,64.396,54.25,69.365
					c14.071,4.271,29.148,4.998,42.833-0.281c2.461-0.946,4.844-2.073,7.142-3.376c14.156-8.03,23.992-22.157,30.548-37.31
					c2.089-4.837,3.869-9.779,5.434-14.73c4.091-12.939,7.065-26.296,10.045-39.145c4.764-20.542,11.052-39.675,23.907-55.459
					c10.464-12.847,26.821-22.181,43.962-21.338c24.401,1.198,43.304,18.505,61.799,31.832c1.458,1.05,2.932,2.084,4.42,3.099
					c22.497,15.336,48.037,26.225,75.091,25.86c28.838-0.38,59.471-15.982,71.478-43.958"/>
				<path style="fill:none;stroke:#ABABAB;stroke-miterlimit:10;" d="M-250.598-14.817c17.12-16.596,35.672-31.653,55.267-45.074
					c8.703-5.962,17.797-11.694,27.995-14.57c20.45-5.767,41.317,0.746,59.671,11.006c5.034,2.793,9.882,5.863,14.486,9.038
					c19.717,13.657,37.78,29.788,53.71,47.814c15.769,17.858,29.307,38.247,48.5,53.64c13.671,10.964,29.455,20.598,46.15,25.889
					c14.397,4.539,29.922,5.503,44.014,0.245c2.538-0.944,4.999-2.076,7.372-3.396c14.628-8.133,24.698-22.652,31.549-38.206
					c2.18-4.958,4.056-10.022,5.728-15.083c4.371-13.228,7.769-26.863,11.292-39.913c5.642-20.901,13.249-39.881,26.982-55.547
					c10.564-12.051,26.375-21.058,43.072-20.345c23.773,1.012,42.395,17.147,60.578,29.341c1.434,0.961,2.881,1.905,4.342,2.83
					c22.088,13.977,46.868,23.444,72.801,22.191c27.641-1.323,56.664-17.107,67.797-44.47"/>
				<path style="fill:none;stroke:#B1B1B1;stroke-miterlimit:10;" d="M-248.325-7.093c16.778-16.303,35.043-31.001,54.365-44.002
					c8.58-5.775,17.542-11.302,27.546-14.13c20.051-5.669,40.534,0.256,58.668,9.812c4.981,2.601,9.787,5.471,14.365,8.448
					c19.589,12.806,37.621,28.089,53.625,45.275c15.838,17.024,29.517,36.6,48.491,51.493
					c14.165,11.118,30.275,21.071,47.378,26.683c14.724,4.807,30.696,6.008,45.195,0.771c2.615-0.941,5.153-2.079,7.603-3.416
					c15.101-8.236,25.403-23.147,32.55-39.102c2.271-5.079,4.243-10.265,6.022-15.436c4.65-13.516,8.474-27.431,12.538-40.681
					c6.521-21.259,15.411-40.094,30.057-55.635c10.625-11.275,25.929-19.935,42.182-19.353
					c23.145,0.827,41.486,15.789,59.357,26.849c1.409,0.872,2.831,1.726,4.265,2.561c21.679,12.619,45.699,20.662,70.51,18.523
					c26.444-2.267,53.856-18.231,64.116-44.982"/>
				<path style="fill:none;stroke:#B7B7B7;stroke-miterlimit:10;" d="M-246.053,0.631c16.436-16.009,34.413-30.348,53.463-42.93
					c8.458-5.588,17.288-10.91,27.096-13.69c19.653-5.57,39.733-0.196,57.665,8.619c4.922,2.419,9.692,5.079,14.244,7.858
					c19.46,11.954,37.462,26.39,53.539,42.736C-24.138,19.416-10.31,38.168,8.436,52.57C23.1,63.835,39.531,74.114,57.042,80.048
					c15.05,5.075,31.47,6.513,46.376,1.297c2.691-0.938,5.307-2.083,7.834-3.436c15.573-8.338,26.109-23.641,33.551-39.998
					c2.362-5.2,4.43-10.508,6.316-15.79c4.93-13.805,9.18-27.997,13.785-41.449c7.402-21.618,17.538-40.32,33.131-55.724
					c10.651-10.521,25.482-18.813,41.292-18.36c22.517,0.641,40.577,14.431,58.136,24.358c1.385,0.782,2.781,1.547,4.187,2.293
					c21.271,11.26,44.53,17.881,68.219,14.855c25.247-3.211,51.049-19.357,60.436-45.495"/>
				<path style="fill:none;stroke:#BCBCBC;stroke-miterlimit:10;" d="M-243.781,8.355c16.093-15.715,33.784-29.695,52.561-41.858
					c8.335-5.401,17.033-10.518,26.646-13.25c19.254-5.472,38.949-0.682,56.662,7.426c4.868,2.229,9.597,4.687,14.123,7.269
					C-74.457-20.956-56.486-7.367-40.335,8.139c15.978,15.358,29.964,33.276,48.474,47.197
					c15.168,11.408,31.914,22.016,49.835,28.272c15.377,5.342,32.244,7.018,47.556,1.822c2.768-0.936,5.461-2.086,8.065-3.455
					c16.046-8.441,26.815-24.136,34.553-40.894c2.453-5.322,4.617-10.751,6.609-16.143c5.21-14.093,9.886-28.564,15.032-42.217
					c8.283-21.976,19.629-40.567,36.206-55.812c10.645-9.79,25.036-17.69,40.402-17.367c21.889,0.455,39.668,13.073,56.915,21.866
					c1.36,0.693,2.73,1.368,4.11,2.024c20.862,9.901,43.36,15.099,65.928,11.186c24.05-4.154,48.241-20.481,56.755-46.008"/>
				<path style="fill:none;stroke:#C2C2C2;stroke-miterlimit:10;" d="M-241.508,16.079c15.751-15.421,33.154-29.042,51.659-40.785
					c8.213-5.214,16.778-10.126,26.196-12.81c18.855-5.373,38.167-1.169,55.659,6.233c4.815,2.038,9.501,4.295,14.002,6.679
					c19.203,10.25,37.145,22.992,53.369,37.659c16.047,14.525,30.198,31.6,48.465,45.05C23.519,69.646,40.576,80.591,58.904,87.17
					c15.703,5.61,33.018,7.523,48.737,2.348c2.845-0.933,5.616-2.089,8.296-3.475c16.518-8.544,27.521-24.631,35.554-41.79
					c2.544-5.443,4.804-10.994,6.904-16.496c5.489-14.382,10.593-29.131,16.279-42.985c9.165-22.333,21.686-40.842,39.281-55.901
					c10.612-9.083,24.59-16.567,39.512-16.375c21.261,0.269,38.759,11.714,55.694,19.375c1.336,0.604,2.68,1.189,4.032,1.755
					c20.453,8.542,42.191,12.318,63.637,7.518c22.853-5.097,45.434-21.606,53.074-46.52"/>
				<path style="fill:none;stroke:#C7C7C7;stroke-miterlimit:10;" d="M-239.236,23.803c15.409-15.127,32.525-28.39,50.756-39.713
					c8.09-5.027,16.524-9.734,25.747-12.371c18.456-5.275,37.385-1.657,54.656,5.04c4.761,1.846,9.406,3.903,13.881,6.089
					c19.075,9.399,36.986,21.293,53.283,35.12c16.117,13.691,30.439,29.915,48.457,42.902C23.736,72.541,41.098,83.83,59.835,90.73
					c16.03,5.878,33.792,8.028,49.918,2.874c2.922-0.93,5.77-2.092,8.527-3.495c16.991-8.646,28.227-25.126,36.555-42.686
					c2.635-5.564,4.991-11.237,7.197-16.849c5.769-14.67,11.3-29.697,17.525-43.753c10.049-22.69,23.708-41.152,42.356-55.989
					c10.556-8.399,24.143-15.444,38.622-15.382c20.633,0.084,37.85,10.356,54.473,16.883c1.311,0.514,2.63,1.01,3.955,1.486
					c20.045,7.183,41.022,9.536,61.347,3.849c21.656-6.041,42.626-22.731,49.393-47.033"/>
				<path style="fill:none;stroke:#CDCDCD;stroke-miterlimit:10;" d="M-236.964,31.527c15.066-14.833,31.895-27.737,49.854-38.641
					c7.968-4.84,16.269-9.342,25.297-11.931c18.057-5.176,36.603-2.145,53.653,3.847c4.708,1.655,9.311,3.511,13.759,5.499
					c18.946,8.547,36.828,19.594,53.198,32.581c16.187,12.858,30.686,28.222,48.448,40.754
					c16.712,11.792,34.375,23.434,53.519,30.656c16.356,6.146,34.566,8.533,51.099,3.4c2.999-0.928,5.924-2.095,8.758-3.515
					c17.463-8.749,28.933-25.62,37.556-43.582c2.726-5.685,5.178-11.48,7.491-17.202c6.049-14.959,12.035-30.25,18.772-44.521
					c10.976-23.025,25.696-41.505,45.43-56.077c10.482-7.74,23.697-14.321,37.732-14.39c20.006-0.102,36.941,8.998,53.252,14.392
					c1.287,0.425,2.579,0.831,3.877,1.217c19.636,5.825,39.853,6.754,59.056,0.181c20.459-6.984,39.819-23.856,45.712-47.545"/>
				<path style="fill:none;stroke:#D2D2D2;stroke-miterlimit:10;" d="M-234.691,39.25c14.724-14.539,31.266-27.084,48.952-37.569
					c7.845-4.653,16.014-8.95,24.847-11.491c17.659-5.078,35.822-2.635,52.65,2.653c4.655,1.463,9.216,3.119,13.638,4.909
					c18.818,7.695,36.669,17.895,53.112,30.042C-25.234,39.82-10.553,54.317,6.949,66.402c17.239,11.904,35.194,23.906,54.748,31.45
					c16.682,6.414,35.34,9.038,52.279,3.926c3.076-0.925,6.078-2.098,8.989-3.535c17.936-8.852,29.638-26.115,38.557-44.477
					c2.816-5.806,5.366-11.723,7.785-17.555c6.328-15.247,12.741-30.816,20.019-45.289c11.858-23.382,27.652-41.911,48.505-56.166
					c10.393-7.105,23.251-13.198,36.842-13.397c19.378-0.288,36.033,7.64,52.031,11.9c1.262,0.336,2.529,0.652,3.8,0.948
					c19.227,4.466,38.683,3.973,56.765-3.487c19.262-7.928,37.012-24.981,42.031-48.058"/>
				<path style="fill:none;stroke:#D8D8D8;stroke-miterlimit:10;" d="M-232.419,46.974c14.382-14.245,30.637-26.432,48.05-36.497
					c7.723-4.466,15.76-8.558,24.398-11.051c17.26-4.979,35.041-3.126,51.647,1.46c4.602,1.271,9.121,2.727,13.517,4.32
					c18.69,6.844,36.51,16.196,53.027,27.503c16.326,11.192,31.194,24.813,48.431,36.459c17.77,12.006,36.014,24.379,55.976,32.245
					c17.009,6.682,36.114,9.543,53.46,4.452c3.152-0.922,6.233-2.102,9.219-3.555c18.408-8.954,30.344-26.61,39.559-45.373
					c2.908-5.928,5.553-11.966,8.079-17.908c6.608-15.536,13.448-31.381,21.266-46.057c12.739-23.738,29.577-42.376,51.58-56.254
					c10.294-6.493,22.804-12.076,35.952-12.404c18.75-0.474,35.124,6.282,50.81,9.409c1.238,0.246,2.479,0.473,3.723,0.679
					c18.819,3.107,37.514,1.191,54.474-7.156c18.065-8.871,34.204-26.106,38.35-48.57"/>
				<path style="fill:none;stroke:#DEDEDE;stroke-miterlimit:10;" d="M-230.146,54.698c14.04-13.951,30.007-25.779,47.148-35.425
					c7.6-4.279,15.505-8.166,23.948-10.611c16.861-4.881,34.26-3.617,50.645,0.267c4.549,1.078,9.026,2.335,13.396,3.73
					c18.561,5.992,36.352,14.497,52.942,24.964c16.396,10.358,31.453,23.098,48.422,34.311
					c18.308,12.099,36.835,24.852,57.204,33.04c17.335,6.949,36.888,10.048,54.641,4.978c3.229-0.92,6.387-2.105,9.45-3.574
					c18.881-9.057,31.05-27.104,40.56-46.269c2.998-6.049,5.74-12.21,8.373-18.261c6.888-15.824,14.154-31.947,22.512-46.825
					c13.621-24.094,31.474-42.91,54.654-56.343c10.189-5.904,22.358-10.953,35.062-11.412c18.122-0.66,34.215,4.924,49.589,6.918
					c1.213,0.157,2.428,0.294,3.645,0.41c18.41,1.748,36.345-1.59,52.184-10.824c16.868-9.815,31.397-27.231,34.669-49.083"/>
				<path style="fill:none;stroke:#E3E3E3;stroke-miterlimit:10;" d="M-227.874,62.422c13.697-13.657,29.378-25.126,46.246-34.353
					c7.478-4.092,15.25-7.775,23.498-10.171c16.462-4.783,33.48-4.11,49.642-0.926c4.496,0.886,8.931,1.943,13.275,3.14
					c18.433,5.14,36.193,12.798,52.857,22.425c16.465,9.525,31.717,21.376,48.413,32.164c18.852,12.18,37.655,25.324,58.433,33.834
					c17.661,7.217,37.662,10.553,55.822,5.504c3.306-0.917,6.541-2.108,9.681-3.594c19.353-9.16,31.756-27.599,41.561-47.165
					c3.089-6.17,5.927-12.453,8.667-18.614c7.167-16.113,14.86-32.513,23.759-47.594c14.502-24.45,33.347-43.521,57.729-56.431
					c10.082-5.338,21.911-9.83,34.172-10.419c17.494-0.845,33.306,3.566,48.368,4.426c1.189,0.067,2.378,0.115,3.568,0.142
					c18.001,0.39,35.176-4.372,49.893-14.493c15.671-10.758,28.589-28.356,30.989-49.596"/>
				<path style="fill:none;stroke:#E9E9E9;stroke-miterlimit:10;" d="M-225.602,70.146c13.355-13.363,28.748-24.473,45.344-33.281
					c7.355-3.905,14.996-7.383,23.048-9.731c16.064-4.684,32.699-4.604,48.639-2.119c4.443,0.693,8.835,1.551,13.154,2.551
					c18.305,4.288,36.034,11.099,52.771,19.887c16.535,8.692,31.983,19.647,48.404,30.016
					c19.402,12.251,38.475,25.797,59.661,34.629c17.988,7.485,38.436,11.059,57.003,6.03c3.383-0.914,6.695-2.111,9.912-3.614
					c19.826-9.262,32.462-28.094,42.562-48.061c3.18-6.291,6.114-12.696,8.961-18.967c7.447-16.402,15.567-33.078,25.006-48.361
					c15.384-24.806,35.2-44.217,60.804-56.52c9.978-4.794,21.465-8.707,33.282-9.427c16.866-1.031,32.397,2.207,47.147,1.935
					c1.164-0.022,2.328-0.064,3.49-0.127c17.593-0.969,34.007-7.154,47.602-18.161c14.474-11.702,25.782-29.481,27.308-50.108"/>
				<path style="fill:none;stroke:#EEEEEE;stroke-miterlimit:10;" d="M-223.329,77.869c13.013-13.069,28.119-23.821,44.442-32.209
					c7.233-3.718,14.741-6.991,22.599-9.291c15.665-4.586,31.921-5.127,47.636-3.312c4.391,0.492,8.74,1.159,13.033,1.961
					c18.176,3.437,35.876,9.4,52.686,17.348c16.605,7.859,32.251,17.912,48.396,27.868c19.958,12.308,39.295,26.269,60.889,35.423
					c18.314,7.753,39.21,11.564,58.184,6.555c3.46-0.912,6.849-2.114,10.143-3.634c20.298-9.365,33.167-28.589,43.564-48.957
					c3.271-6.413,6.301-12.939,9.255-19.32c7.727-16.69,16.273-33.644,26.253-49.13c16.265-25.162,37.038-45.004,63.879-56.608
					c9.88-4.271,21.019-7.584,32.392-8.434c16.238-1.217,31.488,0.849,45.926-0.557c1.139-0.111,2.277-0.243,3.413-0.396
					c17.184-2.328,32.837-9.935,45.311-21.829c13.277-12.646,22.974-30.606,23.627-50.621"/>
				<path style="fill:none;stroke:#F4F4F4;stroke-miterlimit:10;" d="M-221.057,85.593c12.67-12.776,27.489-23.168,43.54-31.137
					c7.11-3.531,14.486-6.599,22.149-8.851c15.266-4.487,31.138-5.616,46.633-4.505c4.337,0.3,8.645,0.767,12.912,1.371
					c18.048,2.585,35.717,7.701,52.6,14.809c16.675,7.025,32.521,16.172,48.387,25.721c20.522,12.351,40.115,26.742,62.117,36.218
					c18.641,8.021,39.984,12.069,59.364,7.081c3.537-0.909,7.004-2.117,10.374-3.653c20.771-9.468,33.873-29.083,44.565-49.853
					c3.362-6.534,6.488-13.182,9.549-19.673c8.007-16.979,16.979-34.21,27.499-49.898c17.146-25.518,38.868-45.888,66.953-56.697
					c9.792-3.768,20.573-6.461,31.502-7.442c15.61-1.403,30.579-0.509,44.705-3.048c1.115-0.201,2.227-0.422,3.335-0.665
					c16.775-3.687,31.668-12.717,43.02-25.498c12.08-13.589,20.167-31.731,19.946-51.133"/>
				<path style="fill:none;stroke:#F9F9F9;stroke-miterlimit:10;" d="M-218.785,93.317c12.328-12.482,26.86-22.515,42.638-30.064
					c6.988-3.344,14.232-6.207,21.699-8.411c14.867-4.389,30.355-6.105,45.63-5.698c4.284,0.108,8.55,0.375,12.791,0.781
					c17.919,1.733,35.558,6.003,52.515,12.27c16.744,6.192,32.792,14.425,48.378,23.573c21.092,12.38,40.935,27.214,63.346,37.012
					c18.967,8.288,40.758,12.574,60.545,7.607c3.613-0.906,7.158-2.121,10.605-3.673c21.243-9.57,34.579-29.578,45.566-50.749
					c3.453-6.655,6.675-13.425,9.843-20.026c8.286-17.267,17.686-34.775,28.746-50.666c18.028-25.875,40.697-46.875,70.028-56.785
					c9.719-3.284,20.126-5.339,30.612-6.449c14.982-1.588,29.67-1.867,43.484-5.54c1.09-0.29,2.176-0.601,3.258-0.934
					c16.367-5.046,30.499-15.498,40.729-29.166c10.883-14.532,17.359-32.856,16.265-51.646"/>
				<path style="fill:none;stroke:#FFFFFF;stroke-miterlimit:10;" d="M-216.512,101.041C-188.661,72.72-148.613,57.97-108.9,57.186
					c39.713-0.784,78.988,11.629,113.469,31.348c21.669,12.393,41.755,27.687,64.574,37.807c22.819,10.12,49.759,14.597,72.561,4.44
					c28.537-12.712,43.005-43.947,56.704-72.024c22.528-46.172,53.774-93.931,103.096-108.307
					c24.567-7.16,51.417-5.16,75.165-14.691c32.926-13.214,54.841-49.72,51.023-84.993"/>
			</g>
			<g>
				<path style="fill:none;stroke:#8A8A8A;stroke-miterlimit:10;" d="M-42.357,511.029c-4.208-34.003,29.358-62.734,63.211-68.018
					c33.852-5.284,67.811,5.618,101.353,12.605s71.281,9.297,99.3-10.423c35.821-25.21,44.108-78.244,80.959-101.923
					c28.723-18.456,66.111-12.934,95.539,0.797c16.639,7.763,30.786,20.823,46.69,29.92
					c72.124,41.255,76.987,125.564,138.262,138.136c66.346,13.613,102.346-18.735,114.868-41.17
					c16.039-28.737,42.783-103.304-22.749-155.123c-26.622-21.051-52.905-43.487-72.49-71.206
					c-29.322-41.499-29.123-104.944,8.373-139.236c25.699-23.502,65.168-32.095,82.626-62.228
					c11.734-20.253,10.13-46.364,0.044-67.486c-10.086-21.122-27.656-37.826-46.744-51.373"/>
				<path style="fill:none;stroke:#909090;stroke-miterlimit:10;" d="M-40.837,512.726c-2.905-34.979,30.478-65.201,65.341-71.214
					c34.028-5.869,68.547,4.947,102.093,12.661c33.15,7.623,69.954,11.08,97.884-6.845c35.676-22.937,45.709-73.278,82.515-96.646
					c29.319-18.515,66.114-15.074,96.244-3.071c17.308,6.895,32.646,19.205,49.302,28.432
					c70.609,39.118,76.416,120.688,136.358,133.087c64.474,13.31,100.276-17.303,113.288-39.379
					c16.488-27.975,42.005-99.82-19.917-151.047c-25.528-21.12-50.845-43.987-70.114-71.535
					c-28.457-40.515-28.716-101.702,6.674-135.695c24.485-23.519,62.537-33.101,79.921-62.845
					c11.932-20.334,11.197-46.072,2.384-67.352c-8.895-21.478-25.118-39.131-43.46-53.673"/>
				<path style="fill:none;stroke:#959595;stroke-miterlimit:10;" d="M-39.317,514.424c-1.602-35.955,31.596-67.656,67.471-74.41
					c34.205-6.439,69.282,4.268,102.834,12.717c32.758,8.249,68.628,12.863,96.469-3.266c35.532-20.664,47.257-68.395,84.07-91.368
					c29.874-18.643,66.153-17.237,96.948-6.939c17.999,6.019,34.498,17.59,51.914,26.944
					c69.028,37.075,75.845,115.811,134.454,128.038c62.602,13.008,98.199-15.871,111.707-37.589
					c16.926-27.215,41.232-96.383-17.084-146.972c-24.443-21.204-48.785-44.486-67.738-71.864
					c-27.593-39.531-28.31-98.479,4.975-132.154c23.276-23.549,59.906-34.108,77.215-63.462
					c12.13-20.415,12.272-45.798,4.725-67.217c-7.699-21.852-22.58-40.436-40.176-55.973"/>
				<path style="fill:none;stroke:#9B9B9B;stroke-miterlimit:10;" d="M-37.797,516.121c-0.299-36.931,32.714-70.101,69.602-77.606
					c34.381-6.996,70.016,3.58,103.574,12.772c32.365,8.865,67.301,14.647,95.053,0.312c35.388-18.39,48.837-63.463,85.625-86.091
					c30.453-18.732,66.224-19.428,97.653-10.807c18.707,5.131,36.343,15.98,54.526,25.456
					c67.388,35.12,75.273,110.935,132.551,122.989c60.73,12.706,96.115-14.439,110.126-35.798
					c17.355-26.456,40.467-93-14.252-142.896c-23.367-21.307-46.647-45.038-65.362-72.194
					c-26.618-38.623-27.907-95.279,3.275-128.613c22.07-23.593,57.206-35.156,74.51-64.079c12.28-20.526,13.358-45.541,7.066-67.084
					c-6.497-22.244-20.042-41.74-36.892-58.273"/>
				<path style="fill:none;stroke:#A0A0A0;stroke-miterlimit:10;" d="M-36.277,517.818c1.004-37.906,33.833-72.534,71.732-80.803
					c34.559-7.54,70.749,2.885,104.314,12.828c31.971,9.471,65.974,16.431,93.637,3.89c35.243-16.117,50.421-58.525,87.18-80.814
					c31.035-18.818,66.32-21.648,98.358-14.675c19.431,4.229,38.181,14.376,57.138,23.968
					c65.697,33.243,74.702,106.059,130.647,117.94c58.858,12.403,94.024-13.009,108.546-34.008
					c17.773-25.7,39.715-89.674-11.42-138.82c-22.297-21.43-44.564-45.553-62.987-72.523
					c-25.724-37.658-27.508-92.103,1.576-125.072c20.865-23.652,54.558-36.173,71.804-64.696c12.465-20.615,14.456-45.3,9.407-66.95
					c-5.284-22.653-17.505-43.045-33.609-60.573"/>
				<path style="fill:none;stroke:#A6A6A6;stroke-miterlimit:10;" d="M-34.756,519.515c2.306-38.882,34.952-74.958,73.862-83.999
					c34.738-8.072,71.482,2.18,105.055,12.884c31.579,10.068,64.669,18.27,92.221,7.468c35.127-13.772,52.009-53.583,88.736-75.537
					c31.618-18.901,66.437-23.9,99.063-18.542c20.166,3.311,40.011,12.778,59.749,22.48
					c63.962,31.439,74.13,101.182,128.743,112.891c56.986,12.101,91.925-11.579,106.965-32.217
					c18.18-24.947,38.981-86.412-8.588-134.745c-21.233-21.574-42.482-46.066-60.611-72.853
					c-24.833-36.692-27.117-88.954-0.124-121.531c19.662-23.729,51.912-37.188,69.099-65.314
					c12.651-20.704,15.57-45.073,11.747-66.815c-4.057-23.077-14.967-44.349-30.325-62.873"/>
				<path style="fill:none;stroke:#ABABAB;stroke-miterlimit:10;" d="M-33.236,521.212c3.609-39.858,36.073-77.37,75.992-87.195
					c34.919-8.594,72.216,1.467,105.795,12.939c31.187,10.656,63.341,20.064,90.805,11.047c34.982-11.486,53.6-48.635,90.291-70.259
					c32.205-18.98,66.567-26.183,99.768-22.41c20.911,2.376,41.834,11.189,62.361,20.993
					c62.188,29.701,73.559,96.306,126.839,107.841c55.114,11.798,89.819-10.152,105.385-30.427
					c18.578-24.197,38.271-83.216-5.755-130.669c-20.173-21.742-40.402-46.578-58.235-73.182
					c-23.945-35.722-26.737-85.832-1.823-117.99c18.457-23.823,49.27-38.202,66.393-65.931
					c12.84-20.792,16.701-44.858,14.088-66.681c-2.815-23.513-12.429-45.654-27.041-65.174"/>
				<path style="fill:none;stroke:#B1B1B1;stroke-miterlimit:10;" d="M-31.716,522.909c4.912-40.834,37.195-79.773,78.122-90.392
					c35.101-9.107,72.951,0.745,106.536,12.995c30.798,11.234,62.012,21.856,89.389,14.625
					c34.836-9.201,55.193-43.684,91.846-64.982c32.793-19.056,66.707-28.497,100.473-26.278
					c21.661,1.423,43.651,9.608,64.973,19.505c60.379,28.024,72.987,91.43,124.935,102.792
					c53.242,11.496,87.706-8.729,103.805-28.636c18.966-23.453,37.592-80.093-2.923-126.594
					c-19.114-21.937-38.324-47.088-55.859-73.512c-23.061-34.75-26.37-82.74-3.523-114.449
					c17.248-23.938,46.63-39.215,63.688-66.548c13.03-20.879,17.85-44.65,16.429-66.547c-1.555-23.957-9.891-46.958-23.757-67.473"
					/>
				<path style="fill:none;stroke:#B7B7B7;stroke-miterlimit:10;" d="M-30.196,524.606c6.215-41.81,38.32-82.167,80.253-93.588
					c35.285-9.61,73.688,0.013,107.276,13.051c30.41,11.804,60.682,23.647,87.973,18.203c34.687-6.919,56.79-38.727,93.401-59.705
					c33.384-19.128,66.852-30.839,101.177-30.146c22.414,0.453,45.46,8.039,67.585,18.017
					c58.54,26.402,72.416,86.554,123.031,97.743c51.37,11.194,85.585-7.309,102.224-26.845
					c19.344-22.713,36.952-77.046-0.091-122.518c-18.053-22.161-36.248-47.596-53.483-73.841
					c-22.181-33.775-26.021-79.679-5.222-110.908c16.032-24.073,43.993-40.226,60.982-67.165
					c13.222-20.964,19.018-44.448,18.77-66.413c-0.276-24.408-7.354-48.263-20.473-69.773"/>
				<path style="fill:none;stroke:#BCBCBC;stroke-miterlimit:10;" d="M-28.676,526.304c7.518-42.786,39.447-84.551,82.383-96.784
					c35.472-10.106,74.428-0.727,108.017,13.107c30.024,12.365,59.35,25.436,86.558,21.781
					c34.537-4.639,58.389-33.767,94.956-54.427c33.977-19.197,66.997-33.208,101.882-34.014
					c23.168-0.535,47.263,6.481,70.197,16.529c56.675,24.831,71.845,81.677,121.127,92.694
					c49.499,10.891,83.457-5.893,100.643-25.055c19.714-21.979,36.359-74.077,2.741-118.442
					c-16.985-22.415-34.174-48.103-51.108-74.171c-21.305-32.797-25.693-76.649-6.922-107.367
					c14.806-24.23,41.358-41.236,58.277-67.782c13.415-21.049,20.204-44.249,21.11-66.279c1.023-24.861-4.816-49.567-17.19-72.074"
					/>
				<path style="fill:none;stroke:#C2C2C2;stroke-miterlimit:10;" d="M-27.156,528.001c8.82-43.761,40.576-86.926,84.513-99.98
					c35.66-10.595,75.17-1.475,108.757,13.162c29.642,12.918,58.018,27.222,85.142,25.359c34.385-2.362,59.99-28.802,96.512-49.15
					c34.573-19.262,67.139-35.6,102.587-37.881c23.92-1.54,49.058,4.938,72.809,15.041c54.788,23.307,71.273,76.801,119.224,87.645
					c47.627,10.589,81.322-4.483,99.063-23.264c20.075-21.252,35.822-71.189,5.573-114.367
					c-15.904-22.702-32.103-48.608-48.732-74.5c-20.433-31.816-25.392-73.65-8.621-103.826
					c13.566-24.409,38.726-42.244,55.572-68.399c13.611-21.133,21.408-44.048,23.451-66.145
					c2.341-25.314-2.278-50.872-13.906-74.374"/>
				<path style="fill:none;stroke:#C7C7C7;stroke-miterlimit:10;" d="M-25.635,529.698c10.123-44.737,41.708-89.293,86.644-103.176
					c35.851-11.077,75.916-2.233,109.497,13.218c29.262,13.464,56.685,29.007,83.726,28.938
					c34.233-0.087,61.594-23.833,98.067-43.873c35.17-19.323,67.276-38.013,103.292-41.749c24.668-2.559,50.847,3.41,75.421,13.553
					c52.88,21.827,70.702,71.925,117.32,82.596c45.755,10.286,79.18-3.078,97.483-21.474c20.428-20.531,35.354-68.38,8.405-110.291
					c-14.804-23.024-30.035-49.11-46.356-74.83c-19.565-30.832-25.122-70.681-10.321-100.285
					c12.305-24.61,36.096-43.25,52.866-69.017c13.808-21.215,22.628-43.845,25.792-66.011c3.678-25.763,0.26-52.176-10.622-76.674"
					/>
				<path style="fill:none;stroke:#CDCDCD;stroke-miterlimit:10;" d="M-24.115,531.395c11.426-45.713,42.843-91.652,88.774-106.373
					c36.044-11.552,76.667-2.999,110.238,13.274c28.887,14.002,55.352,30.789,82.31,32.516
					c34.081,2.184,63.199-18.861,99.622-38.595c35.769-19.381,67.407-40.445,103.997-45.617
					c25.412-3.592,52.627,1.901,78.033,12.066c50.956,20.387,70.109,67.141,115.416,77.547
					c43.862,10.074,77.031-1.681,95.902-19.683c20.774-19.818,34.963-65.648,11.238-106.216
					c-13.674-23.381-27.971-49.611-43.98-75.159c-18.702-29.845-24.889-67.739-12.02-96.744
					c11.018-24.832,33.469-44.255,50.161-69.634c14.007-21.296,23.862-43.637,28.133-65.877c5.033-26.206,2.797-53.481-7.338-78.974
					"/>
				<path style="fill:none;stroke:#D2D2D2;stroke-miterlimit:10;" d="M-22.595,533.092c12.729-46.689,43.982-94.002,90.904-109.569
					c36.239-12.023,77.422-3.773,110.978,13.329c28.515,14.533,54.019,32.568,80.894,36.094
					c33.93,4.452,64.807-13.884,101.177-33.318c36.371-19.434,67.529-42.892,104.701-49.485c26.15-4.638,54.4,0.413,80.645,10.578
					c49.018,18.984,69.537,62.266,113.512,72.498c41.99,9.771,74.877-0.29,94.322-17.893c21.113-19.113,34.661-62.987,14.07-102.14
					c-12.504-23.775-25.91-50.108-41.604-75.489c-17.843-28.855-24.697-64.82-13.719-93.203
					c9.698-25.074,30.843-45.258,47.455-70.251c14.209-21.376,25.108-43.422,30.474-65.743c6.404-26.642,5.335-54.786-4.055-81.274"
					/>
				<path style="fill:none;stroke:#D8D8D8;stroke-miterlimit:10;" d="M-21.075,534.789c14.031-47.665,45.124-96.345,93.034-112.765
					c36.436-12.488,78.182-4.555,111.718,13.385c28.147,15.058,52.688,34.345,79.478,39.672
					c33.78,6.717,66.417-8.904,102.732-28.041c36.974-19.484,67.641-45.353,105.406-53.353c26.881-5.694,56.164-1.05,83.257,9.09
					c47.068,17.617,68.966,57.388,111.608,67.449c40.118,9.466,72.716,1.092,92.741-16.102
					c21.447-18.416,34.459-60.389,16.902-98.064c-11.279-24.204-23.853-50.604-39.229-75.818
					c-16.99-27.862-24.551-61.92-15.419-89.662c8.338-25.331,28.22-46.26,44.75-70.868c14.412-21.455,26.365-43.199,32.814-65.609
					c7.789-27.067,7.873-56.09-0.771-83.574"/>
				<path style="fill:none;stroke:#DEDEDE;stroke-miterlimit:10;" d="M-19.555,536.487c15.334-48.641,46.269-98.68,95.165-115.962
					c36.636-12.948,78.949-5.346,112.459,13.441c27.785,15.577,51.358,36.12,78.063,43.251c33.632,8.98,68.027-3.921,104.288-22.764
					c37.58-19.529,67.744-47.825,106.111-57.22c27.606-6.76,57.919-2.486,85.868,7.602c45.11,16.282,68.395,52.508,109.704,62.4
					c38.247,9.159,70.551,2.466,91.16-14.312c21.776-17.727,34.365-57.839,19.734-93.989c-9.982-24.664-21.802-51.096-36.853-76.147
					c-16.141-26.866-24.453-59.03-17.118-86.121c6.931-25.599,25.599-47.261,42.044-71.485
					c14.617-21.532,27.631-42.967,35.155-65.475c9.187-27.482,10.411-57.395,2.513-85.874"/>
				<path style="fill:none;stroke:#E3E3E3;stroke-miterlimit:10;" d="M-18.035,538.184c16.637-49.617,47.417-101.008,97.295-119.158
					c36.838-13.404,79.721-6.143,113.199,13.497c27.427,16.09,50.029,37.894,76.647,46.829
					c33.485,11.241,69.64,1.066,105.843-17.486c38.187-19.57,67.837-50.306,106.816-61.088c28.323-7.835,59.664-3.889,88.48,6.114
					c43.144,14.978,67.824,47.626,107.8,57.351c36.377,8.849,68.38,3.831,89.58-12.521c22.1-17.047,34.389-55.32,22.567-89.913
					c-8.595-25.15-19.756-51.585-34.477-76.477c-15.298-25.867-24.407-56.143-18.818-82.58c5.47-25.872,22.981-48.26,39.339-72.102
					c14.825-21.607,28.904-42.726,37.496-65.341c10.595-27.886,12.949-58.699,5.797-88.174"/>
				<path style="fill:none;stroke:#E9E9E9;stroke-miterlimit:10;" d="M-16.514,539.881c17.94-50.593,48.57-103.33,99.425-122.354
					c37.042-13.857,80.5-6.949,113.94,13.552c27.074,16.598,48.723,39.616,75.231,50.407c33.367,13.437,71.254,6.057,107.398-12.209
					c38.796-19.606,67.92-52.794,107.521-64.956c29.034-8.917,61.4-5.255,91.092,4.626c41.175,13.703,67.273,42.667,105.897,52.302
					c34.523,8.472,66.206,5.186,88-10.731c22.422-16.376,34.534-52.806,25.399-85.837c-7.095-25.652-17.716-52.071-32.101-76.807
					c-14.461-24.865-24.412-53.248-20.517-79.039c3.948-26.14,20.364-49.257,36.634-72.719
					c15.035-21.681,30.182-42.476,39.837-65.207c12.011-28.279,15.486-60.004,9.081-90.474"/>
				<path style="fill:none;stroke:#EEEEEE;stroke-miterlimit:10;" d="M-14.994,541.578c19.243-51.569,49.725-105.645,101.556-125.55
					c37.249-14.306,81.287-7.761,114.68,13.608c26.726,17.102,47.396,41.4,73.815,53.985c33.222,15.71,72.869,11.05,108.953-6.932
					c39.408-19.638,67.994-55.288,108.225-68.824c29.737-10.005,63.124-6.577,93.704,3.139
					c39.204,12.455,66.701,37.791,103.993,47.253c32.651,8.169,64.028,6.532,86.419-8.94c22.741-15.714,34.804-50.268,28.231-81.762
					c-5.459-26.154-15.684-52.553-29.725-77.136c-13.629-23.86-24.468-50.334-22.217-75.498
					c2.361-26.395,17.749-50.253,33.928-73.336c15.247-21.753,31.463-42.217,42.177-65.073
					c13.434-28.66,18.024-61.308,12.365-92.774"/>
				<path style="fill:none;stroke:#F4F4F4;stroke-miterlimit:10;" d="M-13.474,543.275C7.071,490.731,37.411,435.322,90.212,414.529
					c37.458-14.751,82.08-8.58,115.42,13.664c26.383,17.602,46.069,43.183,72.399,57.563c33.078,17.983,74.52,16.117,110.508-1.655
					c40.059-19.588,68.058-57.787,108.93-72.691c30.433-11.098,64.837-7.847,96.316,1.651
					c37.235,11.234,66.13,32.915,102.089,42.204c30.779,7.867,61.847,7.867,84.839-7.15c23.058-15.061,35.195-47.671,31.063-77.686
					c-3.666-26.634-13.66-53.03-27.35-77.465c-12.803-22.853-24.569-47.389-23.916-71.957c0.708-26.625,15.177-51.218,31.223-73.953
					c15.501-21.795,32.747-41.948,44.518-64.939c14.862-29.03,20.562-62.613,15.648-95.074"/>
				<path style="fill:none;stroke:#F9F9F9;stroke-miterlimit:10;" d="M-11.954,544.972c21.848-53.52,52.078-110.18,105.816-131.943
					c37.69-15.141,82.881-9.405,116.161,13.72c26.046,18.098,44.742,44.966,70.983,61.142
					c32.934,20.257,76.121,21.083,112.064,3.623c40.655-19.648,68.113-60.29,109.635-76.559
					c31.124-12.195,66.537-9.055,98.928,0.163c35.27,10.038,65.559,28.038,100.185,37.155c28.907,7.564,59.665,9.193,83.258-5.359
					c23.375-14.417,35.695-44.973,33.895-73.611c-1.701-27.062-11.646-53.503-24.974-77.795
					c-11.984-21.842-24.711-44.403-25.616-68.416c-1.01-26.818,12.546-52.224,28.517-74.57
					c15.699-21.876,34.033-41.672,46.859-64.805c16.294-29.389,23.1-63.917,18.932-97.374"/>
				<path style="fill:none;stroke:#FFFFFF;stroke-miterlimit:10;" d="M-10.434,546.669C12.717,492.173,42.781,434.117,97.513,411.53
					c37.882-15.633,83.69-10.236,116.901,13.775c25.715,18.591,43.415,46.75,69.568,64.72c32.789,22.53,77.721,26.05,113.619,8.9
					c41.252-19.708,68.159-62.795,110.34-80.427c31.807-13.296,68.225-10.191,101.54-1.325
					c33.315,8.866,64.987,23.162,98.281,32.105c27.035,7.262,57.48,10.507,81.677-3.569c23.691-13.782,36.286-42.13,36.727-69.535
					c0.441-27.405-9.644-53.971-22.598-78.124c-11.172-20.83-24.886-41.364-27.315-64.875c-2.786-26.964,9.915-53.231,25.812-75.188
					c15.897-21.957,35.319-41.387,49.2-64.671c17.728-29.738,25.637-65.222,22.216-99.674"/>
			</g>
			<g>
				<path style="fill:none;stroke:#FFFFFF;stroke-miterlimit:10;" d="M386.037,749.649c-29.139-18.023-30.504-62.185-13.413-91.881
					c17.09-29.696,46.862-49.334,73.322-71.1c26.46-21.766,51.904-49.734,54.087-83.927c2.792-43.714-33.352-83.399-28.721-126.956
					c3.61-33.949,31.337-59.631,60.476-73.966c16.475-8.105,35.517-10.95,52.571-17.647c77.341-30.369,146.1,18.659,194.287-21.223
					c52.176-43.184,49.517-91.508,39.875-115.324c-12.35-30.505-53.715-98.066-135.159-79.453
					c-33.086,7.561-67.04,13.991-100.914,11.89c-50.715-3.145-100.042-43.048-103.278-93.757
					c-2.218-34.754,15.812-70.901,3.263-103.386c-8.434-21.834-29.791-36.942-52.573-42.313
					c-22.782-5.372-46.809-2.142-69.326,4.248"/>
				<path style="fill:none;stroke:#FBFBFB;stroke-miterlimit:10;" d="M388.312,749.527c-29.083-19.65-31.725-64.603-14.57-95.543
					c16.744-30.2,46.8-50.328,73.829-71.642c26.71-21.062,52.462-47.583,55.989-80.582c4.473-42.177-28.478-81.535-23.633-124.862
					c3.937-34.452,29.671-60.975,57.902-76.939c16.218-9.171,35.421-13.413,53.048-20.615
					c74.726-30.528,141.941,16.05,189.159-22.903c50.767-41.914,49.336-88.998,40.281-112.97
					c-11.475-30.377-51.486-95.276-130.208-79.107c-32.454,6.666-66.138,12.073-99.682,9.832
					c-49.407-3.202-97.259-41.334-101.583-90.215c-2.992-33.819,13.379-69.481,1.087-101.664
					c-8.374-22.039-28.894-37.591-51.002-44.054c-22.313-6.523-46.236-4.938-69.062,0.248"/>
				<path style="fill:none;stroke:#F6F6F6;stroke-miterlimit:10;" d="M390.588,749.405c-29.028-21.277-32.938-67.013-15.727-99.206
					c16.41-30.694,46.731-51.327,74.336-72.184c26.952-20.364,53.021-45.431,57.891-77.236
					c6.155-40.64-23.703-79.683-18.545-122.768c4.185-34.964,28.01-62.361,55.329-79.911c15.967-10.258,35.323-15.869,53.524-23.582
					c72.143-30.575,137.783,13.44,184.031-24.582c49.359-40.644,49.151-86.482,40.686-110.616
					c-10.607-30.243-49.292-92.521-125.257-78.761c-31.841,5.767-65.237,10.154-98.451,7.774
					c-48.098-3.259-94.493-39.632-99.888-86.672c-3.773-32.895,10.946-68.061-1.089-99.942
					c-8.313-22.245-28.007-38.257-49.431-45.794c-21.855-7.689-45.663-7.733-68.797-3.753"/>
				<path style="fill:none;stroke:#F2F2F2;stroke-miterlimit:10;" d="M392.863,749.284c-28.972-22.904-34.143-69.416-16.883-102.869
					c16.087-31.181,46.655-52.329,74.844-72.726c27.186-19.672,53.58-43.279,59.793-73.891
					c7.836-39.103-18.868-77.824-13.458-120.674c4.478-35.471,26.347-63.788,52.756-82.884
					c15.719-11.366,35.224-18.315,54.001-26.55c69.591-30.521,133.624,10.83,178.903-26.261
					c47.95-39.375,48.961-83.961,41.092-108.263c-9.748-30.101-47.134-89.805-120.306-78.415
					c-31.246,4.864-64.328,8.141-97.219,5.716c-46.78-3.45-91.746-37.941-98.193-83.128c-4.563-31.982,8.438-66.612-3.265-98.22
					c-8.305-22.43-27.127-38.943-47.86-47.535c-21.408-8.872-45.09-10.528-68.533-7.753"/>
				<path style="fill:none;stroke:#EEEEEE;stroke-miterlimit:10;" d="M395.138,749.162c-28.916-24.53-35.339-71.813-18.04-106.532
					c15.775-31.66,46.572-53.336,75.351-73.269c27.412-18.986,54.139-41.128,61.695-70.546c9.518-37.567-14.027-75.965-8.37-118.58
					c4.776-35.978,24.676-65.254,50.183-85.856c15.47-12.495,35.125-20.752,54.478-29.518
					c67.07-30.379,129.465,8.221,173.775-27.941c46.542-38.105,48.766-81.434,41.497-105.909
					c-8.896-29.953-45.013-87.136-115.355-78.069c-30.672,3.953-63.424,6.195-95.987,3.658
					c-45.468-3.543-89.021-36.262-96.497-79.586c-5.363-31.081,5.986-65.186-5.441-96.498
					c-8.259-22.631-26.252-39.648-46.289-49.275c-20.967-10.074-44.517-13.324-68.268-11.754"/>
				<path style="fill:none;stroke:#E9E9E9;stroke-miterlimit:10;" d="M397.413,749.041c-28.861-26.157-36.526-74.203-19.197-110.195
					c15.472-32.133,46.483-54.349,75.858-73.811c27.631-18.306,54.755-38.958,63.597-67.201
					c11.273-36.007-9.18-74.106-3.283-116.486c5.077-36.485,22.994-66.756,47.61-88.829c15.215-13.644,35.026-23.18,54.955-32.486
					c64.577-30.157,125.306,5.611,168.647-29.62c45.133-36.836,48.566-78.903,41.903-103.555
					c-8.054-29.799-42.93-84.52-110.404-77.724c-30.118,3.033-62.52,4.251-94.756,1.599c-44.156-3.632-86.322-34.593-94.802-76.042
					c-6.177-30.191,3.537-63.76-7.617-94.776c-8.211-22.832-25.377-40.374-44.718-51.016
					c-20.529-11.295-43.944-16.119-68.003-15.754"/>
				<path style="fill:none;stroke:#E5E5E5;stroke-miterlimit:10;" d="M399.688,748.919c-28.805-27.784-37.705-76.588-20.353-113.858
					c15.178-32.601,46.386-55.368,76.366-74.353c27.844-17.633,55.321-36.8,65.499-63.855c12.964-34.462-4.328-72.247,1.805-114.392
					c5.383-36.992,21.297-68.288,45.037-91.801c14.953-14.81,34.93-25.597,55.431-35.454c62.11-29.863,121.148,3.002,163.518-31.299
					c43.725-35.566,48.358-76.368,42.308-101.202c-7.221-29.64-40.884-81.964-105.453-77.378
					c-29.585,2.102-61.615,2.309-93.524-0.459c-42.844-3.717-83.65-32.934-93.107-72.499c-7.006-29.311,1.091-62.336-9.793-93.054
					c-8.161-23.034-24.5-41.12-43.147-52.756c-20.09-12.536-43.37-18.914-67.739-19.755"/>
				<path style="fill:none;stroke:#E1E1E1;stroke-miterlimit:10;" d="M401.964,748.797c-28.75-29.411-38.875-78.969-21.51-117.521
					c14.893-33.064,46.284-56.393,76.873-74.895c28.051-16.966,55.886-34.641,67.401-60.51c14.653-32.916,0.53-70.387,6.892-112.298
					c5.692-37.499,19.581-69.846,42.464-94.774c14.68-15.992,34.836-28.003,55.908-38.422c59.67-29.504,116.989,0.392,158.39-32.978
					c42.316-34.296,48.144-73.829,42.713-98.848c-6.398-29.475-39.756-87.697-100.502-77.032
					c-28.658,5.032-60.711,0.37-92.292-2.517c-41.533-3.797-81.01-31.283-91.412-68.956c-7.852-28.44-1.352-60.912-11.969-91.332
					c-8.11-23.236-23.618-41.886-41.576-54.497c-19.647-13.797-42.797-21.71-67.474-23.755"/>
				<path style="fill:none;stroke:#DCDCDC;stroke-miterlimit:10;" d="M404.239,748.676c-28.694-31.038-40.036-81.345-22.667-121.183
					c14.616-33.523,46.176-57.426,77.38-75.437c28.252-16.307,56.448-32.483,69.303-57.165
					c16.338-31.371,5.393-68.526,11.98-110.204c6.006-38.004,17.846-71.426,39.891-97.746c14.395-17.187,34.746-30.397,56.385-41.39
					c57.253-29.087,112.83-2.217,153.262-34.658c40.908-33.027,47.922-71.286,43.119-96.494
					c-5.584-29.307-37.641-85.975-95.551-76.686c-28.222,4.527-59.807-1.567-91.061-4.575
					c-40.221-3.872-78.406-29.638-89.716-65.413c-8.719-27.577-3.792-59.49-14.145-89.61c-8.057-23.439-22.729-42.67-40.005-56.237
					c-19.197-15.076-42.224-24.505-67.21-27.755"/>
				<path style="fill:none;stroke:#D8D8D8;stroke-miterlimit:10;" d="M406.514,748.554c-28.638-32.664-41.188-83.716-23.823-124.846
					c14.346-33.979,46.062-58.466,77.887-75.979c28.448-15.655,57.008-30.324,71.205-53.819
					c18.021-29.825,10.261-66.664,17.068-108.11c6.324-38.51,16.091-73.023,37.318-100.719
					c14.097-18.393,34.662-32.778,56.861-44.358c54.861-28.618,108.672-4.827,148.134-36.337
					c39.5-31.757,47.692-68.74,43.524-94.141c-4.781-29.135-35.49-84.171-90.6-76.34c-27.843,3.956-58.902-3.5-89.829-6.633
					c-38.91-3.942-75.839-27.995-88.021-61.87c-9.609-26.72-6.229-58.069-16.321-87.888c-8.002-23.643-21.83-43.469-38.434-57.978
					c-18.737-16.372-41.651-27.3-66.945-31.756"/>
				<path style="fill:none;stroke:#D4D4D4;stroke-miterlimit:10;" d="M408.789,748.433c-28.583-34.291-42.332-86.085-24.98-128.509
					c14.083-34.432,45.944-59.514,78.395-76.522c28.639-15.01,57.566-28.166,73.107-50.474
					c19.702-28.28,15.135-64.802,22.155-106.016c6.646-39.014,14.315-74.633,34.745-103.691
					c13.786-19.608,34.584-35.144,57.338-47.326c52.49-28.101,104.513-7.436,143.006-38.016
					c38.091-30.488,47.454-66.193,43.93-91.787c-3.988-28.961-33.305-82.276-85.649-75.994c-27.521,3.303-57.998-5.43-88.597-8.691
					c-37.599-4.007-73.313-26.35-86.326-58.327c-10.526-25.866-8.664-56.649-18.497-86.166
					c-7.944-23.848-20.92-44.282-36.863-59.718c-18.264-17.684-41.078-30.095-66.681-35.756"/>
				<path style="fill:none;stroke:#CFCFCF;stroke-miterlimit:10;" d="M411.064,748.311c-28.527-35.918-43.467-88.45-26.136-132.172
					c13.827-34.882,45.821-60.57,78.902-77.064c28.826-14.373,58.121-26.009,75.009-47.129
					c21.379-26.737,20.012-62.939,27.243-103.922c6.973-39.518,12.52-76.252,32.172-106.664
					c13.46-20.83,34.513-37.495,57.815-50.294c50.142-27.542,100.354-10.046,137.878-39.696
					c36.682-29.218,47.206-63.643,44.335-89.434c-3.205-28.785-31.148-70.395-80.698-75.648
					c-27.22-2.886-57.095-7.357-87.366-10.749c-36.288-4.067-70.829-24.7-84.63-54.784c-11.473-25.009-11.096-55.23-20.673-84.444
					c-7.885-24.054-19.998-45.105-35.292-61.459c-17.776-19.007-40.505-32.891-66.416-39.757"/>
				<path style="fill:none;stroke:#CBCBCB;stroke-miterlimit:10;" d="M413.339,748.189c-28.472-37.545-44.594-90.813-27.293-135.835
					c13.577-35.331,45.694-61.634,79.409-77.606c29.01-13.743,58.675-23.854,76.911-43.784
					c23.054-25.196,24.894-61.075,32.331-101.828c7.303-40.021,10.706-77.877,29.598-109.636
					c13.121-22.057,34.453-39.828,58.291-53.262c47.814-26.945,96.255-12.581,132.75-41.375c35.331-27.876,46.95-61.093,44.74-87.08
					c-2.432-28.608-29.263-68.379-75.747-75.302c-26.791-3.99-56.191-9.28-86.134-12.808c-34.979-4.121-68.39-23.039-82.935-51.241
					c-12.452-24.145-13.526-53.812-22.849-82.722c-7.823-24.26-19.062-45.937-33.721-63.199
					c-17.273-20.341-39.932-35.686-66.151-43.757"/>
				<path style="fill:none;stroke:#C7C7C7;stroke-miterlimit:10;" d="M415.615,748.068c-28.416-39.172-45.713-93.172-28.45-139.498
					c13.333-35.777,45.564-62.708,79.917-78.148c29.192-13.12,59.227-21.7,78.813-40.438c24.727-23.657,29.78-59.211,37.418-99.734
					c7.639-40.524,8.875-79.505,27.025-112.609c12.768-23.287,34.403-42.141,58.768-56.229
					c45.507-26.313,92.096-15.19,127.622-43.054c33.922-26.607,46.684-58.543,45.146-84.726
					c-1.67-28.43-27.379-66.477-70.796-74.957c-26.365-5.149-55.288-11.198-84.903-14.866c-33.669-4.17-65.995-21.36-81.24-47.698
					c-13.467-23.267-15.952-52.394-25.024-81c-7.76-24.467-18.114-46.773-32.15-64.94c-16.753-21.682-39.359-38.481-65.887-47.758"
					/>
				<path style="fill:none;stroke:#C2C2C2;stroke-miterlimit:10;" d="M417.89,747.946c-28.36-40.799-46.824-95.53-29.606-143.16
					c13.094-36.223,45.431-63.791,80.424-78.69c29.371-12.505,59.778-19.549,80.715-37.093
					c26.398-22.121,34.669-57.345,42.506-97.64c7.978-41.025,7.028-81.135,24.452-115.581
					c12.403-24.519,34.368-44.433,59.245-59.197c43.219-25.65,87.936-17.8,122.493-44.734
					c32.512-25.339,46.408-55.993,45.551-82.373c-0.917-28.254-25.48-64.691-65.845-74.611
					c-25.931-6.372-54.386-13.111-83.671-16.924c-32.36-4.213-63.643-19.657-79.545-44.155
					c-14.52-22.369-18.377-50.977-27.201-79.277c-7.693-24.674-17.152-47.614-30.579-66.68
					c-16.217-23.029-38.786-41.277-65.622-51.758"/>
				<path style="fill:none;stroke:#BEBEBE;stroke-miterlimit:10;" d="M420.165,747.825c-28.305-42.425-47.926-97.886-30.763-146.823
					c12.86-36.667,45.294-64.883,80.931-79.233c29.548-11.897,60.328-17.4,82.616-33.748c28.069-20.587,39.563-55.479,47.593-95.546
					c8.322-41.525,5.166-82.763,21.879-118.554c12.026-25.752,34.348-46.701,59.721-62.165
					c40.952-24.959,83.775-20.412,117.365-46.413c31.1-24.073,46.122-53.444,45.957-80.019
					c-0.174-28.079-23.552-63.021-60.894-74.265c-25.478-7.671-53.484-15.019-82.439-18.982
					c-31.053-4.251-61.33-17.923-77.849-40.612c-15.61-21.44-20.798-49.562-29.376-77.556
					c-7.625-24.883-16.179-48.455-29.008-68.421c-15.665-24.378-38.213-44.072-65.358-55.758"/>
				<path style="fill:none;stroke:#BABABA;stroke-miterlimit:10;" d="M422.44,747.703c-28.249-44.052-49.022-100.24-31.92-150.486
					c12.631-37.11,45.157-65.986,81.438-79.775c29.724-11.297,60.878-15.254,84.518-30.402c29.74-19.057,44.46-53.611,52.681-93.452
					c8.671-42.024,3.29-84.39,19.306-121.526c11.638-26.984,34.348-48.94,60.198-65.133c38.704-24.244,79.612-23.026,112.237-48.092
					c29.687-22.809,45.826-50.897,46.362-77.665c0.559-27.905-21.573-61.461-55.943-73.919c-24.988-9.057-52.584-16.92-81.208-21.04
					c-29.746-4.282-59.05-16.15-76.154-37.069c-16.738-20.472-23.217-48.146-31.552-75.833
					c-7.553-25.092-15.194-49.296-27.437-70.161c-15.098-25.729-37.639-46.867-65.093-59.759"/>
				<path style="fill:none;stroke:#B5B5B5;stroke-miterlimit:10;" d="M424.715,747.581
					c-28.194-45.679-50.109-102.592-33.076-154.149c12.406-37.553,45.017-67.097,81.946-80.317
					c29.898-10.703,61.402-13.157,86.42-27.057c31.377-17.589,49.361-51.743,57.768-91.358
					c9.024-42.522,1.403-86.014,16.733-124.499c11.239-28.216,34.371-51.149,60.675-68.101
					c36.476-23.508,75.402-25.703,107.109-49.772c28.231-21.6,45.52-48.353,46.767-75.312c1.283-27.736-19.523-60-50.992-73.573
					c-24.439-10.541-51.684-18.814-79.976-23.098c-28.44-4.307-56.797-14.332-74.459-33.526
					c-17.901-19.454-25.634-46.731-33.728-74.111c-7.479-25.301-14.198-50.135-25.866-71.902
					c-14.516-27.078-37.066-49.662-64.829-63.759"/>
				<path style="fill:none;stroke:#B1B1B1;stroke-miterlimit:10;" d="M426.99,747.46c-28.138-47.306-51.189-104.943-34.233-157.812
					c12.186-37.995,44.877-68.219,82.453-80.859c30.073-10.116,61.961-11.005,88.322-23.712
					c33.059-16.052,54.265-49.873,62.856-89.263c9.382-43.019-0.495-87.634,14.16-127.471
					c10.832-29.446,34.421-53.321,61.151-71.069c34.269-22.753,71.243-28.313,101.981-51.451
					c26.823-20.331,45.205-45.813,47.173-72.958c1.999-27.569-17.376-58.62-46.041-73.227c-23.805-12.13-50.787-20.7-78.745-25.156
					c-27.136-4.326-54.56-12.464-72.764-29.983c-19.094-18.377-28.049-45.317-35.904-72.389
					c-7.403-25.512-13.193-50.972-24.296-73.642c-13.922-28.426-36.493-52.458-64.564-67.76"/>
				<path style="fill:none;stroke:#ADADAD;stroke-miterlimit:10;" d="M429.266,747.338
					c-28.083-48.932-52.262-107.293-35.389-161.475c11.97-38.437,44.736-69.35,82.96-81.401c30.248-9.536,62.52-8.854,90.224-20.367
					c34.74-14.515,59.248-47.985,67.943-87.169c9.829-43.495-2.403-89.249,11.587-130.444
					c10.417-30.673,34.504-55.451,61.628-74.037c32.083-21.983,67.085-30.923,96.853-53.13
					c25.415-19.061,44.879-43.277,47.578-70.605c2.707-27.408-15.107-57.297-41.09-72.881
					c-23.055-13.828-49.891-22.576-77.513-27.215c-25.833-4.338-52.329-10.539-71.068-26.44
					c-20.309-17.232-30.412-43.917-38.08-70.667c-7.276-25.736-12.179-51.805-22.725-75.383
					c-13.315-29.771-35.92-55.253-64.299-71.76"/>
				<path style="fill:none;stroke:#A8A8A8;stroke-miterlimit:10;" d="M431.541,747.217c-28.027-50.559-53.25-109.618-36.546-165.137
					c11.812-38.862,44.595-70.492,83.467-81.944c30.424-8.963,63.079-6.702,92.126-17.021
					c36.421-12.979,64.122-46.122,73.031-85.075c10.156-43.997-4.319-90.86,9.014-133.417c9.994-31.899,34.627-57.534,62.105-77.005
					c29.921-21.202,62.926-33.532,91.725-54.809c24.006-17.792,44.545-40.745,47.984-68.251
					c3.407-27.251-12.69-55.997-36.139-72.536C796.15-23.607,769.31-32.42,742.027-37.251c-24.532-4.344-50.09-8.557-69.373-22.897
					c-21.536-16.015-32.845-42.497-40.256-68.945c-7.215-25.941-11.158-52.633-21.154-77.123
					c-12.698-31.112-35.347-58.048-64.035-75.761"/>
				<path style="fill:none;stroke:#A4A4A4;stroke-miterlimit:10;" d="M433.816,747.095c-27.972-52.186-54.387-111.99-37.703-168.8
					c11.548-39.321,44.454-71.643,83.975-82.486c30.6-8.395,63.637-4.55,94.028-13.676c38.103-11.442,68.996-44.258,78.119-82.981
					c10.483-44.5-6.242-92.466,6.441-136.389c9.564-33.121,34.8-59.561,62.582-79.973s58.767-36.142,86.597-56.489
					c22.598-16.522,44.201-38.219,48.389-65.897c4.101-27.1-10.104-54.677-31.188-72.19c-21.084-17.513-48.108-26.296-75.05-31.331
					c-23.234-4.342-47.831-6.518-67.678-19.354c-22.762-14.722-35.278-41.076-42.432-67.223
					c-7.154-26.147-10.131-53.457-19.583-78.864c-12.072-32.449-34.774-60.844-63.77-79.761"/>
			</g>
		</g>
	</g>
</g>
</svg>
