<?xml version="1.0" encoding="utf-8"?>
<!-- Generator: Adobe Illustrator 26.3.1, SVG Export Plug-In . SVG Version: 6.00 Build 0)  -->
<svg version="1.1" xmlns="http://www.w3.org/2000/svg" xmlns:xlink="http://www.w3.org/1999/xlink" x="0px" y="0px"
	 viewBox="0 0 720 720" style="enable-background:new 0 0 720 720;" xml:space="preserve">
<style type="text/css">
	.st0{fill:#1B75BB;}
	.st1{fill:none;}
	.st2{font-family:'Exo-Regular';}
	.st3{font-size:48px;}
</style>
<g id="iconeNew_xA0_Image_00000091006924810887645620000001233755328096048036_">
	<path class="st0" d="M360.2,73.5c-157.4,0-285,127.6-285,285s127.6,285,285,285c0-18,0-46.1,0-77.8c0,0,0,0,0,0c-0.2,0-0.4,0-0.5,0
		c-114.9,0-208.1-93.2-208.1-208.1c0-114.9,93.2-208.1,208.1-208.1s208.1,93.2,208.1,208.1c0,9.7-0.9,19.2-2.2,28.5
		c26.6,0.1,52.8,0.3,76.8,0.8c1.4-10.3,2.4-18.4,2.8-28.4C645.2,201.1,517.6,73.5,360.2,73.5z"/>
	<rect x="345.4" y="168" class="st0" width="28.5" height="202.9"/>
	<rect x="345.4" y="360" class="st0" width="154.8" height="26.7"/>
</g>
<g id="leantime.io">
	<path id="SVGID_x5F_1_x5F_" class="st1" d="M360.2,73.5C513.5,86.6,644,184.8,644.6,340.7c0.5,139-136.7,302.7-299.2,302.7
		c-122.1,0-270.2-91.5-270.2-315.1C75.2,225.5,201.8,73.5,360.2,73.5z"/>
	<text class="st0 st2 st3">	<textPath  xlink:href="#SVGID_x5F_1_x5F_" startOffset="41.8143%">
leantime.io	</textPath>
</text>
</g>
</svg>
